<svg xmlns="http://www.w3.org/2000/svg" xmlns:xlink="http://www.w3.org/1999/xlink" height="53.027" width="36.455" viewBox="0 0 36.455 53.027"><defs><clipPath id="A"><path d="M150.012 224.65a3.73 3.73 0 0 1 3.73-3.729 3.73 3.73 0 0 1 3.727 3.729 3.73 3.73 0 0 1-3.727 3.729 3.73 3.73 0 0 1-3.73-3.729"/></clipPath><radialGradient id="B" spreadMethod="pad" gradientTransform="matrix(2.6364498,-2.6364498,2.6364498,2.6364498,151.8765,226.01619)" r="1" cy="0" cx="0" fy="0" fx="0" xlink:href="#U"><stop offset="0" stop-color="#0069a3"/><stop offset="1" stop-color="#004269"/></radialGradient><clipPath id="C"><path d="M146.832 214.68c2.502-.26 4.454-2.375 4.454-4.946v-12.428h4.97v7.457c0 5.313-4.17 9.64-9.417 9.917z"/></clipPath><linearGradient id="D" spreadMethod="pad" y2="197.264" x2="151.54" y1="214.339" x1="151.54" xlink:href="#U"><stop offset="0" stop-color="#0069a3"/><stop offset="1" stop-color="#004269"/></linearGradient><clipPath id="E"><path d="M141.344 219.676v-4.97h4.97l.508-.025c5.254-.268 9.434-4.6 9.434-9.918v4.97c0 5.492-4.452 9.94-9.942 9.94z"/></clipPath><linearGradient id="F" spreadMethod="pad" y2="197.264" x2="148.801" y1="214.339" x1="148.801" xlink:href="#U"><stop offset="0" stop-color="#0069a3"/><stop offset="1" stop-color="#004269"/></linearGradient><clipPath id="G"><path d="M141.344 219.676v-4.97h4.97l.508-.025c5.254-.268 9.434-4.6 9.434-9.918v4.97c0 5.492-4.452 9.94-9.942 9.94z"/></clipPath><linearGradient id="H" spreadMethod="pad" y2="219.606" x2="148.801" y1="214.458" x1="148.801" xlink:href="#U"><stop offset="0" stop-color="#004269"/><stop offset=".116" stop-color="#004770"/><stop offset="1" stop-color="#0069a3"/></linearGradient><clipPath id="I"><path d="M138.858 207.248h9.942v4.973h-9.942z"/></clipPath><linearGradient id="J" spreadMethod="pad" y2="209.735" x2="148.644" y1="209.735" x1="139.024" xlink:href="#U"><stop offset="0" stop-color="#077c60"/><stop offset="1" stop-color="#21ae88"/></linearGradient><clipPath id="K"><path d="M156.257 214.707h9.942v4.97h-9.942z"/></clipPath><linearGradient id="L" spreadMethod="pad" y2="217.192" x2="166.148" y1="217.192" x1="156.32" xlink:href="#U"><stop offset="0" stop-color="#fbdb65"/><stop offset="1" stop-color="#ffce06"/></linearGradient><clipPath id="M"><path d="M143.83 204.764v-6.214c0-2.574-1.956-4.69-4.464-4.946 5.256.267 9.436 4.597 9.436 9.917v1.243z"/></clipPath><linearGradient id="N" spreadMethod="pad" y2="194.904" x2="144.083" y1="204.722" x1="144.083" xlink:href="#U"><stop offset="0" stop-color="#004269"/><stop offset="1" stop-color="#0069a3"/></linearGradient><clipPath id="O"><path d="M139.365 193.604c-.166-.018-.336-.026-.507-.026v-4.97c5.5 0 9.943 4.45 9.943 9.942v4.97c0-5.32-4.18-9.65-9.436-9.917"/></clipPath><linearGradient id="P" spreadMethod="pad" y2="194.904" x2="143.829" y1="204.722" x1="143.829" xlink:href="#U"><stop offset="0" stop-color="#004269"/><stop offset="1" stop-color="#0069a3"/></linearGradient><clipPath id="Q"><path d="M139.365 193.604c-.166-.018-.336-.026-.507-.026v-4.97c5.5 0 9.943 4.45 9.943 9.942v4.97c0-5.32-4.18-9.65-9.436-9.917"/></clipPath><linearGradient id="R" spreadMethod="pad" y2="194.988" x2="143.829" y1="188.648" x1="143.829" xlink:href="#U"><stop offset="0" stop-color="#0069a3"/><stop offset=".442" stop-color="#005281"/><stop offset="1" stop-color="#004269"/></linearGradient><path id="S" d="M141.344 219.676v-4.97h4.97l.508-.025c5.254-.268 9.434-4.6 9.434-9.918v4.97c0 5.492-4.452 9.94-9.942 9.94z"/><path id="T" d="M139.365 193.604c-.166-.018-.336-.026-.507-.026v-4.97c5.5 0 9.943 4.45 9.943 9.942v4.97c0-5.32-4.18-9.65-9.436-9.917"/><linearGradient id="U" gradientUnits="userSpaceOnUse"/></defs><g transform="matrix(1.333333 0 0 -1.333333 -185.144 304.50399)"><g clip-path="url(#A)"><path d="M150.012 224.65a3.73 3.73 0 0 1 3.73-3.729 3.73 3.73 0 0 1 3.727 3.729 3.73 3.73 0 0 1-3.727 3.729 3.73 3.73 0 0 1-3.73-3.729" fill="url(#B)"/></g><g clip-path="url(#C)"><path d="M146.832 214.68c2.502-.26 4.454-2.375 4.454-4.946v-12.428h4.97v7.457c0 5.313-4.17 9.64-9.417 9.917z" fill="url(#D)"/></g><g clip-path="url(#E)"><use xlink:href="#S" fill="url(#F)"/></g><g clip-path="url(#G)"><use xlink:href="#S" fill="url(#H)"/></g><g clip-path="url(#I)"><path d="M138.858 207.248h9.942v4.973h-9.942z" fill="url(#J)"/></g><g clip-path="url(#K)"><path d="M156.257 214.707h9.942v4.97h-9.942z" fill="url(#L)"/></g><g clip-path="url(#M)"><path d="M143.83 204.764v-6.214c0-2.574-1.956-4.69-4.464-4.946 5.256.267 9.436 4.597 9.436 9.917v1.243z" fill="url(#N)"/></g><g clip-path="url(#O)"><use xlink:href="#T" fill="url(#P)"/></g><g clip-path="url(#Q)"><use xlink:href="#T" fill="url(#R)"/></g></g></svg>