<svg xmlns="http://www.w3.org/2000/svg" height="53.027" width="88.657" viewBox="0 0 88.657 53.027"><g transform="matrix(1.333333 0 0 -1.333333 -553.59719 430.44372)"><path d="M430.08 315.376a3.73 3.73 0 0 1 3.729 3.729 3.73 3.73 0 0 1-3.729 3.728 3.73 3.73 0 0 1-3.729-3.728 3.73 3.73 0 0 1 3.729-3.729m-7.425-1.243h-4.972v-4.97h4.972l.508-.025c2.507-.255 4.463-2.372 4.463-4.945v-12.43h4.97v12.43c0 5.5-4.45 9.94-9.942 9.94" fill="#004269"/><path d="M415.2 301.705h9.942v4.97H415.2z" fill="#077c60"/><path d="M432.598 309.162h9.942v4.97h-9.942z" fill="#ffce06"/><path d="M420.17 293.005c0-2.573-1.956-4.7-4.463-4.945-.167-.018-.337-.027-.508-.027v-4.97c5.492 0 9.943 4.452 9.943 9.942v6.215h-4.972zm31.448-1.325v20.166h-4.136v2.276h10.74v-2.276h-4.136V291.68zm18.018 17.056v-.6h-2.373v.737c0 2.02-.77 3.206-2.564 3.206s-2.565-1.187-2.565-3.174c0-5.034 7.534-5.514 7.534-11.83 0-3.397-1.635-5.6-5.065-5.6s-5.034 2.212-5.034 5.6v1.283h2.34v-1.4c0-2.02.834-3.206 2.63-3.206s2.63 1.187 2.63 3.206c0 5.002-7.503 5.483-7.503 11.8 0 3.462 1.603 5.6 4.97 5.6 3.398 0 5-2.212 5-5.6m5.45-17.058v20.166h-4.136v2.276h10.74v-2.276h-4.136V291.68z" fill="#004269"/></g></svg>