<svg xmlns="http://www.w3.org/2000/svg" xmlns:xlink="http://www.w3.org/1999/xlink" height="53.027" width="186.136" viewBox="0 0 186.136 53.027"><defs><clipPath id="A"><path d="M103.16 424.754c-.054-.27-.08-.544-.08-.823 0-.297.027-.582.08-.85h2.416v-8.034l.534-.054.493-.014.473.02.486.047v8.034h2.416c.054.27.08.554.08.85 0 .28-.027.553-.08.823z"/></clipPath><linearGradient id="B" spreadMethod="pad" y2="425.092" x2="156.559" y1="411.778" x1="156.559" xlink:href="#t"><stop offset="0" stop-color="#004269"/><stop offset="1" stop-color="#0069a3"/></linearGradient><clipPath id="C"><path d="M112.637 421.777c-.288-.22-.53-.47-.73-.75l-.034.236-.047.284-.06.27c-.023.086-.048.15-.075.197l-.385.067a3.07 3.07 0 0 1-.398.026c-.144 0-.276-.006-.398-.02l-.385-.06v-6.995l.493-.054.465-.013.473.013a4.43 4.43 0 0 1 .486.054v3.322c0 .485.057.864.17 1.134s.255.473.425.608a1.18 1.18 0 0 0 .54.25c.19.03.36.048.514.048h.222a1.85 1.85 0 0 0 .331-.028 3.54 3.54 0 0 1 .074.513l.02.5-.014.364a2.85 2.85 0 0 1-.04.31c-.054.02-.14.032-.257.042l-.3.012c-.433 0-.792-.11-1.08-.33"/></clipPath><clipPath id="D"><path d="M116.14 425.07l-.493-.06a5.37 5.37 0 0 1-.081-.905 5.21 5.21 0 0 1 .081-.905 4.06 4.06 0 0 1 .5-.053l.486-.015.493.015a4.03 4.03 0 0 1 .492.053 4.03 4.03 0 0 1 .054.46l.014.445-.014.453c-.01.147-.027.3-.054.452-.153.027-.32.047-.5.06l-.5.02c-.144 0-.304-.008-.48-.02m-1.114-3.044c-.054-.234-.08-.472-.08-.715a3.5 3.5 0 0 1 .02-.373c.014-.13.034-.254.06-.37h.905v-5.522c.324-.054.634-.08.93-.08.306 0 .62.027.945.08v6.98z"/></clipPath><clipPath id="E"><path d="M119.672 424.916v-9.64c.17-.063.36-.12.567-.17l.648-.12.67-.075.628-.027c.62 0 1.18.087 1.674.263s.913.425 1.256.75a3.18 3.18 0 0 1 .782 1.182c.18.464.27.988.27 1.573 0 .602-.073 1.125-.216 1.566s-.342.808-.594 1.1a2.37 2.37 0 0 1-.899.654c-.346.145-.722.216-1.127.216s-.765-.078-1.08-.236-.54-.358-.675-.6v3.565a5.83 5.83 0 0 1-.959.081c-.306 0-.62-.027-.945-.08m2.248-8.425a1.38 1.38 0 0 0-.344.068v2.538c0 .513.115.888.344 1.127s.524.358.885.358c.494 0 .845-.17 1.053-.506s.31-.83.31-1.48c0-.73-.168-1.265-.5-1.607s-.793-.512-1.378-.512l-.37.013"/></clipPath><clipPath id="F"><path d="M131.743 422.027v-5.468c-.225-.064-.504-.096-.837-.096-.243 0-.455.03-.635.088a1 1 0 0 0-.452.297c-.122.14-.212.328-.27.567s-.088.543-.088.912v3.7c-.324.054-.644.08-.96.08s-.634-.026-.958-.08v-3.754c0-.747.094-1.345.284-1.795s.443-.792.762-1.027.69-.387 1.114-.46.864-.108 1.323-.108a7.49 7.49 0 0 1 1.479.142c.473.094.853.19 1.14.3v6.71c-.325.054-.643.08-.958.08-.307 0-.62-.026-.946-.08"/></clipPath><clipPath id="G"><path d="M138.494 422.087a2.31 2.31 0 0 1-.56-.263 2.39 2.39 0 0 1-.439-.364 3.2 3.2 0 0 1-.324-.406l-.034.23-.047.276-.06.27c-.023.085-.047.15-.074.196l-.365.06c-.117.014-.252.02-.405.02s-.292-.006-.418-.02-.252-.034-.378-.06v-6.98c.324-.054.643-.08.958-.08a5.83 5.83 0 0 1 .959.081v3.66c0 .378.04.684.12.918s.188.417.318.546.276.22.438.264.32.068.473.068c.37 0 .628-.13.776-.392s.224-.634.224-1.12v-3.943c.324-.054.643-.08.958-.08a5.84 5.84 0 0 1 .959.081v4.456c0 .927-.2 1.606-.602 2.04s-.997.647-1.79.647c-.252 0-.48-.033-.688-.1"/></clipPath><clipPath id="H"><path d="M144.57 422.095c-.396-.064-.792-.162-1.188-.298 0-.288.03-.536.094-.743s.158-.427.284-.66c.55.188 1.067.282 1.552.282.225 0 .43-.013.615-.04a1.22 1.22 0 0 0 .466-.156.81.81 0 0 0 .297-.317c.072-.135.108-.3.108-.526v-.162l-.865.04c-.36 0-.72-.038-1.08-.115s-.686-.202-.978-.378-.532-.41-.716-.702-.277-.654-.277-1.087.075-.797.223-1.094a1.88 1.88 0 0 1 .635-.728c.274-.2.603-.325.985-.406s.804-.12 1.263-.12c.567 0 1.076.046 1.526.136l1.147.282v4.05c0 1-.263 1.7-.79 2.16s-1.258.675-2.194.675c-.343 0-.712-.03-1.108-.093m1.06-5.706a1.5 1.5 0 0 0-.446.108c-.14.058-.26.15-.357.277s-.148.306-.148.54c0 .352.127.605.384.763s.605.237 1.047.237a3.67 3.67 0 0 0 .337-.02l.35-.048v-1.783l-.35-.06c-.135-.023-.27-.034-.405-.034l-.412.02"/></clipPath><clipPath id="I"><path d="M150.308 424.916v-7.507c0-.865.2-1.487.628-1.87s.974-.574 1.667-.574l.56.027a2.67 2.67 0 0 1 .52.094c.018.072.027.137.027.196v.197a4.17 4.17 0 0 1-.149 1.08c-.08-.02-.164-.033-.25-.042s-.164-.012-.236-.012c-.162 0-.297.017-.405.054a.51.51 0 0 0-.263.195c-.068.094-.117.227-.15.398s-.047.397-.047.675v7.09c-.324.054-.64.08-.945.08a5.83 5.83 0 0 1-.959-.081"/></clipPath><clipPath id="J"><path d="M159.436 424.734c-.405-.122-.752-.3-1.04-.54a2.4 2.4 0 0 1-.668-.884c-.158-.35-.237-.756-.237-1.215 0-.38.048-.702.142-.973a2.08 2.08 0 0 1 .398-.695c.17-.194.38-.36.62-.5s.517-.267.824-.384l.824-.31.472-.196c.153-.066.3-.15.412-.25a1.19 1.19 0 0 0 .298-.364c.075-.145.114-.324.114-.54 0-.433-.162-.754-.486-.966s-.77-.318-1.337-.318c-.378 0-.733.038-1.066.116a7.19 7.19 0 0 0-1.068.343l-.256-.857c-.072-.283-.122-.556-.15-.817l.648-.23a5.95 5.95 0 0 1 .629-.155 6.1 6.1 0 0 1 .668-.088l.797-.027c.603 0 1.137.076 1.6.23s.852.366 1.167.635.557.595.723.973.25.795.25 1.255c0 .44-.053.812-.162 1.114a2.25 2.25 0 0 1-.451.769c-.194.212-.43.4-.7.535s-.59.282-.93.417l-.8.31-.405.17a1.59 1.59 0 0 0-.365.216c-.108.085-.193.19-.256.3s-.095.272-.095.452c0 .226.04.408.122.547a.83.83 0 0 0 .31.317c.126.073.268.123.426.15a2.64 2.64 0 0 0 .465.041 6.15 6.15 0 0 0 .675-.034l.534-.088a3.37 3.37 0 0 0 .446-.134l.412-.163c.233.504.378 1.018.432 1.54a9.66 9.66 0 0 1-1.263.352c-.4.08-.83.12-1.3.12-.504 0-.958-.06-1.363-.182"/></clipPath><clipPath id="K"><path d="M169.21 422.027v-5.468c-.225-.064-.504-.096-.837-.096-.243 0-.455.03-.635.088a1 1 0 0 0-.452.297c-.122.14-.212.328-.27.567s-.088.543-.088.912v3.7c-.324.054-.644.08-.96.08s-.635-.026-.96-.08v-3.754c0-.747.095-1.345.285-1.795s.443-.792.762-1.027.69-.387 1.114-.46.864-.108 1.323-.108c.513 0 1.006.047 1.48.142s.852.19 1.14.3v6.71c-.324.054-.643.08-.958.08a5.74 5.74 0 0 1-.945-.08"/></clipPath><clipPath id="L"><path d="M175.88 422.087c-.207-.067-.395-.154-.56-.263a1.92 1.92 0 0 1-.425-.371 2.78 2.78 0 0 1-.297-.426l-.034.236-.054.292-.068.276c-.022.085-.046.15-.073.196-.26.054-.518.08-.77.08-.153 0-.3-.003-.412-.012s-.245-.027-.37-.055v-10.195l.493-.054.466-.013.465.013c.157.01.322.028.493.054v3.106c.1-.018.223-.033.372-.047s.3-.02.452-.02c.594 0 1.125.087 1.593.263s.865.425 1.19.75.57.718.742 1.182.257.988.257 1.573c0 .602-.07 1.125-.2 1.566s-.336.808-.587 1.1a2.4 2.4 0 0 1-.885.654c-.337.145-.7.216-1.087.216-.252 0-.48-.033-.688-.1m-1.148-5.556v2.377c0 .225.023.436.068.634a1.54 1.54 0 0 0 .216.52c.1.15.226.266.384.35s.35.13.574.13c.243 0 .448-.05.615-.148s.303-.235.41-.406a1.74 1.74 0 0 0 .23-.614 4.21 4.21 0 0 0 .067-.777c0-.73-.148-1.274-.445-1.633s-.725-.54-1.283-.54c-.315 0-.594.035-.837.107"/></clipPath><clipPath id="M"><path d="M182.382 421.898c-.418-.193-.77-.457-1.053-.8a3.38 3.38 0 0 1-.641-1.174c-.144-.45-.216-.933-.216-1.445a4.77 4.77 0 0 1 .209-1.444c.14-.44.356-.823.648-1.14s.67-.57 1.134-.75 1.02-.27 1.668-.27c.882 0 1.674.136 2.376.405-.01.288-.05.56-.122.81s-.157.467-.256.647c-.288-.107-.592-.192-.91-.25a5.26 5.26 0 0 0-.939-.087c-.558 0-1.008.12-1.35.364s-.532.635-.568 1.175h4.482a3.71 3.71 0 0 1 .048.398l.02.507c0 .467-.068.907-.202 1.315s-.335.765-.6 1.062-.588.53-.966.702-.8.255-1.295.255c-.56 0-1.047-.096-1.466-.3m.412-1.546c.235.252.576.378 1.026.378.396 0 .704-.133.925-.4s.34-.613.358-1.045h-2.728c.045.46.186.814.42 1.066"/></clipPath><clipPath id="N"><path d="M190.936 421.777c-.288-.22-.53-.47-.73-.75l-.033.236-.048.284-.06.27c-.024.086-.048.15-.075.197l-.385.067a3.08 3.08 0 0 1-.398.026c-.144 0-.277-.006-.4-.02l-.384-.06v-6.995l.492-.054.466-.013.473.013a4.46 4.46 0 0 1 .486.054v3.322c0 .485.056.864.17 1.134s.254.473.425.608.35.218.54.25a3.33 3.33 0 0 0 .513.048h.223a1.86 1.86 0 0 0 .331-.028 3.68 3.68 0 0 1 .074.513l.02.5-.013.364-.04.3c-.055.02-.14.032-.258.042l-.3.012c-.432 0-.792-.11-1.08-.33"/></clipPath><clipPath id="O"><path d="M194.44 425.07l-.494-.06c-.053-.316-.08-.617-.08-.905a5.31 5.31 0 0 1 .081-.905 4.08 4.08 0 0 1 .5-.053l.487-.015.492.015c.177.008.34.027.493.053a4.03 4.03 0 0 1 .054.46l.014.445-.014.453c-.01.147-.027.3-.054.452-.153.027-.32.047-.5.06l-.5.02c-.144 0-.304-.008-.48-.02m-1.115-3.044c-.053-.234-.08-.472-.08-.715 0-.118.008-.242.02-.373a3.16 3.16 0 0 1 .06-.371h.906v-5.522c.324-.054.634-.08.93-.08.306 0 .62.027.945.08v6.98z"/></clipPath><clipPath id="P"><path d="M199.476 421.905a2.89 2.89 0 0 1-1.04-.776 3.37 3.37 0 0 1-.621-1.168 4.84 4.84 0 0 1-.209-1.445c0-.514.07-1 .21-1.432s.347-.825.62-1.154.62-.585 1.04-.77.91-.277 1.48-.277 1.062.093 1.485.277.774.44 1.053.77.486.713.62 1.154.202.918.202 1.432-.067.995-.202 1.445-.342.838-.62 1.168-.63.587-1.053.776-.918.283-1.485.283-1.06-.093-1.48-.283m.405-5.003c-.22.374-.33.912-.33 1.614s.11 1.24.33 1.614.58.56 1.074.56c.504 0 .865-.188 1.087-.56s.33-.912.33-1.614-.11-1.24-.33-1.614-.583-.56-1.087-.56c-.495 0-.853.186-1.074.56"/></clipPath><clipPath id="Q"><path d="M208.34 421.777a3.47 3.47 0 0 1-.729-.75l-.034.236-.047.284-.06.27c-.023.086-.047.15-.075.197l-.384.067c-.13.017-.264.026-.398.026a3.51 3.51 0 0 1-.399-.02l-.385-.06v-6.995l.493-.054.466-.013.473.013c.162.01.324.027.485.054v3.322c0 .485.057.864.17 1.134s.255.473.426.608.35.218.54.25a3.33 3.33 0 0 0 .513.048h.222a1.86 1.86 0 0 0 .332-.028 3.68 3.68 0 0 1 .074.513l.02.5-.013.364a2.61 2.61 0 0 1-.041.31c-.054.02-.14.032-.256.042l-.31.012c-.432 0-.792-.11-1.08-.33"/></clipPath><clipPath id="R"><path d="M108.35 411.927l-.48-.055V409a2.69 2.69 0 0 1-.506.089l-.506.02a3.64 3.64 0 0 1-1.473-.29c-.44-.195-.816-.458-1.126-.79s-.55-.727-.717-1.18-.25-.94-.25-1.452c0-.648.096-1.198.3-1.647s.457-.818.8-1.1.718-.49 1.155-.62.893-.196 1.37-.196c.62 0 1.15.034 1.586.1a9.78 9.78 0 0 1 1.29.29v9.64a4.46 4.46 0 0 1-.486.055l-.473.013a8.12 8.12 0 0 1-.465-.013m-2.02-8.405a1.38 1.38 0 0 0-.56.331c-.158.152-.282.358-.37.614s-.136.57-.136.94c0 .297.034.582.102.857s.172.513.316.715a1.59 1.59 0 0 0 .548.486c.22.122.48.183.775.183l.426-.02c.113-.014.26-.043.44-.088v-4c-.154-.046-.292-.074-.418-.088s-.266-.02-.42-.02a2.35 2.35 0 0 0-.702.101"/></clipPath><linearGradient id="S" spreadMethod="pad" y2="411.954" x2="139.061" y1="401.841" x1="139.061" xlink:href="#t"><stop offset="0" stop-color="#004269"/><stop offset="1" stop-color="#0069a3"/></linearGradient><clipPath id="T"><path d="M113.104 408.862a2.87 2.87 0 0 1-1.04-.776c-.275-.33-.482-.718-.62-1.168a4.84 4.84 0 0 1-.209-1.445c0-.513.07-1 .21-1.43s.346-.827.62-1.154a2.79 2.79 0 0 1 1.04-.77c.418-.184.91-.277 1.478-.277s1.062.093 1.485.277.775.44 1.053.77.487.712.622 1.154.202.918.202 1.43-.067.995-.202 1.445a3.19 3.19 0 0 1-.622 1.168 2.91 2.91 0 0 1-1.053.776c-.423.2-.918.283-1.485.283s-1.06-.093-1.478-.283m.404-5.003c-.22.374-.33.912-.33 1.614s.1 1.24.33 1.614.58.56 1.074.56c.504 0 .866-.187 1.087-.56s.33-.912.33-1.614-.1-1.24-.33-1.614-.583-.56-1.087-.56c-.495 0-.853.186-1.074.56"/></clipPath><clipPath id="U"><path d="M121.9 411.7c-.054-.27-.08-.543-.08-.822 0-.297.027-.582.08-.85h2.416v-8.034l.534-.054.493-.014.473.02.485.047v8.034h2.417c.055.27.08.554.08.85a4.09 4.09 0 0 1-.081.822z"/></clipPath><clipPath id="V"><path d="M131.378 408.734a3.45 3.45 0 0 1-.73-.75l-.033.236-.048.285-.06.27c-.022.085-.047.15-.075.196l-.384.067c-.13.017-.263.026-.4.026-.144 0-.276-.006-.397-.02l-.385-.06v-6.995l.493-.054.465-.013.473.013c.162.01.324.027.485.054v3.322c0 .486.057.864.17 1.134s.254.473.425.608a1.16 1.16 0 0 0 .54.249 3.09 3.09 0 0 0 .513.049h.223a1.86 1.86 0 0 0 .331-.028 3.68 3.68 0 0 1 .074.513l.02.5-.013.365a2.61 2.61 0 0 1-.041.31c-.054.02-.14.032-.256.042l-.31.012c-.433 0-.792-.1-1.08-.33"/></clipPath><clipPath id="W"><path d="M135.415 409.052c-.396-.064-.792-.162-1.188-.298 0-.288.03-.536.094-.743s.158-.427.284-.66c.55.188 1.067.282 1.552.282.225 0 .43-.013.615-.04s.34-.078.466-.156a.81.81 0 0 0 .297-.317c.072-.135.108-.31.108-.526v-.163l-.865.04c-.36 0-.72-.038-1.08-.115a3.15 3.15 0 0 1-.978-.378c-.292-.175-.532-.41-.715-.702s-.278-.654-.278-1.087.075-.797.224-1.094a1.89 1.89 0 0 1 .634-.729 2.71 2.71 0 0 1 .986-.405c.382-.08.803-.12 1.262-.12a7.9 7.9 0 0 1 1.526.135l1.147.283v4.05c0 1-.263 1.7-.79 2.16s-1.258.675-2.194.675c-.343 0-.712-.03-1.108-.093m1.06-5.705c-.157.013-.306.05-.445.108s-.26.15-.358.276-.148.306-.148.54c0 .352.128.606.384.763s.605.236 1.047.236a3.32 3.32 0 0 0 .337-.019l.35-.05v-1.78l-.35-.06c-.135-.022-.27-.034-.405-.034-.117 0-.254.007-.412.02"/></clipPath><clipPath id="X"><path d="M141.18 411.872v-9.64c.17-.063.36-.12.568-.17l.648-.12.668-.074.628-.027c.62 0 1.18.087 1.675.264s.914.424 1.255.748.603.718.784 1.182.27.988.27 1.573c0 .602-.072 1.125-.216 1.566s-.342.81-.594 1.1a2.36 2.36 0 0 1-.899.654c-.346.145-.722.216-1.127.216s-.765-.078-1.08-.236-.54-.358-.675-.6v3.564c-.324.055-.644.082-.96.082-.306 0-.62-.027-.946-.082m2.25-8.424a1.37 1.37 0 0 0-.344.067v2.54c0 .513.114.888.344 1.128s.524.357.884.357c.495 0 .846-.17 1.054-.506s.31-.83.31-1.48c0-.73-.168-1.265-.5-1.607s-.793-.513-1.378-.513l-.37.014"/></clipPath><clipPath id="Y"><path d="M150.43 409.052c-.396-.064-.792-.162-1.188-.298 0-.288.03-.536.094-.743s.158-.427.284-.66c.55.188 1.066.282 1.552.282.225 0 .43-.013.615-.04a1.22 1.22 0 0 0 .466-.156.82.82 0 0 0 .297-.317c.072-.135.108-.31.108-.526v-.163l-.865.04c-.36 0-.72-.038-1.08-.115s-.686-.202-.978-.378-.532-.41-.716-.702-.277-.654-.277-1.087.075-.797.222-1.094.36-.54.636-.73.603-.324.985-.405.804-.12 1.263-.12c.566 0 1.075.046 1.525.135l1.148.283v4.05c0 1-.263 1.7-.79 2.16s-1.26.675-2.195.675c-.342 0-.71-.03-1.107-.093m1.06-5.705c-.158.013-.306.05-.446.108s-.26.15-.358.276-.148.306-.148.54c0 .352.128.606.385.763s.605.236 1.046.236a3.32 3.32 0 0 0 .338-.019l.35-.05v-1.78l-.35-.06c-.135-.022-.27-.034-.405-.034-.117 0-.255.007-.412.02"/></clipPath><clipPath id="Z"><path d="M156.168 411.872v-7.506c0-.865.2-1.487.628-1.87s.974-.574 1.667-.574l.56.027a2.67 2.67 0 0 1 .52.094c.018.072.027.137.027.196v.196a4.12 4.12 0 0 1-.15 1.08c-.08-.018-.163-.032-.25-.04s-.165-.012-.236-.012c-.163 0-.297.017-.405.053a.53.53 0 0 0-.263.195 1.01 1.01 0 0 0-.149.399c-.03.17-.047.397-.047.675v7.088c-.325.055-.64.082-.946.082-.315 0-.634-.027-.958-.082"/></clipPath><clipPath id="a"><path d="M161.042 411.927c-.162-.01-.32-.027-.473-.055v-9.883a4.46 4.46 0 0 1 .48-.054l.466-.013.472.013a4.46 4.46 0 0 1 .486.054v3.672c0 .378.043.685.128.918s.194.418.325.548a.99.99 0 0 0 .438.263c.162.045.32.068.473.068.37 0 .63-.13.783-.392s.23-.635.23-1.12v-3.957a4.45 4.45 0 0 1 .487-.054l.473-.013.472.013a4.46 4.46 0 0 1 .486.054v4.47c0 .927-.2 1.606-.6 2.038s-.988.648-1.762.648c-.28 0-.527-.036-.743-.107s-.4-.16-.553-.263a2.2 2.2 0 0 1-.385-.325l-.25-.3v3.712a4.46 4.46 0 0 1-.486.055l-.472.013c-.154 0-.31-.004-.473-.013"/></clipPath><clipPath id="b"><path d="M169.988 408.862c-.42-.19-.765-.448-1.04-.776s-.482-.718-.62-1.168a4.84 4.84 0 0 1-.21-1.445c0-.513.07-1 .2-1.43s.346-.827.62-1.154.62-.585 1.04-.77.91-.277 1.478-.277 1.062.093 1.485.277.774.44 1.053.77a3.16 3.16 0 0 1 .621 1.154c.136.44.203.918.203 1.43s-.067.995-.203 1.445-.34.84-.62 1.168-.63.587-1.053.776-.918.283-1.485.283-1.06-.093-1.478-.283m.405-5.003c-.22.374-.33.912-.33 1.614s.1 1.24.33 1.614.578.56 1.073.56c.504 0 .867-.187 1.087-.56s.33-.912.33-1.614-.11-1.24-.33-1.614-.583-.56-1.087-.56c-.495 0-.853.186-1.073.56"/></clipPath><clipPath id="c"><path d="M81.593 428.475a3.73 3.73 0 0 1 3.729-3.729 3.73 3.73 0 0 1 3.728 3.729 3.73 3.73 0 0 1-3.728 3.727 3.73 3.73 0 0 1-3.729-3.727"/></clipPath><radialGradient id="d" spreadMethod="pad" gradientTransform="matrix(2.6364512,-2.6364512,2.6364512,2.6364512,83.456955,429.84113)" r="1" cy="0" cx="0" fy="0" fx="0" xlink:href="#t"><stop offset="0" stop-color="#0069a3"/><stop offset="1" stop-color="#004269"/></radialGradient><clipPath id="e"><path d="M78.404 418.505a4.97 4.97 0 0 0 4.462-4.945v-12.428h4.97v7.456c0 5.32-4.18 9.652-9.433 9.917z"/></clipPath><linearGradient id="f" spreadMethod="pad" y2="401.089" x2="83.121" y1="418.164" x1="83.121" xlink:href="#t"><stop offset="0" stop-color="#0069a3"/><stop offset="1" stop-color="#004269"/></linearGradient><clipPath id="g"><path d="M72.923 423.503v-4.972h4.973c.17 0 .34-.01.508-.026 5.254-.265 9.433-4.596 9.433-9.917v4.972c0 5.492-4.45 9.943-9.94 9.943z"/></clipPath><linearGradient id="h" spreadMethod="pad" y2="401.089" x2="80.381" y1="418.164" x1="80.381" xlink:href="#t"><stop offset="0" stop-color="#0069a3"/><stop offset="1" stop-color="#004269"/></linearGradient><clipPath id="i"><path d="M72.923 423.503v-4.972h4.973c.17 0 .34-.01.508-.026 5.254-.265 9.433-4.596 9.433-9.917v4.972c0 5.492-4.45 9.943-9.94 9.943z"/></clipPath><linearGradient id="j" spreadMethod="pad" y2="423.431" x2="80.381" y1="418.283" x1="80.381" xlink:href="#t"><stop offset="0" stop-color="#004269"/><stop offset=".116" stop-color="#004770"/><stop offset="1" stop-color="#0069a3"/></linearGradient><clipPath id="k"><path d="M70.44 411.075h9.942v4.97H70.44z"/></clipPath><linearGradient id="l" spreadMethod="pad" y2="413.56" x2="80.224" y1="413.56" x1="70.604" xlink:href="#t"><stop offset="0" stop-color="#077c60"/><stop offset="1" stop-color="#21ae88"/></linearGradient><clipPath id="m"><path d="M87.837 418.53h9.942v4.972h-9.942z"/></clipPath><linearGradient id="n" spreadMethod="pad" y2="421.017" x2="97.728" y1="421.017" x1="87.9" xlink:href="#t"><stop offset="0" stop-color="#fbdb65"/><stop offset="1" stop-color="#ffce06"/></linearGradient><clipPath id="o"><path d="M75.4 408.588v-6.213c0-2.746-2.226-4.972-4.97-4.972v-4.97c5.5 0 9.943 4.452 9.943 9.943v6.213z"/></clipPath><linearGradient id="p" spreadMethod="pad" y2="398.729" x2="75.41" y1="408.547" x1="75.41" xlink:href="#t"><stop offset="0" stop-color="#004269"/><stop offset="1" stop-color="#0069a3"/></linearGradient><clipPath id="q"><path d="M70.947 397.428l-.508-.025v-4.97c5.5 0 9.943 4.452 9.943 9.943v4.97c0-5.32-4.182-9.65-9.435-9.917"/></clipPath><linearGradient id="r" spreadMethod="pad" y2="398.813" x2="75.41" y1="392.473" x1="75.41" xlink:href="#t"><stop offset="0" stop-color="#0069a3"/><stop offset=".442" stop-color="#005281"/><stop offset="1" stop-color="#004269"/></linearGradient><path id="s" d="M72.923 423.503v-4.972h4.973c.17 0 .34-.01.508-.026 5.254-.265 9.433-4.596 9.433-9.917v4.972c0 5.492-4.45 9.943-9.94 9.943z"/><linearGradient id="t" gradientUnits="userSpaceOnUse"/></defs><g transform="matrix(1.333333 0 0 -1.333333 -93.918664 576.26932)"><g clip-path="url(#A)"><path d="M103.16 424.754c-.054-.27-.08-.544-.08-.823 0-.297.027-.582.08-.85h2.416v-8.034l.534-.054.493-.014.473.02.486.047v8.034h2.416c.054.27.08.554.08.85 0 .28-.027.553-.08.823z" fill="url(#B)"/></g><g clip-path="url(#C)"><path d="M112.637 421.777c-.288-.22-.53-.47-.73-.75l-.034.236-.047.284-.06.27c-.023.086-.048.15-.075.197l-.385.067a3.07 3.07 0 0 1-.398.026c-.144 0-.276-.006-.398-.02l-.385-.06v-6.995l.493-.054.465-.013.473.013a4.43 4.43 0 0 1 .486.054v3.322c0 .485.057.864.17 1.134s.255.473.425.608a1.18 1.18 0 0 0 .54.25c.19.03.36.048.514.048h.222a1.85 1.85 0 0 0 .331-.028 3.54 3.54 0 0 1 .074.513l.02.5-.014.364a2.85 2.85 0 0 1-.04.31c-.054.02-.14.032-.257.042l-.3.012c-.433 0-.792-.11-1.08-.33" fill="url(#B)"/></g><g clip-path="url(#D)"><path d="M116.14 425.07l-.493-.06a5.37 5.37 0 0 1-.081-.905 5.21 5.21 0 0 1 .081-.905 4.06 4.06 0 0 1 .5-.053l.486-.015.493.015a4.03 4.03 0 0 1 .492.053 4.03 4.03 0 0 1 .054.46l.014.445-.014.453c-.01.147-.027.3-.054.452-.153.027-.32.047-.5.06l-.5.02c-.144 0-.304-.008-.48-.02m-1.114-3.044c-.054-.234-.08-.472-.08-.715a3.5 3.5 0 0 1 .02-.373c.014-.13.034-.254.06-.37h.905v-5.522c.324-.054.634-.08.93-.08.306 0 .62.027.945.08v6.98z" fill="url(#B)"/></g><g clip-path="url(#E)"><path d="M119.672 424.916v-9.64c.17-.063.36-.12.567-.17l.648-.12.67-.075.628-.027c.62 0 1.18.087 1.674.263s.913.425 1.256.75a3.18 3.18 0 0 1 .782 1.182c.18.464.27.988.27 1.573 0 .602-.073 1.125-.216 1.566s-.342.808-.594 1.1a2.37 2.37 0 0 1-.899.654c-.346.145-.722.216-1.127.216s-.765-.078-1.08-.236-.54-.358-.675-.6v3.565a5.83 5.83 0 0 1-.959.081c-.306 0-.62-.027-.945-.08m2.248-8.425a1.38 1.38 0 0 0-.344.068v2.538c0 .513.115.888.344 1.127s.524.358.885.358c.494 0 .845-.17 1.053-.506s.31-.83.31-1.48c0-.73-.168-1.265-.5-1.607s-.793-.512-1.378-.512l-.37.013" fill="url(#B)"/></g><g clip-path="url(#F)"><path d="M131.743 422.027v-5.468c-.225-.064-.504-.096-.837-.096-.243 0-.455.03-.635.088a1 1 0 0 0-.452.297c-.122.14-.212.328-.27.567s-.088.543-.088.912v3.7c-.324.054-.644.08-.96.08s-.634-.026-.958-.08v-3.754c0-.747.094-1.345.284-1.795s.443-.792.762-1.027.69-.387 1.114-.46.864-.108 1.323-.108a7.49 7.49 0 0 1 1.479.142c.473.094.853.19 1.14.3v6.71c-.325.054-.643.08-.958.08-.307 0-.62-.026-.946-.08" fill="url(#B)"/></g><g clip-path="url(#G)"><path d="M138.494 422.087a2.31 2.31 0 0 1-.56-.263 2.39 2.39 0 0 1-.439-.364 3.2 3.2 0 0 1-.324-.406l-.034.23-.047.276-.06.27c-.023.085-.047.15-.074.196l-.365.06c-.117.014-.252.02-.405.02s-.292-.006-.418-.02-.252-.034-.378-.06v-6.98c.324-.054.643-.08.958-.08a5.83 5.83 0 0 1 .959.081v3.66c0 .378.04.684.12.918s.188.417.318.546.276.22.438.264.32.068.473.068c.37 0 .628-.13.776-.392s.224-.634.224-1.12v-3.943c.324-.054.643-.08.958-.08a5.84 5.84 0 0 1 .959.081v4.456c0 .927-.2 1.606-.602 2.04s-.997.647-1.79.647c-.252 0-.48-.033-.688-.1" fill="url(#B)"/></g><g clip-path="url(#H)"><path d="M144.57 422.095c-.396-.064-.792-.162-1.188-.298 0-.288.03-.536.094-.743s.158-.427.284-.66c.55.188 1.067.282 1.552.282.225 0 .43-.013.615-.04a1.22 1.22 0 0 0 .466-.156.81.81 0 0 0 .297-.317c.072-.135.108-.3.108-.526v-.162l-.865.04c-.36 0-.72-.038-1.08-.115s-.686-.202-.978-.378-.532-.41-.716-.702-.277-.654-.277-1.087.075-.797.223-1.094a1.88 1.88 0 0 1 .635-.728c.274-.2.603-.325.985-.406s.804-.12 1.263-.12c.567 0 1.076.046 1.526.136l1.147.282v4.05c0 1-.263 1.7-.79 2.16s-1.258.675-2.194.675c-.343 0-.712-.03-1.108-.093m1.06-5.706a1.5 1.5 0 0 0-.446.108c-.14.058-.26.15-.357.277s-.148.306-.148.54c0 .352.127.605.384.763s.605.237 1.047.237a3.67 3.67 0 0 0 .337-.02l.35-.048v-1.783l-.35-.06c-.135-.023-.27-.034-.405-.034l-.412.02" fill="url(#B)"/></g><g clip-path="url(#I)"><path d="M150.308 424.916v-7.507c0-.865.2-1.487.628-1.87s.974-.574 1.667-.574l.56.027a2.67 2.67 0 0 1 .52.094c.018.072.027.137.027.196v.197a4.17 4.17 0 0 1-.149 1.08c-.08-.02-.164-.033-.25-.042s-.164-.012-.236-.012c-.162 0-.297.017-.405.054a.51.51 0 0 0-.263.195c-.068.094-.117.227-.15.398s-.047.397-.047.675v7.09c-.324.054-.64.08-.945.08a5.83 5.83 0 0 1-.959-.081" fill="url(#B)"/></g><g clip-path="url(#J)"><path d="M159.436 424.734c-.405-.122-.752-.3-1.04-.54a2.4 2.4 0 0 1-.668-.884c-.158-.35-.237-.756-.237-1.215 0-.38.048-.702.142-.973a2.08 2.08 0 0 1 .398-.695c.17-.194.38-.36.62-.5s.517-.267.824-.384l.824-.31.472-.196c.153-.066.3-.15.412-.25a1.19 1.19 0 0 0 .298-.364c.075-.145.114-.324.114-.54 0-.433-.162-.754-.486-.966s-.77-.318-1.337-.318c-.378 0-.733.038-1.066.116a7.19 7.19 0 0 0-1.068.343l-.256-.857c-.072-.283-.122-.556-.15-.817l.648-.23a5.95 5.95 0 0 1 .629-.155 6.1 6.1 0 0 1 .668-.088l.797-.027c.603 0 1.137.076 1.6.23s.852.366 1.167.635.557.595.723.973.25.795.25 1.255c0 .44-.053.812-.162 1.114a2.25 2.25 0 0 1-.451.769c-.194.212-.43.4-.7.535s-.59.282-.93.417l-.8.31-.405.17a1.59 1.59 0 0 0-.365.216c-.108.085-.193.19-.256.3s-.095.272-.095.452c0 .226.04.408.122.547a.83.83 0 0 0 .31.317c.126.073.268.123.426.15a2.64 2.64 0 0 0 .465.041 6.15 6.15 0 0 0 .675-.034l.534-.088a3.37 3.37 0 0 0 .446-.134l.412-.163c.233.504.378 1.018.432 1.54a9.66 9.66 0 0 1-1.263.352c-.4.08-.83.12-1.3.12-.504 0-.958-.06-1.363-.182" fill="url(#B)"/></g><g clip-path="url(#K)"><path d="M169.21 422.027v-5.468c-.225-.064-.504-.096-.837-.096-.243 0-.455.03-.635.088a1 1 0 0 0-.452.297c-.122.14-.212.328-.27.567s-.088.543-.088.912v3.7c-.324.054-.644.08-.96.08s-.635-.026-.96-.08v-3.754c0-.747.095-1.345.285-1.795s.443-.792.762-1.027.69-.387 1.114-.46.864-.108 1.323-.108c.513 0 1.006.047 1.48.142s.852.19 1.14.3v6.71c-.324.054-.643.08-.958.08a5.74 5.74 0 0 1-.945-.08" fill="url(#B)"/></g><g clip-path="url(#L)"><path d="M175.88 422.087c-.207-.067-.395-.154-.56-.263a1.92 1.92 0 0 1-.425-.371 2.78 2.78 0 0 1-.297-.426l-.034.236-.054.292-.068.276c-.022.085-.046.15-.073.196-.26.054-.518.08-.77.08-.153 0-.3-.003-.412-.012s-.245-.027-.37-.055v-10.195l.493-.054.466-.013.465.013c.157.01.322.028.493.054v3.106c.1-.018.223-.033.372-.047s.3-.02.452-.02c.594 0 1.125.087 1.593.263s.865.425 1.19.75.57.718.742 1.182.257.988.257 1.573c0 .602-.07 1.125-.2 1.566s-.336.808-.587 1.1a2.4 2.4 0 0 1-.885.654c-.337.145-.7.216-1.087.216-.252 0-.48-.033-.688-.1m-1.148-5.556v2.377c0 .225.023.436.068.634a1.54 1.54 0 0 0 .216.52c.1.15.226.266.384.35s.35.13.574.13c.243 0 .448-.05.615-.148s.303-.235.41-.406a1.74 1.74 0 0 0 .23-.614 4.21 4.21 0 0 0 .067-.777c0-.73-.148-1.274-.445-1.633s-.725-.54-1.283-.54c-.315 0-.594.035-.837.107" fill="url(#B)"/></g><g clip-path="url(#M)"><path d="M182.382 421.898c-.418-.193-.77-.457-1.053-.8a3.38 3.38 0 0 1-.641-1.174c-.144-.45-.216-.933-.216-1.445a4.77 4.77 0 0 1 .209-1.444c.14-.44.356-.823.648-1.14s.67-.57 1.134-.75 1.02-.27 1.668-.27c.882 0 1.674.136 2.376.405-.01.288-.05.56-.122.81s-.157.467-.256.647c-.288-.107-.592-.192-.91-.25a5.26 5.26 0 0 0-.939-.087c-.558 0-1.008.12-1.35.364s-.532.635-.568 1.175h4.482a3.71 3.71 0 0 1 .048.398l.02.507c0 .467-.068.907-.202 1.315s-.335.765-.6 1.062-.588.53-.966.702-.8.255-1.295.255c-.56 0-1.047-.096-1.466-.3m.412-1.546c.235.252.576.378 1.026.378.396 0 .704-.133.925-.4s.34-.613.358-1.045h-2.728c.045.46.186.814.42 1.066" fill="url(#B)"/></g><g clip-path="url(#N)"><path d="M190.936 421.777c-.288-.22-.53-.47-.73-.75l-.033.236-.048.284-.06.27c-.024.086-.048.15-.075.197l-.385.067a3.08 3.08 0 0 1-.398.026c-.144 0-.277-.006-.4-.02l-.384-.06v-6.995l.492-.054.466-.013.473.013a4.46 4.46 0 0 1 .486.054v3.322c0 .485.056.864.17 1.134s.254.473.425.608.35.218.54.25a3.33 3.33 0 0 0 .513.048h.223a1.86 1.86 0 0 0 .331-.028 3.68 3.68 0 0 1 .074.513l.02.5-.013.364-.04.3c-.055.02-.14.032-.258.042l-.3.012c-.432 0-.792-.11-1.08-.33" fill="url(#B)"/></g><g clip-path="url(#O)"><path d="M194.44 425.07l-.494-.06c-.053-.316-.08-.617-.08-.905a5.31 5.31 0 0 1 .081-.905 4.08 4.08 0 0 1 .5-.053l.487-.015.492.015c.177.008.34.027.493.053a4.03 4.03 0 0 1 .054.46l.014.445-.014.453c-.01.147-.027.3-.054.452-.153.027-.32.047-.5.06l-.5.02c-.144 0-.304-.008-.48-.02m-1.115-3.044c-.053-.234-.08-.472-.08-.715 0-.118.008-.242.02-.373a3.16 3.16 0 0 1 .06-.371h.906v-5.522c.324-.054.634-.08.93-.08.306 0 .62.027.945.08v6.98z" fill="url(#B)"/></g><g clip-path="url(#P)"><path d="M199.476 421.905a2.89 2.89 0 0 1-1.04-.776 3.37 3.37 0 0 1-.621-1.168 4.84 4.84 0 0 1-.209-1.445c0-.514.07-1 .21-1.432s.347-.825.62-1.154.62-.585 1.04-.77.91-.277 1.48-.277 1.062.093 1.485.277.774.44 1.053.77.486.713.62 1.154.202.918.202 1.432-.067.995-.202 1.445-.342.838-.62 1.168-.63.587-1.053.776-.918.283-1.485.283-1.06-.093-1.48-.283m.405-5.003c-.22.374-.33.912-.33 1.614s.11 1.24.33 1.614.58.56 1.074.56c.504 0 .865-.188 1.087-.56s.33-.912.33-1.614-.11-1.24-.33-1.614-.583-.56-1.087-.56c-.495 0-.853.186-1.074.56" fill="url(#B)"/></g><g clip-path="url(#Q)"><path d="M208.34 421.777a3.47 3.47 0 0 1-.729-.75l-.034.236-.047.284-.06.27c-.023.086-.047.15-.075.197l-.384.067c-.13.017-.264.026-.398.026a3.51 3.51 0 0 1-.399-.02l-.385-.06v-6.995l.493-.054.466-.013.473.013c.162.01.324.027.485.054v3.322c0 .485.057.864.17 1.134s.255.473.426.608.35.218.54.25a3.33 3.33 0 0 0 .513.048h.222a1.86 1.86 0 0 0 .332-.028 3.68 3.68 0 0 1 .074.513l.02.5-.013.364a2.61 2.61 0 0 1-.041.31c-.054.02-.14.032-.256.042l-.31.012c-.432 0-.792-.11-1.08-.33" fill="url(#B)"/></g><g clip-path="url(#R)"><path d="M108.35 411.927l-.48-.055V409a2.69 2.69 0 0 1-.506.089l-.506.02a3.64 3.64 0 0 1-1.473-.29c-.44-.195-.816-.458-1.126-.79s-.55-.727-.717-1.18-.25-.94-.25-1.452c0-.648.096-1.198.3-1.647s.457-.818.8-1.1.718-.49 1.155-.62.893-.196 1.37-.196c.62 0 1.15.034 1.586.1a9.78 9.78 0 0 1 1.29.29v9.64a4.46 4.46 0 0 1-.486.055l-.473.013a8.12 8.12 0 0 1-.465-.013m-2.02-8.405a1.38 1.38 0 0 0-.56.331c-.158.152-.282.358-.37.614s-.136.57-.136.94c0 .297.034.582.102.857s.172.513.316.715a1.59 1.59 0 0 0 .548.486c.22.122.48.183.775.183l.426-.02c.113-.014.26-.043.44-.088v-4c-.154-.046-.292-.074-.418-.088s-.266-.02-.42-.02a2.35 2.35 0 0 0-.702.101" fill="url(#S)"/></g><g clip-path="url(#T)"><path d="M113.104 408.862a2.87 2.87 0 0 1-1.04-.776c-.275-.33-.482-.718-.62-1.168a4.84 4.84 0 0 1-.209-1.445c0-.513.07-1 .21-1.43s.346-.827.62-1.154a2.79 2.79 0 0 1 1.04-.77c.418-.184.91-.277 1.478-.277s1.062.093 1.485.277.775.44 1.053.77.487.712.622 1.154.202.918.202 1.43-.067.995-.202 1.445a3.19 3.19 0 0 1-.622 1.168 2.91 2.91 0 0 1-1.053.776c-.423.2-.918.283-1.485.283s-1.06-.093-1.478-.283m.404-5.003c-.22.374-.33.912-.33 1.614s.1 1.24.33 1.614.58.56 1.074.56c.504 0 .866-.187 1.087-.56s.33-.912.33-1.614-.1-1.24-.33-1.614-.583-.56-1.087-.56c-.495 0-.853.186-1.074.56" fill="url(#S)"/></g><g clip-path="url(#U)"><path d="M121.9 411.7c-.054-.27-.08-.543-.08-.822 0-.297.027-.582.08-.85h2.416v-8.034l.534-.054.493-.014.473.02.485.047v8.034h2.417c.055.27.08.554.08.85a4.09 4.09 0 0 1-.081.822z" fill="url(#S)"/></g><g clip-path="url(#V)"><path d="M131.378 408.734a3.45 3.45 0 0 1-.73-.75l-.033.236-.048.285-.06.27c-.022.085-.047.15-.075.196l-.384.067c-.13.017-.263.026-.4.026-.144 0-.276-.006-.397-.02l-.385-.06v-6.995l.493-.054.465-.013.473.013c.162.01.324.027.485.054v3.322c0 .486.057.864.17 1.134s.254.473.425.608a1.16 1.16 0 0 0 .54.249 3.09 3.09 0 0 0 .513.049h.223a1.86 1.86 0 0 0 .331-.028 3.68 3.68 0 0 1 .074.513l.02.5-.013.365a2.61 2.61 0 0 1-.041.31c-.054.02-.14.032-.256.042l-.31.012c-.433 0-.792-.1-1.08-.33" fill="url(#S)"/></g><g clip-path="url(#W)"><path d="M135.415 409.052c-.396-.064-.792-.162-1.188-.298 0-.288.03-.536.094-.743s.158-.427.284-.66c.55.188 1.067.282 1.552.282.225 0 .43-.013.615-.04s.34-.078.466-.156a.81.81 0 0 0 .297-.317c.072-.135.108-.31.108-.526v-.163l-.865.04c-.36 0-.72-.038-1.08-.115a3.15 3.15 0 0 1-.978-.378c-.292-.175-.532-.41-.715-.702s-.278-.654-.278-1.087.075-.797.224-1.094a1.89 1.89 0 0 1 .634-.729 2.71 2.71 0 0 1 .986-.405c.382-.08.803-.12 1.262-.12a7.9 7.9 0 0 1 1.526.135l1.147.283v4.05c0 1-.263 1.7-.79 2.16s-1.258.675-2.194.675c-.343 0-.712-.03-1.108-.093m1.06-5.705c-.157.013-.306.05-.445.108s-.26.15-.358.276-.148.306-.148.54c0 .352.128.606.384.763s.605.236 1.047.236a3.32 3.32 0 0 0 .337-.019l.35-.05v-1.78l-.35-.06c-.135-.022-.27-.034-.405-.034-.117 0-.254.007-.412.02" fill="url(#S)"/></g><g clip-path="url(#X)"><path d="M141.18 411.872v-9.64c.17-.063.36-.12.568-.17l.648-.12.668-.074.628-.027c.62 0 1.18.087 1.675.264s.914.424 1.255.748.603.718.784 1.182.27.988.27 1.573c0 .602-.072 1.125-.216 1.566s-.342.81-.594 1.1a2.36 2.36 0 0 1-.899.654c-.346.145-.722.216-1.127.216s-.765-.078-1.08-.236-.54-.358-.675-.6v3.564c-.324.055-.644.082-.96.082-.306 0-.62-.027-.946-.082m2.25-8.424a1.37 1.37 0 0 0-.344.067v2.54c0 .513.114.888.344 1.128s.524.357.884.357c.495 0 .846-.17 1.054-.506s.31-.83.31-1.48c0-.73-.168-1.265-.5-1.607s-.793-.513-1.378-.513l-.37.014" fill="url(#S)"/></g><g clip-path="url(#Y)"><path d="M150.43 409.052c-.396-.064-.792-.162-1.188-.298 0-.288.03-.536.094-.743s.158-.427.284-.66c.55.188 1.066.282 1.552.282.225 0 .43-.013.615-.04a1.22 1.22 0 0 0 .466-.156.82.82 0 0 0 .297-.317c.072-.135.108-.31.108-.526v-.163l-.865.04c-.36 0-.72-.038-1.08-.115s-.686-.202-.978-.378-.532-.41-.716-.702-.277-.654-.277-1.087.075-.797.222-1.094.36-.54.636-.73.603-.324.985-.405.804-.12 1.263-.12c.566 0 1.075.046 1.525.135l1.148.283v4.05c0 1-.263 1.7-.79 2.16s-1.26.675-2.195.675c-.342 0-.71-.03-1.107-.093m1.06-5.705c-.158.013-.306.05-.446.108s-.26.15-.358.276-.148.306-.148.54c0 .352.128.606.385.763s.605.236 1.046.236a3.32 3.32 0 0 0 .338-.019l.35-.05v-1.78l-.35-.06c-.135-.022-.27-.034-.405-.034-.117 0-.255.007-.412.02" fill="url(#S)"/></g><g clip-path="url(#Z)"><path d="M156.168 411.872v-7.506c0-.865.2-1.487.628-1.87s.974-.574 1.667-.574l.56.027a2.67 2.67 0 0 1 .52.094c.018.072.027.137.027.196v.196a4.12 4.12 0 0 1-.15 1.08c-.08-.018-.163-.032-.25-.04s-.165-.012-.236-.012c-.163 0-.297.017-.405.053a.53.53 0 0 0-.263.195 1.01 1.01 0 0 0-.149.399c-.03.17-.047.397-.047.675v7.088c-.325.055-.64.082-.946.082-.315 0-.634-.027-.958-.082" fill="url(#S)"/></g><g clip-path="url(#a)"><path d="M161.042 411.927c-.162-.01-.32-.027-.473-.055v-9.883a4.46 4.46 0 0 1 .48-.054l.466-.013.472.013a4.46 4.46 0 0 1 .486.054v3.672c0 .378.043.685.128.918s.194.418.325.548a.99.99 0 0 0 .438.263c.162.045.32.068.473.068.37 0 .63-.13.783-.392s.23-.635.23-1.12v-3.957a4.45 4.45 0 0 1 .487-.054l.473-.013.472.013a4.46 4.46 0 0 1 .486.054v4.47c0 .927-.2 1.606-.6 2.038s-.988.648-1.762.648c-.28 0-.527-.036-.743-.107s-.4-.16-.553-.263a2.2 2.2 0 0 1-.385-.325l-.25-.3v3.712a4.46 4.46 0 0 1-.486.055l-.472.013c-.154 0-.31-.004-.473-.013" fill="url(#S)"/></g><g clip-path="url(#b)"><path d="M169.988 408.862c-.42-.19-.765-.448-1.04-.776s-.482-.718-.62-1.168a4.84 4.84 0 0 1-.21-1.445c0-.513.07-1 .2-1.43s.346-.827.62-1.154.62-.585 1.04-.77.91-.277 1.478-.277 1.062.093 1.485.277.774.44 1.053.77a3.16 3.16 0 0 1 .621 1.154c.136.44.203.918.203 1.43s-.067.995-.203 1.445-.34.84-.62 1.168-.63.587-1.053.776-.918.283-1.485.283-1.06-.093-1.478-.283m.405-5.003c-.22.374-.33.912-.33 1.614s.1 1.24.33 1.614.578.56 1.073.56c.504 0 .867-.187 1.087-.56s.33-.912.33-1.614-.11-1.24-.33-1.614-.583-.56-1.087-.56c-.495 0-.853.186-1.073.56" fill="url(#S)"/></g><g clip-path="url(#c)"><path d="M81.593 428.475a3.73 3.73 0 0 1 3.729-3.729 3.73 3.73 0 0 1 3.728 3.729 3.73 3.73 0 0 1-3.728 3.727 3.73 3.73 0 0 1-3.729-3.727" fill="url(#d)"/></g><g clip-path="url(#e)"><path d="M78.404 418.505a4.97 4.97 0 0 0 4.462-4.945v-12.428h4.97v7.456c0 5.32-4.18 9.652-9.433 9.917z" fill="url(#f)"/></g><g clip-path="url(#g)"><use xlink:href="#s" fill="url(#h)"/></g><g clip-path="url(#i)"><use xlink:href="#s" fill="url(#j)"/></g><g clip-path="url(#k)"><path d="M70.44 411.075h9.942v4.97H70.44z" fill="url(#l)"/></g><g clip-path="url(#m)"><path d="M87.837 418.53h9.942v4.972h-9.942z" fill="url(#n)"/></g><g clip-path="url(#o)"><path d="M75.4 408.588v-6.213c0-2.746-2.226-4.972-4.97-4.972v-4.97c5.5 0 9.943 4.452 9.943 9.943v6.213z" fill="url(#p)"/></g><g clip-path="url(#q)"><path d="M70.947 397.428l-.508-.025v-4.97c5.5 0 9.943 4.452 9.943 9.943v4.97c0-5.32-4.182-9.65-9.435-9.917" fill="url(#r)"/></g></g></svg>