<svg xmlns="http://www.w3.org/2000/svg" height="53.025" width="186.633" viewBox="0 0 186.633 53.025"><g transform="matrix(1.333333 0 0 -1.333333 -491.66359 576.26919)"><path d="M383.63 424.745a3.73 3.73 0 0 1 3.729 3.729 3.73 3.73 0 0 1-3.729 3.728 3.73 3.73 0 0 1-3.729-3.728 3.73 3.73 0 0 1 3.729-3.729m-7.425-1.242h-4.97v-4.97h4.97c.172 0 .342-.01.5-.026 2.507-.254 4.463-2.372 4.463-4.946v-12.428h4.97v12.428c0 5.5-4.452 9.943-9.943 9.943" fill="#004269"/><path d="M368.75 411.075h9.943v4.97h-9.943z" fill="#077c60"/><path d="M386.148 418.532h9.942v4.97h-9.942z" fill="#ffce06"/><path d="M373.72 402.374a4.97 4.97 0 0 0-4.463-4.944 4.75 4.75 0 0 0-.509-.027v-4.97c5.492 0 9.944 4.45 9.944 9.94v6.215h-4.972z" fill="#004269"/><text transform="matrix(1 0 0 -1 401.1489 415.1699)" font-weight="bold" font-size="13.502" font-family="Aller" writing-mode="lr-tb" fill="#004269"><tspan x="0 6.44 11.87 16.014 23.98 31.704 39.63 46.678 51.053 54.023 61.45 69.173 77.153 84.74 90.17 94.314 102.146 107.574" y="0">Tribunal Superior </tspan><tspan y="13.003" x="0 7.94 15.77 18.74 25.18 30.474 37.522 45.488 52.536 56.91 64.824">do Trabalho</tspan></text></g></svg>