<svg xmlns="http://www.w3.org/2000/svg" xmlns:xlink="http://www.w3.org/1999/xlink" height="53.229" width="304.685" viewBox="0 0 304.685 53.229"><g transform="matrix(1.333333 0 0 -1.333333 -2041.1739 139.01733)"><path d="M1545.765 96.654a3.73 3.73 0 0 1 3.729 3.729 3.73 3.73 0 0 1-3.729 3.728 3.73 3.73 0 0 1-3.729-3.728 3.73 3.73 0 0 1 3.729-3.729m-7.427-1.244h-4.97v-4.97h4.97l.5-.025c2.507-.255 4.463-2.372 4.463-4.945V73.04h4.97v12.43c0 5.5-4.452 9.94-9.943 9.94" fill="#fff"/><path d="M1530.88 82.983h9.942v4.97h-9.942z" fill="#077c60"/><path d="M1548.28 90.44h9.942v4.97h-9.942z" fill="#ffce06"/><path d="M1535.853 74.283c0-2.573-1.956-4.7-4.463-4.945a4.75 4.75 0 0 0-.509-.027v-4.97c5.493 0 9.944 4.452 9.944 9.942v6.215h-4.972z" fill="#fff"/><g fill="#fdfdfd"><path d="M1578.75 87.35c0-2-.8-3.192-2.56-3.192-1.8 0-2.592 1.2-2.592 3.192v16.913h-2.434V87.476c0-3.35 1.55-5.595 4.932-5.595 3.414 0 4.963 2.244 4.963 5.595v16.786h-2.308zm-11.906-.067c0-2.266-.988-3.032-2.616-3.127l-1.245.03V81.92c.542-.065 1-.033 1.563-.033 2.682.065 4.756 1.373 4.756 5.554v16.82h-2.458zm17.922 11.65c0 1.944.752 3.104 2.508 3.104s2.507-1.16 2.507-3.135v-.72h2.32v.596c0 3.322-1.567 5.485-4.9 5.485-3.3 0-4.858-2.1-4.858-5.485 0-6.175 7.335-6.646 7.335-11.535 0-1.976-.816-3.135-2.57-3.135s-2.57 1.16-2.57 3.135v1.378h-2.288v-1.253c0-3.323 1.568-5.486 4.92-5.486s4.953 2.163 4.953 5.486c0 6.175-7.366 6.645-7.366 11.566m8.223 3.058h4.124v-20.1h2.494v20.1h4.124v2.27h-10.742zm11.982-20.1h2.493v22.38h-2.493zm9.136 22.38c-3.354 0-4.92-2.194-4.92-5.517V87.4c0-3.16 1.42-5.295 4.445-5.497v-1.135h.27c.924 0 1.46-.3 1.46-.843 0-.562-.477-.9-1.28-.9-.775.055-1.222.365-1.222.814v.197h-1.52v-.224c0-1.097 1.013-1.743 2.742-1.743 1.787 0 2.83.674 2.83 1.798 0 .9-.804 1.434-2.204 1.434v.606c2.972.247 4.356 2.372 4.356 5.492v2.727h-2.32v-2.852c0-1.975-.783-3.166-2.57-3.166-1.755 0-2.57 1.2-2.57 3.166V98.87c0 1.975.816 3.166 2.57 3.166 1.787 0 2.57-1.2 2.57-3.166v-2.1h2.32v1.974c0 3.323-1.567 5.517-4.953 5.517m9.582-15.73l2.46 12.917 2.526-12.917zm.8 15.73l-4.284-22.38h2.3l.864 4.507h5.66l.863-4.507h2.494l-4.284 22.38zm20.736-16.946c0-2.046-.863-3.164-2.653-3.164h-2.718v17.84h2.685c1.823 0 2.686-1.118 2.686-3.165zm-2.62 16.946h-5.244V81.88h5.244c3.484 0 5.083 2.1 5.083 5.532V98.7c0 3.453-1.6 5.563-5.083 5.563"/><use xlink:href="#B"/><path d="M1663.373 101.992h4.125v-20.1h2.493v20.1h4.125v2.27h-10.743zm16.99-8.28h-1.854v8.28h2.43c1.855 0 2.6-1.054 2.6-3.07V96.78c0-2.43-1.184-3.07-3.166-3.07m5.66-5.66c0 2.398-.766 4.06-2.813 4.668 1.92.607 2.782 2.14 2.782 4.604v1.823c0 3.325-1.47 5.115-4.988 5.115h-4.988V81.88h2.494v9.56h1.758c2.078 0 3.262-.798 3.262-3.325V84.6c0-1.503.127-2.078.415-2.718h2.526c-.416.767-.448 1.694-.448 2.685zm5.256.482l2.462 12.917 2.526-12.917zm.8 15.73l-4.284-22.38h2.3l.864 4.507h5.66l.863-4.507h2.494l-4.285 22.38zm17.323-17.072c0-2.08-.83-3.037-2.653-3.037h-2.654v8.345h2.174c2.143 0 3.133-.83 3.133-3.326zm-5.307 14.803h2.46c1.8 0 2.463-.96 2.463-2.942v-1.3c0-2.334-1.023-2.974-3.006-2.974h-1.918zm4.764-8.185c1.95.608 2.622 2.078 2.622 4.445v1.054c0 3.294-1.375 4.956-4.86 4.956h-5.02V81.88h5.148c3.485 0 5.116 1.887 5.116 5.245V89c0 2.462-.832 4.2-3.006 4.796m7.025-5.274l2.462 12.917 2.525-12.917zm.8 15.73l-4.284-22.38h2.3l.865 4.507h5.66l.862-4.507h2.494l-4.284 22.38zm12.262.001h-2.494v-22.38h8.888v2.27h-6.394zm15.966-10.073h-5.5v10.07h-2.493V81.88h2.493v10.072h5.5V81.88h2.493v22.38h-2.493z"/><use xlink:href="#B" x="100"/><path d="M1565.618 74.57h-2.052a3.59 3.59 0 0 0-.069.723 3.48 3.48 0 0 0 .069.699h5.8a3.56 3.56 0 0 0 .07-.7 3.59 3.59 0 0 0-.07-.723h-2.052v-6.82l-.413-.04-.4-.018-.42.012-.453.046zm3.864-.893l.326.052.34.017a2.37 2.37 0 0 0 .338-.023l.327-.058a.66.66 0 0 0 .064-.166l.05-.23.04-.24.03-.202c.168.238.374.45.62.637s.55.28.917.28l.263-.01c.1-.008.172-.02.218-.036.016-.076.028-.164.035-.263l.01-.3-.016-.424c-.012-.153-.034-.297-.064-.435a1.71 1.71 0 0 1-.28.022h-.2a2.63 2.63 0 0 1-.434-.04c-.16-.026-.315-.097-.46-.212s-.266-.287-.362-.516-.143-.55-.143-.963v-2.82c-.138-.024-.275-.04-.412-.046l-.402-.012-.395.012c-.134.007-.274.022-.42.046zm4.7.997a4.42 4.42 0 0 0-.068.769 4.52 4.52 0 0 0 .068.768 4.5 4.5 0 0 0 .418.052l.407.016.425-.016.424-.052a3.08 3.08 0 0 0 .046-.385l.01-.383-.01-.378a3.24 3.24 0 0 0-.046-.39 3.71 3.71 0 0 0-.418-.046l-.42-.01-.413.01c-.153.008-.294.024-.424.046m.24-2.235h-.767a2.69 2.69 0 0 0-.052.315l-.017.315c0 .207.023.4.07.608h2.362V67.75a4.87 4.87 0 0 0-.803-.07 4.82 4.82 0 0 0-.792.069zm4.794-3.407a1.2 1.2 0 0 1 .293-.058l.314-.01c.497 0 .887.144 1.17.434s.425.746.425 1.365c0 .55-.1.97-.265 1.256s-.473.43-.893.43c-.307 0-.557-.102-.75-.305s-.293-.52-.293-.957zm-1.616 7.097a4.86 4.86 0 0 0 .803.069 4.8 4.8 0 0 0 .813-.07v-3.027c.115.206.307.376.573.5s.573.2.918.2a2.45 2.45 0 0 0 .957-.183c.294-.123.55-.308.763-.557s.382-.56.504-.934.183-.818.183-1.33c0-.497-.076-.942-.23-1.336a2.71 2.71 0 0 0-.664-1.003c-.3-.275-.647-.487-1.068-.636s-.893-.224-1.42-.224l-.535.024-.567.062a5.7 5.7 0 0 0-.55.104 3.71 3.71 0 0 0-.48.142zm6.684-2.453c.274.046.546.07.813.07a4.84 4.84 0 0 0 .815-.07v-3.142c0-.313.024-.572.074-.773s.126-.364.23-.482a.84.84 0 0 1 .384-.252 1.77 1.77 0 0 1 .538-.075c.284 0 .52.027.7.08v4.644a4.88 4.88 0 0 0 .803.07c.268 0 .54-.023.815-.07V67.98a7.79 7.79 0 0 0-.97-.247 6.41 6.41 0 0 0-1.256-.12c-.4 0-.765.03-1.124.1s-.675.2-.945.4-.488.5-.65.872-.24.9-.24 1.524zm6.662 0l.32.052.356.017.344-.017.3-.052c.024-.038.044-.094.064-.166l.05-.23.04-.234.03-.195c.077.114.168.228.275.344a2 2 0 0 0 .373.309 2.01 2.01 0 0 0 .476.224 1.88 1.88 0 0 0 .584.086c.674 0 1.18-.184 1.52-.55s.5-.944.5-1.732V67.75a4.94 4.94 0 0 0-.815-.07c-.268 0-.54.023-.814.07v3.348c0 .413-.062.73-.188.952s-.346.332-.66.332a1.43 1.43 0 0 1-.401-.058c-.138-.038-.262-.112-.373-.223s-.2-.265-.27-.464-.102-.46-.102-.78V67.75a4.94 4.94 0 0 0-.815-.07c-.268 0-.54.023-.814.07zm9.69-3.2l-.3.04c-.106.012-.202.017-.286.017-.375 0-.67-.067-.9-.2s-.327-.35-.327-.648c0-.198.042-.352.126-.46a.76.76 0 0 1 .305-.234c.118-.05.244-.08.378-.092l.35-.018a1.99 1.99 0 0 1 .344.03l.3.05zm0 1.18c0 .183-.03.332-.092.446s-.145.205-.252.27-.24.1-.395.13a3.48 3.48 0 0 1-.523.035c-.413 0-.85-.08-1.318-.24-.108.2-.188.386-.24.563a2.2 2.2 0 0 0-.08.63 6.08 6.08 0 0 0 1.009.253 6.19 6.19 0 0 0 .94.08c.795 0 1.416-.192 1.863-.574s.67-.993.67-1.835v-3.44a9.54 9.54 0 0 0-.975-.24c-.382-.076-.814-.114-1.295-.114a5.25 5.25 0 0 0-1.073.102 2.3 2.3 0 0 0-.837.345 1.61 1.61 0 0 0-.539.619c-.126.252-.188.56-.188.93s.078.674.235.922.36.448.608.596a2.66 2.66 0 0 0 .83.32 4.52 4.52 0 0 0 .917.098l.734-.034zm2.98 4.483c.275.046.547.07.814.07.26 0 .528-.023.802-.07V70.1a3.36 3.36 0 0 1 .04-.573c.026-.145.07-.26.126-.34a.44.44 0 0 1 .224-.166 1.09 1.09 0 0 1 .344-.046c.06 0 .128.003.2.012a1.82 1.82 0 0 1 .211.034 3.5 3.5 0 0 0 .127-.918v-.166a.66.66 0 0 0-.024-.166 2.13 2.13 0 0 0-.44-.08l-.476-.023c-.588 0-1.06.162-1.416.487s-.533.855-.533 1.6zm7.795-4.563c-.26.1-.492.208-.7.326a2.04 2.04 0 0 0-.528.425 1.76 1.76 0 0 0-.338.59c-.08.23-.12.505-.12.826 0 .4.068.733.202 1.032a2.04 2.04 0 0 0 .567.751c.245.202.54.356.883.458s.73.154 1.158.154c.4 0 .755-.033 1.095-.102a8.31 8.31 0 0 0 1.072-.298 4.09 4.09 0 0 0-.367-1.308l-.35.138a2.61 2.61 0 0 1-.378.114 4.02 4.02 0 0 1-.453.076 5.41 5.41 0 0 1-.573.028 2.33 2.33 0 0 1-.396-.034 1.13 1.13 0 0 1-.361-.126c-.106-.062-.195-.152-.264-.27s-.103-.273-.103-.465a.82.82 0 0 1 .081-.383c.053-.103.126-.192.218-.264a1.39 1.39 0 0 1 .309-.184l.344-.143.7-.263.8-.356c.237-.122.437-.273.602-.452a1.92 1.92 0 0 0 .384-.655c.092-.256.138-.57.138-.945 0-.4-.07-.745-.212-1.066s-.347-.597-.614-.827-.598-.408-.992-.538-.846-.195-1.358-.195l-.677.023c-.2.015-.4.04-.567.075l-.534.13-.55.196a4.79 4.79 0 0 0 .127.693l.216.728a5.91 5.91 0 0 1 .907-.292 3.98 3.98 0 0 1 .906-.098c.48 0 .86.1 1.135.27s.413.452.413.82c0 .183-.033.336-.098.458a1 1 0 0 1-.252.309 1.49 1.49 0 0 1-.349.212l-.402.167zm4.7 2.1a4.93 4.93 0 0 0 .813.069 4.92 4.92 0 0 0 .815-.069v-3.142c0-.313.025-.572.075-.773s.126-.364.23-.482a.82.82 0 0 1 .383-.252 1.74 1.74 0 0 1 .54-.075c.283 0 .52.027.7.08v4.644a4.89 4.89 0 0 0 .803.07c.268 0 .54-.023.815-.07V67.98c-.245-.085-.568-.166-.97-.247a6.41 6.41 0 0 0-1.256-.12 6.79 6.79 0 0 0-1.123.091c-.36.062-.676.2-.946.4s-.488.5-.65.872-.24.9-.24 1.524zm8.256-4.677c.207-.06.443-.092.712-.092.474 0 .836.154 1.1.46s.378.77.378 1.388a3.5 3.5 0 0 1-.058.659c-.038.202-.102.376-.194.522s-.2.26-.35.343-.315.127-.52.127a1.02 1.02 0 0 1-.489-.109c-.132-.072-.242-.172-.326-.298a1.31 1.31 0 0 1-.183-.44 2.45 2.45 0 0 1-.058-.54zm-1.628 4.68a2.56 2.56 0 0 0 .316.046l.35.01a3.2 3.2 0 0 0 .653-.069c.024-.038.045-.094.064-.166l.057-.235.046-.246.03-.202a2.33 2.33 0 0 0 .253.362 1.58 1.58 0 0 0 .36.315c.142.092.3.166.476.224s.37.086.585.086c.328 0 .636-.062.922-.184a2.04 2.04 0 0 0 .752-.557c.214-.25.38-.56.498-.933s.178-.818.178-1.33a3.82 3.82 0 0 0-.218-1.336c-.145-.394-.355-.73-.63-1.004a2.82 2.82 0 0 0-1.009-.636c-.398-.15-.85-.223-1.353-.223l-.385.017-.315.04v-2.63l-.418-.045-.395-.012-.396.012a4.34 4.34 0 0 0-.419.045zm10.432-2.332c-.015.367-.116.664-.304.9s-.45.338-.785.338c-.382 0-.673-.108-.872-.322s-.316-.515-.354-.906zm-2.327-1.135c.03-.458.2-.8.48-.998s.673-.308 1.147-.308c.26 0 .525.024.797.074a4.45 4.45 0 0 1 .774.213 2.76 2.76 0 0 0 .218-.552c.06-.214.096-.442.102-.688-.595-.23-1.268-.343-2.017-.343-.55 0-1.023.076-1.416.23a2.53 2.53 0 0 0-.963.636 2.54 2.54 0 0 0-.55.97 4.07 4.07 0 0 0-.178 1.227c0 .436.062.844.184 1.227a2.85 2.85 0 0 0 .545.997c.24.283.54.507.893.672s.77.246 1.246.246c.412 0 .78-.072 1.1-.218a2.43 2.43 0 0 0 .819-.597c.226-.252.396-.55.5-.9s.172-.72.172-1.117l-.017-.43-.04-.338zm5.15 3.464l.326.052a3.23 3.23 0 0 0 .339.017 2.36 2.36 0 0 0 .338-.023l.327-.058c.024-.038.043-.092.063-.166l.05-.23.04-.24.03-.202c.168.238.374.45.62.637s.55.28.917.28l.263-.01c.1-.008.172-.02.218-.036a1.97 1.97 0 0 0 .034-.263l.012-.3-.017-.424c-.01-.153-.033-.297-.063-.435a1.71 1.71 0 0 1-.28.022h-.2c-.13 0-.276-.013-.436-.04a.99.99 0 0 1-.458-.212c-.146-.115-.266-.287-.362-.516s-.143-.55-.143-.963v-2.82a3.39 3.39 0 0 0-.413-.046l-.402-.012-.395.012c-.134.007-.272.022-.418.046zm4.69.997a4.42 4.42 0 0 0-.068.769 4.52 4.52 0 0 0 .068.768 4.5 4.5 0 0 0 .418.052l.407.016.425-.016.424-.052.046-.385.01-.383-.01-.378a3.72 3.72 0 0 0-.046-.391 3.71 3.71 0 0 0-.418-.046l-.42-.01-.413.01c-.153.008-.294.024-.424.046m.24-2.235h-.767c-.024.1-.04.205-.052.315s-.018.216-.018.315a2.68 2.68 0 0 0 .07.608h2.362V67.75a4.88 4.88 0 0 0-.803-.07 4.81 4.81 0 0 0-.792.069zm5.71-3.59c.43 0 .736.158.923.476s.28.774.28 1.37-.094 1.052-.28 1.37-.494.475-.923.475c-.42 0-.724-.16-.9-.475s-.28-.775-.28-1.37.093-1.053.28-1.37.5-.476.9-.476m0-1.238c-.48 0-.9.078-1.255.234a2.39 2.39 0 0 0-.883.654 2.84 2.84 0 0 0-.527.98c-.117.374-.178.78-.178 1.215s.06.844.178 1.226.294.713.527.992a2.45 2.45 0 0 0 .883.661c.356.16.775.24 1.255.24s.902-.08 1.262-.24.657-.38.894-.66.413-.6.528-.992a4.23 4.23 0 0 0 .17-1.226c0-.436-.056-.84-.17-1.215a2.74 2.74 0 0 0-.528-.981 2.43 2.43 0 0 0-.894-.654c-.36-.156-.78-.234-1.262-.234m4.14 6.065l.327.052.338.017a2.35 2.35 0 0 0 .338-.023l.327-.058c.024-.038.044-.092.063-.166l.05-.23.04-.24.03-.202a2.92 2.92 0 0 0 .62.637c.245.187.55.28.917.28l.263-.01c.1-.008.172-.02.218-.036.016-.076.028-.164.034-.263l.012-.3-.016-.424c-.012-.153-.034-.297-.064-.435a1.71 1.71 0 0 1-.28.022h-.2c-.13 0-.275-.013-.436-.04a.99.99 0 0 1-.458-.212c-.146-.115-.266-.287-.362-.516s-.143-.55-.143-.963v-2.82a3.39 3.39 0 0 0-.413-.046l-.402-.012-.395.012a3.81 3.81 0 0 0-.418.046z"/><path d="M1661.44 72.45l-.373.074a2.99 2.99 0 0 1-.361.018c-.252 0-.472-.052-.66-.155a1.39 1.39 0 0 1-.464-.414c-.122-.17-.212-.374-.27-.607s-.087-.476-.087-.728c0-.314.04-.58.115-.797s.18-.392.316-.522.292-.223.475-.28a2 2 0 0 1 .596-.085l.356.017a2.04 2.04 0 0 1 .356.074zm0 3.68a3.57 3.57 0 0 0 .407.046l.395.01.4-.01a3.6 3.6 0 0 0 .413-.046v-8.187a8.37 8.37 0 0 0-1.095-.246c-.37-.058-.82-.086-1.347-.086-.405 0-.793.056-1.164.166a2.67 2.67 0 0 0-.98.527c-.283.242-.507.553-.67.935s-.247.85-.247 1.4a3.52 3.52 0 0 0 .213 1.233 2.91 2.91 0 0 0 .608 1.003 2.83 2.83 0 0 0 .957.67c.375.163.8.247 1.25.247l.43-.018a2.22 2.22 0 0 0 .43-.075zm5.697-7.28c.428 0 .735.158.923.476s.28.774.28 1.37-.094 1.052-.28 1.37-.495.475-.923.475c-.42 0-.725-.16-.9-.475s-.28-.775-.28-1.37.093-1.053.28-1.37.5-.476.9-.476m0-1.238c-.48 0-.9.078-1.255.234a2.39 2.39 0 0 0-.884.654c-.234.28-.4.606-.527.98s-.178.78-.178 1.215.06.844.178 1.226.294.713.527.992.528.5.884.66.774.24 1.255.24.9-.08 1.262-.24a2.48 2.48 0 0 0 .893-.661c.238-.28.413-.6.528-.992a4.23 4.23 0 0 0 .17-1.226c0-.436-.056-.84-.17-1.215s-.3-.7-.528-.98-.534-.497-.893-.654-.78-.234-1.262-.234m8.266 6.96h-2.053c-.046.23-.068.47-.068.723 0 .236.022.47.068.7h5.8a3.48 3.48 0 0 0 .07-.699 3.59 3.59 0 0 0-.07-.723h-2.05v-6.82l-.414-.04-.4-.018-.418.012-.453.046zm3.864-.893l.327.052a3.21 3.21 0 0 0 .338.017c.115 0 .228-.007.34-.023l.326-.058a.59.59 0 0 0 .064-.166l.05-.23.04-.24.03-.202a2.92 2.92 0 0 0 .62.637c.245.187.55.28.917.28l.264-.01c.1-.008.172-.02.218-.036a2.15 2.15 0 0 0 .034-.263l.01-.3-.016-.424c-.012-.153-.034-.297-.063-.435a1.72 1.72 0 0 1-.28.022h-.2a2.64 2.64 0 0 1-.435-.04.99.99 0 0 1-.459-.212c-.146-.115-.266-.287-.36-.516s-.144-.55-.144-.963v-2.82a3.37 3.37 0 0 0-.412-.046l-.402-.012-.395.012a3.8 3.8 0 0 0-.419.046zm7.453-3.2l-.298.04a2.57 2.57 0 0 1-.286.017c-.375 0-.67-.067-.9-.2s-.327-.35-.327-.648c0-.198.042-.352.126-.46s.186-.185.305-.234.244-.08.378-.092l.35-.018a1.99 1.99 0 0 1 .344.03l.298.05zm0 1.18c0 .183-.03.332-.092.446a.67.67 0 0 1-.252.27 1 1 0 0 1-.395.13 4.06 4.06 0 0 1-.522.035 4.04 4.04 0 0 1-1.318-.241c-.108.2-.188.386-.24.563a2.24 2.24 0 0 0-.08.63c.336.115.672.2 1.008.253s.65.08.94.08c.795 0 1.416-.192 1.863-.574s.67-.993.67-1.835v-3.44c-.268-.084-.592-.164-.975-.24a6.67 6.67 0 0 0-1.294-.114 5.25 5.25 0 0 0-1.073.102 2.3 2.3 0 0 0-.837.345 1.61 1.61 0 0 0-.539.619c-.126.252-.188.56-.188.93s.077.674.234.922.36.448.608.596a2.65 2.65 0 0 0 .832.321 4.32 4.32 0 0 0 .917.098l.733-.034zm4.62-2.614a1.2 1.2 0 0 1 .292-.058l.315-.01c.497 0 .887.144 1.17.434s.424.746.424 1.365c0 .55-.088.97-.263 1.256s-.474.43-.895.43c-.305 0-.556-.102-.75-.305s-.292-.52-.292-.957zm-1.616 7.097a4.86 4.86 0 0 0 .803.069 4.93 4.93 0 0 0 .813-.069v-3.027c.115.206.306.376.573.5s.573.2.918.2.662-.06.957-.183a2.02 2.02 0 0 0 .763-.557c.214-.248.382-.56.504-.934s.183-.818.183-1.33c0-.497-.076-.942-.228-1.336s-.376-.728-.666-1.003-.646-.487-1.066-.636-.895-.224-1.42-.224l-.534.024-.567.062a5.63 5.63 0 0 0-.552.104 3.71 3.71 0 0 0-.48.142zm9.746-5.663l-.298.04c-.107.012-.203.017-.286.017-.376 0-.672-.067-.9-.2s-.326-.35-.326-.648c0-.198.04-.352.126-.46s.186-.185.304-.234.244-.08.38-.092l.35-.018a1.99 1.99 0 0 1 .344.03l.298.05zm0 1.18c0 .183-.03.332-.092.446a.69.69 0 0 1-.252.27 1.01 1.01 0 0 1-.395.13 3.48 3.48 0 0 1-.523.035c-.412 0-.852-.08-1.318-.24-.108.2-.187.386-.24.563s-.08.386-.08.63a6.07 6.07 0 0 0 1.008.253 6.19 6.19 0 0 0 .94.08c.795 0 1.417-.192 1.864-.574s.67-.993.67-1.835v-3.44a9.54 9.54 0 0 0-.975-.24c-.382-.076-.813-.114-1.294-.114-.4 0-.75.034-1.073.102a2.3 2.3 0 0 0-.837.345 1.61 1.61 0 0 0-.539.619c-.127.252-.2.56-.2.93s.078.674.235.922.36.448.608.596a2.66 2.66 0 0 0 .83.32 4.33 4.33 0 0 0 .917.098l.734-.034zm2.98 4.483c.275.046.546.07.814.07.26 0 .527-.023.803-.07V70.1a3.26 3.26 0 0 1 .04-.573c.027-.145.07-.26.127-.34a.44.44 0 0 1 .224-.166 1.09 1.09 0 0 1 .344-.046c.06 0 .128.003.2.012a1.89 1.89 0 0 1 .213.034c.083-.313.126-.62.126-.918v-.166a.66.66 0 0 0-.024-.166 2.13 2.13 0 0 0-.44-.08l-.476-.023c-.6 0-1.06.162-1.416.487s-.533.855-.533 1.6zm3.75 0a3.08 3.08 0 0 0 .4.046l.402.012.4-.012c.137-.007.275-.023.412-.046v-3.152l.212.247c.088.094.197.186.327.274s.286.162.47.224a2 2 0 0 0 .631.092c.658 0 1.156-.184 1.496-.55s.5-.945.5-1.732v-3.795c-.138-.023-.276-.038-.413-.045l-.402-.012-.4.012a3.58 3.58 0 0 0-.412.045v3.36c0 .413-.066.73-.196.952s-.35.332-.665.332c-.13 0-.263-.02-.4-.058a.83.83 0 0 1-.372-.223c-.1-.1-.203-.265-.275-.464s-.1-.46-.1-.78v-3.12c-.137-.023-.275-.038-.412-.045l-.4-.012-.396.012c-.135.007-.27.022-.407.045zm9.242-7.28c.428 0 .735.158.923.476s.28.774.28 1.37-.094 1.052-.28 1.37-.495.475-.923.475c-.42 0-.725-.16-.9-.475s-.28-.775-.28-1.37.092-1.053.28-1.37.5-.476.9-.476m0-1.238c-.482 0-.9.078-1.256.234a2.37 2.37 0 0 0-.883.654 2.83 2.83 0 0 0-.527.98c-.117.374-.178.78-.178 1.215s.06.844.178 1.226.294.713.527.992a2.46 2.46 0 0 0 .883.661c.356.16.774.24 1.256.24s.9-.08 1.26-.24a2.45 2.45 0 0 0 .894-.66c.236-.28.412-.6.528-.992a4.27 4.27 0 0 0 .171-1.226 4.15 4.15 0 0 0-.171-1.215c-.116-.375-.3-.7-.528-.98s-.535-.497-.894-.654-.78-.234-1.26-.234"/></g></g><defs ><path id="B" d="M1656.95 87.273c0-2.007-.814-3.166-2.602-3.166-1.754 0-2.6 1.16-2.6 3.166V98.87c0 1.974.847 3.166 2.6 3.166 1.788 0 2.602-1.192 2.602-3.166zm-2.602 16.99c-3.354 0-5.015-2.163-5.015-5.516V87.398c0-3.322 1.66-5.517 5.015-5.517 3.386 0 5.047 2.195 5.047 5.517v11.348c0 3.353-1.66 5.516-5.047 5.516"/></defs></svg>