<svg xmlns="http://www.w3.org/2000/svg" height="53.041" width="218.791" viewBox="0 0 218.791 53.041"><g transform="matrix(1.333333 0 0 -1.333333 -2074.4786 711.91758)"><g fill="#fff"><path d="M1570.745 526.48a3.73 3.73 0 0 1 3.729 3.729 3.73 3.73 0 0 1-3.729 3.73 3.73 3.73 0 0 1-3.729-3.73 3.73 3.73 0 0 1 3.729-3.729m-7.428-1.244h-4.973v-4.973h4.973c2.747 0 4.973-2.226 4.973-4.972v-12.43h4.972v12.432c0 5.492-4.452 9.945-9.945 9.945"/><path d="M1563.317 525.236h-4.973v-4.973h4.973c.172 0 .342-.008.51-.026 5.255-.266 9.436-4.598 9.436-9.92v4.973c0 5.492-4.452 9.945-9.945 9.945"/></g><path d="M1555.86 512.804h9.944v4.973h-9.944zm17.403 7.46h9.945v4.973h-9.945z" fill="#feca0a"/><g fill="#fff"><path d="M1560.83 510.318v-6.216c0-2.746-2.226-4.972-4.972-4.972v-4.973c5.493 0 9.945 4.453 9.945 9.945v6.216z"/><path d="M1556.367 499.155c-.167-.017-.337-.025-.508-.025v-4.973a9.95 9.95 0 0 1 9.945 9.945v4.973a9.94 9.94 0 0 0-9.437-9.92m42.133 18.548c0-1.332-.53-2.136-1.714-2.136-1.206 0-1.734.804-1.734 2.136v11.317h-1.63v-11.232c0-2.242 1.036-3.744 3.3-3.744 2.284 0 3.32 1.502 3.32 3.744v11.232h-1.544z"/><path d="M1590.532 517.66c0-1.517-.662-2.03-1.75-2.093l-.833.022v-1.517c.362-.043.662-.02 1.046-.02 1.794.043 3.183.918 3.183 3.715v11.255h-1.645zm11.992 7.795c0 1.3.503 2.076 1.678 2.076s1.677-.775 1.677-2.097v-.483h1.553v.4c0 2.222-1.05 3.67-3.272 3.67-2.202 0-3.25-1.405-3.25-3.67 0-4.133 4.908-4.448 4.908-7.72 0-1.322-.546-2.097-1.72-2.097s-1.72.775-1.72 2.097v.924h-1.532v-.84c0-2.224 1.05-3.67 3.293-3.67s3.315 1.447 3.315 3.67c0 4.133-4.93 4.447-4.93 7.74m5.498 2.047h2.76v-13.458h1.668v13.458h2.76v1.52h-7.2zm8.018-13.458h1.668v14.977h-1.668zm6.112 14.976c-2.244 0-3.293-1.468-3.293-3.7v-7.593c0-2.115.95-3.544 2.975-3.68v-.76h.18c.618 0 .977-.206.977-.563 0-.377-.32-.602-.858-.602-.517.037-.817.244-.817.545v.132h-1.017v-.15c0-.734.678-1.166 1.834-1.166 1.197 0 1.894.45 1.894 1.203 0 .6-.538.96-1.475.96v.405c2 .165 2.915 1.587 2.915 3.676v1.824h-1.552v-1.908c0-1.32-.525-2.118-1.72-2.118-1.175 0-1.72.797-1.72 2.118v7.76c0 1.32.546 2.118 1.72 2.118 1.195 0 1.72-.797 1.72-2.118v-1.406h1.552v1.322c0 2.223-1.048 3.7-3.314 3.7m6.413-10.525l1.647 8.644 1.7-8.644zm.535 10.526l-2.867-14.976h1.54l.578 3.016h3.787l.577-3.016h1.67l-2.867 14.976zm13.876-11.34c0-1.37-.577-2.118-1.775-2.118h-1.82V527.5h1.797c1.22 0 1.797-.75 1.797-2.118zm-1.754 11.34h-3.5v-14.977h3.5c2.332 0 3.4 1.412 3.4 3.702v7.552c0 2.3-1.07 3.723-3.4 3.723m9.604-11.368c0-1.343-.546-2.118-1.74-2.118-1.175 0-1.74.775-1.74 2.118v7.76c0 1.32.566 2.118 1.74 2.118 1.195 0 1.74-.797 1.74-2.118zm-1.74 11.368c-2.245 0-3.357-1.447-3.357-3.7v-7.593c0-2.224 1.112-3.692 3.357-3.692 2.265 0 3.377 1.468 3.377 3.692v7.593c0 2.244-1.112 3.7-3.377 3.7m6.038-1.518h2.76v-13.458h1.67v13.458h2.76v1.52h-7.188zm11.37-5.542h-1.24v5.54h1.626c1.24 0 1.733-.706 1.733-2.054v-1.433c0-1.626-.792-2.054-2.118-2.054m3.787-3.787c0 1.604-.514 2.717-1.883 3.123 1.284.407 1.862 1.434 1.862 3.08v1.22c0 2.224-.985 3.423-3.338 3.423h-3.338V514.04h1.67v6.397h1.177c1.4 0 2.182-.535 2.182-2.225v-2.353c0-1.006.085-1.4.278-1.82h1.7c-.277.514-.3 1.135-.3 1.798zm3.524.322l1.647 8.644 1.7-8.644zm.535 10.526l-2.867-14.976h1.54l.578 3.016h3.787l.577-3.016h1.67l-2.867 14.976zm11.592-11.424c0-1.4-.557-2.032-1.776-2.032h-1.776v5.584h1.455c1.434 0 2.097-.557 2.097-2.225zm-3.552 9.906h1.648c1.198 0 1.647-.64 1.647-1.97v-.876c0-1.562-.684-2-2-2h-1.284zm3.188-5.477c1.305.407 1.755 1.4 1.755 2.974v.706c0 2.204-.92 3.316-3.252 3.316h-3.36v-14.977h3.445c2.332 0 3.423 1.263 3.423 3.5v1.262c0 1.647-.556 2.802-2 3.2m4.7-3.522l1.646 8.644 1.7-8.644zm.534 10.526l-2.866-14.976h1.54l.577 3.016h3.787l.578-3.016h1.67l-2.867 14.976zm8.206 0h-1.67v-14.977h5.948v1.52h-4.28zm10.684-6.74h-3.68v6.74h-1.67v-14.976h1.67v6.74h3.68v-6.74h1.67v14.976h-1.67zm8.048-4.628c0-1.343-.545-2.118-1.74-2.118-1.175 0-1.74.775-1.74 2.118v7.76c0 1.32.566 2.118 1.74 2.118 1.195 0 1.74-.797 1.74-2.118zm-1.74 11.368c-2.245 0-3.357-1.447-3.357-3.7v-7.593c0-2.224 1.112-3.692 3.357-3.692 2.264 0 3.376 1.468 3.376 3.692v7.593c0 2.244-1.112 3.7-3.376 3.7m-126.165-20.973h-1.75a3.05 3.05 0 0 0-.06.615 3.04 3.04 0 0 0 .059.596h4.936a3.04 3.04 0 0 0 .057-.596c0-.215-.018-.42-.057-.615h-1.75v-5.814l-.352-.035-.342-.014-.356.01c-.127.006-.256.02-.387.04zm3.293-.763l.278.044a2.59 2.59 0 0 0 .289.015 2.1 2.1 0 0 0 .288-.02l.28-.05a.55.55 0 0 0 .053-.141l.044-.196.035-.205.024-.17a2.53 2.53 0 0 0 .528.542c.208.16.47.24.782.24l.224-.01c.085-.007.147-.017.186-.03.013-.066.023-.14.03-.225l.01-.264-.015-.362c-.01-.13-.028-.254-.055-.37a1.34 1.34 0 0 1-.239.019h-.16a2.26 2.26 0 0 1-.371-.034c-.138-.022-.268-.083-.4-.18s-.226-.245-.308-.44-.12-.47-.12-.82v-2.404l-.353-.04-.342-.01-.337.01a3.63 3.63 0 0 0-.357.039zm3.997.85a3.77 3.77 0 0 0-.059.655 3.8 3.8 0 0 0 .06.655l.356.044.347.014.36-.014.363-.044a3.12 3.12 0 0 0 .04-.328l.01-.327-.01-.322c-.007-.1-.02-.222-.04-.333a2.97 2.97 0 0 0-.358-.039l-.356-.01-.352.01a2.89 2.89 0 0 0-.36.04m.205-1.905h-.655a2.42 2.42 0 0 0-.043.268l-.015.27c0 .177.02.348.058.518h2.013v-5.05a4.16 4.16 0 0 0-.684-.059c-.214 0-.44.02-.674.06zm4.083-2.904c.08-.025.16-.042.25-.048l.27-.01c.422 0 .754.123.996.37s.362.636.362 1.164c0 .468-.075.826-.226 1.07s-.403.366-.76.366c-.26 0-.474-.086-.64-.26s-.25-.444-.25-.815zm-1.377 6.05a4.05 4.05 0 0 0 .684.058 4.22 4.22 0 0 0 .693-.058v-2.58c.1.177.26.32.5.435s.5.17.782.17.565-.052.816-.156a1.73 1.73 0 0 0 .649-.475 2.25 2.25 0 0 0 .43-.796c.105-.32.156-.697.156-1.133 0-.423-.065-.803-.195-1.138s-.32-.62-.566-.856a2.54 2.54 0 0 0-.91-.542 3.63 3.63 0 0 0-1.211-.19l-.455.02-.483.053-.47.088a3.34 3.34 0 0 0-.41.122zm5.696-2.092a4.22 4.22 0 0 0 .693.059 4.12 4.12 0 0 0 .695-.06v-2.677c0-.267.02-.488.063-.66s.108-.3.195-.4a.72.72 0 0 1 .328-.216 1.5 1.5 0 0 1 .459-.062c.24 0 .443.022.606.067v3.958a4.16 4.16 0 0 0 .684.059 4.24 4.24 0 0 0 .694-.059v-4.856a5.22 5.22 0 0 0-.826-.2c-.342-.058-.698-.103-1.07-.103a5.71 5.71 0 0 0-.958.078c-.306.052-.575.162-.806.332s-.415.417-.552.743-.205.76-.205 1.3zm5.677 0c.1.02.183.034.273.044s.193.015.304.015a2.54 2.54 0 0 0 .293-.015l.264-.044c.02-.033.037-.08.053-.142l.044-.195.035-.2.024-.166a2.48 2.48 0 0 0 .234.293 1.73 1.73 0 0 0 .319.264c.12.078.255.14.405.2a1.59 1.59 0 0 0 .498.073c.573 0 1.005-.156 1.295-.47s.435-.803.435-1.474v-3.225a4.23 4.23 0 0 0-.694-.058 4.23 4.23 0 0 0-.694.058v2.854c0 .35-.054.622-.16.8s-.295.284-.562.284a1.26 1.26 0 0 1-.342-.049.71.71 0 0 1-.317-.191c-.095-.094-.172-.226-.23-.395s-.088-.392-.088-.665v-2.648a4.23 4.23 0 0 0-.694-.058 4.23 4.23 0 0 0-.694.058zm8.258-2.736l-.255.034-.244.015c-.32 0-.57-.057-.758-.17s-.278-.298-.278-.552c0-.17.036-.3.107-.4a.64.64 0 0 1 .26-.2 1.05 1.05 0 0 1 .322-.079l.298-.014a1.81 1.81 0 0 1 .293.024l.255.045zm0 1.007a.78.78 0 0 1-.08.38.61.61 0 0 1-.214.23.88.88 0 0 1-.338.112 3.02 3.02 0 0 1-.444.03 3.5 3.5 0 0 1-1.124-.205 2.6 2.6 0 0 0-.205.479 1.84 1.84 0 0 0-.069.537 5.19 5.19 0 0 0 .861.215 5.17 5.17 0 0 0 .8.069c.677 0 1.208-.164 1.588-.5s.573-.845.573-1.562v-2.932a8.15 8.15 0 0 0-.831-.205 5.69 5.69 0 0 0-1.105-.098 4.45 4.45 0 0 0-.913.088c-.277.06-.515.157-.714.293s-.35.313-.46.528-.16.478-.16.792.066.575.2.786a1.56 1.56 0 0 0 .518.508 2.29 2.29 0 0 0 .708.274 3.7 3.7 0 0 0 .782.083l.626-.03zm2.53 3.82a4.22 4.22 0 0 0 .693.059 4.15 4.15 0 0 0 .684-.059v-5.13c0-.202.012-.365.035-.488s.06-.22.108-.3a.38.38 0 0 1 .19-.142c.078-.025.176-.038.293-.038a1.32 1.32 0 0 1 .171.01 1.5 1.5 0 0 1 .18.028c.073-.266.108-.527.108-.78v-.142a.53.53 0 0 0-.02-.141 1.77 1.77 0 0 0-.376-.069l-.405-.02c-.502 0-.904.138-1.207.415s-.454.727-.454 1.353zm6.645-3.89c-.222.084-.42.178-.597.278a1.79 1.79 0 0 0-.449.362 1.47 1.47 0 0 0-.288.503c-.068.196-.103.43-.103.704 0 .332.057.625.17.88a1.77 1.77 0 0 0 .484.639 2.13 2.13 0 0 0 .753.391 3.42 3.42 0 0 0 .986.132c.332 0 .644-.03.934-.088s.594-.144.913-.254c-.04-.378-.143-.75-.313-1.114l-.298.118a2.33 2.33 0 0 1-.322.096c-.114.027-.243.048-.386.065a4.44 4.44 0 0 1-.489.024 1.95 1.95 0 0 1-.337-.029.94.94 0 0 1-.307-.108c-.1-.052-.166-.128-.225-.23s-.088-.232-.088-.395c0-.13.023-.24.068-.328a.68.68 0 0 1 .186-.224 1.15 1.15 0 0 1 .264-.157l.293-.122.587-.224.673-.304a1.78 1.78 0 0 0 .513-.386 1.6 1.6 0 0 0 .327-.557c.077-.22.118-.486.118-.806 0-.332-.06-.635-.18-.908s-.296-.5-.524-.704a2.4 2.4 0 0 0-.844-.46 3.76 3.76 0 0 0-1.16-.166l-.576.02a4.34 4.34 0 0 0-.483.064c-.155.03-.306.066-.455.112l-.47.166a4.2 4.2 0 0 0 .107.591l.186.62c.273-.1.53-.194.772-.25a3.4 3.4 0 0 1 .772-.084c.4 0 .733.077.968.23s.35.385.35.698c0 .156-.028.287-.084.4a.83.83 0 0 1-.214.265c-.1.07-.187.132-.298.18l-.342.142zm4.005 1.798a4.22 4.22 0 0 0 .693.059 4.12 4.12 0 0 0 .695-.06v-2.677c0-.267.02-.488.063-.66s.108-.3.195-.4a.72.72 0 0 1 .329-.216c.13-.042.283-.062.46-.062.24 0 .442.022.605.067v3.958a4.16 4.16 0 0 0 .684.059 4.12 4.12 0 0 0 .694-.06v-4.856c-.2-.073-.483-.142-.825-.2a5.41 5.41 0 0 0-1.071-.103 5.72 5.72 0 0 0-.958.078 1.86 1.86 0 0 0-.805.332c-.232.17-.415.417-.553.743s-.205.76-.205 1.3zm7.036-3.978c.176-.052.378-.078.606-.078.404 0 .713.13.928.4s.322.655.322 1.182a2.94 2.94 0 0 1-.048.563 1.28 1.28 0 0 1-.166.444c-.08.123-.178.222-.298.293s-.27.107-.445.107c-.163 0-.3-.03-.416-.092a.79.79 0 0 1-.278-.254 1.18 1.18 0 0 1-.156-.376 2.11 2.11 0 0 1-.049-.459zm-1.387 3.987a1.95 1.95 0 0 0 .268.04l.3.01c.18 0 .368-.02.556-.058a.57.57 0 0 0 .054-.142l.05-.2.04-.2.024-.17a2.16 2.16 0 0 0 .216.308c.084.1.187.2.308.268a1.68 1.68 0 0 0 .405.19c.15.05.315.074.498.074.28 0 .542-.052.786-.157s.458-.262.64-.474.323-.477.425-.796.15-.697.15-1.134c0-.423-.06-.803-.186-1.138s-.302-.62-.537-.855-.52-.415-.86-.542-.724-.2-1.153-.2l-.327.014-.27.034v-2.248l-.356-.04-.337-.01-.337.01-.357.04zm8.89-1.993c-.014.312-.1.564-.26.757s-.383.288-.67.288c-.325 0-.573-.1-.743-.274s-.27-.44-.303-.77zm-1.984-.968c.026-.4.163-.675.4-.85s.573-.264.976-.264a3.71 3.71 0 0 1 .68.064c.23.042.45.103.66.18.07-.13.134-.287.186-.47a2.42 2.42 0 0 0 .088-.586c-.508-.195-1.08-.293-1.72-.293-.47 0-.87.065-1.206.196a2.12 2.12 0 0 0-.82.542 2.16 2.16 0 0 0-.469.826 3.41 3.41 0 0 0-.152 1.045 3.39 3.39 0 0 0 .157 1.046c.103.325.258.6.464.85a2.2 2.2 0 0 0 .761.573c.303.14.657.2 1.06.2.352 0 .665-.062.938-.186a2.09 2.09 0 0 0 .699-.508 2.15 2.15 0 0 0 .434-.767c.1-.297.147-.615.147-.953l-.015-.367-.033-.288zm4.388 2.952l.278.044c.088.01.185.015.288.015a2.08 2.08 0 0 0 .288-.02l.28-.05a.59.59 0 0 0 .053-.141l.044-.196.035-.205.024-.17a2.53 2.53 0 0 0 .528.542c.208.16.47.24.782.24l.224-.01c.085-.007.147-.017.186-.03l.03-.225.01-.264-.015-.362a2.51 2.51 0 0 0-.054-.371 1.34 1.34 0 0 1-.239.019h-.16a2.26 2.26 0 0 1-.372-.034c-.137-.022-.267-.083-.4-.18s-.226-.245-.308-.44-.122-.47-.122-.82v-2.404a3.24 3.24 0 0 0-.352-.039l-.343-.01-.337.01c-.113.006-.232.02-.356.04zm4.006.85a3.77 3.77 0 0 0-.058.655 3.89 3.89 0 0 0 .058.655l.357.044.347.014.36-.014.362-.044a2.9 2.9 0 0 0 .039-.328l.01-.327-.01-.322c-.006-.1-.02-.222-.04-.333-.1-.02-.23-.032-.357-.04l-.356-.01-.352.01c-.13.007-.25.02-.362.04m.206-1.905h-.655c-.02.085-.034.175-.044.268l-.015.27a2.3 2.3 0 0 0 .059.518h2.013v-5.05a4.17 4.17 0 0 0-.684-.059c-.215 0-.44.02-.674.06zm4.858-3.06c.364 0 .627.136.786.406s.24.66.24 1.168-.08.897-.24 1.167-.422.405-.786.405c-.358 0-.617-.134-.777-.405s-.24-.66-.24-1.167.08-.898.24-1.168.42-.406.777-.406m0-1.055c-.4 0-.768.067-1.07.2s-.554.318-.753.556a2.43 2.43 0 0 0-.449.836c-.102.32-.152.664-.152 1.036a3.47 3.47 0 0 0 .152 1.045 2.41 2.41 0 0 0 .449.845 2.08 2.08 0 0 0 .753.562c.303.136.66.205 1.07.205a2.61 2.61 0 0 0 1.075-.205c.305-.137.56-.324.762-.562a2.33 2.33 0 0 0 .449-.845c.098-.326.147-.675.147-1.045a3.51 3.51 0 0 0-.147-1.036 2.35 2.35 0 0 0-.449-.836c-.202-.238-.456-.424-.762-.556s-.665-.2-1.075-.2m3.538 5.17l.278.044c.088.01.185.015.288.015a2.09 2.09 0 0 0 .288-.02l.28-.05a.59.59 0 0 0 .053-.141l.043-.196.036-.205.024-.17c.143.202.32.382.527.542s.47.24.783.24l.223-.01c.085-.007.147-.017.186-.03.013-.066.023-.14.03-.225l.01-.264-.015-.362c-.01-.13-.028-.254-.055-.37-.07.013-.15.02-.238.02h-.162a2.26 2.26 0 0 1-.371-.034c-.137-.022-.267-.083-.4-.18s-.226-.245-.308-.44-.12-.47-.12-.82v-2.404a3.23 3.23 0 0 0-.353-.039l-.342-.01-.337.01c-.114.006-.232.02-.356.04z"/><path d="M1671.496 506.238l-.317.063a2.6 2.6 0 0 1-.31.015c-.214 0-.4-.044-.56-.132a1.18 1.18 0 0 1-.396-.35 1.5 1.5 0 0 1-.229-.518 2.58 2.58 0 0 1-.074-.621c0-.268.032-.493.098-.68a1.12 1.12 0 0 1 .268-.444 1.03 1.03 0 0 1 .406-.24c.156-.05.326-.072.5-.072l.302.014a1.71 1.71 0 0 1 .303.063zm0 3.137l.348.04.336.01.342-.01c.118-.007.235-.02.352-.04v-6.977a6.93 6.93 0 0 0-.934-.21c-.315-.05-.698-.073-1.147-.073-.346 0-.676.047-.992.142a2.25 2.25 0 0 0-.835.449c-.242.205-.432.47-.573.796s-.2.723-.2 1.192c0 .372.06.722.18 1.05s.293.614.52.854a2.42 2.42 0 0 0 .815.573 2.64 2.64 0 0 0 1.066.21l.366-.015a1.89 1.89 0 0 0 .366-.064zm4.857-6.205c.365 0 .627.136.786.406s.24.66.24 1.168-.08.897-.24 1.167-.42.405-.786.405c-.358 0-.617-.134-.776-.405s-.24-.66-.24-1.167.08-.898.24-1.168.418-.406.776-.406m0-1.055c-.4 0-.767.067-1.07.2s-.555.318-.753.556-.35.517-.45.836-.152.664-.152 1.036a3.47 3.47 0 0 0 .152 1.045c.102.325.25.608.45.845a2.09 2.09 0 0 0 .753.562c.303.136.66.205 1.07.205a2.61 2.61 0 0 0 1.075-.205c.307-.136.56-.324.762-.562a2.3 2.3 0 0 0 .449-.845 3.58 3.58 0 0 0 .147-1.045c0-.372-.048-.717-.147-1.036a2.32 2.32 0 0 0-.449-.836c-.202-.238-.455-.424-.762-.556s-.664-.2-1.075-.2m7.045 5.932h-1.75a3.05 3.05 0 0 0-.06.615 3.04 3.04 0 0 0 .059.596h4.935a3.04 3.04 0 0 0 .058-.596 3.21 3.21 0 0 0-.058-.615h-1.75v-5.814l-.352-.035-.342-.014-.357.01c-.127.006-.255.02-.386.04zm3.302-.763l.278.044a2.56 2.56 0 0 0 .288.015 2.14 2.14 0 0 0 .29-.02l.28-.05a.59.59 0 0 0 .053-.141l.043-.196.036-.205.024-.17a2.5 2.5 0 0 0 .527.542c.208.16.47.24.782.24l.225-.01a.88.88 0 0 0 .186-.03l.03-.225.01-.264-.016-.362a2.65 2.65 0 0 0-.053-.371 1.35 1.35 0 0 1-.24.019h-.16a2.27 2.27 0 0 1-.371-.034c-.137-.022-.267-.083-.4-.18a1.07 1.07 0 0 1-.307-.44c-.08-.195-.123-.47-.123-.82v-2.404c-.116-.02-.234-.033-.35-.04l-.343-.01-.337.01c-.114.006-.232.02-.356.04zm6.342-2.736l-.254.034-.244.015c-.32 0-.572-.057-.758-.17s-.278-.298-.278-.552c0-.17.035-.3.107-.4a.65.65 0 0 1 .259-.2c.102-.043.208-.07.323-.08l.298-.014a1.81 1.81 0 0 1 .293.024l.254.045zm0 1.007c0 .156-.026.283-.078.38s-.124.174-.215.23a.88.88 0 0 1-.338.112 3 3 0 0 1-.444.03c-.352 0-.727-.07-1.123-.205-.092.17-.16.33-.206.48a1.84 1.84 0 0 0-.068.537 5.08 5.08 0 0 0 .86.215 5.18 5.18 0 0 0 .8.069c.678 0 1.208-.164 1.6-.5s.572-.845.572-1.562v-2.932a8.19 8.19 0 0 0-.83-.205 5.67 5.67 0 0 0-1.104-.098 4.46 4.46 0 0 0-.914.088 1.99 1.99 0 0 0-.713.293c-.198.136-.352.313-.46.528s-.16.478-.16.792.066.575.2.786a1.54 1.54 0 0 0 .517.508 2.31 2.31 0 0 0 .709.274 3.76 3.76 0 0 0 .78.083l.626-.03zm3.938-2.23c.077-.025.16-.042.25-.048l.268-.01c.423 0 .756.123.997.37s.36.636.36 1.164c0 .468-.074.826-.224 1.07s-.404.366-.762.366c-.26 0-.474-.086-.64-.26s-.25-.444-.25-.815zm-1.378 6.05a4.05 4.05 0 0 0 .684.058 4.24 4.24 0 0 0 .694-.058v-2.58c.097.177.26.32.488.435s.5.17.782.17.565-.052.816-.156a1.73 1.73 0 0 0 .649-.475 2.25 2.25 0 0 0 .43-.796c.105-.32.156-.697.156-1.133 0-.423-.064-.803-.194-1.138s-.32-.62-.567-.856-.55-.415-.9-.542-.762-.2-1.212-.2l-.454.02-.484.053-.47.088a3.34 3.34 0 0 0-.41.122zm8.305-4.828l-.254.034-.244.015c-.32 0-.57-.057-.758-.17s-.278-.298-.278-.552c0-.17.036-.3.107-.4a.64.64 0 0 1 .26-.2 1.05 1.05 0 0 1 .322-.079l.298-.014a1.81 1.81 0 0 1 .293.024l.254.045zm0 1.007c0 .156-.025.283-.078.38a.58.58 0 0 1-.215.229.87.87 0 0 1-.337.112 3.16 3.16 0 0 1-.445.03c-.352 0-.727-.07-1.123-.205-.092.17-.16.33-.205.48a1.84 1.84 0 0 0-.069.537 5.2 5.2 0 0 0 .86.215 5.18 5.18 0 0 0 .8.069c.678 0 1.208-.164 1.6-.5s.572-.845.572-1.562v-2.932a8.19 8.19 0 0 0-.83-.205 5.67 5.67 0 0 0-1.104-.098c-.332 0-.637.03-.914.088a1.98 1.98 0 0 0-.713.293c-.2.137-.35.313-.46.528s-.16.478-.16.792.066.575.2.786a1.56 1.56 0 0 0 .518.508 2.29 2.29 0 0 0 .708.274 3.78 3.78 0 0 0 .782.083l.625-.03zm2.54 3.82a4.22 4.22 0 0 0 .693.059 4.18 4.18 0 0 0 .685-.059v-5.13c0-.202.01-.365.033-.488a.73.73 0 0 1 .11-.29.38.38 0 0 1 .19-.142c.078-.025.176-.038.293-.038a1.32 1.32 0 0 1 .171.01 1.5 1.5 0 0 1 .18.028c.072-.266.108-.527.108-.78v-.142a.53.53 0 0 0-.02-.141 1.76 1.76 0 0 0-.376-.069l-.405-.02c-.502 0-.904.138-1.207.415s-.454.727-.454 1.353zm3.186 0c.1.02.225.032.342.04l.342.01.342-.01a3.21 3.21 0 0 0 .352-.039v-2.687c.045.06.105.128.18.2a1.59 1.59 0 0 0 .278.235c.1.075.244.138.4.2s.336.078.538.078c.56 0 .986-.156 1.275-.47s.435-.804.435-1.475v-3.234a3.05 3.05 0 0 0-.35-.04l-.343-.01-.342.01a2.79 2.79 0 0 0-.351.039v2.863c0 .35-.056.622-.166.8s-.3.284-.567.284a1.27 1.27 0 0 1-.343-.049.71.71 0 0 1-.317-.191c-.095-.094-.173-.226-.234-.395s-.093-.392-.093-.665v-2.657c-.117-.02-.234-.034-.352-.04l-.342-.01-.337.01a2.77 2.77 0 0 0-.347.039zm7.886-6.205c.364 0 .627.136.786.406s.24.66.24 1.168-.08.897-.24 1.167-.422.405-.786.405c-.358 0-.618-.134-.777-.405s-.24-.66-.24-1.167.08-.898.24-1.168.42-.406.777-.406m0-1.055c-.4 0-.768.067-1.07.2a2 2 0 0 0-.752.556 2.4 2.4 0 0 0-.45.836c-.1.32-.153.664-.153 1.036a3.44 3.44 0 0 0 .153 1.045c.103.325.25.608.45.845a2.06 2.06 0 0 0 .752.562c.302.137.66.205 1.07.205s.77-.068 1.074-.205a2.1 2.1 0 0 0 .763-.562 2.33 2.33 0 0 0 .449-.845c.098-.326.147-.675.147-1.045a3.51 3.51 0 0 0-.147-1.036 2.35 2.35 0 0 0-.449-.836 2.04 2.04 0 0 0-.763-.556c-.305-.134-.664-.2-1.074-.2"/></g></g></svg>