<svg xmlns="http://www.w3.org/2000/svg" height="53.027" width="36.455" viewBox="0 0 36.455 53.027"><g transform="matrix(1.333333 0 0 -1.333333 -1779.34 304.50359)" fill="#fff"><path d="M1349.387 220.92a3.73 3.73 0 0 1 3.729 3.729 3.73 3.73 0 0 1-3.729 3.728 3.73 3.73 0 0 1-3.729-3.728 3.73 3.73 0 0 1 3.729-3.729m-6.917-6.24c2.507-.256 4.463-2.372 4.463-4.946v-12.428h4.973v12.428c0 5.5-4.454 9.942-9.944 9.942H1337v-4.972h4.97a5.05 5.05 0 0 0 .508-.024"/><path d="M1344.446 212.22h-9.94v-4.972h9.94zm17.4 7.458h-9.942v-4.97h9.942zm-17.4-16.158v1.243h-4.972v-6.214c0-2.574-1.956-4.7-4.463-4.946a5 5 0 0 0-.506-.024v-4.972c5.5 0 9.94 4.45 9.94 9.942z"/></g></svg>