<svg xmlns="http://www.w3.org/2000/svg" xmlns:xlink="http://www.w3.org/1999/xlink" height="53.251" width="304.836" viewBox="0 0 304.836 53.251"><g transform="matrix(1.333333 0 0 -1.333333 -1245.7196 139.01733)" fill="#010101"><path d="M949.173 96.637a3.73 3.73 0 0 1 3.729 3.729 3.73 3.73 0 0 1-3.729 3.728 3.73 3.73 0 0 1-3.729-3.728 3.73 3.73 0 0 1 3.729-3.729m-7.426-1.243h-4.972v-4.97h4.972a5.01 5.01 0 0 0 .508-.026c2.507-.254 4.464-2.372 4.464-4.946v-12.43h4.97V85.45c0 5.5-4.45 9.943-9.942 9.943M934.3 82.966h9.94v4.972h-9.94zm17.4 7.457h9.943v4.972H951.7z"/><path d="M939.262 74.265c0-2.573-1.957-4.7-4.464-4.944-.167-.018-.336-.027-.508-.027v-4.97c5.493 0 9.943 4.45 9.943 9.94v6.215h-4.97zm43.01 13.085c0-2-.8-3.192-2.56-3.192-1.8 0-2.6 1.2-2.6 3.192v16.913h-2.435V87.476c0-3.35 1.55-5.595 4.932-5.595 3.414 0 4.963 2.244 4.963 5.595v16.786h-2.308zm-11.906-.067c0-2.266-1-3.032-2.617-3.127l-1.245.03V81.92c.543-.065 1-.033 1.564-.033 2.68.065 4.756 1.373 4.756 5.554v16.82h-2.458zm17.92 11.65c0 1.944.752 3.104 2.508 3.104s2.507-1.16 2.507-3.135v-.72h2.32v.596c0 3.322-1.567 5.485-4.9 5.485-3.292 0-4.858-2.1-4.858-5.485 0-6.175 7.334-6.646 7.334-11.535 0-1.976-.815-3.135-2.57-3.135s-2.57 1.16-2.57 3.135v1.378h-2.288v-1.253c0-3.323 1.568-5.486 4.92-5.486s4.953 2.163 4.953 5.486c0 6.175-7.366 6.645-7.366 11.566m8.226 3.058h4.124v-20.1h2.494v20.1h4.125v2.27h-10.743zm11.98-20.1h2.494v22.38h-2.494zm9.136 22.38c-3.354 0-4.92-2.194-4.92-5.517V87.4c0-3.16 1.422-5.295 4.445-5.497v-1.135h.27c.924 0 1.46-.3 1.46-.843 0-.562-.477-.9-1.28-.9-.775.055-1.222.365-1.222.814v.197h-1.52v-.224c0-1.097 1.014-1.743 2.742-1.743 1.787 0 2.83.674 2.83 1.798 0 .9-.805 1.434-2.205 1.434v.606c2.973.247 4.356 2.372 4.356 5.492v2.727h-2.32v-2.852c0-1.975-.784-3.166-2.57-3.166-1.755 0-2.57 1.2-2.57 3.166V98.87c0 1.975.816 3.166 2.57 3.166 1.787 0 2.57-1.2 2.57-3.166v-2.1h2.32v1.974c0 3.323-1.567 5.517-4.953 5.517m9.583-15.73l2.462 12.917 2.525-12.917zm.8 15.73l-4.284-22.38h2.3l.864 4.507h5.66l.863-4.507h2.494l-4.284 22.38zm20.734-16.946c0-2.046-.863-3.164-2.653-3.164h-2.718v17.84h2.685c1.823 0 2.686-1.118 2.686-3.165zm-2.62 16.946h-5.244V81.88h5.244c3.484 0 5.083 2.1 5.083 5.532V98.7c0 3.453-1.6 5.563-5.083 5.563"/><use xlink:href="#B"/><path d="M1066.897 101.992h4.124v-20.1h2.494v20.1h4.124v2.27h-10.742zm16.99-8.28h-1.854v8.28h2.43c1.855 0 2.6-1.054 2.6-3.07V96.78c0-2.43-1.183-3.07-3.165-3.07m5.66-5.66c0 2.398-.767 4.06-2.814 4.668 1.92.607 2.782 2.14 2.782 4.604v1.823c0 3.325-1.47 5.115-4.988 5.115h-4.988V81.88h2.495v9.56h1.758c2.078 0 3.26-.798 3.26-3.325V84.6c0-1.503.128-2.078.415-2.718h2.526c-.416.767-.447 1.694-.447 2.685zm5.256.482l2.46 12.917 2.526-12.917zm.8 15.73l-4.284-22.38h2.3l.864 4.507h5.66l.863-4.507h2.494l-4.284 22.38zm17.322-17.072c0-2.08-.83-3.037-2.654-3.037h-2.654v8.345h2.174c2.143 0 3.134-.83 3.134-3.326zm-5.308 14.803h2.462c1.8 0 2.462-.96 2.462-2.942v-1.3c0-2.334-1.023-2.974-3.005-2.974h-1.92zm4.764-8.185c1.95.608 2.622 2.078 2.622 4.445v1.054c0 3.294-1.375 4.956-4.86 4.956h-5.02V81.88h5.148c3.485 0 5.116 1.887 5.116 5.245V89c0 2.462-.83 4.2-3.006 4.796m7.024-5.274l2.462 12.917 2.526-12.917zm.8 15.73l-4.285-22.38h2.302l.864 4.507h5.66l.863-4.507h2.494l-4.285 22.38zm12.263.001h-2.494v-22.38h8.9v2.27h-6.395zm15.965-10.073h-5.5v10.07h-2.494V81.88h2.494v10.072h5.5V81.88h2.494v22.38h-2.494z"/><use xlink:href="#B" x="100"/><path d="M969.14 74.57h-2.052a3.67 3.67 0 0 0-.07.723 3.49 3.49 0 0 0 .07.7h5.8a3.56 3.56 0 0 0 .07-.7 3.59 3.59 0 0 0-.07-.723h-2.05v-6.82l-.414-.04-.4-.018-.42.012-.453.046zm3.865-.893l.327.052a3.21 3.21 0 0 0 .338.017c.115 0 .228-.007.34-.023l.326-.058c.024-.038.044-.092.064-.166l.05-.23.04-.24.03-.202c.168.238.374.45.62.637s.55.28.917.28l.264-.01c.1-.008.172-.02.218-.036a2.15 2.15 0 0 0 .034-.263l.012-.3-.017-.424c-.012-.153-.033-.297-.064-.435a1.71 1.71 0 0 1-.28.022h-.2a2.63 2.63 0 0 1-.435-.04.99.99 0 0 1-.459-.212c-.145-.115-.266-.287-.362-.516s-.142-.55-.142-.963v-2.82a3.43 3.43 0 0 0-.413-.046l-.402-.012-.395.012a3.8 3.8 0 0 0-.419.046zm4.7.997c-.047.26-.07.517-.07.77a4.34 4.34 0 0 0 .07.768 4.5 4.5 0 0 0 .418.052l.406.016.425-.016.425-.052.046-.385.01-.383-.01-.378a3.72 3.72 0 0 0-.046-.391c-.13-.022-.27-.038-.42-.046l-.42-.01-.413.01c-.152.008-.294.024-.423.046m.24-2.235h-.768c-.023.1-.04.205-.05.315l-.018.315a2.68 2.68 0 0 0 .07.608h2.362V67.75a4.87 4.87 0 0 0-.803-.07 4.81 4.81 0 0 0-.791.069zm4.795-3.407a1.21 1.21 0 0 1 .293-.058l.315-.01c.496 0 .886.144 1.17.434s.425.746.425 1.365c0 .55-.088.97-.264 1.256s-.473.43-.894.43a.99.99 0 0 1-.75-.305c-.194-.203-.293-.52-.293-.957zm-1.616 7.097a4.87 4.87 0 0 0 .803.07 4.8 4.8 0 0 0 .813-.07v-3.027c.115.206.307.376.573.5s.573.2.918.2a2.48 2.48 0 0 0 .958-.183 2.01 2.01 0 0 0 .762-.557c.214-.248.383-.56.505-.934s.183-.818.183-1.33c0-.497-.077-.942-.23-1.336s-.375-.728-.665-1.003-.647-.487-1.067-.636-.894-.224-1.42-.224l-.534.024-.567.062c-.2.026-.375.062-.55.104a4.11 4.11 0 0 0-.48.142zm6.684-2.453a4.93 4.93 0 0 0 .813.069 4.92 4.92 0 0 0 .815-.069v-3.142c0-.313.025-.572.075-.773s.126-.364.23-.482a.82.82 0 0 1 .383-.252 1.74 1.74 0 0 1 .54-.075c.283 0 .52.027.7.08v4.644a4.88 4.88 0 0 0 .803.07c.268 0 .54-.023.815-.07V67.98c-.245-.085-.568-.166-.97-.247a6.41 6.41 0 0 0-1.256-.12c-.4 0-.765.03-1.124.1s-.675.2-.945.4-.488.5-.65.872-.24.9-.24 1.524zm6.662 0l.32.052a3.52 3.52 0 0 0 .357.017l.344-.017.3-.052c.023-.038.044-.094.063-.166l.05-.23.04-.234.03-.195c.077.114.168.228.275.344s.232.217.373.3a1.99 1.99 0 0 0 .476.224c.176.058.37.086.585.086.673 0 1.178-.184 1.518-.55s.5-.944.5-1.732V67.75c-.275-.046-.546-.07-.814-.07s-.54.023-.814.07v3.348c0 .413-.062.73-.2.952s-.346.332-.66.332a1.42 1.42 0 0 1-.4-.058.83.83 0 0 1-.372-.223c-.1-.1-.2-.265-.27-.464s-.103-.46-.103-.78V67.75a4.94 4.94 0 0 0-.815-.07 4.92 4.92 0 0 0-.813.069zm9.69-3.2l-.3.04c-.106.012-.202.017-.286.017-.374 0-.67-.067-.9-.2s-.326-.35-.326-.648c0-.198.042-.352.125-.46a.76.76 0 0 1 .305-.234c.118-.05.244-.08.378-.092l.35-.018a1.98 1.98 0 0 1 .344.03l.3.05zm0 1.18c0 .183-.03.332-.092.446s-.145.205-.252.27-.24.1-.395.13a3.48 3.48 0 0 1-.523.035c-.413 0-.85-.08-1.318-.24-.108.2-.188.386-.24.563a2.24 2.24 0 0 0-.08.63 6.07 6.07 0 0 0 1.008.253 6.19 6.19 0 0 0 .94.08c.794 0 1.415-.192 1.862-.574s.672-.993.672-1.835v-3.44a9.7 9.7 0 0 0-.976-.24c-.382-.076-.813-.114-1.295-.114-.4 0-.748.034-1.072.102s-.604.184-.838.345-.412.366-.538.62-.2.56-.2.93.078.674.235.922.36.448.608.596a2.66 2.66 0 0 0 .83.32c.305.063.6.098.918.098l.733-.034zm2.98 4.483c.275.046.547.07.814.07.26 0 .528-.023.803-.07V70.1a3.26 3.26 0 0 1 .04-.573c.027-.146.07-.26.126-.34s.132-.135.224-.166a1.09 1.09 0 0 1 .345-.046 1.63 1.63 0 0 1 .2.012 2.08 2.08 0 0 1 .212.034 3.54 3.54 0 0 0 .126-.918v-.166a.71.71 0 0 0-.023-.166 2.14 2.14 0 0 0-.442-.08l-.475-.023c-.6 0-1.06.162-1.417.487s-.533.855-.533 1.6zm7.785-4.563a5.06 5.06 0 0 0-.699.326 2.12 2.12 0 0 0-.528.425 1.74 1.74 0 0 0-.337.59 2.49 2.49 0 0 0-.121.826 2.48 2.48 0 0 0 .2 1.032 2.05 2.05 0 0 0 .567.751c.245.202.54.356.883.458s.73.154 1.158.154c.4 0 .755-.033 1.096-.102s.697-.168 1.07-.298c-.046-.443-.168-.88-.366-1.308l-.35.138a2.66 2.66 0 0 1-.379.114c-.133.032-.285.056-.453.076a5.41 5.41 0 0 1-.573.028 2.24 2.24 0 0 1-.396-.034 1.13 1.13 0 0 1-.361-.126c-.106-.062-.194-.152-.263-.27s-.103-.273-.103-.465a.82.82 0 0 1 .08-.383c.053-.103.126-.192.218-.264a1.41 1.41 0 0 1 .309-.184l.344-.143.7-.263.8-.356a2.13 2.13 0 0 0 .602-.452c.164-.18.293-.398.384-.655s.14-.57.14-.945c0-.4-.072-.745-.213-1.066s-.346-.597-.614-.827-.598-.408-.992-.538-.846-.195-1.358-.195l-.676.023a4.82 4.82 0 0 0-.568.075l-.534.13-.55.196a4.79 4.79 0 0 0 .127.693l.217.728a5.91 5.91 0 0 1 .907-.292c.282-.066.584-.098.905-.098.48 0 .86.1 1.135.27s.413.452.413.82c0 .183-.032.336-.098.458s-.15.225-.252.3a1.49 1.49 0 0 1-.349.212l-.402.167zm4.702 2.1c.274.046.546.07.813.07a4.82 4.82 0 0 0 .814-.07v-3.142c0-.313.025-.572.075-.773s.126-.364.23-.482a.82.82 0 0 1 .383-.252c.154-.05.333-.075.54-.075a2.7 2.7 0 0 1 .711.08v4.644a4.87 4.87 0 0 0 .803.07 4.86 4.86 0 0 0 .815-.07V67.98c-.246-.085-.57-.166-.97-.247s-.82-.12-1.256-.12a6.8 6.8 0 0 0-1.123.091c-.36.062-.675.2-.946.4s-.487.5-.648.872-.24.9-.24 1.524zm8.254-4.677a2.52 2.52 0 0 1 .712-.092c.474 0 .837.154 1.1.46s.38.77.38 1.388c0 .236-.02.456-.058.66a1.47 1.47 0 0 1-.195.522c-.092.146-.208.26-.35.343s-.315.127-.52.127c-.192 0-.355-.037-.488-.1s-.242-.172-.327-.298a1.31 1.31 0 0 1-.183-.44 2.39 2.39 0 0 1-.058-.54zm-1.627 4.68a2.52 2.52 0 0 0 .315.046l.35.01a3.21 3.21 0 0 0 .654-.069c.023-.038.044-.094.064-.166l.057-.235.045-.246.03-.202a2.4 2.4 0 0 0 .253.362 1.58 1.58 0 0 0 .36.315c.142.092.3.166.476.224a1.88 1.88 0 0 0 .584.086 2.32 2.32 0 0 0 .922-.184c.286-.122.54-.308.752-.557s.38-.56.5-.933.177-.818.177-1.33a3.82 3.82 0 0 0-.218-1.336 2.72 2.72 0 0 0-.63-1.004c-.275-.274-.612-.486-1.008-.636s-.85-.223-1.354-.223l-.384.017-.316.04v-2.63l-.418-.045-.395-.012-.396.012a4.29 4.29 0 0 0-.418.045zm10.434-2.332c-.016.367-.117.664-.304.9s-.45.338-.786.338c-.382 0-.673-.108-.87-.322s-.317-.515-.355-.906zm-2.328-1.135c.03-.458.2-.8.482-.998s.672-.308 1.147-.308c.26 0 .525.024.797.074a4.44 4.44 0 0 1 .773.213 2.7 2.7 0 0 0 .218-.552 2.83 2.83 0 0 0 .103-.688c-.596-.23-1.268-.343-2.017-.343-.55 0-1.023.076-1.417.23s-.715.365-.963.636a2.55 2.55 0 0 0-.55.97 4.07 4.07 0 0 0-.178 1.227c0 .436.06.844.184 1.227a2.85 2.85 0 0 0 .544.997 2.59 2.59 0 0 0 .894.672c.356.164.77.246 1.245.246.413 0 .78-.072 1.1-.218s.595-.345.82-.597a2.33 2.33 0 0 0 .5-.9 3.89 3.89 0 0 0 .172-1.117l-.017-.43-.04-.338zm5.148 3.464l.327.052.338.017a2.35 2.35 0 0 0 .338-.023l.327-.058c.024-.038.044-.092.063-.166l.05-.23.04-.24.03-.202a2.92 2.92 0 0 0 .62.637c.245.187.55.28.917.28l.263-.01c.1-.008.172-.02.218-.036.016-.076.028-.164.035-.263l.01-.3-.016-.424c-.012-.153-.034-.297-.064-.435a1.71 1.71 0 0 1-.28.022h-.2c-.13 0-.275-.013-.436-.04a.99.99 0 0 1-.458-.212c-.146-.115-.266-.287-.362-.516s-.143-.55-.143-.963v-2.82a3.18 3.18 0 0 0-.413-.046l-.402-.012-.395.012a3.81 3.81 0 0 0-.418.046zm4.7.997a4.42 4.42 0 0 0-.068.769 4.52 4.52 0 0 0 .068.768 4.48 4.48 0 0 0 .419.052l.407.016.424-.016.424-.052a3.48 3.48 0 0 0 .046-.385l.01-.383-.01-.378a3.47 3.47 0 0 0-.046-.391 3.71 3.71 0 0 0-.418-.046l-.42-.01-.412.01a3.69 3.69 0 0 0-.425.046m.24-2.235h-.768a2.69 2.69 0 0 0-.052.315c-.012.1-.018.216-.018.315a2.68 2.68 0 0 0 .07.608h2.362V67.75a4.87 4.87 0 0 0-.803-.07 4.79 4.79 0 0 0-.791.069zm5.712-3.59c.428 0 .735.158.923.476s.28.774.28 1.37-.095 1.052-.28 1.37-.495.475-.923.475c-.42 0-.725-.16-.912-.475s-.28-.775-.28-1.37.094-1.053.28-1.37.5-.476.912-.476m0-1.238c-.48 0-.9.078-1.256.234a2.37 2.37 0 0 0-.883.654 2.83 2.83 0 0 0-.527.98c-.117.374-.178.78-.178 1.215s.06.844.178 1.226.294.713.527.992a2.46 2.46 0 0 0 .883.661c.356.16.775.24 1.256.24s.9-.08 1.262-.24.656-.38.893-.66.413-.6.528-.992a4.23 4.23 0 0 0 .17-1.226c0-.436-.056-.84-.17-1.215a2.74 2.74 0 0 0-.528-.981c-.237-.28-.535-.497-.893-.654s-.78-.234-1.262-.234m4.14 6.065l.326.052.338.017a2.35 2.35 0 0 0 .338-.023l.328-.058c.023-.038.043-.092.063-.166l.05-.23.04-.24.03-.202a2.92 2.92 0 0 0 .62.637c.244.187.55.28.917.28l.263-.01c.1-.008.17-.02.217-.036.016-.076.028-.164.035-.263l.012-.3-.017-.424c-.012-.153-.033-.297-.064-.435a1.71 1.71 0 0 1-.28.022h-.2a2.63 2.63 0 0 1-.435-.04.98.98 0 0 1-.458-.212c-.147-.115-.267-.287-.362-.516s-.144-.55-.144-.963v-2.82a3.37 3.37 0 0 0-.412-.046l-.402-.012-.395.012c-.134.007-.273.022-.418.046z"/><path d="M1064.96 72.45l-.372.074a3.02 3.02 0 0 1-.362.018c-.252 0-.472-.052-.66-.155s-.34-.242-.463-.414-.213-.374-.27-.607-.086-.476-.086-.728a2.43 2.43 0 0 1 .114-.797 1.33 1.33 0 0 1 .316-.522 1.17 1.17 0 0 1 .475-.28 2 2 0 0 1 .597-.085l.356.017c.106.01.225.036.355.074zm0 3.68a3.62 3.62 0 0 0 .407.046l.395.01.4-.01a3.55 3.55 0 0 0 .413-.046v-8.187c-.36-.107-.723-.188-1.095-.246s-.82-.086-1.346-.086a4.07 4.07 0 0 0-1.164.166 2.64 2.64 0 0 0-.98.527 2.52 2.52 0 0 0-.67.935c-.163.382-.246.85-.246 1.4 0 .436.07.847.212 1.233s.344.72.608 1.003a2.85 2.85 0 0 0 .958.671c.374.164.8.247 1.25.247l.43-.018a2.22 2.22 0 0 0 .43-.075zm5.7-7.28c.43 0 .735.158.923.476s.28.774.28 1.37-.094 1.052-.28 1.37-.494.475-.923.475c-.42 0-.724-.16-.9-.475s-.28-.775-.28-1.37.093-1.053.28-1.37.5-.476.9-.476m0-1.238c-.48 0-.9.078-1.255.234a2.39 2.39 0 0 0-.884.654c-.234.28-.408.606-.527.98s-.177.78-.177 1.215.06.844.177 1.226.295.713.527.992.528.5.884.66.774.24 1.255.24.902-.08 1.262-.24.657-.38.894-.66.412-.6.528-.992a4.27 4.27 0 0 0 .171-1.226 4.15 4.15 0 0 0-.171-1.215c-.116-.375-.3-.7-.528-.98a2.43 2.43 0 0 0-.894-.654c-.36-.156-.78-.234-1.262-.234m8.267 6.958h-2.054c-.046.23-.068.47-.068.723 0 .236.022.47.068.7h5.8a3.56 3.56 0 0 0 .07-.7 3.59 3.59 0 0 0-.07-.723h-2.052v-6.82l-.413-.04-.4-.018-.42.012-.452.046zm3.873-.893l.326.052a3.21 3.21 0 0 0 .338.017c.115 0 .228-.007.34-.023l.327-.058c.023-.038.044-.092.063-.166l.05-.23.04-.24.03-.202a2.94 2.94 0 0 0 .62.637c.244.187.55.28.917.28l.263-.01c.1-.008.172-.02.218-.036a2.15 2.15 0 0 0 .034-.263l.012-.3-.017-.424a3.23 3.23 0 0 0-.063-.435 1.71 1.71 0 0 1-.28.022h-.2a2.64 2.64 0 0 1-.435-.04c-.16-.026-.314-.097-.458-.212s-.267-.287-.362-.516-.143-.55-.143-.963v-2.82c-.138-.024-.275-.04-.412-.046l-.402-.012-.396.012c-.134.007-.273.022-.418.046zm7.442-3.2l-.298.04a2.57 2.57 0 0 1-.286.017c-.375 0-.67-.067-.9-.2s-.327-.35-.327-.648c0-.198.042-.352.126-.46a.76.76 0 0 1 .305-.234c.118-.05.244-.08.378-.092l.35-.018a1.99 1.99 0 0 1 .344.03l.298.05zm0 1.18c0 .183-.03.332-.1.446a.68.68 0 0 1-.253.27 1 1 0 0 1-.395.13 4.06 4.06 0 0 1-.522.035 4.04 4.04 0 0 1-1.318-.241c-.108.2-.188.386-.24.563a2.24 2.24 0 0 0-.08.63 6.12 6.12 0 0 0 1.008.253 6.19 6.19 0 0 0 .94.08c.795 0 1.416-.192 1.863-.574s.67-.993.67-1.835v-3.44a9.54 9.54 0 0 0-.975-.24c-.382-.076-.813-.114-1.295-.114-.4 0-.748.034-1.072.102s-.604.184-.838.345a1.6 1.6 0 0 0-.538.619c-.127.252-.2.56-.2.93s.078.674.235.922a1.79 1.79 0 0 0 .607.596 2.65 2.65 0 0 0 .832.321 4.32 4.32 0 0 0 .917.098l.733-.034zm4.622-2.614a1.18 1.18 0 0 1 .292-.058l.314-.01c.498 0 .888.144 1.17.434s.425.746.425 1.365c0 .55-.1.97-.264 1.256s-.474.43-.894.43a.99.99 0 0 1-.75-.305c-.193-.203-.292-.52-.292-.957zm-1.617 7.097a4.87 4.87 0 0 0 .803.07 4.83 4.83 0 0 0 .814-.07v-3.027c.114.206.306.376.573.5s.573.2.917.2.663-.06.957-.183.55-.308.763-.557.382-.56.504-.934.183-.818.183-1.33c0-.497-.076-.942-.228-1.336s-.375-.728-.665-1.003-.647-.487-1.067-.636-.894-.224-1.42-.224l-.534.024-.567.062c-.2.026-.375.062-.55.104a3.89 3.89 0 0 0-.481.142zm9.745-5.663l-.298.04a2.57 2.57 0 0 1-.286.017c-.375 0-.67-.067-.9-.2s-.327-.35-.327-.648c0-.198.042-.352.126-.46s.186-.185.305-.234.244-.08.378-.092l.35-.018a1.99 1.99 0 0 1 .344.03l.298.05zm0 1.18c0 .183-.03.332-.092.446a.67.67 0 0 1-.252.27 1 1 0 0 1-.395.13 4.06 4.06 0 0 1-.522.035 4.04 4.04 0 0 1-1.318-.241c-.108.2-.188.386-.24.563a2.24 2.24 0 0 0-.08.63c.336.115.672.2 1.008.253s.65.08.94.08c.795 0 1.416-.192 1.863-.574s.67-.993.67-1.835v-3.44c-.268-.084-.592-.164-.975-.24a6.67 6.67 0 0 0-1.294-.114 5.25 5.25 0 0 0-1.073.102 2.3 2.3 0 0 0-.837.345 1.61 1.61 0 0 0-.539.619c-.126.252-.188.56-.188.93s.077.674.234.922.36.448.608.596a2.65 2.65 0 0 0 .832.321 4.32 4.32 0 0 0 .917.098l.733-.034zm2.982 4.483c.275.046.547.07.814.07.26 0 .528-.023.803-.07V70.1a3.26 3.26 0 0 1 .04-.573c.027-.145.07-.26.127-.34a.44.44 0 0 1 .224-.166 1.09 1.09 0 0 1 .344-.046c.06 0 .128.003.2.012a1.87 1.87 0 0 1 .212.034 3.54 3.54 0 0 0 .126-.918v-.166a.66.66 0 0 0-.024-.166c-.122-.038-.268-.065-.44-.08l-.476-.023c-.6 0-1.06.162-1.416.487s-.533.855-.533 1.6zm3.738 0a3.08 3.08 0 0 0 .4.046l.402.012.4-.012c.138-.007.275-.023.413-.046v-3.152c.053.07.124.15.2.247s.197.186.327.274.287.162.47.224a1.97 1.97 0 0 0 .63.092c.658 0 1.156-.184 1.496-.55s.5-.945.5-1.732v-3.795a3.65 3.65 0 0 0-.412-.045l-.402-.012-.4.012c-.138.007-.276.022-.413.045v3.36c0 .413-.066.73-.196.952s-.35.332-.664.332a1.46 1.46 0 0 1-.401-.058.82.82 0 0 1-.373-.223c-.1-.11-.202-.265-.275-.464s-.1-.46-.1-.78v-3.12a3.62 3.62 0 0 0-.413-.045l-.4-.012-.396.012a3.59 3.59 0 0 0-.407.045zm9.253-7.28c.428 0 .735.158.923.476s.28.774.28 1.37-.094 1.052-.28 1.37-.495.475-.923.475c-.42 0-.725-.16-.9-.475s-.28-.775-.28-1.37.092-1.053.28-1.37.5-.476.9-.476m0-1.238c-.48 0-.9.078-1.256.234a2.37 2.37 0 0 0-.883.654 2.87 2.87 0 0 0-.527.981c-.118.374-.178.78-.178 1.215s.06.844.178 1.226a2.84 2.84 0 0 0 .527.992 2.46 2.46 0 0 0 .883.661c.356.16.775.24 1.256.24s.902-.08 1.26-.24a2.48 2.48 0 0 0 .895-.66c.237-.28.412-.6.528-.992a4.27 4.27 0 0 0 .171-1.226 4.15 4.15 0 0 0-.171-1.215c-.116-.375-.3-.7-.528-.98a2.43 2.43 0 0 0-.895-.654c-.36-.157-.78-.234-1.26-.234"/></g><defs ><path id="B" d="M1060.473 87.273c0-2.007-.815-3.166-2.602-3.166-1.755 0-2.602 1.16-2.602 3.166V98.87c0 1.974.847 3.166 2.602 3.166 1.787 0 2.602-1.192 2.602-3.166zm-2.602 16.99c-3.354 0-5.015-2.163-5.015-5.516V87.398c0-3.322 1.66-5.517 5.015-5.517 3.385 0 5.046 2.195 5.046 5.517v11.348c0 3.353-1.66 5.516-5.046 5.516"/></defs></svg>