<svg xmlns="http://www.w3.org/2000/svg" xmlns:xlink="http://www.w3.org/1999/xlink" height="98.027" width="140.197" viewBox="0 0 140.197 98.027"><defs><clipPath id="A"><path d="M150.012 224.65a3.73 3.73 0 0 1 3.73-3.729 3.73 3.73 0 0 1 3.727 3.729 3.73 3.73 0 0 1-3.727 3.729 3.73 3.73 0 0 1-3.73-3.729"/></clipPath><radialGradient id="B" spreadMethod="pad" gradientTransform="matrix(2.6364498,-2.6364498,2.6364498,2.6364498,151.8765,226.01619)" r="1" cy="0" cx="0" fy="0" fx="0" xlink:href="#v"><stop offset="0" stop-color="#0069a3"/><stop offset="1" stop-color="#004269"/></radialGradient><clipPath id="C"><path d="M146.832 214.68c2.502-.26 4.454-2.375 4.454-4.946v-12.428h4.97v7.457c0 5.313-4.17 9.64-9.417 9.917z"/></clipPath><linearGradient id="D" spreadMethod="pad" y2="197.264" x2="151.54" y1="214.339" x1="151.54" xlink:href="#v"><stop offset="0" stop-color="#0069a3"/><stop offset="1" stop-color="#004269"/></linearGradient><clipPath id="E"><path d="M141.344 219.676v-4.97h4.97l.508-.025c5.254-.268 9.434-4.6 9.434-9.918v4.97c0 5.492-4.452 9.94-9.942 9.94z"/></clipPath><linearGradient id="F" spreadMethod="pad" y2="197.264" x2="148.801" y1="214.339" x1="148.801" xlink:href="#v"><stop offset="0" stop-color="#0069a3"/><stop offset="1" stop-color="#004269"/></linearGradient><clipPath id="G"><path d="M141.344 219.676v-4.97h4.97l.508-.025c5.254-.268 9.434-4.6 9.434-9.918v4.97c0 5.492-4.452 9.94-9.942 9.94z"/></clipPath><linearGradient id="H" spreadMethod="pad" y2="219.606" x2="148.801" y1="214.458" x1="148.801" xlink:href="#v"><stop offset="0" stop-color="#004269"/><stop offset=".116" stop-color="#004770"/><stop offset="1" stop-color="#0069a3"/></linearGradient><clipPath id="I"><path d="M138.858 207.248h9.942v4.973h-9.942z"/></clipPath><linearGradient id="J" spreadMethod="pad" y2="209.735" x2="148.644" y1="209.735" x1="139.024" xlink:href="#v"><stop offset="0" stop-color="#077c60"/><stop offset="1" stop-color="#21ae88"/></linearGradient><clipPath id="K"><path d="M156.257 214.707h9.942v4.97h-9.942z"/></clipPath><linearGradient id="L" spreadMethod="pad" y2="217.192" x2="166.148" y1="217.192" x1="156.32" xlink:href="#v"><stop offset="0" stop-color="#fbdb65"/><stop offset="1" stop-color="#ffce06"/></linearGradient><clipPath id="M"><path d="M143.83 204.764v-6.214c0-2.574-1.956-4.69-4.464-4.946 5.256.267 9.436 4.597 9.436 9.917v1.243z"/></clipPath><linearGradient id="N" spreadMethod="pad" y2="194.904" x2="144.083" y1="204.722" x1="144.083" xlink:href="#v"><stop offset="0" stop-color="#004269"/><stop offset="1" stop-color="#0069a3"/></linearGradient><clipPath id="O"><path d="M139.365 193.604c-.166-.018-.336-.026-.507-.026v-4.97c5.5 0 9.943 4.45 9.943 9.942v4.97c0-5.32-4.18-9.65-9.436-9.917"/></clipPath><linearGradient id="P" spreadMethod="pad" y2="194.904" x2="143.829" y1="204.722" x1="143.829" xlink:href="#v"><stop offset="0" stop-color="#004269"/><stop offset="1" stop-color="#0069a3"/></linearGradient><clipPath id="Q"><path d="M139.365 193.604c-.166-.018-.336-.026-.507-.026v-4.97c5.5 0 9.943 4.45 9.943 9.942v4.97c0-5.32-4.18-9.65-9.436-9.917"/></clipPath><linearGradient id="R" spreadMethod="pad" y2="194.988" x2="143.829" y1="188.648" x1="143.829" xlink:href="#v"><stop offset="0" stop-color="#0069a3"/><stop offset=".442" stop-color="#005281"/><stop offset="1" stop-color="#004269"/></linearGradient><clipPath id="S"><path d="M98.608 179.56a4.12 4.12 0 0 1-.08-.809 4.25 4.25 0 0 1 .08-.836h2.376v-7.898l.523-.053.486-.013.464.02.478.047v7.898h2.376a4.25 4.25 0 0 1 .079.836c0 .274-.026.544-.08.81z"/></clipPath><linearGradient id="T" spreadMethod="pad" y2="181.505" x2="155.521" y1="151.712" x1="155.521" xlink:href="#v"><stop offset="0" stop-color="#004269"/><stop offset="1" stop-color="#0069a3"/></linearGradient><clipPath id="U"><path d="M107.925 176.632c-.283-.216-.523-.46-.716-.736l-.033.233-.047.278-.06.266c-.022.083-.046.148-.072.192l-.38.066c-.13.018-.26.027-.392.027a3.38 3.38 0 0 1-.391-.02c-.12-.012-.245-.033-.378-.06v-6.876l.484-.053.458-.014.464.014c.16.01.32.027.478.053v3.265c0 .478.055.85.167 1.116s.25.464.417.597.346.214.53.245a3.09 3.09 0 0 0 .504.046h.22c.12 0 .228-.01.325-.026a3.72 3.72 0 0 1 .073.505l.02.49-.013.36a2.55 2.55 0 0 1-.041.304c-.053.018-.136.03-.252.04l-.305.013c-.424 0-.778-.11-1.062-.326"/></clipPath><clipPath id="V"><path d="M111.37 179.872l-.485-.06c-.053-.31-.08-.606-.08-.89a5.12 5.12 0 0 1 .08-.89c.15-.026.315-.044.492-.053l.478-.013.484.013c.172.01.334.027.484.053a4.09 4.09 0 0 1 .053.452l.014.438-.014.444c-.01.146-.027.295-.053.445-.15.027-.314.046-.49.06l-.49.02c-.142 0-.3-.006-.47-.02m-1.095-2.993a3.14 3.14 0 0 1-.08-.703c0-.115.006-.238.02-.365s.033-.25.06-.366h.89v-5.43c.318-.053.624-.08.916-.08a5.63 5.63 0 0 1 .928.08v6.863z"/></clipPath><clipPath id="W"><path d="M114.84 179.72v-9.477c.17-.062.355-.117.558-.166a6.67 6.67 0 0 1 .637-.119l.657-.073.618-.027c.6 0 1.16.086 1.645.26s.9.418 1.235.736.592.706.77 1.162.267.97.267 1.547c0 .592-.072 1.106-.213 1.54s-.337.794-.584 1.08-.543.503-.883.645a2.87 2.87 0 0 1-1.109.212c-.397 0-.75-.077-1.06-.233s-.532-.35-.664-.6v3.504a5.74 5.74 0 0 1-.942.079 5.68 5.68 0 0 1-.93-.079m2.2-8.283c-.12.01-.232.032-.338.067V174c0 .504.113.873.338 1.107s.516.353.87.353c.487 0 .83-.166 1.035-.498s.306-.816.306-1.454c0-.716-.164-1.243-.492-1.58s-.778-.504-1.353-.504l-.366.012"/></clipPath><clipPath id="X"><path d="M126.706 176.88v-5.376c-.22-.062-.495-.093-.822-.093a2.01 2.01 0 0 0-.624.086c-.177.057-.326.155-.444.292s-.208.323-.266.557-.086.533-.086.897v3.637c-.32.052-.633.08-.943.08s-.623-.027-.943-.08v-3.69c0-.735.094-1.322.28-1.764s.436-.78.75-1.01a2.54 2.54 0 0 1 1.094-.452 7.73 7.73 0 0 1 1.302-.106c.504 0 .988.046 1.452.14s.84.19 1.122.286v6.597c-.318.052-.633.08-.943.08a5.78 5.78 0 0 1-.929-.079"/></clipPath><clipPath id="Y"><path d="M133.343 176.938c-.203-.066-.387-.152-.55-.258s-.308-.226-.43-.36-.23-.266-.318-.398l-.034.225-.047.273-.06.265a.76.76 0 0 1-.073.193l-.358.06c-.115.014-.247.02-.4.02s-.287-.006-.41-.02-.248-.033-.372-.06v-6.863c.32-.053.633-.08.943-.08s.624.027.942.08v3.597c0 .372.04.673.12.903s.183.4.31.538a.98.98 0 0 0 .432.258 1.74 1.74 0 0 0 .464.066c.363 0 .618-.127.764-.384s.22-.624.22-1.1v-3.877c.318-.053.632-.08.942-.08s.624.027.943.08v4.38c0 .9-.197 1.58-.592 2.004s-.98.637-1.758.637c-.248 0-.474-.033-.677-.1"/></clipPath><clipPath id="Z"><path d="M139.315 176.945a7.14 7.14 0 0 1-1.167-.292 2.52 2.52 0 0 1 .093-.73c.062-.203.155-.42.28-.65.54.187 1.047.28 1.526.28.22 0 .422-.013.604-.04s.334-.078.458-.152.22-.18.292-.314.106-.304.106-.517v-.16l-.85.04a5.11 5.11 0 0 1-1.062-.113c-.353-.076-.675-.2-.962-.37a2.09 2.09 0 0 1-.703-.691c-.18-.288-.272-.644-.272-1.07s.073-.783.22-1.074a1.87 1.87 0 0 1 .623-.718c.27-.185.593-.317.97-.397a5.99 5.99 0 0 1 1.242-.12c.557 0 1.057.044 1.5.133l1.128.278v3.983c0 .973-.26 1.68-.777 2.123s-1.237.664-2.157.664c-.336 0-.7-.03-1.09-.093m1.043-5.608a1.42 1.42 0 0 0-.438.106.88.88 0 0 0-.353.272c-.097.125-.145.3-.145.53 0 .345.127.595.38.75s.594.232 1.028.232a3.5 3.5 0 0 0 .331-.019l.346-.047V171.4l-.346-.06a2.41 2.41 0 0 0-.397-.033l-.405.02"/></clipPath><clipPath id="a"><path d="M144.957 179.72v-7.38c0-.85.206-1.462.617-1.838s.96-.565 1.64-.565l.55.027c.2.018.37.05.51.094.018.07.027.134.027.19v.193c0 .345-.05.7-.146 1.062a1.97 1.97 0 0 0-.246-.039c-.084-.01-.16-.014-.232-.014-.16 0-.292.018-.398.053a.5.5 0 0 0-.259.192.99.99 0 0 0-.146.391c-.03.17-.046.4-.046.665v6.968a5.66 5.66 0 0 1-.93.079 5.73 5.73 0 0 1-.942-.079"/></clipPath><clipPath id="b"><path d="M153.93 179.54c-.398-.12-.738-.297-1.022-.532a2.37 2.37 0 0 1-.657-.868c-.155-.345-.232-.744-.232-1.195 0-.372.046-.7.14-.956a2 2 0 0 1 .391-.683 2.4 2.4 0 0 1 .61-.492 5.88 5.88 0 0 1 .81-.378l.81-.306.466-.192a1.75 1.75 0 0 0 .405-.245c.12-.097.216-.217.29-.358s.113-.32.113-.53c0-.425-.16-.742-.478-.95s-.756-.31-1.314-.31c-.372 0-.72.037-1.05.113a6.83 6.83 0 0 0-1.048.338l-.252-.843c-.07-.278-.12-.547-.147-.803l.637-.226c.205-.062.4-.113.618-.153s.426-.068.657-.085l.784-.027c.592 0 1.116.076 1.572.226s.84.358 1.148.624.547.584.7.954.246.784.246 1.235c0 .434-.053.8-.16 1.096s-.255.548-.445.756-.423.383-.696.524-.58.28-.916.412l-.797.305-.4.166a1.59 1.59 0 0 0-.358.213.94.94 0 0 0-.252.305c-.062.12-.093.267-.093.445 0 .22.04.4.12.538a.84.84 0 0 0 .306.311 1.24 1.24 0 0 0 .418.146c.155.027.308.04.458.04a6.24 6.24 0 0 0 .664-.033l.524-.087c.155-.036.3-.08.438-.132l.405-.16c.23.496.372 1 .425 1.514a9.84 9.84 0 0 1-1.241.345c-.394.08-.816.12-1.268.12a4.68 4.68 0 0 1-1.341-.179"/></clipPath><clipPath id="c"><path d="M163.54 176.88v-5.376c-.22-.062-.496-.093-.824-.093-.238 0-.446.028-.623.086a.98.98 0 0 0-.445.292c-.12.137-.208.323-.265.557s-.087.533-.087.897v3.637c-.318.052-.632.08-.942.08s-.624-.027-.942-.08v-3.69c0-.735.092-1.322.28-1.764s.435-.78.75-1.01.68-.38 1.096-.452.848-.106 1.3-.106c.505 0 .99.046 1.454.14s.838.19 1.12.286v6.597a5.85 5.85 0 0 1-.942.079 5.77 5.77 0 0 1-.929-.079"/></clipPath><clipPath id="d"><path d="M170.095 176.938a2.32 2.32 0 0 1-.55-.258 1.84 1.84 0 0 1-.418-.366 2.7 2.7 0 0 1-.292-.418l-.033.233-.054.284-.066.273a.76.76 0 0 1-.073.193 3.81 3.81 0 0 1-.756.079c-.15 0-.287-.005-.405-.013a2.81 2.81 0 0 1-.366-.053v-10.02l.484-.054.46-.013.458.013.484.054v3.053c.098-.018.22-.034.365-.047l.445-.02c.584 0 1.106.086 1.566.26s.85.418 1.168.736a3.15 3.15 0 0 1 .73 1.162 4.45 4.45 0 0 1 .253 1.547c0 .592-.07 1.106-.206 1.54s-.33.794-.578 1.08-.537.503-.87.645-.688.212-1.07.212c-.247 0-.473-.033-.677-.1m-1.128-5.462v2.336c0 .222.022.43.066.624a1.53 1.53 0 0 0 .213.511 1.06 1.06 0 0 0 .379.346c.155.084.343.126.563.126.24 0 .44-.05.604-.147s.3-.23.405-.398.18-.37.226-.603.067-.5.067-.764c0-.716-.147-1.252-.44-1.606s-.712-.53-1.26-.53c-.31 0-.584.035-.823.106"/></clipPath><clipPath id="e"><path d="M176.486 176.753c-.41-.19-.756-.45-1.035-.777a3.35 3.35 0 0 1-.631-1.155 4.65 4.65 0 0 1-.212-1.42c0-.514.068-.987.206-1.42s.35-.807.637-1.12.66-.56 1.115-.738 1.002-.265 1.64-.265c.867 0 1.647.133 2.337.4a3.29 3.29 0 0 1-.12.795c-.07.25-.155.46-.252.638a5.2 5.2 0 0 0-.896-.246c-.314-.058-.62-.086-.923-.086-.548 0-.99.12-1.327.358s-.522.624-.557 1.155h4.407c.017.097.032.227.046.392l.02.497c0 .46-.066.892-.2 1.295s-.33.75-.59 1.042-.578.522-.95.7-.797.252-1.275.252c-.548 0-1.028-.095-1.44-.285m.405-1.52c.23.246.567.37 1.01.37.39 0 .692-.13.91-.39s.334-.604.352-1.03h-2.68c.044.45.18.8.41 1.05"/></clipPath><clipPath id="f"><path d="M184.895 176.632c-.283-.216-.523-.46-.717-.736l-.033.233-.046.278-.06.266c-.022.083-.047.148-.074.192l-.378.066a2.81 2.81 0 0 1-.391.027 3.41 3.41 0 0 1-.392-.02c-.12-.012-.245-.033-.378-.06v-6.876l.485-.053.458-.014.464.014c.16.01.32.027.478.053v3.265c0 .478.055.85.166 1.116s.25.464.418.597.345.214.53.245a3.08 3.08 0 0 0 .504.046h.22a1.92 1.92 0 0 0 .325-.026 3.72 3.72 0 0 1 .073.505l.02.49-.013.36c-.008.114-.023.215-.04.304-.053.018-.138.03-.252.04l-.305.013c-.425 0-.778-.11-1.062-.326"/></clipPath><clipPath id="g"><path d="M188.34 179.872l-.484-.06c-.053-.31-.08-.606-.08-.89a5.12 5.12 0 0 1 .08-.89 4.1 4.1 0 0 1 .492-.053l.477-.013.485.013c.172.01.334.027.484.053a4.09 4.09 0 0 1 .053.452l.013.438-.013.444c-.01.146-.027.295-.053.445a5.02 5.02 0 0 1-.492.06l-.49.02c-.14 0-.298-.006-.47-.02m-1.094-2.993a3.08 3.08 0 0 1-.08-.703c0-.115.006-.238.02-.365s.033-.25.06-.366h.89v-5.43a5.58 5.58 0 0 1 .915-.08c.302 0 .612.027.93.08v6.863z"/></clipPath><clipPath id="h"><path d="M193.3 176.76c-.41-.186-.752-.44-1.022-.763s-.474-.707-.6-1.148a4.78 4.78 0 0 1-.206-1.421c0-.504.07-.974.206-1.406s.34-.812.6-1.135.61-.575 1.022-.756.896-.273 1.454-.273 1.044.09 1.46.273.76.433 1.036.756.476.7.6 1.135.2.902.2 1.406a4.95 4.95 0 0 1-.199 1.421c-.134.44-.337.825-.6 1.148a2.89 2.89 0 0 1-1.036.763c-.416.186-.903.28-1.46.28s-1.042-.093-1.454-.28m.398-4.918c-.216.368-.325.896-.325 1.586s.11 1.22.325 1.586.57.55 1.056.55c.496 0 .85-.184 1.068-.55s.325-.895.325-1.586-.108-1.218-.325-1.586-.572-.55-1.068-.55c-.487 0-.84.183-1.056.55"/></clipPath><clipPath id="i"><path d="M202.004 176.632c-.283-.216-.523-.46-.717-.736l-.034.233-.045.278-.06.266c-.022.083-.047.148-.074.192l-.378.066a2.81 2.81 0 0 1-.391.027c-.142 0-.272-.006-.392-.02s-.245-.033-.378-.06v-6.876l.485-.053.458-.014.464.014c.16.01.32.027.478.053v3.265c0 .478.055.85.166 1.116s.25.464.418.597a1.16 1.16 0 0 0 .531.245 3.09 3.09 0 0 0 .504.046h.22c.12 0 .227-.01.325-.026a3.57 3.57 0 0 1 .072.505l.02.49-.013.36c-.008.114-.023.215-.04.304-.053.018-.137.03-.252.04l-.305.013c-.425 0-.78-.11-1.062-.326"/></clipPath><clipPath id="j"><path d="M122.333 164.772a4.29 4.29 0 0 1-.471-.052v-2.814c-.16.043-.325.072-.498.085l-.498.02c-.53 0-1.013-.097-1.447-.286a3.31 3.31 0 0 1-1.108-.776 3.41 3.41 0 0 1-.704-1.162 4.13 4.13 0 0 1-.244-1.427c0-.637.094-1.177.284-1.62s.45-.803.777-1.082a3.08 3.08 0 0 1 1.135-.611c.43-.128.878-.19 1.347-.19.6 0 1.13.032 1.56.1s.85.16 1.268.285v9.478c-.16.026-.32.044-.48.052l-.464.013a7.88 7.88 0 0 1-.458-.013m-1.984-8.263a1.38 1.38 0 0 0-.551.326c-.156.15-.277.35-.365.603s-.134.56-.134.923a3.53 3.53 0 0 0 .1.843c.067.27.17.505.313.704a1.58 1.58 0 0 0 .537.477c.217.12.472.18.763.18l.418-.02a4.1 4.1 0 0 0 .432-.086v-3.943a2.2 2.2 0 0 0-.411-.085c-.125-.015-.262-.02-.413-.02a2.31 2.31 0 0 0-.689.099"/></clipPath><clipPath id="k"><path d="M127.005 161.76c-.41-.187-.752-.44-1.022-.764s-.473-.706-.6-1.15a4.73 4.73 0 0 1-.206-1.419c0-.504.068-.974.206-1.408a3.3 3.3 0 0 1 .61-1.135c.27-.323.61-.575 1.022-.756s.896-.27 1.454-.27 1.044.1 1.46.27.76.433 1.035.756a3.19 3.19 0 0 1 .611 1.135 4.82 4.82 0 0 1 .199 1.408 4.93 4.93 0 0 1-.199 1.419 3.17 3.17 0 0 1-.611 1.149 2.89 2.89 0 0 1-1.035.764c-.416.185-.903.278-1.46.278s-1.042-.093-1.454-.278m.398-4.92c-.217.367-.325.896-.325 1.587s.108 1.218.325 1.586.57.55 1.056.55c.495 0 .85-.183 1.068-.55s.325-.896.325-1.586-.108-1.22-.325-1.587-.573-.55-1.068-.55c-.487 0-.84.184-1.056.55"/></clipPath><clipPath id="l"><path d="M135.652 164.56a4.13 4.13 0 0 1-.08-.81c0-.292.027-.57.08-.837h2.376v-7.897l.524-.052.484-.014.466.02.478.047v7.897h2.375c.053.267.08.545.08.837a4.13 4.13 0 0 1-.08.81z"/></clipPath><clipPath id="m"><path d="M144.97 161.633c-.282-.217-.522-.462-.716-.736l-.033.232-.046.278-.06.265a.73.73 0 0 1-.073.193l-.378.067a2.98 2.98 0 0 1-.392.026 3.35 3.35 0 0 1-.39-.02l-.38-.06v-6.875a4.54 4.54 0 0 1 .485-.053l.458-.014.463.014a4.08 4.08 0 0 1 .479.053v3.266c0 .477.055.85.166 1.115s.25.463.417.596.346.215.53.246a3.11 3.11 0 0 0 .505.046h.22a1.81 1.81 0 0 0 .326-.026 3.55 3.55 0 0 1 .072.505l.02.49-.013.358c-.01.115-.023.216-.04.306a1.21 1.21 0 0 1-.252.039l-.306.013c-.425 0-.778-.108-1.062-.325"/></clipPath><clipPath id="n"><path d="M148.938 161.945c-.39-.062-.778-.16-1.168-.29 0-.284.032-.527.094-.73a3.5 3.5 0 0 1 .278-.651c.54.187 1.048.28 1.526.28a4.25 4.25 0 0 0 .604-.041c.182-.026.334-.077.458-.152a.8.8 0 0 0 .293-.312c.07-.133.105-.305.105-.518v-.16l-.85.04c-.353 0-.707-.038-1.06-.114s-.675-.198-.962-.37-.523-.404-.704-.69-.27-.643-.27-1.068.072-.783.218-1.076a1.88 1.88 0 0 1 .624-.716c.27-.186.593-.318.97-.4s.8-.118 1.24-.118c.557 0 1.058.043 1.5.132l1.128.278v3.983c0 .972-.26 1.68-.776 2.123s-1.237.664-2.157.664c-.336 0-.7-.032-1.09-.093m1.042-5.61c-.154.015-.3.05-.438.107a.89.89 0 0 0-.352.272c-.097.124-.146.302-.146.53 0 .346.127.596.38.75s.595.232 1.03.232a3.21 3.21 0 0 0 .331-.019l.345-.048v-1.75l-.345-.06c-.132-.023-.265-.034-.398-.034l-.405.02"/></clipPath><clipPath id="o"><path d="M154.606 164.72v-9.478c.168-.06.353-.117.557-.166s.416-.088.637-.12l.658-.073.616-.026c.61 0 1.16.085 1.646.258s.9.418 1.234.736a3.16 3.16 0 0 1 .771 1.162c.176.455.265.97.265 1.546 0 .593-.07 1.107-.212 1.54s-.337.794-.584 1.08-.543.503-.883.645-.7.212-1.108.212-.752-.078-1.062-.232-.53-.352-.664-.592v3.506c-.318.052-.633.08-.943.08-.3 0-.6-.027-.928-.08m2.2-8.284c-.12.01-.232.032-.34.067v2.495c0 .505.113.873.34 1.108s.515.353.87.353c.487 0 .832-.166 1.035-.498s.305-.817.305-1.453c0-.717-.163-1.245-.5-1.58s-.78-.504-1.355-.504l-.364.012"/></clipPath><clipPath id="p"><path d="M163.698 161.945c-.39-.062-.778-.16-1.168-.29 0-.284.03-.527.093-.73s.155-.42.28-.65c.54.187 1.048.28 1.526.28a4.26 4.26 0 0 0 .604-.041c.18-.026.334-.077.458-.152s.22-.18.292-.312.106-.305.106-.518v-.16l-.85.04c-.353 0-.707-.038-1.06-.114a3.1 3.1 0 0 1-.963-.37 2.11 2.11 0 0 1-.703-.691c-.18-.288-.272-.643-.272-1.068s.073-.783.22-1.076a1.88 1.88 0 0 1 .624-.716c.27-.186.592-.318.97-.4s.8-.118 1.24-.118c.558 0 1.058.043 1.5.132l1.128.278v3.983c0 .972-.26 1.68-.776 2.123s-1.237.664-2.158.664c-.336 0-.7-.032-1.088-.093m1.042-5.61a1.52 1.52 0 0 0-.438.107.89.89 0 0 0-.352.272c-.097.124-.146.302-.146.53 0 .346.126.596.378.75s.595.232 1.03.232c.097 0 .208-.006.332-.02l.345-.048v-1.75l-.345-.06c-.132-.023-.265-.034-.398-.034l-.405.02"/></clipPath><clipPath id="q"><path d="M169.34 164.72v-7.38c0-.85.206-1.464.617-1.84s.958-.565 1.64-.565a6.16 6.16 0 0 1 .551.028c.2.017.37.048.51.093.018.07.027.134.027.192v.192a4.07 4.07 0 0 1-.147 1.062c-.08-.018-.16-.032-.245-.04s-.16-.013-.232-.013c-.16 0-.292.018-.4.053a.51.51 0 0 0-.258.192c-.066.094-.115.224-.146.392s-.046.4-.046.664v6.97a5.78 5.78 0 0 1-.93.079 5.84 5.84 0 0 1-.942-.079"/></clipPath><clipPath id="r"><path d="M174.13 164.772a3.85 3.85 0 0 1-.464-.052v-9.717c.16-.027.316-.045.47-.053l.46-.014.465.014c.158.008.318.026.477.053v3.6c0 .372.042.673.127.903s.2.41.317.537.273.215.432.26.315.067.465.067c.363 0 .62-.13.77-.385s.225-.624.225-1.102v-3.89a4.11 4.11 0 0 1 .478-.053l.465-.014.464.014c.16.008.32.026.478.053v4.393c0 .91-.197 1.58-.59 2.005s-.97.637-1.73.637a2.29 2.29 0 0 1-.73-.106c-.212-.07-.394-.158-.545-.26s-.277-.208-.378-.317l-.246-.286v3.65a4.32 4.32 0 0 1-.477.052l-.465.013a8.22 8.22 0 0 1-.465-.013"/></clipPath><clipPath id="s"><path d="M182.924 161.76c-.41-.187-.752-.44-1.022-.764a3.26 3.26 0 0 1-.61-1.149c-.137-.442-.206-.914-.206-1.42s.07-.974.206-1.408.34-.812.6-1.135.61-.575 1.022-.756.896-.27 1.454-.27 1.044.1 1.46.27a2.8 2.8 0 0 1 1.036.756c.274.323.477.702.6 1.135s.2.904.2 1.408-.066.977-.2 1.42-.336.826-.6 1.15-.62.577-1.036.764-.902.278-1.46.278-1.043-.093-1.454-.278m.398-4.92c-.216.367-.325.896-.325 1.587s.11 1.218.325 1.586.57.55 1.056.55c.495 0 .85-.183 1.068-.55s.325-.896.325-1.586-.108-1.22-.325-1.587-.573-.55-1.068-.55c-.487 0-.84.184-1.056.55"/></clipPath><path id="t" d="M141.344 219.676v-4.97h4.97l.508-.025c5.254-.268 9.434-4.6 9.434-9.918v4.97c0 5.492-4.452 9.94-9.942 9.94z"/><path id="u" d="M139.365 193.604c-.166-.018-.336-.026-.507-.026v-4.97c5.5 0 9.943 4.45 9.943 9.942v4.97c0-5.32-4.18-9.65-9.436-9.917"/><linearGradient id="v" gradientUnits="userSpaceOnUse"/></defs><g transform="matrix(1.333333 0 0 -1.333333 -131.37066 304.50399)"><g clip-path="url(#A)"><path d="M150.012 224.65a3.73 3.73 0 0 1 3.73-3.729 3.73 3.73 0 0 1 3.727 3.729 3.73 3.73 0 0 1-3.727 3.729 3.73 3.73 0 0 1-3.73-3.729" fill="url(#B)"/></g><g clip-path="url(#C)"><path d="M146.832 214.68c2.502-.26 4.454-2.375 4.454-4.946v-12.428h4.97v7.457c0 5.313-4.17 9.64-9.417 9.917z" fill="url(#D)"/></g><g clip-path="url(#E)"><use xlink:href="#t" fill="url(#F)"/></g><g clip-path="url(#G)"><use xlink:href="#t" fill="url(#H)"/></g><g clip-path="url(#I)"><path d="M138.858 207.248h9.942v4.973h-9.942z" fill="url(#J)"/></g><g clip-path="url(#K)"><path d="M156.257 214.707h9.942v4.97h-9.942z" fill="url(#L)"/></g><g clip-path="url(#M)"><path d="M143.83 204.764v-6.214c0-2.574-1.956-4.69-4.464-4.946 5.256.267 9.436 4.597 9.436 9.917v1.243z" fill="url(#N)"/></g><g clip-path="url(#O)"><use xlink:href="#u" fill="url(#P)"/></g><g clip-path="url(#Q)"><use xlink:href="#u" fill="url(#R)"/></g><g clip-path="url(#S)"><path d="M98.608 179.56a4.12 4.12 0 0 1-.08-.809 4.25 4.25 0 0 1 .08-.836h2.376v-7.898l.523-.053.486-.013.464.02.478.047v7.898h2.376a4.25 4.25 0 0 1 .079.836c0 .274-.026.544-.08.81z" fill="url(#T)"/></g><g clip-path="url(#U)"><path d="M107.925 176.632c-.283-.216-.523-.46-.716-.736l-.033.233-.047.278-.06.266c-.022.083-.046.148-.072.192l-.38.066c-.13.018-.26.027-.392.027a3.38 3.38 0 0 1-.391-.02c-.12-.012-.245-.033-.378-.06v-6.876l.484-.053.458-.014.464.014c.16.01.32.027.478.053v3.265c0 .478.055.85.167 1.116s.25.464.417.597.346.214.53.245a3.09 3.09 0 0 0 .504.046h.22c.12 0 .228-.01.325-.026a3.72 3.72 0 0 1 .073.505l.02.49-.013.36a2.55 2.55 0 0 1-.041.304c-.053.018-.136.03-.252.04l-.305.013c-.424 0-.778-.11-1.062-.326" fill="url(#T)"/></g><g clip-path="url(#V)"><path d="M111.37 179.872l-.485-.06c-.053-.31-.08-.606-.08-.89a5.12 5.12 0 0 1 .08-.89c.15-.026.315-.044.492-.053l.478-.013.484.013c.172.01.334.027.484.053a4.09 4.09 0 0 1 .053.452l.014.438-.014.444c-.01.146-.027.295-.053.445-.15.027-.314.046-.49.06l-.49.02c-.142 0-.3-.006-.47-.02m-1.095-2.993a3.14 3.14 0 0 1-.08-.703c0-.115.006-.238.02-.365s.033-.25.06-.366h.89v-5.43c.318-.053.624-.08.916-.08a5.63 5.63 0 0 1 .928.08v6.863z" fill="url(#T)"/></g><g clip-path="url(#W)"><path d="M114.84 179.72v-9.477c.17-.062.355-.117.558-.166a6.67 6.67 0 0 1 .637-.119l.657-.073.618-.027c.6 0 1.16.086 1.645.26s.9.418 1.235.736.592.706.77 1.162.267.97.267 1.547c0 .592-.072 1.106-.213 1.54s-.337.794-.584 1.08-.543.503-.883.645a2.87 2.87 0 0 1-1.109.212c-.397 0-.75-.077-1.06-.233s-.532-.35-.664-.6v3.504a5.74 5.74 0 0 1-.942.079 5.68 5.68 0 0 1-.93-.079m2.2-8.283c-.12.01-.232.032-.338.067V174c0 .504.113.873.338 1.107s.516.353.87.353c.487 0 .83-.166 1.035-.498s.306-.816.306-1.454c0-.716-.164-1.243-.492-1.58s-.778-.504-1.353-.504l-.366.012" fill="url(#T)"/></g><g clip-path="url(#X)"><path d="M126.706 176.88v-5.376c-.22-.062-.495-.093-.822-.093a2.01 2.01 0 0 0-.624.086c-.177.057-.326.155-.444.292s-.208.323-.266.557-.086.533-.086.897v3.637c-.32.052-.633.08-.943.08s-.623-.027-.943-.08v-3.69c0-.735.094-1.322.28-1.764s.436-.78.75-1.01a2.54 2.54 0 0 1 1.094-.452 7.73 7.73 0 0 1 1.302-.106c.504 0 .988.046 1.452.14s.84.19 1.122.286v6.597c-.318.052-.633.08-.943.08a5.78 5.78 0 0 1-.929-.079" fill="url(#T)"/></g><g clip-path="url(#Y)"><path d="M133.343 176.938c-.203-.066-.387-.152-.55-.258s-.308-.226-.43-.36-.23-.266-.318-.398l-.034.225-.047.273-.06.265a.76.76 0 0 1-.073.193l-.358.06c-.115.014-.247.02-.4.02s-.287-.006-.41-.02-.248-.033-.372-.06v-6.863c.32-.053.633-.08.943-.08s.624.027.942.08v3.597c0 .372.04.673.12.903s.183.4.31.538a.98.98 0 0 0 .432.258 1.74 1.74 0 0 0 .464.066c.363 0 .618-.127.764-.384s.22-.624.22-1.1v-3.877c.318-.053.632-.08.942-.08s.624.027.943.08v4.38c0 .9-.197 1.58-.592 2.004s-.98.637-1.758.637c-.248 0-.474-.033-.677-.1" fill="url(#T)"/></g><g clip-path="url(#Z)"><path d="M139.315 176.945a7.14 7.14 0 0 1-1.167-.292 2.52 2.52 0 0 1 .093-.73c.062-.203.155-.42.28-.65.54.187 1.047.28 1.526.28.22 0 .422-.013.604-.04s.334-.078.458-.152.22-.18.292-.314.106-.304.106-.517v-.16l-.85.04a5.11 5.11 0 0 1-1.062-.113c-.353-.076-.675-.2-.962-.37a2.09 2.09 0 0 1-.703-.691c-.18-.288-.272-.644-.272-1.07s.073-.783.22-1.074a1.87 1.87 0 0 1 .623-.718c.27-.185.593-.317.97-.397a5.99 5.99 0 0 1 1.242-.12c.557 0 1.057.044 1.5.133l1.128.278v3.983c0 .973-.26 1.68-.777 2.123s-1.237.664-2.157.664c-.336 0-.7-.03-1.09-.093m1.043-5.608a1.42 1.42 0 0 0-.438.106.88.88 0 0 0-.353.272c-.097.125-.145.3-.145.53 0 .345.127.595.38.75s.594.232 1.028.232a3.5 3.5 0 0 0 .331-.019l.346-.047V171.4l-.346-.06a2.41 2.41 0 0 0-.397-.033l-.405.02" fill="url(#T)"/></g><g clip-path="url(#a)"><path d="M144.957 179.72v-7.38c0-.85.206-1.462.617-1.838s.96-.565 1.64-.565l.55.027c.2.018.37.05.51.094.018.07.027.134.027.19v.193c0 .345-.05.7-.146 1.062a1.97 1.97 0 0 0-.246-.039c-.084-.01-.16-.014-.232-.014-.16 0-.292.018-.398.053a.5.5 0 0 0-.259.192.99.99 0 0 0-.146.391c-.03.17-.046.4-.046.665v6.968a5.66 5.66 0 0 1-.93.079 5.73 5.73 0 0 1-.942-.079" fill="url(#T)"/></g><g clip-path="url(#b)"><path d="M153.93 179.54c-.398-.12-.738-.297-1.022-.532a2.37 2.37 0 0 1-.657-.868c-.155-.345-.232-.744-.232-1.195 0-.372.046-.7.14-.956a2 2 0 0 1 .391-.683 2.4 2.4 0 0 1 .61-.492 5.88 5.88 0 0 1 .81-.378l.81-.306.466-.192a1.75 1.75 0 0 0 .405-.245c.12-.097.216-.217.29-.358s.113-.32.113-.53c0-.425-.16-.742-.478-.95s-.756-.31-1.314-.31c-.372 0-.72.037-1.05.113a6.83 6.83 0 0 0-1.048.338l-.252-.843c-.07-.278-.12-.547-.147-.803l.637-.226c.205-.062.4-.113.618-.153s.426-.068.657-.085l.784-.027c.592 0 1.116.076 1.572.226s.84.358 1.148.624.547.584.7.954.246.784.246 1.235c0 .434-.053.8-.16 1.096s-.255.548-.445.756-.423.383-.696.524-.58.28-.916.412l-.797.305-.4.166a1.59 1.59 0 0 0-.358.213.94.94 0 0 0-.252.305c-.062.12-.093.267-.093.445 0 .22.04.4.12.538a.84.84 0 0 0 .306.311 1.24 1.24 0 0 0 .418.146c.155.027.308.04.458.04a6.24 6.24 0 0 0 .664-.033l.524-.087c.155-.036.3-.08.438-.132l.405-.16c.23.496.372 1 .425 1.514a9.84 9.84 0 0 1-1.241.345c-.394.08-.816.12-1.268.12a4.68 4.68 0 0 1-1.341-.179" fill="url(#T)"/></g><g clip-path="url(#c)"><path d="M163.54 176.88v-5.376c-.22-.062-.496-.093-.824-.093-.238 0-.446.028-.623.086a.98.98 0 0 0-.445.292c-.12.137-.208.323-.265.557s-.087.533-.087.897v3.637c-.318.052-.632.08-.942.08s-.624-.027-.942-.08v-3.69c0-.735.092-1.322.28-1.764s.435-.78.75-1.01.68-.38 1.096-.452.848-.106 1.3-.106c.505 0 .99.046 1.454.14s.838.19 1.12.286v6.597a5.85 5.85 0 0 1-.942.079 5.77 5.77 0 0 1-.929-.079" fill="url(#T)"/></g><g clip-path="url(#d)"><path d="M170.095 176.938a2.32 2.32 0 0 1-.55-.258 1.84 1.84 0 0 1-.418-.366 2.7 2.7 0 0 1-.292-.418l-.033.233-.054.284-.066.273a.76.76 0 0 1-.073.193 3.81 3.81 0 0 1-.756.079c-.15 0-.287-.005-.405-.013a2.81 2.81 0 0 1-.366-.053v-10.02l.484-.054.46-.013.458.013.484.054v3.053c.098-.018.22-.034.365-.047l.445-.02c.584 0 1.106.086 1.566.26s.85.418 1.168.736a3.15 3.15 0 0 1 .73 1.162 4.45 4.45 0 0 1 .253 1.547c0 .592-.07 1.106-.206 1.54s-.33.794-.578 1.08-.537.503-.87.645-.688.212-1.07.212c-.247 0-.473-.033-.677-.1m-1.128-5.462v2.336c0 .222.022.43.066.624a1.53 1.53 0 0 0 .213.511 1.06 1.06 0 0 0 .379.346c.155.084.343.126.563.126.24 0 .44-.05.604-.147s.3-.23.405-.398.18-.37.226-.603.067-.5.067-.764c0-.716-.147-1.252-.44-1.606s-.712-.53-1.26-.53c-.31 0-.584.035-.823.106" fill="url(#T)"/></g><g clip-path="url(#e)"><path d="M176.486 176.753c-.41-.19-.756-.45-1.035-.777a3.35 3.35 0 0 1-.631-1.155 4.65 4.65 0 0 1-.212-1.42c0-.514.068-.987.206-1.42s.35-.807.637-1.12.66-.56 1.115-.738 1.002-.265 1.64-.265c.867 0 1.647.133 2.337.4a3.29 3.29 0 0 1-.12.795c-.07.25-.155.46-.252.638a5.2 5.2 0 0 0-.896-.246c-.314-.058-.62-.086-.923-.086-.548 0-.99.12-1.327.358s-.522.624-.557 1.155h4.407c.017.097.032.227.046.392l.02.497c0 .46-.066.892-.2 1.295s-.33.75-.59 1.042-.578.522-.95.7-.797.252-1.275.252c-.548 0-1.028-.095-1.44-.285m.405-1.52c.23.246.567.37 1.01.37.39 0 .692-.13.91-.39s.334-.604.352-1.03h-2.68c.044.45.18.8.41 1.05" fill="url(#T)"/></g><g clip-path="url(#f)"><path d="M184.895 176.632c-.283-.216-.523-.46-.717-.736l-.033.233-.046.278-.06.266c-.022.083-.047.148-.074.192l-.378.066a2.81 2.81 0 0 1-.391.027 3.41 3.41 0 0 1-.392-.02c-.12-.012-.245-.033-.378-.06v-6.876l.485-.053.458-.014.464.014c.16.01.32.027.478.053v3.265c0 .478.055.85.166 1.116s.25.464.418.597.345.214.53.245a3.08 3.08 0 0 0 .504.046h.22a1.92 1.92 0 0 0 .325-.026 3.72 3.72 0 0 1 .073.505l.02.49-.013.36c-.008.114-.023.215-.04.304-.053.018-.138.03-.252.04l-.305.013c-.425 0-.778-.11-1.062-.326" fill="url(#T)"/></g><g clip-path="url(#g)"><path d="M188.34 179.872l-.484-.06c-.053-.31-.08-.606-.08-.89a5.12 5.12 0 0 1 .08-.89 4.1 4.1 0 0 1 .492-.053l.477-.013.485.013c.172.01.334.027.484.053a4.09 4.09 0 0 1 .053.452l.013.438-.013.444c-.01.146-.027.295-.053.445a5.02 5.02 0 0 1-.492.06l-.49.02c-.14 0-.298-.006-.47-.02m-1.094-2.993a3.08 3.08 0 0 1-.08-.703c0-.115.006-.238.02-.365s.033-.25.06-.366h.89v-5.43a5.58 5.58 0 0 1 .915-.08c.302 0 .612.027.93.08v6.863z" fill="url(#T)"/></g><g clip-path="url(#h)"><path d="M193.3 176.76c-.41-.186-.752-.44-1.022-.763s-.474-.707-.6-1.148a4.78 4.78 0 0 1-.206-1.421c0-.504.07-.974.206-1.406s.34-.812.6-1.135.61-.575 1.022-.756.896-.273 1.454-.273 1.044.09 1.46.273.76.433 1.036.756.476.7.6 1.135.2.902.2 1.406a4.95 4.95 0 0 1-.199 1.421c-.134.44-.337.825-.6 1.148a2.89 2.89 0 0 1-1.036.763c-.416.186-.903.28-1.46.28s-1.042-.093-1.454-.28m.398-4.918c-.216.368-.325.896-.325 1.586s.11 1.22.325 1.586.57.55 1.056.55c.496 0 .85-.184 1.068-.55s.325-.895.325-1.586-.108-1.218-.325-1.586-.572-.55-1.068-.55c-.487 0-.84.183-1.056.55" fill="url(#T)"/></g><g clip-path="url(#i)"><path d="M202.004 176.632c-.283-.216-.523-.46-.717-.736l-.034.233-.045.278-.06.266c-.022.083-.047.148-.074.192l-.378.066a2.81 2.81 0 0 1-.391.027c-.142 0-.272-.006-.392-.02s-.245-.033-.378-.06v-6.876l.485-.053.458-.014.464.014c.16.01.32.027.478.053v3.265c0 .478.055.85.166 1.116s.25.464.418.597a1.16 1.16 0 0 0 .531.245 3.09 3.09 0 0 0 .504.046h.22c.12 0 .227-.01.325-.026a3.57 3.57 0 0 1 .072.505l.02.49-.013.36c-.008.114-.023.215-.04.304-.053.018-.137.03-.252.04l-.305.013c-.425 0-.78-.11-1.062-.326" fill="url(#T)"/></g><g clip-path="url(#j)"><path d="M122.333 164.772a4.29 4.29 0 0 1-.471-.052v-2.814c-.16.043-.325.072-.498.085l-.498.02c-.53 0-1.013-.097-1.447-.286a3.31 3.31 0 0 1-1.108-.776 3.41 3.41 0 0 1-.704-1.162 4.13 4.13 0 0 1-.244-1.427c0-.637.094-1.177.284-1.62s.45-.803.777-1.082a3.08 3.08 0 0 1 1.135-.611c.43-.128.878-.19 1.347-.19.6 0 1.13.032 1.56.1s.85.16 1.268.285v9.478c-.16.026-.32.044-.48.052l-.464.013a7.88 7.88 0 0 1-.458-.013m-1.984-8.263a1.38 1.38 0 0 0-.551.326c-.156.15-.277.35-.365.603s-.134.56-.134.923a3.53 3.53 0 0 0 .1.843c.067.27.17.505.313.704a1.58 1.58 0 0 0 .537.477c.217.12.472.18.763.18l.418-.02a4.1 4.1 0 0 0 .432-.086v-3.943a2.2 2.2 0 0 0-.411-.085c-.125-.015-.262-.02-.413-.02a2.31 2.31 0 0 0-.689.099" fill="url(#T)"/></g><g clip-path="url(#k)"><path d="M127.005 161.76c-.41-.187-.752-.44-1.022-.764s-.473-.706-.6-1.15a4.73 4.73 0 0 1-.206-1.419c0-.504.068-.974.206-1.408a3.3 3.3 0 0 1 .61-1.135c.27-.323.61-.575 1.022-.756s.896-.27 1.454-.27 1.044.1 1.46.27.76.433 1.035.756a3.19 3.19 0 0 1 .611 1.135 4.82 4.82 0 0 1 .199 1.408 4.93 4.93 0 0 1-.199 1.419 3.17 3.17 0 0 1-.611 1.149 2.89 2.89 0 0 1-1.035.764c-.416.185-.903.278-1.46.278s-1.042-.093-1.454-.278m.398-4.92c-.217.367-.325.896-.325 1.587s.108 1.218.325 1.586.57.55 1.056.55c.495 0 .85-.183 1.068-.55s.325-.896.325-1.586-.108-1.22-.325-1.587-.573-.55-1.068-.55c-.487 0-.84.184-1.056.55" fill="url(#T)"/></g><g clip-path="url(#l)"><path d="M135.652 164.56a4.13 4.13 0 0 1-.08-.81c0-.292.027-.57.08-.837h2.376v-7.897l.524-.052.484-.014.466.02.478.047v7.897h2.375c.053.267.08.545.08.837a4.13 4.13 0 0 1-.08.81z" fill="url(#T)"/></g><g clip-path="url(#m)"><path d="M144.97 161.633c-.282-.217-.522-.462-.716-.736l-.033.232-.046.278-.06.265a.73.73 0 0 1-.073.193l-.378.067a2.98 2.98 0 0 1-.392.026 3.35 3.35 0 0 1-.39-.02l-.38-.06v-6.875a4.54 4.54 0 0 1 .485-.053l.458-.014.463.014a4.08 4.08 0 0 1 .479.053v3.266c0 .477.055.85.166 1.115s.25.463.417.596.346.215.53.246a3.11 3.11 0 0 0 .505.046h.22a1.81 1.81 0 0 0 .326-.026 3.55 3.55 0 0 1 .072.505l.02.49-.013.358c-.01.115-.023.216-.04.306a1.21 1.21 0 0 1-.252.039l-.306.013c-.425 0-.778-.108-1.062-.325" fill="url(#T)"/></g><g clip-path="url(#n)"><path d="M148.938 161.945c-.39-.062-.778-.16-1.168-.29 0-.284.032-.527.094-.73a3.5 3.5 0 0 1 .278-.651c.54.187 1.048.28 1.526.28a4.25 4.25 0 0 0 .604-.041c.182-.026.334-.077.458-.152a.8.8 0 0 0 .293-.312c.07-.133.105-.305.105-.518v-.16l-.85.04c-.353 0-.707-.038-1.06-.114s-.675-.198-.962-.37-.523-.404-.704-.69-.27-.643-.27-1.068.072-.783.218-1.076a1.88 1.88 0 0 1 .624-.716c.27-.186.593-.318.97-.4s.8-.118 1.24-.118c.557 0 1.058.043 1.5.132l1.128.278v3.983c0 .972-.26 1.68-.776 2.123s-1.237.664-2.157.664c-.336 0-.7-.032-1.09-.093m1.042-5.61c-.154.015-.3.05-.438.107a.89.89 0 0 0-.352.272c-.097.124-.146.302-.146.53 0 .346.127.596.38.75s.595.232 1.03.232a3.21 3.21 0 0 0 .331-.019l.345-.048v-1.75l-.345-.06c-.132-.023-.265-.034-.398-.034l-.405.02" fill="url(#T)"/></g><g clip-path="url(#o)"><path d="M154.606 164.72v-9.478c.168-.06.353-.117.557-.166s.416-.088.637-.12l.658-.073.616-.026c.61 0 1.16.085 1.646.258s.9.418 1.234.736a3.16 3.16 0 0 1 .771 1.162c.176.455.265.97.265 1.546 0 .593-.07 1.107-.212 1.54s-.337.794-.584 1.08-.543.503-.883.645-.7.212-1.108.212-.752-.078-1.062-.232-.53-.352-.664-.592v3.506c-.318.052-.633.08-.943.08-.3 0-.6-.027-.928-.08m2.2-8.284c-.12.01-.232.032-.34.067v2.495c0 .505.113.873.34 1.108s.515.353.87.353c.487 0 .832-.166 1.035-.498s.305-.817.305-1.453c0-.717-.163-1.245-.5-1.58s-.78-.504-1.355-.504l-.364.012" fill="url(#T)"/></g><g clip-path="url(#p)"><path d="M163.698 161.945c-.39-.062-.778-.16-1.168-.29 0-.284.03-.527.093-.73s.155-.42.28-.65c.54.187 1.048.28 1.526.28a4.26 4.26 0 0 0 .604-.041c.18-.026.334-.077.458-.152s.22-.18.292-.312.106-.305.106-.518v-.16l-.85.04c-.353 0-.707-.038-1.06-.114a3.1 3.1 0 0 1-.963-.37 2.11 2.11 0 0 1-.703-.691c-.18-.288-.272-.643-.272-1.068s.073-.783.22-1.076a1.88 1.88 0 0 1 .624-.716c.27-.186.592-.318.97-.4s.8-.118 1.24-.118c.558 0 1.058.043 1.5.132l1.128.278v3.983c0 .972-.26 1.68-.776 2.123s-1.237.664-2.158.664c-.336 0-.7-.032-1.088-.093m1.042-5.61a1.52 1.52 0 0 0-.438.107.89.89 0 0 0-.352.272c-.097.124-.146.302-.146.53 0 .346.126.596.378.75s.595.232 1.03.232c.097 0 .208-.006.332-.02l.345-.048v-1.75l-.345-.06c-.132-.023-.265-.034-.398-.034l-.405.02" fill="url(#T)"/></g><g clip-path="url(#q)"><path d="M169.34 164.72v-7.38c0-.85.206-1.464.617-1.84s.958-.565 1.64-.565a6.16 6.16 0 0 1 .551.028c.2.017.37.048.51.093.018.07.027.134.027.192v.192a4.07 4.07 0 0 1-.147 1.062c-.08-.018-.16-.032-.245-.04s-.16-.013-.232-.013c-.16 0-.292.018-.4.053a.51.51 0 0 0-.258.192c-.066.094-.115.224-.146.392s-.046.4-.046.664v6.97a5.78 5.78 0 0 1-.93.079 5.84 5.84 0 0 1-.942-.079" fill="url(#T)"/></g><g clip-path="url(#r)"><path d="M174.13 164.772a3.85 3.85 0 0 1-.464-.052v-9.717c.16-.027.316-.045.47-.053l.46-.014.465.014c.158.008.318.026.477.053v3.6c0 .372.042.673.127.903s.2.41.317.537.273.215.432.26.315.067.465.067c.363 0 .62-.13.77-.385s.225-.624.225-1.102v-3.89a4.11 4.11 0 0 1 .478-.053l.465-.014.464.014c.16.008.32.026.478.053v4.393c0 .91-.197 1.58-.59 2.005s-.97.637-1.73.637a2.29 2.29 0 0 1-.73-.106c-.212-.07-.394-.158-.545-.26s-.277-.208-.378-.317l-.246-.286v3.65a4.32 4.32 0 0 1-.477.052l-.465.013a8.22 8.22 0 0 1-.465-.013" fill="url(#T)"/></g><g clip-path="url(#s)"><path d="M182.924 161.76c-.41-.187-.752-.44-1.022-.764a3.26 3.26 0 0 1-.61-1.149c-.137-.442-.206-.914-.206-1.42s.07-.974.206-1.408.34-.812.6-1.135.61-.575 1.022-.756.896-.27 1.454-.27 1.044.1 1.46.27a2.8 2.8 0 0 1 1.036.756c.274.323.477.702.6 1.135s.2.904.2 1.408-.066.977-.2 1.42-.336.826-.6 1.15-.62.577-1.036.764-.902.278-1.46.278-1.043-.093-1.454-.278m.398-4.92c-.216.367-.325.896-.325 1.587s.11 1.218.325 1.586.57.55 1.056.55c.495 0 .85-.183 1.068-.55s.325-.896.325-1.586-.108-1.22-.325-1.587-.573-.55-1.068-.55c-.487 0-.84.184-1.056.55" fill="url(#T)"/></g></g></svg>