<svg xmlns="http://www.w3.org/2000/svg" xmlns:xlink="http://www.w3.org/1999/xlink" height="53.251" width="304.934" viewBox="0 0 304.934 53.251"><g transform="matrix(1.333333 0 0 -1.333333 -450.39026 139.01733)"><path d="M352.676 96.637a3.73 3.73 0 0 1 3.729 3.729 3.73 3.73 0 0 1-3.729 3.728 3.73 3.73 0 0 1-3.729-3.728 3.73 3.73 0 0 1 3.729-3.729m-7.426-1.243h-4.972v-4.97h4.972c.17 0 .34-.01.508-.026 2.507-.254 4.463-2.372 4.463-4.946v-12.43h4.97V85.45c0 5.5-4.45 9.943-9.942 9.943" fill="#004269"/><path d="M337.793 82.966h9.942v4.972h-9.942z" fill="#077c60"/><path d="M355.192 90.423h9.942v4.972h-9.942z" fill="#ffce06"/><g fill="#004269"><path d="M342.764 74.265a4.97 4.97 0 0 0-4.463-4.944c-.167-.018-.337-.027-.508-.027v-4.97c5.492 0 9.943 4.45 9.943 9.94v6.215h-4.972zM385.85 87.35c0-2-.8-3.192-2.56-3.192-1.802 0-2.592 1.2-2.592 3.192v16.913h-2.434V87.476c0-3.35 1.55-5.595 4.93-5.595 3.414 0 4.964 2.244 4.964 5.595v16.786h-2.308zm-11.908-.067c0-2.266-1-3.032-2.617-3.127l-1.245.03V81.92c.543-.065 1-.033 1.564-.033 2.68.065 4.756 1.373 4.756 5.554v16.82h-2.458zm17.92 11.65c0 1.944.752 3.104 2.508 3.104s2.507-1.16 2.507-3.135v-.72h2.32v.596c0 3.322-1.567 5.485-4.9 5.485-3.3 0-4.858-2.1-4.858-5.485 0-6.175 7.334-6.646 7.334-11.535 0-1.976-.815-3.135-2.57-3.135s-2.57 1.16-2.57 3.135v1.378h-2.288v-1.253c0-3.323 1.568-5.486 4.922-5.486s4.952 2.163 4.952 5.486c0 6.175-7.366 6.645-7.366 11.566m8.226 3.058h4.125v-20.1h2.494v20.1h4.124v2.27H400.08zm11.98-20.1h2.494v22.38h-2.494zm9.136 22.38c-3.354 0-4.92-2.194-4.92-5.517V87.4c0-3.16 1.42-5.295 4.445-5.497v-1.135h.268c.924 0 1.46-.3 1.46-.843 0-.562-.476-.9-1.28-.9-.775.055-1.222.365-1.222.814v.197h-1.52v-.224c0-1.097 1.014-1.743 2.742-1.743 1.786 0 2.83.674 2.83 1.798 0 .9-.804 1.434-2.204 1.434v.606c2.973.247 4.356 2.372 4.356 5.492v2.727h-2.32v-2.852c0-1.975-.783-3.166-2.57-3.166-1.755 0-2.57 1.2-2.57 3.166V98.87c0 1.975.816 3.166 2.57 3.166 1.787 0 2.57-1.2 2.57-3.166v-2.1h2.32v1.974c0 3.323-1.568 5.517-4.953 5.517m9.582-15.73l2.462 12.917 2.526-12.917zm.8 15.73l-4.284-22.38h2.302l.863 4.507h5.66l.864-4.507h2.494l-4.285 22.38zm20.737-16.946c0-2.046-.863-3.164-2.654-3.164h-2.718v17.84h2.686c1.823 0 2.686-1.118 2.686-3.165zm-2.622 16.946h-5.243V81.88h5.243c3.485 0 5.084 2.1 5.084 5.532V98.7c0 3.453-1.6 5.563-5.084 5.563"/><use xlink:href="#B"/><path d="M470.47 101.992h4.125v-20.1h2.494v20.1h4.124v2.27H470.47zm16.993-8.28h-1.854v8.28h2.43c1.854 0 2.6-1.054 2.6-3.07V96.78c0-2.43-1.183-3.07-3.165-3.07m5.66-5.66c0 2.398-.767 4.06-2.814 4.668 1.92.607 2.782 2.14 2.782 4.604v1.823c0 3.325-1.47 5.115-4.988 5.115h-4.987V81.88h2.494v9.56h1.758c2.078 0 3.26-.798 3.26-3.325V84.6c0-1.503.128-2.078.416-2.718h2.525c-.415.767-.447 1.694-.447 2.685zm5.276.482l2.46 12.917 2.526-12.917zm.8 15.73l-4.284-22.38h2.3l.864 4.507h5.66l.863-4.507h2.494l-4.284 22.38zM516.512 87.2c0-2.08-.83-3.037-2.654-3.037h-2.654v8.345h2.175c2.142 0 3.133-.83 3.133-3.326zm-5.308 14.803h2.462c1.8 0 2.463-.96 2.463-2.942v-1.3c0-2.334-1.024-2.974-3.006-2.974h-1.92zm4.765-8.185c1.95.608 2.62 2.078 2.62 4.445v1.054c0 3.294-1.374 4.956-4.86 4.956h-5.02V81.88h5.147c3.486 0 5.116 1.887 5.116 5.245V89c0 2.462-.83 4.2-3.005 4.796m7.026-5.274l2.46 12.917 2.526-12.917zm.8 15.73l-4.284-22.38h2.302l.863 4.507h5.66l.863-4.507h2.495l-4.285 22.38zm12.262.001h-2.494v-22.38h8.9v2.27h-6.395zM552.02 94.2h-5.5v10.07h-2.494V81.88h2.494v10.072h5.5V81.88h2.494v22.38h-2.494z"/><use xlink:href="#B" x="100"/><path d="M372.716 74.57h-2.052a3.67 3.67 0 0 0-.07.723 3.49 3.49 0 0 0 .07.7h5.8a3.56 3.56 0 0 0 .07-.7 3.59 3.59 0 0 0-.07-.723h-2.052v-6.82L374 67.7l-.4-.018-.42.012-.453.046zm3.864-.893l.327.052a3.18 3.18 0 0 0 .338.017 2.36 2.36 0 0 0 .338-.023l.327-.058c.023-.038.044-.092.063-.166l.052-.23.04-.24.03-.202a2.92 2.92 0 0 0 .62.637c.244.187.55.28.917.28l.263-.01a.97.97 0 0 0 .219-.036 2.15 2.15 0 0 0 .034-.263l.012-.3-.017-.424c-.012-.153-.033-.297-.064-.435a1.71 1.71 0 0 1-.28.022h-.2c-.13 0-.275-.013-.436-.04s-.313-.097-.458-.212-.266-.287-.362-.516-.143-.55-.143-.963v-2.82a3.41 3.41 0 0 0-.413-.046l-.4-.012-.396.012c-.133.007-.273.022-.418.046zm4.7.997a4.42 4.42 0 0 0-.069.769 4.44 4.44 0 0 0 .07.768 4.5 4.5 0 0 0 .418.052l.407.016.425-.016.424-.052a3.48 3.48 0 0 0 .046-.385l.01-.383v-.378a3.47 3.47 0 0 0-.046-.391 3.73 3.73 0 0 0-.419-.046l-.418-.01-.413.01c-.153.008-.294.024-.424.046m.24-2.235h-.77a2.92 2.92 0 0 0-.051.315l-.017.315c0 .207.023.4.068.608h2.362V67.75a4.85 4.85 0 0 0-.802-.07 4.8 4.8 0 0 0-.791.069zm4.782-3.406a1.2 1.2 0 0 1 .293-.058l.315-.01c.496 0 .886.144 1.17.434s.425.746.425 1.365c0 .55-.088.97-.264 1.256s-.474.43-.894.43a.99.99 0 0 1-.75-.305c-.194-.203-.293-.52-.293-.957zm-1.616 7.097a4.86 4.86 0 0 0 .803.069 4.92 4.92 0 0 0 .813-.069v-3.027c.115.206.306.376.573.5s.573.2.918.2a2.48 2.48 0 0 0 .958-.183 2.01 2.01 0 0 0 .762-.557c.213-.248.382-.56.504-.934s.183-.818.183-1.33c0-.497-.076-.942-.23-1.336a2.7 2.7 0 0 0-.665-1.003c-.3-.275-.646-.487-1.066-.636s-.894-.224-1.42-.224l-.534.024-.568.062a5.7 5.7 0 0 0-.55.104c-.176.042-.336.088-.48.142zm6.685-2.453a4.92 4.92 0 0 0 .813.069c.268 0 .54-.023.815-.07v-3.142c0-.313.025-.572.075-.773s.126-.364.23-.482a.84.84 0 0 1 .384-.252c.154-.05.332-.075.54-.075.282 0 .52.027.7.08v4.644a4.88 4.88 0 0 0 .803.07 4.84 4.84 0 0 0 .815-.07V67.98a7.79 7.79 0 0 0-.97-.247 6.4 6.4 0 0 0-1.255-.12c-.4 0-.765.03-1.124.1a2.07 2.07 0 0 0-.946.4c-.27.2-.487.5-.648.872s-.24.9-.24 1.524zm6.66 0l.32.052.356.017.344-.017.3-.052c.023-.038.044-.094.063-.166l.052-.23.04-.234.03-.195a2.83 2.83 0 0 0 .276.344c.107.114.23.217.372.3s.3.166.476.224.37.086.585.086c.673 0 1.18-.184 1.52-.55s.5-.944.5-1.732V67.75c-.275-.046-.546-.07-.814-.07s-.54.023-.814.07v3.348c0 .413-.063.73-.2.952s-.346.332-.66.332c-.13 0-.264-.018-.4-.058a.86.86 0 0 1-.373-.223c-.1-.11-.2-.265-.27-.464s-.103-.46-.103-.78V67.75c-.275-.046-.547-.07-.814-.07a4.82 4.82 0 0 0-.814.07zm9.69-3.2l-.3.04c-.106.012-.202.017-.286.017-.374 0-.67-.067-.9-.2s-.327-.35-.327-.648c0-.198.043-.352.126-.46s.186-.185.304-.234a1.26 1.26 0 0 1 .379-.092l.35-.018a1.99 1.99 0 0 1 .344.03l.3.05zm0 1.18c0 .183-.03.332-.092.446a.69.69 0 0 1-.252.27c-.107.065-.24.1-.396.13s-.33.035-.522.035a4.04 4.04 0 0 1-1.318-.241c-.108.2-.188.386-.24.563a2.24 2.24 0 0 0-.08.63 6.08 6.08 0 0 0 1.009.253 6.18 6.18 0 0 0 .94.08c.795 0 1.416-.192 1.863-.574s.67-.993.67-1.835v-3.44a9.54 9.54 0 0 0-.975-.24c-.382-.076-.814-.114-1.295-.114-.4 0-.748.034-1.072.102s-.604.184-.838.345a1.61 1.61 0 0 0-.538.619c-.126.252-.2.56-.2.93s.078.674.236.922.36.448.608.596a2.66 2.66 0 0 0 .83.32 4.34 4.34 0 0 0 .918.098l.734-.034zm2.98 4.483c.275.046.546.07.814.07.26 0 .528-.023.803-.07V70.1a3.26 3.26 0 0 1 .04-.573c.027-.146.07-.26.126-.34a.44.44 0 0 1 .223-.166 1.09 1.09 0 0 1 .345-.046 1.63 1.63 0 0 1 .201.012 1.96 1.96 0 0 1 .21.034 3.5 3.5 0 0 0 .127-.918v-.166a.71.71 0 0 0-.023-.166 2.14 2.14 0 0 0-.442-.08l-.475-.023c-.6 0-1.06.162-1.417.487s-.533.855-.533 1.6zm7.785-4.563c-.26.1-.493.208-.7.326a2.04 2.04 0 0 0-.528.425 1.76 1.76 0 0 0-.338.59c-.08.23-.12.505-.12.826a2.48 2.48 0 0 0 .2 1.032 2.04 2.04 0 0 0 .567.751 2.48 2.48 0 0 0 .882.458c.345.104.73.154 1.16.154.4 0 .754-.033 1.095-.102a8.31 8.31 0 0 0 1.072-.298 4.09 4.09 0 0 0-.367-1.308l-.35.138a2.61 2.61 0 0 1-.378.114 4.02 4.02 0 0 1-.453.076 5.43 5.43 0 0 1-.574.028c-.13 0-.26-.01-.395-.034a1.13 1.13 0 0 1-.361-.126.73.73 0 0 1-.264-.27c-.068-.12-.103-.273-.103-.465 0-.152.027-.28.08-.383s.126-.192.22-.264a1.39 1.39 0 0 1 .309-.184l.344-.143.688-.263.8-.356a2.13 2.13 0 0 0 .602-.452c.164-.18.293-.398.384-.655a2.84 2.84 0 0 0 .138-.945c0-.4-.07-.745-.212-1.066s-.347-.597-.614-.827-.598-.408-.992-.538-.846-.195-1.36-.195l-.676.023a4.83 4.83 0 0 0-.567.075l-.534.13c-.176.052-.36.12-.55.196a4.92 4.92 0 0 0 .126.693l.217.728c.322-.13.624-.228.907-.292s.585-.098.905-.098c.482 0 .86.1 1.136.27s.412.452.412.82c0 .183-.032.336-.097.458a1 1 0 0 1-.252.309 1.5 1.5 0 0 1-.35.212l-.4.167zm4.702 2.1c.275.046.547.07.814.07a4.82 4.82 0 0 0 .814-.07v-3.142c0-.313.025-.572.075-.773s.126-.364.23-.482a.84.84 0 0 1 .384-.252 1.74 1.74 0 0 1 .539-.075 2.7 2.7 0 0 1 .711.08v4.644a4.86 4.86 0 0 0 .803.069 4.84 4.84 0 0 0 .814-.07V67.98c-.245-.085-.568-.166-.97-.247a6.41 6.41 0 0 0-1.256-.12 6.82 6.82 0 0 0-1.124.091c-.36.062-.674.2-.945.4s-.488.5-.648.872-.24.9-.24 1.524zM431.444 69c.207-.06.444-.092.7-.092.474 0 .837.154 1.1.46s.378.77.378 1.388c0 .236-.02.456-.057.66s-.103.376-.196.522a1.03 1.03 0 0 1-.349.343c-.14.084-.315.127-.522.127-.2 0-.354-.037-.487-.1a.91.91 0 0 1-.327-.298 1.31 1.31 0 0 1-.183-.44 2.45 2.45 0 0 1-.058-.54zm-1.627 4.68c.106.022.2.038.315.046l.35.01a3.22 3.22 0 0 0 .654-.069c.023-.038.044-.094.063-.166l.057-.235.046-.246.03-.202c.07.122.153.243.252.362a1.59 1.59 0 0 0 .362.315 2.02 2.02 0 0 0 .475.224c.175.057.37.086.585.086.328 0 .636-.062.922-.184a2.04 2.04 0 0 0 .752-.557 2.61 2.61 0 0 0 .498-.933c.12-.375.178-.818.178-1.33 0-.497-.073-.943-.218-1.336s-.355-.73-.63-1.004a2.82 2.82 0 0 0-1.009-.636c-.398-.15-.85-.223-1.353-.223l-.384.017-.316.04v-2.63l-.418-.045-.395-.012-.396.012a4.29 4.29 0 0 0-.418.045zm10.433-2.332c-.016.367-.117.664-.304.9s-.45.338-.785.338c-.383 0-.673-.108-.872-.322s-.317-.515-.355-.906zm-2.328-1.135c.03-.458.2-.8.482-.998s.672-.308 1.147-.308c.26 0 .525.024.797.074a4.45 4.45 0 0 1 .774.213 2.76 2.76 0 0 0 .217-.552 2.83 2.83 0 0 0 .103-.688c-.596-.23-1.268-.343-2.017-.343-.55 0-1.023.076-1.417.23s-.715.365-.963.636a2.54 2.54 0 0 0-.55.969c-.12.375-.178.784-.178 1.227 0 .436.06.844.183 1.227a2.86 2.86 0 0 0 .545.997 2.59 2.59 0 0 0 .894.672c.356.164.77.246 1.245.246.413 0 .78-.072 1.1-.218s.594-.345.82-.597a2.32 2.32 0 0 0 .5-.9 3.89 3.89 0 0 0 .172-1.117l-.017-.43-.04-.338zm5.148 3.464l.327.052a3.18 3.18 0 0 0 .338.017 2.36 2.36 0 0 0 .338-.023l.327-.058c.023-.038.044-.092.063-.166l.05-.23.04-.24.03-.202c.168.238.374.45.62.637s.55.28.917.28l.263-.01c.1-.008.172-.02.218-.036a2.15 2.15 0 0 0 .034-.263l.012-.3-.017-.424a3.23 3.23 0 0 0-.063-.435 1.71 1.71 0 0 1-.28.022h-.2c-.13 0-.276-.013-.436-.04a.99.99 0 0 1-.458-.212c-.146-.115-.266-.287-.362-.516s-.143-.55-.143-.963v-2.82a3.41 3.41 0 0 0-.413-.046l-.402-.012-.395.012c-.134.007-.273.022-.418.046zm4.7.997a4.42 4.42 0 0 0-.068.769 4.52 4.52 0 0 0 .068.768 4.48 4.48 0 0 0 .419.052l.407.016.424-.016.424-.052a3.48 3.48 0 0 0 .046-.385l.01-.383-.01-.378a3.47 3.47 0 0 0-.046-.391 3.71 3.71 0 0 0-.418-.046l-.42-.01-.412.01c-.153.008-.295.024-.425.046m.24-2.235h-.768a2.69 2.69 0 0 0-.052.315l-.017.315c0 .207.023.4.07.608h2.362V67.75a4.87 4.87 0 0 0-.803-.07 4.8 4.8 0 0 0-.791.069z"/><use xlink:href="#C"/><path d="M457.85 73.677l.326.052a3.2 3.2 0 0 0 .339.017c.114 0 .227-.007.337-.023l.328-.058c.023-.038.043-.092.063-.166l.05-.23.04-.24.03-.202a2.92 2.92 0 0 0 .62.637c.245.187.55.28.918.28l.263-.01c.1-.008.172-.02.218-.036a2.15 2.15 0 0 0 .034-.263l.012-.3-.017-.424a3.23 3.23 0 0 0-.063-.435 1.71 1.71 0 0 1-.28.022h-.2c-.13 0-.276-.013-.436-.04s-.313-.097-.46-.212-.265-.287-.36-.516-.144-.55-.144-.963v-2.82a3.37 3.37 0 0 0-.412-.046l-.402-.012-.395.012c-.134.007-.273.022-.418.046zm10.687-1.227l-.373.074a2.99 2.99 0 0 1-.361.018c-.252 0-.472-.052-.66-.155a1.39 1.39 0 0 1-.464-.414c-.122-.17-.212-.374-.27-.607s-.086-.476-.086-.728a2.43 2.43 0 0 1 .114-.797 1.33 1.33 0 0 1 .316-.522c.133-.13.292-.223.475-.28a2 2 0 0 1 .597-.085l.355.017a2.04 2.04 0 0 1 .356.074zm0 3.68a3.57 3.57 0 0 0 .407.046l.395.01.4-.01a3.6 3.6 0 0 0 .413-.046v-8.187a8.37 8.37 0 0 0-1.095-.246c-.37-.058-.82-.086-1.347-.086-.405 0-.793.056-1.164.166a2.67 2.67 0 0 0-.98.527c-.283.242-.507.553-.67.935s-.246.85-.246 1.4c0 .436.07.847.212 1.233a2.92 2.92 0 0 0 .608 1.003 2.85 2.85 0 0 0 .957.67c.375.163.8.247 1.25.247l.43-.018a2.22 2.22 0 0 0 .43-.075z"/><use xlink:href="#C" x="20.525"/><path d="M482.502 74.57h-2.053c-.046.23-.068.47-.068.723 0 .236.022.47.068.7h5.8a3.56 3.56 0 0 0 .07-.7 3.59 3.59 0 0 0-.07-.723h-2.052v-6.82l-.413-.04-.4-.018-.42.012-.453.046zm3.863-.893l.327.052a3.18 3.18 0 0 0 .338.017 2.36 2.36 0 0 0 .338-.023l.327-.058c.023-.038.044-.092.063-.166l.05-.23.04-.24.03-.202a2.94 2.94 0 0 0 .62.637c.244.187.55.28.917.28l.264-.01c.1-.008.172-.02.218-.036a2.38 2.38 0 0 0 .033-.263l.012-.3-.017-.424a3.23 3.23 0 0 0-.063-.435 1.71 1.71 0 0 1-.28.022h-.2c-.13 0-.275-.013-.436-.04a.99.99 0 0 1-.458-.212c-.146-.115-.266-.287-.362-.516s-.143-.55-.143-.963v-2.82a3.41 3.41 0 0 0-.413-.046l-.4-.012-.396.012c-.134.007-.273.022-.418.046zm7.453-3.2l-.298.04a2.57 2.57 0 0 1-.286.017c-.375 0-.67-.067-.9-.2s-.327-.35-.327-.648c0-.198.042-.352.126-.46a.74.74 0 0 1 .304-.234 1.26 1.26 0 0 1 .379-.092l.35-.018a1.99 1.99 0 0 1 .344.03l.298.05zm0 1.18c0 .183-.03.332-.1.446a.68.68 0 0 1-.253.27 1.01 1.01 0 0 1-.395.13 4.06 4.06 0 0 1-.522.035 4.08 4.08 0 0 1-1.32-.24 3.04 3.04 0 0 0-.24.563c-.054.176-.08.386-.08.63.336.115.672.2 1.008.253a6.19 6.19 0 0 0 .94.08c.795 0 1.417-.192 1.864-.574s.67-.993.67-1.835v-3.44c-.27-.084-.593-.164-.975-.24s-.814-.114-1.295-.114c-.4 0-.748.034-1.072.102s-.604.184-.838.345a1.6 1.6 0 0 0-.538.619c-.127.252-.2.56-.2.93s.078.674.236.922a1.79 1.79 0 0 0 .607.596c.248.15.525.257.83.32a4.34 4.34 0 0 0 .917.098l.734-.034zm4.622-2.614a1.19 1.19 0 0 1 .292-.058l.315-.01c.497 0 .887.144 1.17.434s.424.746.424 1.365c0 .55-.088.97-.264 1.256s-.474.43-.894.43a.99.99 0 0 1-.75-.305c-.194-.203-.292-.52-.292-.957zm-1.617 7.097a4.86 4.86 0 0 0 .803.069 4.82 4.82 0 0 0 .814-.07v-3.027c.114.206.305.376.573.5a2.02 2.02 0 0 0 .917.2 2.48 2.48 0 0 0 .958-.183 2.01 2.01 0 0 0 .762-.557c.214-.248.382-.56.504-.934s.184-.818.184-1.33c0-.497-.076-.942-.23-1.336s-.375-.728-.665-1.003-.647-.487-1.067-.636-.894-.224-1.42-.224l-.534.024-.567.062a5.61 5.61 0 0 0-.551.104 3.71 3.71 0 0 0-.48.142zm9.744-5.663l-.298.04a2.57 2.57 0 0 1-.286.017c-.375 0-.67-.067-.9-.2s-.326-.35-.326-.648c0-.198.04-.352.125-.46s.186-.185.304-.234a1.26 1.26 0 0 1 .379-.092l.35-.018a1.99 1.99 0 0 1 .344.03l.298.05zm0 1.18c0 .183-.03.332-.1.446a.68.68 0 0 1-.253.27 1 1 0 0 1-.395.13 4.06 4.06 0 0 1-.522.035 4.04 4.04 0 0 1-1.318-.241c-.108.2-.188.386-.24.563a2.24 2.24 0 0 0-.08.63c.336.115.672.2 1.008.253a6.2 6.2 0 0 0 .94.08c.796 0 1.417-.192 1.864-.574s.67-.993.67-1.835v-3.44a9.54 9.54 0 0 0-.975-.24c-.382-.076-.814-.114-1.295-.114-.4 0-.748.034-1.072.102s-.604.184-.838.345a1.61 1.61 0 0 0-.538.619c-.127.252-.2.56-.2.93s.078.674.236.922a1.79 1.79 0 0 0 .607.596 2.65 2.65 0 0 0 .832.321 4.32 4.32 0 0 0 .917.098l.733-.034zm2.983 4.483c.276.046.547.07.814.07.26 0 .528-.023.803-.07V70.1a3.26 3.26 0 0 1 .04-.573c.027-.146.07-.26.126-.34s.132-.135.224-.166a1.09 1.09 0 0 1 .344-.046 1.63 1.63 0 0 1 .201.012 2.08 2.08 0 0 1 .212.034 3.54 3.54 0 0 0 .126-.918v-.166a.71.71 0 0 0-.023-.166c-.122-.038-.27-.065-.442-.08l-.475-.023c-.6 0-1.06.162-1.417.487s-.533.855-.533 1.6zm3.737 0a3.08 3.08 0 0 0 .4.046l.402.012.4-.012c.138-.007.275-.023.413-.046v-3.152a4.2 4.2 0 0 0 .212.247c.088.094.196.186.327.274s.286.162.47.224.395.092.63.092c.658 0 1.157-.184 1.496-.55s.5-.945.5-1.732v-3.795c-.138-.023-.275-.038-.412-.045l-.402-.012-.4.012c-.138.007-.276.022-.413.045v3.36c0 .413-.065.73-.195.952s-.352.332-.665.332a1.46 1.46 0 0 1-.401-.058c-.138-.038-.262-.112-.373-.223s-.202-.265-.275-.464-.1-.46-.1-.78v-3.12a3.62 3.62 0 0 0-.413-.045l-.4-.012-.396.012a3.59 3.59 0 0 0-.407.045zm9.253-7.28c.427 0 .735.158.923.476s.28.774.28 1.37-.094 1.052-.28 1.37-.496.475-.923.475c-.42 0-.725-.16-.912-.475s-.28-.775-.28-1.37.093-1.053.28-1.37.5-.476.912-.476m0-1.238c-.482 0-.9.078-1.256.234a2.37 2.37 0 0 0-.883.654 2.83 2.83 0 0 0-.527.98c-.117.374-.178.78-.178 1.215s.06.844.178 1.226.294.713.527.992a2.46 2.46 0 0 0 .883.661c.355.16.774.24 1.256.24s.902-.08 1.26-.24.657-.38.895-.66a2.73 2.73 0 0 0 .527-.992 4.27 4.27 0 0 0 .172-1.226 4.15 4.15 0 0 0-.172-1.215c-.115-.375-.3-.7-.527-.98s-.536-.497-.895-.654-.78-.234-1.26-.234"/></g></g><defs ><path id="B" d="M464.048 87.273c0-2.007-.815-3.166-2.602-3.166-1.755 0-2.602 1.16-2.602 3.166V98.87c0 1.974.847 3.166 2.602 3.166 1.787 0 2.602-1.192 2.602-3.166zm-2.602 16.99c-3.354 0-5.015-2.163-5.015-5.516V87.398c0-3.322 1.66-5.517 5.015-5.517 3.386 0 5.047 2.195 5.047 5.517v11.348c0 3.353-1.66 5.516-5.047 5.516"/><path id="C" d="M453.71 68.85c.428 0 .735.158.923.476s.28.774.28 1.37-.094 1.052-.28 1.37-.495.475-.923.475c-.42 0-.724-.16-.912-.475s-.28-.775-.28-1.37.094-1.053.28-1.37.49-.476.912-.476m0-1.238c-.48 0-.9.078-1.255.234s-.65.375-.884.654-.41.606-.527.98-.178.78-.178 1.215.06.844.178 1.226.294.713.527.992.528.5.884.66.774.24 1.255.24.902-.08 1.262-.24a2.5 2.5 0 0 0 .894-.661 2.73 2.73 0 0 0 .527-.992c.115-.382.172-.79.172-1.226s-.057-.84-.172-1.215-.29-.7-.527-.98-.535-.497-.894-.654-.78-.234-1.262-.234"/></defs></svg>