<svg xmlns="http://www.w3.org/2000/svg" height="53.041" width="218.791" viewBox="0 0 218.791 53.041"><g transform="matrix(1.333333 0 0 -1.333333 -864.98265 711.91758)" fill="#03426b"><path d="M663.624 526.48a3.73 3.73 0 0 1 3.729 3.729 3.73 3.73 0 0 1-3.729 3.73 3.73 3.73 0 0 1-3.729-3.73 3.73 3.73 0 0 1 3.729-3.729m-7.428-1.244h-4.972v-4.973h4.972c2.747 0 4.973-2.226 4.973-4.972v-12.43h4.972v12.432c0 5.492-4.452 9.945-9.945 9.945"/><path d="M656.196 525.236h-4.972v-4.973h4.972a4.81 4.81 0 0 0 .51-.026c5.254-.266 9.436-4.598 9.436-9.92v4.973c0 5.492-4.452 9.945-9.945 9.945m-7.46-12.43h9.945v4.973h-9.945z"/><path d="M666.14 520.263h9.945v4.973h-9.945zm-12.44-9.945v-6.216c0-2.746-2.227-4.972-4.973-4.972v-4.973c5.493 0 9.945 4.453 9.945 9.945v6.216z"/><path d="M649.246 499.155c-.167-.017-.337-.025-.508-.025v-4.973a9.95 9.95 0 0 1 9.945 9.945v4.973a9.94 9.94 0 0 0-9.437-9.92m42.132 18.548c0-1.332-.53-2.136-1.714-2.136-1.205 0-1.734.804-1.734 2.136v11.317h-1.63v-11.232c0-2.242 1.036-3.744 3.3-3.744 2.284 0 3.32 1.502 3.32 3.744v11.232h-1.544z"/><path d="M683.4 517.66c0-1.517-.662-2.03-1.75-2.093l-.833.022v-1.517c.363-.043.662-.02 1.046-.02 1.795.043 3.183.918 3.183 3.715v11.255H683.4zm12.002 7.795c0 1.3.503 2.076 1.678 2.076s1.678-.775 1.678-2.097v-.483h1.552v.4c0 2.222-1.05 3.67-3.272 3.67-2.202 0-3.25-1.405-3.25-3.67 0-4.133 4.908-4.448 4.908-7.72 0-1.322-.545-2.097-1.72-2.097s-1.72.775-1.72 2.097v.924h-1.53v-.84c0-2.224 1.05-3.67 3.293-3.67s3.314 1.447 3.314 3.67c0 4.133-4.93 4.447-4.93 7.74m5.497 2.047h2.76v-13.458h1.67v13.458h2.76v1.52h-7.2zm8.017-13.458h1.668v14.977h-1.668zm6.113 14.976c-2.244 0-3.293-1.468-3.293-3.7v-7.593c0-2.115.95-3.544 2.975-3.68v-.76h.18c.618 0 .977-.206.977-.563 0-.377-.32-.602-.857-.602-.518.037-.817.244-.817.545v.132h-1.017v-.15c0-.734.678-1.166 1.834-1.166 1.196 0 1.894.45 1.894 1.203 0 .6-.54.96-1.476.96v.405c2 .165 2.915 1.587 2.915 3.676v1.824h-1.552v-1.908c0-1.32-.524-2.118-1.72-2.118-1.174 0-1.72.797-1.72 2.118v7.76c0 1.32.546 2.118 1.72 2.118 1.196 0 1.72-.797 1.72-2.118v-1.406h1.552v1.322c0 2.223-1.048 3.7-3.314 3.7m6.413-10.525l1.647 8.644 1.7-8.644zm.535 10.526l-2.867-14.976h1.54l.578 3.016h3.787l.577-3.016h1.67l-2.867 14.976zm13.877-11.34c0-1.37-.578-2.118-1.776-2.118h-1.82V527.5h1.798c1.22 0 1.797-.75 1.797-2.118zm-1.754 11.34h-3.5v-14.977h3.5c2.33 0 3.4 1.412 3.4 3.702v7.552c0 2.3-1.07 3.723-3.4 3.723m9.603-11.368c0-1.343-.545-2.118-1.74-2.118-1.175 0-1.74.775-1.74 2.118v7.76c0 1.32.566 2.118 1.74 2.118 1.196 0 1.74-.797 1.74-2.118zm-1.74 11.368c-2.245 0-3.356-1.447-3.356-3.7v-7.593c0-2.224 1.1-3.692 3.356-3.692 2.265 0 3.377 1.468 3.377 3.692v7.593c0 2.244-1.112 3.7-3.377 3.7m6.038-1.518h2.76v-13.458h1.67v13.458h2.76v1.52h-7.2zm11.37-5.542h-1.24v5.54h1.627c1.24 0 1.732-.706 1.732-2.054v-1.433c0-1.626-.8-2.054-2.118-2.054m3.787-3.787c0 1.604-.514 2.717-1.883 3.123 1.284.407 1.862 1.434 1.862 3.08v1.22c0 2.224-.984 3.423-3.338 3.423h-3.337V514.04h1.668v6.397h1.177c1.4 0 2.182-.535 2.182-2.225v-2.353c0-1.006.086-1.4.278-1.82h1.7c-.277.514-.3 1.135-.3 1.798zm3.524.322l1.647 8.644 1.7-8.644zm.535 10.526l-2.867-14.976h1.54l.578 3.016h3.787l.577-3.016h1.67l-2.866 14.976zm11.592-11.424c0-1.4-.556-2.032-1.776-2.032h-1.775v5.584h1.454c1.434 0 2.097-.557 2.097-2.225zm-3.55 9.906h1.647c1.198 0 1.648-.64 1.648-1.97v-.876c0-1.562-.685-2-2.012-2h-1.283zm3.188-5.477c1.304.407 1.754 1.4 1.754 2.974v.706c0 2.204-.92 3.316-3.252 3.316h-3.36v-14.977h3.444c2.332 0 3.423 1.263 3.423 3.5v1.262c0 1.647-.556 2.802-2 3.2m4.69-3.522l1.647 8.644 1.7-8.644zm.535 10.526l-2.867-14.976h1.54l.578 3.016h3.787l.577-3.016h1.67L786.1 529.02zm8.207 0h-1.67v-14.977h5.948v1.52h-4.28zm10.683-6.74h-3.68v6.74h-1.67v-14.976h1.67v6.74h3.68v-6.74h1.668v14.976h-1.668zm8.047-4.628c0-1.343-.545-2.118-1.74-2.118-1.175 0-1.74.775-1.74 2.118v7.76c0 1.32.566 2.118 1.74 2.118 1.196 0 1.74-.797 1.74-2.118zm-1.74 11.368c-2.244 0-3.356-1.447-3.356-3.7v-7.593c0-2.224 1.112-3.692 3.356-3.692 2.265 0 3.377 1.468 3.377 3.692v7.593c0 2.244-1.112 3.7-3.377 3.7m-126.165-20.973h-1.75a3.05 3.05 0 0 0-.06.615 3.04 3.04 0 0 0 .059.596h4.935a3.04 3.04 0 0 0 .058-.596 3.21 3.21 0 0 0-.058-.615h-1.75v-5.814l-.352-.035-.342-.014-.357.01a3.69 3.69 0 0 0-.386.04zm3.293-.763l.278.044a2.59 2.59 0 0 0 .289.015 2.1 2.1 0 0 0 .288-.02l.28-.05a.59.59 0 0 0 .053-.141l.045-.196.034-.205.024-.17a2.53 2.53 0 0 0 .528.542c.208.16.47.24.782.24l.224-.01c.085-.007.147-.017.186-.03.013-.066.023-.14.03-.225l.01-.264-.014-.362c-.01-.13-.028-.254-.055-.37a1.34 1.34 0 0 1-.239.019h-.16a2.25 2.25 0 0 1-.371-.034.84.84 0 0 1-.39-.18c-.122-.097-.227-.245-.308-.44s-.122-.47-.122-.82v-2.404a3.24 3.24 0 0 0-.352-.039l-.342-.01-.337.01a3.63 3.63 0 0 0-.357.039zm3.997.85c-.04.222-.06.44-.06.655a3.8 3.8 0 0 0 .06.655l.356.044.347.014.362-.014.36-.044c.02-.1.033-.22.04-.328l.01-.327-.01-.322c-.007-.1-.02-.222-.04-.333a3.12 3.12 0 0 0-.356-.04l-.357-.01-.352.01a2.89 2.89 0 0 0-.36.04m.205-1.905h-.655c-.02.085-.034.175-.044.268l-.014.27a2.3 2.3 0 0 0 .058.518h2.013v-5.05a4.16 4.16 0 0 0-.684-.059c-.214 0-.44.02-.674.06zm4.084-2.903c.08-.025.16-.042.25-.048l.268-.01c.423 0 .755.123.997.37s.36.636.36 1.164c0 .468-.075.826-.225 1.07s-.403.366-.76.366c-.262 0-.474-.086-.64-.26s-.25-.444-.25-.815zm-1.377 6.05a4.05 4.05 0 0 0 .684.058 4.22 4.22 0 0 0 .693-.058v-2.58c.098.177.26.32.5.435a1.71 1.71 0 0 0 .782.171c.293 0 .564-.052.815-.156s.468-.263.65-.475.326-.476.43-.796.156-.697.156-1.133c0-.423-.065-.803-.195-1.138s-.32-.62-.566-.856a2.54 2.54 0 0 0-.91-.542 3.63 3.63 0 0 0-1.211-.19l-.455.02-.484.053-.468.088a3.34 3.34 0 0 0-.41.122zm5.697-2.092a4.22 4.22 0 0 0 .693.059 4.12 4.12 0 0 0 .694-.06v-2.677a2.8 2.8 0 0 1 .064-.66c.042-.173.107-.3.195-.4a.72.72 0 0 1 .328-.216 1.5 1.5 0 0 1 .459-.062c.24 0 .442.022.606.067v3.958a4.16 4.16 0 0 0 .684.059 4.24 4.24 0 0 0 .694-.059v-4.856a5.22 5.22 0 0 0-.826-.2 5.4 5.4 0 0 0-1.07-.103 5.71 5.71 0 0 0-.958.078c-.306.052-.575.162-.806.332s-.415.417-.552.743-.205.76-.205 1.3zm5.676 0c.1.02.183.034.273.044s.193.015.304.015a2.54 2.54 0 0 0 .293-.015l.264-.044c.02-.033.037-.08.053-.142l.044-.195.035-.2.024-.166a2.3 2.3 0 0 0 .235.293c.1.098.196.185.317.264a2.29 2.29 0 0 0 .406.2 1.59 1.59 0 0 0 .498.073c.573 0 1.004-.156 1.295-.47s.435-.803.435-1.474v-3.225a4.23 4.23 0 0 0-.694-.058 4.23 4.23 0 0 0-.694.058v2.854c0 .35-.053.622-.16.8s-.295.284-.562.284c-.1 0-.225-.016-.342-.05a.71.71 0 0 1-.317-.191c-.095-.094-.17-.226-.23-.395s-.088-.392-.088-.665v-2.648a4.23 4.23 0 0 0-.694-.058 4.23 4.23 0 0 0-.694.058zm8.258-2.736l-.254.034-.245.015c-.318 0-.57-.057-.757-.17s-.278-.298-.278-.552c0-.17.035-.3.107-.4a.64.64 0 0 1 .259-.2 1.05 1.05 0 0 1 .323-.079l.298-.014a1.82 1.82 0 0 1 .293.024l.254.045zm0 1.007a.78.78 0 0 1-.08.38.61.61 0 0 1-.214.23.88.88 0 0 1-.337.112c-.134.02-.283.03-.445.03a3.51 3.51 0 0 1-1.124-.205 2.6 2.6 0 0 0-.205.479c-.045.15-.068.328-.068.537a5.08 5.08 0 0 0 .86.215 5.2 5.2 0 0 0 .8.07c.677 0 1.207-.164 1.588-.5s.572-.845.572-1.562v-2.932a8.15 8.15 0 0 0-.831-.205 5.67 5.67 0 0 0-1.104-.098 4.46 4.46 0 0 0-.914.088 1.99 1.99 0 0 0-.713.293 1.38 1.38 0 0 0-.46.528c-.107.214-.16.478-.16.792s.066.575.2.786a1.53 1.53 0 0 0 .517.508c.212.127.448.218.708.274s.522.083.783.083l.625-.03zm2.54 3.82a4.12 4.12 0 0 0 .694.06 4.15 4.15 0 0 0 .683-.059v-5.13c0-.202.012-.365.035-.488s.06-.22.108-.3a.38.38 0 0 1 .19-.142.98.98 0 0 1 .293-.038 1.32 1.32 0 0 1 .171.01 1.47 1.47 0 0 1 .18.028 2.98 2.98 0 0 0 .107-.78v-.142a.57.57 0 0 0-.019-.141c-.105-.033-.23-.056-.376-.07l-.405-.02c-.502 0-.905.138-1.207.415s-.455.727-.455 1.353zm6.635-3.89a4.3 4.3 0 0 0-.596.278 1.77 1.77 0 0 0-.449.362c-.124.14-.22.307-.3.503a2.1 2.1 0 0 0-.103.704c0 .332.058.625.172.88a1.76 1.76 0 0 0 .483.639 2.13 2.13 0 0 0 .753.39c.293.087.622.132.987.132.332 0 .643-.03.933-.088a7.13 7.13 0 0 0 .914-.254 3.52 3.52 0 0 0-.313-1.114l-.298.118a2.37 2.37 0 0 1-.322.096c-.115.027-.244.048-.387.065a4.2 4.2 0 0 1-.488.024c-.1 0-.224-.01-.337-.03s-.217-.056-.308-.108-.166-.128-.225-.23-.088-.232-.088-.395c0-.13.023-.24.07-.328a.68.68 0 0 1 .185-.224c.08-.063.166-.114.264-.157l.293-.122.587-.224.673-.304c.203-.104.374-.232.514-.386a1.61 1.61 0 0 0 .327-.557c.077-.22.118-.486.118-.806 0-.332-.06-.635-.18-.908a1.94 1.94 0 0 0-.523-.704 2.47 2.47 0 0 0-.845-.459 3.69 3.69 0 0 0-1.158-.166l-.577.02a4.34 4.34 0 0 0-.483.064l-.455.112-.47.166a4.07 4.07 0 0 0 .108.591l.185.62a5.08 5.08 0 0 1 .772-.249 3.41 3.41 0 0 1 .772-.084c.4 0 .733.077.968.23s.35.385.35.698c0 .156-.028.287-.083.4s-.127.193-.215.265a1.25 1.25 0 0 1-.298.18l-.342.142zm4.007 1.798a4.22 4.22 0 0 0 .693.059 4.1 4.1 0 0 0 .694-.06v-2.677c0-.267.022-.488.064-.66s.108-.3.195-.4a.72.72 0 0 1 .328-.216 1.5 1.5 0 0 1 .459-.062c.24 0 .443.022.606.067v3.958a4.16 4.16 0 0 0 .684.059 4.12 4.12 0 0 0 .694-.06v-4.856a5.22 5.22 0 0 0-.826-.2c-.342-.058-.698-.103-1.07-.103a5.72 5.72 0 0 0-.958.078c-.306.052-.575.162-.806.332s-.415.417-.552.743-.205.76-.205 1.3zm7.034-3.978c.176-.052.378-.078.606-.078.404 0 .713.13.928.4s.322.655.322 1.182a3.1 3.1 0 0 1-.048.563 1.28 1.28 0 0 1-.166.444c-.08.123-.178.222-.298.293s-.27.107-.445.107a.86.86 0 0 1-.416-.092.79.79 0 0 1-.278-.254c-.072-.108-.123-.234-.156-.376a2.05 2.05 0 0 1-.049-.459zm-1.387 3.987a1.95 1.95 0 0 0 .268.04l.298.01c.182 0 .368-.02.557-.058a.57.57 0 0 0 .054-.142l.05-.2.04-.2.024-.17a2.16 2.16 0 0 0 .216.308 1.36 1.36 0 0 0 .307.268c.12.078.256.142.406.2s.315.074.498.074c.28 0 .543-.052.786-.157a1.75 1.75 0 0 0 .64-.474c.182-.212.324-.477.425-.796s.15-.697.15-1.134c0-.423-.062-.803-.186-1.138s-.302-.62-.537-.855a2.39 2.39 0 0 0-.859-.542c-.34-.127-.724-.2-1.154-.2l-.327.014-.27.034v-2.248l-.357-.04-.336-.01-.338.01-.356.04zm8.893-1.993c-.013.312-.1.564-.26.757s-.383.288-.67.288c-.326 0-.574-.1-.743-.274s-.27-.44-.303-.77zm-1.984-.968c.026-.4.163-.675.4-.85s.573-.264.977-.264a3.71 3.71 0 0 1 .679.064 3.86 3.86 0 0 1 .66.181 2.37 2.37 0 0 0 .186-.47 2.42 2.42 0 0 0 .087-.586c-.508-.195-1.08-.293-1.72-.293-.47 0-.872.065-1.207.196s-.6.3-.82.542-.368.507-.47.826a3.44 3.44 0 0 0-.152 1.045 3.39 3.39 0 0 0 .157 1.046 2.42 2.42 0 0 0 .464.849c.205.242.46.432.762.573s.656.2 1.06.2c.352 0 .665-.062.938-.186a2.08 2.08 0 0 0 .699-.508 2.15 2.15 0 0 0 .435-.767c.098-.297.146-.615.146-.953l-.015-.367-.033-.288zm4.386 2.952l.278.044a2.56 2.56 0 0 0 .288.015 2.12 2.12 0 0 0 .29-.02l.28-.05a.59.59 0 0 0 .053-.141l.044-.196.035-.205.024-.17a2.53 2.53 0 0 0 .528.542c.208.16.47.24.78.24l.225-.01a.94.94 0 0 0 .185-.029c.013-.066.023-.14.03-.225l.01-.264-.015-.362a2.65 2.65 0 0 0-.054-.371 1.34 1.34 0 0 1-.239.019h-.16a2.26 2.26 0 0 1-.372-.034.85.85 0 0 1-.39-.18c-.125-.098-.227-.245-.3-.44s-.122-.47-.122-.82v-2.404c-.116-.02-.234-.033-.35-.04l-.343-.01-.337.01c-.113.006-.232.02-.356.04zm3.998.85c-.04.222-.06.44-.06.655a3.8 3.8 0 0 0 .06.655l.356.044.348.014.36-.014.36-.044c.02-.1.033-.22.04-.328l.01-.327-.01-.322c-.006-.1-.02-.222-.04-.333a2.88 2.88 0 0 0-.356-.04l-.357-.01-.352.01a2.89 2.89 0 0 0-.36.04m.205-1.905h-.655c-.02.085-.034.175-.044.268l-.014.27a2.3 2.3 0 0 0 .058.518h2.013v-5.05a4.16 4.16 0 0 0-.684-.059c-.215 0-.44.02-.674.06zm4.866-3.06c.365 0 .627.136.786.406s.24.66.24 1.168-.08.897-.24 1.167-.42.405-.786.405c-.358 0-.617-.134-.777-.405s-.24-.66-.24-1.167.08-.898.24-1.168.42-.406.777-.406m0-1.055c-.4 0-.767.067-1.07.2s-.554.318-.753.556a2.45 2.45 0 0 0-.45.836c-.102.32-.15.664-.15 1.036s.05.72.15 1.045a2.38 2.38 0 0 0 .45.845 2.07 2.07 0 0 0 .753.562c.303.137.66.205 1.07.205a2.61 2.61 0 0 0 1.075-.205c.306-.136.56-.324.762-.562a2.3 2.3 0 0 0 .449-.845c.098-.326.147-.675.147-1.045a3.51 3.51 0 0 0-.147-1.036 2.32 2.32 0 0 0-.449-.836c-.202-.238-.456-.424-.762-.556s-.664-.2-1.075-.2m3.528 5.17l.278.044a2.56 2.56 0 0 0 .288.015 2.09 2.09 0 0 0 .288-.02l.28-.05c.02-.033.037-.08.054-.14l.044-.196.034-.205.025-.17c.143.202.32.382.527.542s.47.24.782.24l.224-.01c.085-.007.147-.017.186-.03.013-.066.023-.14.03-.225l.01-.264-.014-.362c-.01-.13-.028-.254-.055-.37-.07.013-.15.02-.238.02h-.16a2.25 2.25 0 0 1-.372-.034c-.137-.022-.267-.083-.4-.18s-.226-.245-.308-.44-.122-.47-.122-.82v-2.404a3.21 3.21 0 0 0-.352-.039l-.342-.01-.337.01c-.114.006-.232.02-.356.04z"/><path d="M764.375 506.238l-.317.063a2.61 2.61 0 0 1-.308.015c-.215 0-.403-.044-.562-.132a1.19 1.19 0 0 1-.396-.35 1.5 1.5 0 0 1-.229-.518 2.58 2.58 0 0 1-.074-.621c0-.268.032-.493.098-.68a1.12 1.12 0 0 1 .268-.444 1 1 0 0 1 .406-.24 1.72 1.72 0 0 1 .508-.072l.303.014a1.73 1.73 0 0 1 .303.063zm0 3.137l.347.04.337.01.342-.01a3.15 3.15 0 0 0 .35-.04v-6.977c-.306-.092-.617-.16-.932-.2s-.7-.073-1.15-.073a3.42 3.42 0 0 0-.991.142 2.25 2.25 0 0 0-.836.45 2.13 2.13 0 0 0-.57.796c-.14.326-.2.723-.2 1.192 0 .372.06.722.18 1.05a2.48 2.48 0 0 0 .518.854c.225.24.496.433.816.573a2.64 2.64 0 0 0 1.065.21l.367-.015a1.92 1.92 0 0 0 .366-.064zm4.855-6.205c.365 0 .627.136.787.406s.24.66.24 1.168-.08.897-.24 1.167-.422.405-.787.405c-.358 0-.617-.134-.777-.405s-.24-.66-.24-1.167.08-.898.24-1.168.42-.406.777-.406m0-1.055c-.4 0-.767.067-1.07.2s-.554.318-.753.556a2.45 2.45 0 0 0-.45.836c-.102.32-.15.664-.15 1.036s.05.72.15 1.045a2.38 2.38 0 0 0 .45.845 2.07 2.07 0 0 0 .753.562c.303.137.66.205 1.07.205a2.61 2.61 0 0 0 1.075-.205c.306-.136.56-.324.762-.562s.352-.52.45-.845a3.65 3.65 0 0 0 .146-1.045c0-.372-.05-.717-.146-1.036s-.248-.598-.45-.836-.456-.424-.762-.556-.664-.2-1.075-.2m7.046 5.932h-1.75a3.05 3.05 0 0 0-.059.615c0 .2.02.4.06.596h4.935a3.04 3.04 0 0 0 .058-.596 3.21 3.21 0 0 0-.058-.615h-1.75v-5.814l-.353-.035-.34-.014-.357.01a3.69 3.69 0 0 0-.386.04zm3.292-.763l.278.044a2.58 2.58 0 0 0 .289.015 2.1 2.1 0 0 0 .288-.02l.28-.05a.59.59 0 0 0 .053-.141l.044-.196.035-.205.024-.17a2.53 2.53 0 0 0 .528.542c.208.16.47.24.78.24l.225-.01c.085-.007.147-.017.186-.03l.03-.225.01-.264-.015-.362a2.65 2.65 0 0 0-.054-.371 1.34 1.34 0 0 1-.239.019h-.16a2.27 2.27 0 0 1-.372-.034.85.85 0 0 1-.39-.18 1.06 1.06 0 0 1-.308-.44c-.082-.195-.122-.47-.122-.82v-2.404a3.24 3.24 0 0 0-.352-.039l-.342-.01-.337.01a3.63 3.63 0 0 0-.357.039zm6.352-2.736l-.254.034-.244.015c-.32 0-.572-.057-.757-.17s-.28-.298-.28-.552c0-.17.035-.3.108-.4s.157-.158.26-.2a1.05 1.05 0 0 1 .322-.079l.298-.014a1.81 1.81 0 0 1 .293.024l.254.045zm0 1.007c0 .156-.025.283-.078.38s-.124.174-.215.23-.204.093-.337.112a3.16 3.16 0 0 1-.445.03c-.35 0-.726-.07-1.123-.205-.092.17-.16.33-.206.48a1.84 1.84 0 0 0-.068.537 5.2 5.2 0 0 0 1.66.285c.678 0 1.207-.164 1.588-.5s.572-.845.572-1.562V502.4a8.19 8.19 0 0 0-.83-.205c-.325-.065-.693-.098-1.104-.098-.332 0-.637.03-.914.088a1.98 1.98 0 0 0-.713.293 1.38 1.38 0 0 0-.46.528c-.108.215-.16.478-.16.792s.066.575.2.786a1.54 1.54 0 0 0 .517.508 2.32 2.32 0 0 0 .709.274 3.78 3.78 0 0 0 .782.083l.625-.03zm3.938-2.23c.078-.025.16-.042.25-.048l.27-.01c.423 0 .755.123.996.37s.362.636.362 1.164c0 .468-.075.826-.225 1.07s-.404.366-.762.366c-.26 0-.474-.086-.64-.26s-.25-.444-.25-.815zm-1.378 6.05a4.06 4.06 0 0 0 .684.058 4.23 4.23 0 0 0 .694-.058v-2.58c.098.177.26.32.488.435s.5.17.782.17a2.11 2.11 0 0 0 .816-.156 1.74 1.74 0 0 0 .65-.475c.182-.2.326-.476.43-.796s.156-.697.156-1.133c0-.423-.065-.803-.195-1.138s-.32-.62-.567-.856-.55-.415-.9-.542-.762-.2-1.212-.2l-.454.02-.484.053-.47.088a2.77 2.77 0 0 0-.4.122zm8.305-4.828l-.253.034-.245.015c-.32 0-.57-.057-.757-.17s-.28-.298-.28-.552c0-.17.036-.3.108-.4a.64.64 0 0 1 .259-.2 1.05 1.05 0 0 1 .322-.079l.3-.014a1.82 1.82 0 0 1 .293.024l.253.045zm0 1.007c0 .156-.025.283-.078.38a.58.58 0 0 1-.215.229.87.87 0 0 1-.337.112 3.01 3.01 0 0 1-.444.03c-.352 0-.727-.07-1.124-.205a2.6 2.6 0 0 0-.205.479 1.84 1.84 0 0 0-.069.537c.287.098.574.17.86.215a5.2 5.2 0 0 0 .8.07c.678 0 1.207-.164 1.588-.5s.572-.845.572-1.562v-2.932a8.02 8.02 0 0 0-.831-.205c-.326-.065-.693-.098-1.104-.098a4.45 4.45 0 0 0-.913.088c-.277.06-.515.157-.714.293s-.35.313-.46.528-.16.478-.16.792.066.575.2.786a1.56 1.56 0 0 0 .518.508 2.29 2.29 0 0 0 .708.274 3.71 3.71 0 0 0 .782.083l.625-.03zm2.54 3.82a4.13 4.13 0 0 0 .694.06 4.18 4.18 0 0 0 .684-.059v-5.13a2.77 2.77 0 0 1 .034-.488c.023-.124.06-.22.108-.3s.112-.115.2-.142.176-.038.293-.038a1.32 1.32 0 0 1 .171.01 1.47 1.47 0 0 1 .18.028 2.98 2.98 0 0 0 .107-.78v-.142a.57.57 0 0 0-.019-.141 1.78 1.78 0 0 0-.377-.069l-.405-.02c-.5 0-.904.138-1.207.415s-.454.727-.454 1.353zm3.186 0c.1.02.225.032.342.04l.342.01.342-.01a3.27 3.27 0 0 0 .352-.04v-2.687c.045.06.105.128.18.2a1.6 1.6 0 0 0 .279.235c.1.075.244.138.4.2s.336.078.538.078c.56 0 .985-.156 1.275-.47s.435-.804.435-1.475v-3.234a2.83 2.83 0 0 0-.352-.039l-.342-.01-.342.01a2.81 2.81 0 0 0-.352.04v2.863c0 .35-.055.622-.166.8s-.3.284-.566.284c-.112 0-.225-.016-.343-.05s-.223-.096-.317-.2-.173-.226-.235-.395-.092-.392-.092-.665v-2.657a2.83 2.83 0 0 0-.352-.039l-.342-.01-.337.01a2.77 2.77 0 0 0-.347.039zm7.886-6.205c.365 0 .627.136.787.406s.24.66.24 1.168-.08.897-.24 1.167-.422.405-.787.405c-.358 0-.618-.134-.776-.405s-.24-.66-.24-1.167.08-.898.24-1.168.418-.406.776-.406m0-1.055c-.4 0-.767.067-1.07.2a2 2 0 0 0-.752.556 2.4 2.4 0 0 0-.45.836c-.1.32-.152.664-.152 1.036a3.47 3.47 0 0 0 .152 1.045c.102.325.25.608.45.845a2.06 2.06 0 0 0 .752.562c.303.137.66.205 1.07.205a2.61 2.61 0 0 0 1.075-.205c.305-.137.56-.324.762-.562s.35-.52.45-.845a3.65 3.65 0 0 0 .146-1.045c0-.372-.05-.717-.146-1.036a2.35 2.35 0 0 0-.45-.836c-.202-.238-.456-.424-.762-.556s-.665-.2-1.075-.2"/></g></svg>