<svg xmlns="http://www.w3.org/2000/svg" xmlns:xlink="http://www.w3.org/1999/xlink" height="53.04" width="218.791" viewBox="0 0 218.791 53.04"><defs><clipPath id="A"><path d="M0 788.097h1859.9V0H0z"/></clipPath><clipPath id="B"><path d="M353.615 512.432h9.945v4.973h-9.945z"/></clipPath><linearGradient id="C" spreadMethod="pad" gradientUnits="userSpaceOnUse" y2="514.919" x2="363.402" y1="514.919" x1="353.78"><stop offset="0" stop-color="#117c60"/><stop offset="1" stop-color="#21ae88"/></linearGradient><clipPath id="D"><path d="M371.018 519.89h9.946v4.972h-9.946z"/></clipPath><linearGradient id="E" spreadMethod="pad" gradientUnits="userSpaceOnUse" y2="522.378" x2="380.911" y1="522.378" x1="371.08"><stop offset="0" stop-color="#fad963"/><stop offset="1" stop-color="#ffcc08"/></linearGradient><path id="F" d="M471.562 518.123l1.647 8.644 1.7-8.644zm.535 10.526l-2.867-14.976h1.54l.578 3.016h3.787l.577-3.016h1.67l-2.867 14.976z"/><path id="G" d="M456.617 502.8c.365 0 .627.135.786.405s.24.66.24 1.168-.08.898-.24 1.168-.42.405-.786.405c-.358 0-.617-.134-.777-.405s-.24-.66-.24-1.168.08-.897.24-1.168.42-.405.777-.405m0-1.055c-.4 0-.767.067-1.07.2s-.554.32-.753.557-.348.516-.45.835-.15.665-.15 1.036.05.72.15 1.045a2.43 2.43 0 0 0 .449.846 2.07 2.07 0 0 0 .753.562c.303.137.66.205 1.07.205a2.61 2.61 0 0 0 1.075-.205c.306-.136.56-.324.762-.562s.352-.52.45-.846.147-.674.147-1.045-.05-.717-.147-1.036-.247-.598-.45-.835a2.06 2.06 0 0 0-.762-.557c-.306-.133-.664-.2-1.075-.2"/></defs><g transform="matrix(1.333333 0 0 -1.333333 -471.48585 711.42158)"><g clip-path="url(#A)" fill="#03426b"><path d="M368.5 526.107a3.73 3.73 0 0 1 3.729 3.729 3.73 3.73 0 0 1-3.729 3.73 3.73 3.73 0 0 1-3.729-3.73 3.73 3.73 0 0 1 3.729-3.729m-7.427-1.243H356.1v-4.973h4.973c2.747 0 4.973-2.225 4.973-4.972v-12.43h4.972v12.43c0 5.493-4.452 9.945-9.945 9.945"/><path d="M361.073 524.864H356.1v-4.973h4.973l.51-.025a9.94 9.94 0 0 0 9.436-9.919v4.972c0 5.493-4.452 9.945-9.945 9.945"/></g><g clip-path="url(#B)"><path d="M353.615 512.432h9.945v4.973h-9.945z" fill="url(#C)"/></g><g clip-path="url(#D)"><path d="M371.018 519.89h9.946v4.972h-9.946z" fill="url(#E)"/></g><g fill="#03426b"><path d="M358.586 509.947v-6.216c0-2.747-2.226-4.972-4.972-4.972v-4.973c5.492 0 9.945 4.452 9.945 9.945v6.216z"/><path d="M354.123 498.784c-.167-.017-.337-.025-.508-.025v-4.973c5.492 0 9.945 4.452 9.945 9.945v4.973a9.94 9.94 0 0 0-9.437-9.92m42.132 18.548c0-1.333-.53-2.137-1.714-2.137-1.205 0-1.734.804-1.734 2.137v11.317h-1.63v-11.232c0-2.242 1.036-3.744 3.3-3.744 2.284 0 3.32 1.502 3.32 3.744v11.232h-1.544z"/><path d="M388.287 517.288c0-1.517-.662-2.03-1.75-2.094l-.833.022V513.7c.363-.042.662-.02 1.046-.02 1.794.042 3.183.918 3.183 3.715v11.255h-1.645zm11.993 7.796c0 1.3.503 2.076 1.678 2.076s1.678-.776 1.678-2.097v-.483h1.552v.4c0 2.223-1.05 3.67-3.272 3.67-2.202 0-3.25-1.405-3.25-3.67 0-4.132 4.908-4.447 4.908-7.72 0-1.322-.545-2.098-1.72-2.098s-1.72.776-1.72 2.098v.923h-1.53v-.84c0-2.224 1.05-3.67 3.293-3.67s3.314 1.447 3.314 3.67c0 4.132-4.93 4.446-4.93 7.74m5.496 2.047h2.76v-13.457h1.67v13.457h2.76v1.52h-7.2zm8.017-13.457h1.668v14.977h-1.668zm6.113 14.977c-2.244 0-3.293-1.47-3.293-3.7v-7.593c0-2.115.95-3.544 2.975-3.68v-.76h.18c.618 0 .977-.207.977-.564 0-.376-.32-.602-.857-.602-.518.038-.817.244-.817.546v.13h-1.017v-.15c0-.734.678-1.166 1.834-1.166 1.196 0 1.894.45 1.894 1.204 0 .6-.54.96-1.476.96v.405c2 .165 2.915 1.587 2.915 3.676v1.824h-1.552v-1.9c0-1.32-.524-2.118-1.72-2.118-1.174 0-1.72.797-1.72 2.118v7.762c0 1.32.546 2.118 1.72 2.118 1.196 0 1.72-.797 1.72-2.118v-1.406h1.552v1.322c0 2.222-1.048 3.7-3.314 3.7m6.412-10.525l1.647 8.644 1.7-8.644zm.535 10.526l-2.867-14.976h1.54l.578 3.016h3.787l.577-3.016h1.67l-2.867 14.976zm13.877-11.34c0-1.37-.578-2.117-1.775-2.117h-1.82v11.937h1.797c1.22 0 1.797-.748 1.797-2.118zm-1.754 11.34h-3.5v-14.977h3.5c2.332 0 3.4 1.412 3.4 3.7v7.553c0 2.3-1.07 3.723-3.4 3.723m9.604-11.37c0-1.342-.545-2.118-1.74-2.118-1.175 0-1.74.776-1.74 2.118v7.762c0 1.32.566 2.118 1.74 2.118 1.196 0 1.74-.797 1.74-2.118zm-1.74 11.37c-2.245 0-3.356-1.447-3.356-3.7v-7.593c0-2.224 1.1-3.692 3.356-3.692 2.265 0 3.377 1.468 3.377 3.692v7.593c0 2.244-1.112 3.7-3.377 3.7m6.038-1.52h2.76v-13.457h1.67v13.457h2.76v1.52h-7.2zm11.37-5.54H463v5.54h1.626c1.24 0 1.733-.706 1.733-2.054v-1.433c0-1.626-.8-2.054-2.118-2.054m3.787-3.787c0 1.605-.514 2.718-1.883 3.124 1.284.406 1.862 1.434 1.862 3.08v1.22c0 2.224-.984 3.423-3.338 3.423h-3.338v-14.977h1.67v6.397h1.177c1.4 0 2.182-.535 2.182-2.225V515.5c0-1.005.086-1.4.278-1.818h1.7c-.277.514-.3 1.134-.3 1.797z"/><use xlink:href="#F"/><path d="M483.69 517.224c0-1.39-.556-2.032-1.776-2.032h-1.775v5.584h1.454c1.434 0 2.097-.557 2.097-2.226zm-3.55 9.905h1.647c1.198 0 1.648-.64 1.648-1.968v-.876c0-1.563-.685-1.99-2.012-1.99h-1.283zm3.187-5.476c1.305.406 1.755 1.4 1.755 2.973v.706c0 2.205-.92 3.317-3.252 3.317h-3.36v-14.977h3.444c2.332 0 3.423 1.263 3.423 3.51v1.263c0 1.647-.556 2.802-2.01 3.21"/><use xlink:href="#F" x="16.463"/><path d="M496.766 528.65h-1.668v-14.977h5.947v1.52h-4.28zm10.684-6.75h-3.68v6.74h-1.67v-14.976h1.67v6.74h3.68v-6.74h1.668v14.976h-1.668z"/><path d="M515.498 517.28c0-1.342-.545-2.118-1.74-2.118-1.175 0-1.74.776-1.74 2.118v7.762c0 1.32.566 2.118 1.74 2.118 1.196 0 1.74-.797 1.74-2.118zm-1.74 11.37c-2.244 0-3.356-1.447-3.356-3.7v-7.593c0-2.224 1.112-3.692 3.356-3.692 2.265 0 3.377 1.468 3.377 3.692v7.593c0 2.244-1.112 3.7-3.377 3.7m-126.166-20.975h-1.75a3.13 3.13 0 0 0-.059.615 3.05 3.05 0 0 0 .059.597h4.935a3.05 3.05 0 0 0 .058-.597 3.13 3.13 0 0 0-.058-.615h-1.75v-5.814l-.352-.035-.342-.014-.357.01-.386.04z"/><path d="M390.885 506.912l.278.045a2.58 2.58 0 0 0 .289.015 2.1 2.1 0 0 0 .288-.02l.28-.05a.56.56 0 0 0 .053-.141l.044-.196.035-.205.024-.17c.143.202.32.383.528.542s.47.24.78.24l.225-.01c.085-.007.147-.017.186-.03.013-.065.023-.14.03-.225l.01-.264-.014-.36c-.01-.13-.028-.254-.055-.37a1.34 1.34 0 0 1-.239.019h-.16a2.25 2.25 0 0 1-.371-.034.84.84 0 0 1-.39-.18 1.08 1.08 0 0 1-.308-.441c-.082-.195-.122-.47-.122-.82v-2.405a3.51 3.51 0 0 0-.352-.039l-.342-.01-.337.01-.357.04zm3.997.85c-.04.222-.06.44-.06.654a3.8 3.8 0 0 0 .06.656l.356.044.347.014.36-.014.362-.044a2.71 2.71 0 0 0 .039-.328l.01-.328-.01-.322a2.68 2.68 0 0 0-.039-.332c-.1-.02-.23-.032-.357-.04l-.356-.01-.352.01a2.89 2.89 0 0 0-.36.04m.205-1.905h-.655c-.02.085-.034.175-.044.268l-.014.27a2.29 2.29 0 0 0 .058.517h2.013v-5.05a4.16 4.16 0 0 0-.684-.059c-.214 0-.44.02-.674.06zm4.083-2.903a1.01 1.01 0 0 1 .25-.049l.268-.01c.423 0 .755.124.997.37s.36.636.36 1.164c0 .468-.075.825-.225 1.07s-.403.366-.76.366c-.262 0-.474-.087-.64-.26s-.25-.444-.25-.816zm-1.377 6.05a4.05 4.05 0 0 0 .684.058 4.22 4.22 0 0 0 .693-.058v-2.58c.098.176.26.32.5.435s.488.17.782.17.564-.053.815-.157a1.71 1.71 0 0 0 .65-.474c.182-.2.326-.477.43-.796s.156-.697.156-1.133c0-.423-.065-.803-.195-1.14a2.32 2.32 0 0 0-.566-.855 2.54 2.54 0 0 0-.91-.542c-.358-.127-.76-.2-1.2-.2l-.455.02-.484.052-.468.1a3.34 3.34 0 0 0-.41.122zm5.697-2.093c.234.04.465.06.693.06a4.12 4.12 0 0 0 .694-.06v-2.677c0-.267.02-.487.064-.66a.96.96 0 0 1 .195-.411.71.71 0 0 1 .328-.215 1.47 1.47 0 0 1 .46-.063c.24 0 .442.023.606.068v3.957c.234.04.462.06.684.06s.46-.02.694-.06v-4.855c-.2-.073-.484-.142-.826-.2a5.48 5.48 0 0 0-1.07-.102 5.71 5.71 0 0 0-.958.077 1.89 1.89 0 0 0-.806.332c-.232.17-.415.417-.552.743s-.205.76-.205 1.3zm5.678 0a2.63 2.63 0 0 0 .273.045c.092.01.193.015.304.015a2.54 2.54 0 0 0 .293-.015c.085-.01.172-.025.264-.045a.53.53 0 0 0 .053-.142l.044-.195.034-.2.025-.166a2.31 2.31 0 0 0 .234.293c.092.098.197.186.318.264s.256.14.406.2a1.59 1.59 0 0 0 .498.073c.573 0 1.004-.157 1.295-.47s.435-.804.435-1.475v-3.225a4.23 4.23 0 0 0-.694-.058 4.23 4.23 0 0 0-.694.058v2.854c0 .35-.053.622-.16.8s-.295.283-.562.283a1.3 1.3 0 0 1-.342-.048.71.71 0 0 1-.317-.192c-.095-.093-.17-.225-.23-.394s-.088-.392-.088-.665v-2.65a4.23 4.23 0 0 0-.694-.058 4.23 4.23 0 0 0-.694.058zm8.257-2.735l-.254.034-.245.015c-.32 0-.57-.057-.757-.17s-.28-.3-.28-.553c0-.17.036-.3.108-.4s.158-.16.26-.2a1.15 1.15 0 0 1 .323-.078l.298-.014a1.71 1.71 0 0 1 .293.024l.254.044zm0 1.007a.78.78 0 0 1-.08.38.58.58 0 0 1-.214.23.88.88 0 0 1-.337.112c-.134.02-.283.03-.445.03a3.51 3.51 0 0 1-1.124-.205 2.59 2.59 0 0 0-.205.478 1.85 1.85 0 0 0-.068.537 4.99 4.99 0 0 0 .86.216c.287.046.553.07.8.07.677 0 1.207-.164 1.587-.5s.573-.846.573-1.563v-2.93c-.23-.072-.506-.14-.83-.206s-.694-.097-1.105-.097c-.332 0-.637.03-.913.087s-.515.157-.714.293-.35.313-.46.53-.16.478-.16.8.066.575.2.787.306.38.518.508.448.218.708.273a3.73 3.73 0 0 0 .783.083l.625-.03zm2.54 3.82a4.12 4.12 0 0 0 .694.06 4.15 4.15 0 0 0 .683-.059v-5.13c0-.202.012-.365.035-.488s.06-.22.108-.3.112-.115.2-.142a.94.94 0 0 1 .293-.039 1.48 1.48 0 0 1 .17.01 1.47 1.47 0 0 1 .18.029c.073-.266.108-.527.108-.78v-.142a.57.57 0 0 0-.019-.141c-.105-.033-.23-.056-.377-.07l-.405-.02c-.5 0-.904.14-1.206.416s-.455.727-.455 1.353zm6.635-3.9a4.42 4.42 0 0 0-.596.278 1.78 1.78 0 0 0-.45.363c-.124.14-.22.307-.3.503a2.1 2.1 0 0 0-.103.704c0 .332.058.625.172.88a1.76 1.76 0 0 0 .483.64 2.13 2.13 0 0 0 .753.391c.293.088.62.132.987.132.332 0 .643-.03.933-.088s.594-.144.913-.254a3.51 3.51 0 0 0-.312-1.114l-.298.117a2.46 2.46 0 0 1-.322.097 3.32 3.32 0 0 1-.387.064c-.143.016-.306.024-.488.024-.1 0-.224-.01-.337-.03s-.217-.056-.308-.107a.62.62 0 0 1-.225-.23c-.06-.1-.088-.233-.088-.395a.71.71 0 0 1 .069-.329c.045-.086.107-.162.185-.223a1.14 1.14 0 0 1 .264-.157l.293-.122.587-.225.673-.303c.203-.104.373-.233.514-.386s.25-.338.327-.557.117-.486.117-.806c0-.333-.06-.636-.18-.9a1.97 1.97 0 0 0-.523-.703 2.47 2.47 0 0 0-.845-.459 3.69 3.69 0 0 0-1.158-.166l-.577.02a4.35 4.35 0 0 0-.483.063 4.2 4.2 0 0 0-.455.113l-.47.166a4.07 4.07 0 0 0 .108.591l.185.62.772-.25c.242-.057.498-.083.772-.083.4 0 .733.077.968.23s.35.385.35.7a.9.9 0 0 1-.083.4.84.84 0 0 1-.215.264 1.32 1.32 0 0 1-.298.18l-.342.142zm4.006 1.798c.234.04.466.06.693.06a4.11 4.11 0 0 0 .694-.06v-2.677a2.86 2.86 0 0 1 .064-.66c.042-.173.108-.3.195-.4a.71.71 0 0 1 .328-.215 1.47 1.47 0 0 1 .46-.063c.24 0 .443.023.606.068v3.957c.234.04.462.06.684.06a4.13 4.13 0 0 0 .694-.06v-4.855c-.2-.073-.484-.142-.826-.2a5.48 5.48 0 0 0-1.07-.102 5.72 5.72 0 0 0-.958.077 1.89 1.89 0 0 0-.806.332c-.23.17-.415.417-.552.743s-.205.76-.205 1.3zm7.034-3.977c.176-.052.378-.078.606-.078.404 0 .713.13.928.4s.322.655.322 1.182a3.08 3.08 0 0 1-.048.562 1.27 1.27 0 0 1-.166.444.9.9 0 0 1-.298.294c-.12.07-.27.107-.445.107a.86.86 0 0 1-.416-.092.79.79 0 0 1-.278-.254 1.13 1.13 0 0 1-.156-.377 2.04 2.04 0 0 1-.049-.459zm-1.387 3.986a1.81 1.81 0 0 0 .268.04l.298.01a2.69 2.69 0 0 0 .557-.06.54.54 0 0 0 .054-.142l.048-.2.04-.2.024-.17c.06.104.13.207.216.308a1.38 1.38 0 0 0 .307.268c.12.078.256.142.406.2a1.62 1.62 0 0 0 .498.074c.28 0 .542-.053.786-.157s.458-.262.64-.474.324-.478.425-.796.15-.697.15-1.134c0-.423-.062-.803-.186-1.138s-.302-.62-.537-.855a2.39 2.39 0 0 0-.859-.542c-.34-.128-.724-.2-1.154-.2l-.327.014-.27.033v-2.247l-.357-.04-.336-.01-.338.01a3.58 3.58 0 0 0-.356.039zm8.893-1.99c-.013.312-.1.565-.26.758s-.383.288-.67.288c-.326 0-.574-.092-.743-.274s-.27-.44-.303-.772zm-1.984-.967c.026-.4.163-.675.4-.85s.573-.264.977-.264c.22 0 .448.02.68.063a3.86 3.86 0 0 1 .66.181 2.28 2.28 0 0 0 .185-.469 2.38 2.38 0 0 0 .088-.586c-.508-.196-1.08-.293-1.72-.293-.47 0-.872.065-1.207.196s-.6.3-.82.542a2.17 2.17 0 0 0-.469.825 3.45 3.45 0 0 0-.152 1.046c0 .37.052.72.157 1.045a2.44 2.44 0 0 0 .464.85 2.24 2.24 0 0 0 .762.573c.302.14.656.2 1.06.2.352 0 .665-.063.938-.186a2.07 2.07 0 0 0 .699-.509c.192-.215.337-.47.435-.767s.146-.614.146-.952l-.015-.367-.033-.288zm4.388 2.95l.278.045a2.56 2.56 0 0 0 .288.015 2.09 2.09 0 0 0 .288-.02l.28-.05a.6.6 0 0 0 .053-.141l.044-.196.035-.205.024-.17c.143.202.32.383.528.542s.47.24.78.24l.225-.01c.085-.007.146-.017.185-.03.013-.065.023-.14.03-.225l.01-.264-.015-.36a2.65 2.65 0 0 0-.054-.371 1.34 1.34 0 0 1-.239.019h-.16a2.26 2.26 0 0 1-.372-.034c-.137-.022-.267-.083-.4-.18s-.227-.246-.3-.44-.122-.47-.122-.82v-2.405a3.47 3.47 0 0 0-.35-.04l-.343-.01-.337.01-.356.04zm3.995.85a3.68 3.68 0 0 0-.058.654 3.9 3.9 0 0 0 .058.656l.357.044.347.014.36-.014.362-.044a3.18 3.18 0 0 0 .039-.328l.01-.328-.01-.322a3.13 3.13 0 0 0-.039-.332c-.1-.02-.23-.032-.357-.04l-.356-.01-.352.01c-.13.007-.25.02-.362.04m.206-1.905h-.655c-.02.085-.034.175-.044.268l-.015.27a2.29 2.29 0 0 0 .059.517h2.013v-5.05a4.18 4.18 0 0 0-.684-.059c-.215 0-.44.02-.674.06z"/><use xlink:href="#G"/><path d="M460.145 506.912l.278.045a2.56 2.56 0 0 0 .288.015 2.1 2.1 0 0 0 .288-.02l.28-.05c.02-.032.037-.08.054-.14l.043-.196.035-.205.025-.17a2.5 2.5 0 0 0 .527.542c.208.16.47.24.782.24l.224-.01c.085-.007.147-.017.186-.03.013-.065.023-.14.03-.225l.01-.264-.014-.36c-.01-.13-.028-.254-.055-.37-.07.013-.15.02-.238.02h-.162a2.25 2.25 0 0 1-.371-.034c-.137-.022-.267-.083-.4-.18s-.226-.246-.308-.44-.122-.47-.122-.82v-2.405a3.48 3.48 0 0 0-.352-.04l-.342-.01-.337.01-.356.04zm9.107-1.045l-.317.063a2.61 2.61 0 0 1-.308.015c-.215 0-.403-.044-.562-.132a1.19 1.19 0 0 1-.396-.35c-.104-.145-.18-.32-.23-.52s-.074-.405-.074-.62c0-.268.032-.493.098-.68a1.13 1.13 0 0 1 .268-.444 1.01 1.01 0 0 1 .406-.239c.156-.05.325-.073.508-.073l.303.014a1.65 1.65 0 0 1 .303.064zm0 3.137l.347.04.337.01.342-.01a3.15 3.15 0 0 0 .35-.04v-6.977c-.306-.092-.617-.162-.933-.2s-.698-.072-1.148-.072a3.42 3.42 0 0 0-.991.142c-.316.093-.595.243-.836.45s-.43.47-.572.796-.2.723-.2 1.192a3.04 3.04 0 0 0 .18 1.05 2.49 2.49 0 0 0 .518.854 2.44 2.44 0 0 0 .816.573 2.64 2.64 0 0 0 1.065.21l.366-.015a1.84 1.84 0 0 0 .367-.065z"/><use xlink:href="#G" x="17.491"/><path d="M481.153 507.675h-1.75a3.13 3.13 0 0 0-.058.615 3.05 3.05 0 0 0 .058.597h4.936a3.05 3.05 0 0 0 .058-.597 3.13 3.13 0 0 0-.058-.615h-1.75v-5.814l-.353-.035-.34-.014-.357.01-.386.04zm3.292-.763l.278.045c.1.01.184.015.288.015s.195-.007.3-.02l.28-.05a.56.56 0 0 0 .053-.141l.044-.196.035-.205.024-.17c.143.202.32.383.528.542s.47.24.78.24l.225-.01c.085-.007.147-.017.186-.03a2.59 2.59 0 0 0 .03-.225l.01-.264-.015-.36a2.65 2.65 0 0 0-.054-.371 1.34 1.34 0 0 1-.239.019h-.16a2.27 2.27 0 0 1-.372-.034c-.137-.022-.267-.083-.4-.18s-.227-.246-.308-.44-.123-.47-.123-.82v-2.405a3.47 3.47 0 0 0-.35-.04l-.342-.01-.337.01-.357.04zm6.352-2.735l-.254.034-.244.015c-.32 0-.572-.057-.757-.17s-.28-.3-.28-.553c0-.17.035-.3.107-.4s.158-.16.26-.2a1.15 1.15 0 0 1 .322-.078l.298-.014c.098 0 .195.007.293.024l.254.044zm0 1.007c0 .156-.026.283-.078.38a.58.58 0 0 1-.215.23.87.87 0 0 1-.337.112 3.16 3.16 0 0 1-.445.03c-.352 0-.726-.07-1.123-.205a2.6 2.6 0 0 0-.206.478c-.045.15-.068.33-.068.537a5.11 5.11 0 0 0 .86.216 5.19 5.19 0 0 0 .8.07c.678 0 1.207-.164 1.588-.5s.572-.846.572-1.563v-2.93a8.06 8.06 0 0 0-.831-.206c-.326-.064-.693-.097-1.104-.097a4.54 4.54 0 0 0-.914.087c-.277.06-.514.157-.713.293a1.38 1.38 0 0 0-.459.529c-.108.214-.16.478-.16.8s.066.575.2.787a1.54 1.54 0 0 0 .517.508 2.32 2.32 0 0 0 .709.273 3.71 3.71 0 0 0 .782.083l.625-.03zm3.938-2.23a1 1 0 0 1 .249-.049l.268-.01c.424 0 .756.124.997.37s.36.636.36 1.164c0 .468-.074.825-.224 1.07s-.404.366-.762.366a.85.85 0 0 1-.64-.259c-.166-.173-.25-.444-.25-.816zm-1.378 6.05a4.05 4.05 0 0 0 .684.058 4.23 4.23 0 0 0 .694-.058v-2.58c.097.176.26.32.488.435s.5.17.782.17a2.11 2.11 0 0 0 .816-.157c.25-.104.467-.262.65-.474s.326-.477.43-.796.156-.697.156-1.133c0-.423-.065-.803-.195-1.14a2.31 2.31 0 0 0-.567-.855 2.51 2.51 0 0 0-.91-.542 3.61 3.61 0 0 0-1.212-.19l-.454.02-.484.052-.47.1a2.77 2.77 0 0 0-.4.122zm8.305-4.828l-.253.034-.245.015c-.32 0-.57-.057-.757-.17s-.28-.3-.28-.553c0-.17.036-.3.108-.4a.55.55 0 0 1 .26-.2 1.16 1.16 0 0 1 .322-.078l.298-.014c.098 0 .196.007.294.024l.253.044zm0 1.007c0 .156-.025.283-.078.38a.59.59 0 0 1-.215.23.9.9 0 0 1-.337.112 3.02 3.02 0 0 1-.444.03c-.352 0-.727-.07-1.124-.205-.092.17-.16.328-.205.478a1.88 1.88 0 0 0-.07.537 5.13 5.13 0 0 0 .86.216 5.2 5.2 0 0 0 .8.07c.678 0 1.207-.164 1.588-.5s.572-.846.572-1.563v-2.93c-.228-.072-.505-.14-.83-.206s-.693-.097-1.104-.097a4.54 4.54 0 0 0-.914.087c-.276.06-.514.157-.713.293s-.35.313-.46.53-.16.478-.16.8.066.575.2.787.306.38.518.508.448.218.708.273a3.72 3.72 0 0 0 .782.083l.625-.03zm2.54 3.82a4.13 4.13 0 0 0 .694.06 4.18 4.18 0 0 0 .684-.059v-5.13a2.77 2.77 0 0 1 .034-.488.75.75 0 0 1 .108-.29c.048-.07.112-.115.2-.142a.94.94 0 0 1 .293-.039 1.48 1.48 0 0 1 .17.01 1.52 1.52 0 0 1 .181.029 3.07 3.07 0 0 0 .107-.78v-.142a.57.57 0 0 0-.019-.141 1.84 1.84 0 0 0-.377-.07l-.405-.02c-.5 0-.904.14-1.207.416s-.454.727-.454 1.353zm3.187 0c.1.02.225.032.342.04l.342.01.342-.01a3.21 3.21 0 0 0 .352-.039v-2.688a2.81 2.81 0 0 0 .18.21 1.55 1.55 0 0 0 .278.234c.11.074.245.14.4.2a1.75 1.75 0 0 0 .537.078c.56 0 .986-.157 1.275-.47s.435-.805.435-1.476v-3.234a2.99 2.99 0 0 0-.351-.039l-.342-.01h-.342a3.01 3.01 0 0 0-.352.04v2.863c0 .352-.056.622-.166.8s-.3.284-.567.284c-.1 0-.225-.017-.342-.05s-.223-.096-.317-.192-.173-.225-.235-.394-.093-.392-.093-.665v-2.658c-.117-.02-.234-.033-.352-.04l-.342-.01-.337.01a3 3 0 0 0-.347.04zm7.884-6.204c.364 0 .627.135.787.405s.24.66.24 1.168-.08.898-.24 1.168-.423.405-.787.405c-.358 0-.618-.134-.776-.405s-.24-.66-.24-1.168.08-.897.24-1.168.418-.405.776-.405m0-1.055c-.4 0-.768.067-1.07.2s-.554.32-.752.557a2.4 2.4 0 0 0-.449.835c-.102.32-.152.665-.152 1.036s.05.72.152 1.045a2.4 2.4 0 0 0 .449.846 2.06 2.06 0 0 0 .752.562c.302.137.66.205 1.07.205a2.61 2.61 0 0 0 1.075-.205c.305-.137.56-.324.762-.562s.35-.52.45-.846a3.64 3.64 0 0 0 .146-1.045 3.55 3.55 0 0 0-.146-1.036c-.1-.32-.248-.598-.45-.835a2.06 2.06 0 0 0-.762-.557c-.306-.133-.665-.2-1.075-.2"/></g></g></svg>