<svg xmlns="http://www.w3.org/2000/svg" xmlns:xlink="http://www.w3.org/1999/xlink" height="53.04" width="218.792" viewBox="0 0 218.792 53.04"><defs><clipPath id="A"><path d="M74.48 527.653a3.73 3.73 0 0 1 3.729-3.73 3.73 3.73 0 1 1 0 7.46 3.73 3.73 0 0 1-3.729-3.73"/></clipPath><radialGradient id="B" spreadMethod="pad" gradientTransform="matrix(2.6371152,-2.6371145,-2.6371136,-2.6371145,76.343323,529.02094)" r="1" cy="0" cx="0" fy="0" fx="0" xlink:href="#AX"><stop offset="0" stop-color="#016ba3"/><stop offset="1" stop-color="#004268"/></radialGradient><clipPath id="C"><path d="M65.808 522.68v-4.97h4.973c2.745 0 4.972-2.227 4.972-4.973v-12.43h4.972v12.43c0 5.492-4.452 9.944-9.944 9.944z"/></clipPath><linearGradient id="D" spreadMethod="pad" y2="500.262" x2="73.267" y1="517.341" x1="73.267" xlink:href="#AX"><stop offset="0" stop-color="#016ba3"/><stop offset="1" stop-color="#004268"/></linearGradient><clipPath id="E"><path d="M65.808 522.68v-4.97h4.973c.17 0 .34-.01.508-.026a9.94 9.94 0 0 0 9.436-9.919v4.972c0 5.492-4.452 9.944-9.944 9.944z"/></clipPath><linearGradient id="F" spreadMethod="pad" y2="522.609" x2="73.267" y1="517.46" x1="73.267" xlink:href="#AX"><stop offset="0" stop-color="#004268"/><stop offset=".116" stop-color="#004670"/><stop offset="1" stop-color="#016ba3"/></linearGradient><clipPath id="G"><path d="M63.32 510.25h9.945v4.973H63.32z"/></clipPath><linearGradient id="H" spreadMethod="pad" y2="512.736" x2="73.11" y1="512.736" x1="63.487" xlink:href="#AX"><stop offset="0" stop-color="#117c60"/><stop offset="1" stop-color="#21ae88"/></linearGradient><clipPath id="I"><path d="M80.725 517.71h9.945v4.972h-9.945z"/></clipPath><linearGradient id="J" spreadMethod="pad" y2="520.195" x2="90.618" y1="520.195" x1="80.788" xlink:href="#AX"><stop offset="0" stop-color="#fad963"/><stop offset="1" stop-color="#ffcc08"/></linearGradient><clipPath id="K"><path d="M68.294 507.764v-6.217c0-2.745-2.226-4.972-4.973-4.972v-4.972c5.493 0 9.945 4.452 9.945 9.944v6.217z"/></clipPath><linearGradient id="L" spreadMethod="pad" y2="497.901" x2="68.294" y1="507.722" x1="68.294" xlink:href="#AX"><stop offset="0" stop-color="#004268"/><stop offset="1" stop-color="#016ba3"/></linearGradient><clipPath id="M"><path d="M63.83 496.6l-.51-.025v-4.972c5.493 0 9.945 4.452 9.945 9.944v4.973c0-5.32-4.18-9.653-9.436-9.92"/></clipPath><linearGradient id="N" spreadMethod="pad" y2="497.985" x2="68.294" y1="491.644" x1="68.294" xlink:href="#AX"><stop offset="0" stop-color="#016ba3"/><stop offset=".442" stop-color="#005381"/><stop offset="1" stop-color="#004268"/></linearGradient><clipPath id="O"><path d="M105.962 526.466v-11.318c0-1.332-.53-2.135-1.713-2.135-1.206 0-1.735.803-1.735 2.135v11.318h-1.63v-11.233c0-2.242 1.037-3.744 3.3-3.744 2.285 0 3.32 1.502 3.32 3.744v11.233z"/></clipPath><linearGradient id="P" spreadMethod="pad" y2="526.499" x2="104.196" y1="511.656" x1="104.196" xlink:href="#AX"><stop offset="0" stop-color="#004268"/><stop offset="1" stop-color="#016ba3"/></linearGradient><clipPath id="Q"><path d="M97.995 526.466v-11.362c0-1.516-.663-2.03-1.752-2.092l-.832.02v-1.515c.362-.043.662-.022 1.046-.022 1.794.043 3.182.918 3.182 3.715v11.256z"/></clipPath><linearGradient id="R" spreadMethod="pad" y2="526.499" x2="97.525" y1="511.656" x1="97.525" xlink:href="#AX"><stop offset="0" stop-color="#004268"/><stop offset="1" stop-color="#016ba3"/></linearGradient><clipPath id="S"><path d="M108.372 522.795c0-4.132 4.907-4.446 4.907-7.72 0-1.322-.545-2.098-1.72-2.098s-1.72.776-1.72 2.098V516h-1.53v-.84c0-2.224 1.048-3.67 3.293-3.67s3.314 1.447 3.314 3.67c0 4.132-4.93 4.447-4.93 7.74 0 1.3.502 2.076 1.678 2.076s1.677-.776 1.677-2.098v-.482h1.553v.4c0 2.224-1.05 3.67-3.273 3.67-2.202 0-3.25-1.406-3.25-3.67"/></clipPath><linearGradient id="T" spreadMethod="pad" y2="526.499" x2="111.612" y1="511.656" x1="111.612" xlink:href="#AX"><stop offset="0" stop-color="#004268"/><stop offset="1" stop-color="#016ba3"/></linearGradient><clipPath id="U"><path d="M115.484 526.466v-1.52h2.76V511.49h1.67v13.457h2.76v1.52z"/></clipPath><linearGradient id="V" spreadMethod="pad" y2="526.499" x2="119.079" y1="511.656" x1="119.079" xlink:href="#AX"><stop offset="0" stop-color="#004268"/><stop offset="1" stop-color="#016ba3"/></linearGradient><clipPath id="W"><path d="M123.5 511.49h1.67v14.977h-1.67z"/></clipPath><linearGradient id="X" spreadMethod="pad" y2="526.499" x2="124.335" y1="511.656" x1="124.335" xlink:href="#AX"><stop offset="0" stop-color="#004268"/><stop offset="1" stop-color="#016ba3"/></linearGradient><clipPath id="Y"><path d="M126.322 522.774v-7.592c0-2.116.95-3.545 2.975-3.68v-.76h.18c.618 0 .976-.207.976-.564 0-.377-.318-.602-.857-.602-.518.038-.818.245-.818.546v.13h-1.016v-.15c0-.733.678-1.166 1.834-1.166 1.196 0 1.894.452 1.894 1.205 0 .6-.538.958-1.475.958v.406c1.99.165 2.915 1.587 2.915 3.676v1.824h-1.552v-1.9c0-1.32-.525-2.118-1.72-2.118-1.175 0-1.72.797-1.72 2.118v7.762c0 1.322.545 2.118 1.72 2.118 1.195 0 1.72-.796 1.72-2.118v-1.405h1.552v1.32c0 2.223-1.05 3.692-3.315 3.692-2.243 0-3.292-1.47-3.292-3.692"/></clipPath><linearGradient id="Z" spreadMethod="pad" y2="526.499" x2="129.625" y1="511.656" x1="129.625" xlink:href="#AX"><stop offset="0" stop-color="#004268"/><stop offset="1" stop-color="#016ba3"/></linearGradient><clipPath id="a"><path d="M136.563 526.466l-2.866-14.977h1.54l.577 3.017h3.788l.577-3.017h1.67l-2.866 14.977zm1.114-1.883l1.69-8.644h-3.337z"/></clipPath><linearGradient id="b" spreadMethod="pad" y2="526.499" x2="137.772" y1="511.656" x1="137.772" xlink:href="#AX"><stop offset="0" stop-color="#004268"/><stop offset="1" stop-color="#016ba3"/></linearGradient><clipPath id="c"><path d="M145.176 526.466V511.49h3.51c2.332 0 3.402 1.412 3.402 3.702v7.55c0 2.312-1.07 3.724-3.402 3.724zm1.67-1.52h1.797c1.22 0 1.797-.748 1.797-2.117v-7.703c0-1.37-.577-2.118-1.775-2.118h-1.82z"/></clipPath><linearGradient id="d" spreadMethod="pad" y2="526.499" x2="148.632" y1="511.656" x1="148.632" xlink:href="#AX"><stop offset="0" stop-color="#004268"/><stop offset="1" stop-color="#016ba3"/></linearGradient><clipPath id="e"><path d="M153.192 522.774v-7.592c0-2.224 1.112-3.693 3.357-3.693 2.264 0 3.376 1.47 3.376 3.693v7.592c0 2.245-1.112 3.692-3.376 3.692-2.245 0-3.357-1.447-3.357-3.692m1.615-7.678v7.762c0 1.322.566 2.118 1.742 2.118 1.195 0 1.74-.796 1.74-2.118v-7.762c0-1.342-.545-2.118-1.74-2.118-1.176 0-1.742.776-1.742 2.118"/></clipPath><linearGradient id="f" spreadMethod="pad" y2="526.499" x2="156.559" y1="511.656" x1="156.559" xlink:href="#AX"><stop offset="0" stop-color="#004268"/><stop offset="1" stop-color="#016ba3"/></linearGradient><clipPath id="g"><path d="M162.588 526.466v-1.52h2.76V511.49h1.67v13.458h2.76v1.52z"/></clipPath><linearGradient id="h" spreadMethod="pad" y2="526.499" x2="166.182" y1="511.656" x1="166.182" xlink:href="#AX"><stop offset="0" stop-color="#004268"/><stop offset="1" stop-color="#016ba3"/></linearGradient><clipPath id="i"><path d="M171.048 526.466V511.49h1.67v6.397h1.176c1.39 0 2.183-.534 2.183-2.225v-2.352c0-1.007.085-1.393.277-1.82h1.69c-.28.514-.3 1.134-.3 1.798v2.332c0 1.605-.513 2.717-1.882 3.123 1.283.407 1.86 1.434 1.86 3.08v1.22c0 2.224-.985 3.423-3.338 3.423zm1.67-1.52h1.626c1.24 0 1.733-.706 1.733-2.055v-1.432c0-1.626-.792-2.055-2.12-2.055h-1.24z"/></clipPath><linearGradient id="j" spreadMethod="pad" y2="526.499" x2="174.546" y1="511.656" x1="174.546" xlink:href="#AX"><stop offset="0" stop-color="#004268"/><stop offset="1" stop-color="#016ba3"/></linearGradient><clipPath id="k"><path d="M181.805 526.466l-2.868-14.977h1.54l.577 3.017h3.787l.578-3.017h1.67l-2.867 14.977zm1.112-1.883l1.69-8.644h-3.337z"/></clipPath><linearGradient id="l" spreadMethod="pad" y2="526.499" x2="183.013" y1="511.656" x1="183.013" xlink:href="#AX"><stop offset="0" stop-color="#004268"/><stop offset="1" stop-color="#016ba3"/></linearGradient><clipPath id="m"><path d="M188.176 526.466V511.49h3.444c2.332 0 3.424 1.263 3.424 3.51v1.263c0 1.647-.558 2.802-2.012 3.208 1.305.407 1.755 1.39 1.755 2.974v.706c0 2.204-.92 3.317-3.253 3.317zm1.668-1.52h1.648c1.198 0 1.647-.643 1.647-1.97v-.876c0-1.564-.685-1.99-2.01-1.99h-1.284zm0-6.354h1.455c1.434 0 2.097-.558 2.097-2.226v-1.326c0-1.39-.557-2.033-1.776-2.033h-1.776z"/></clipPath><linearGradient id="n" spreadMethod="pad" y2="526.499" x2="191.609" y1="511.656" x1="191.609" xlink:href="#AX"><stop offset="0" stop-color="#004268"/><stop offset="1" stop-color="#016ba3"/></linearGradient><clipPath id="o"><path d="M198.267 526.466L195.4 511.49h1.54l.577 3.017h3.788l.577-3.017h1.67l-2.867 14.977zm1.113-1.883l1.7-8.644h-3.337z"/></clipPath><linearGradient id="p" spreadMethod="pad" y2="526.499" x2="199.476" y1="511.656" x1="199.476" xlink:href="#AX"><stop offset="0" stop-color="#004268"/><stop offset="1" stop-color="#016ba3"/></linearGradient><clipPath id="q"><path d="M204.804 526.466V511.49h5.948v1.52h-4.28v13.458z"/></clipPath><linearGradient id="r" spreadMethod="pad" y2="526.499" x2="207.778" y1="511.656" x1="207.778" xlink:href="#AX"><stop offset="0" stop-color="#004268"/><stop offset="1" stop-color="#016ba3"/></linearGradient><clipPath id="s"><path d="M217.156 526.466v-6.74h-3.68v6.74h-1.67V511.49h1.67v6.74h3.68v-6.74h1.67v14.977z"/></clipPath><linearGradient id="t" spreadMethod="pad" y2="526.499" x2="215.317" y1="511.656" x1="215.317" xlink:href="#AX"><stop offset="0" stop-color="#004268"/><stop offset="1" stop-color="#016ba3"/></linearGradient><clipPath id="u"><path d="M220.108 522.774v-7.592c0-2.224 1.11-3.693 3.356-3.693 2.265 0 3.376 1.47 3.376 3.693v7.592c0 2.245-1.11 3.692-3.376 3.692-2.245 0-3.356-1.447-3.356-3.692m1.615-7.678v7.762c0 1.322.566 2.118 1.74 2.118 1.195 0 1.74-.796 1.74-2.118v-7.762c0-1.342-.546-2.118-1.74-2.118-1.175 0-1.74.776-1.74 2.118"/></clipPath><linearGradient id="v" spreadMethod="pad" y2="526.499" x2="223.474" y1="511.656" x1="223.474" xlink:href="#AX"><stop offset="0" stop-color="#004268"/><stop offset="1" stop-color="#016ba3"/></linearGradient><clipPath id="w"><path d="M95.55 506.703a3.04 3.04 0 0 1-.059-.596 3.15 3.15 0 0 1 .059-.616h1.75v-5.814c.13-.02.26-.033.386-.04l.356-.01.342.014.352.035v5.814h1.75c.04.196.06.4.06.616 0 .202-.02.4-.06.596z"/></clipPath><linearGradient id="x" spreadMethod="pad" y2="506.947" x2="161.453" y1="497.312" x1="161.453" xlink:href="#AX"><stop offset="0" stop-color="#004268"/><stop offset="1" stop-color="#016ba3"/></linearGradient><clipPath id="y"><path d="M102.4 504.547c-.21-.158-.384-.34-.527-.542l-.026.172-.033.205-.044.195c-.016.062-.034.1-.054.142l-.278.05c-.095.012-.19.02-.288.02a2.58 2.58 0 0 1-.289-.015l-.278-.044v-5.062l.356-.04.338-.01.342.01c.117.006.234.02.352.04v2.404c0 .35.04.626.12.82s.185.343.308.44.254.158.392.18a2.24 2.24 0 0 0 .37.034h.16c.09 0 .17-.006.24-.02.026.118.044.242.054.37l.014.36-.01.264c-.006.085-.015.16-.028.226a1.02 1.02 0 0 1-.186.03l-.225.01c-.313 0-.573-.08-.782-.24"/></clipPath><clipPath id="z"><path d="M104.945 506.932l-.356-.044a3.88 3.88 0 0 1-.058-.654c0-.215.02-.433.058-.655.112-.02.23-.033.362-.04l.35-.01.357.01a2.93 2.93 0 0 1 .357.039c.02.1.033.222.04.332l.01.323-.01.327a2.88 2.88 0 0 1-.039.327c-.11.02-.23.034-.36.044l-.362.015c-.105 0-.22-.005-.348-.015m-.805-2.203a2.31 2.31 0 0 1-.059-.518 2.89 2.89 0 0 1 .015-.269c.01-.093.025-.183.044-.27h.654v-3.996c.235-.04.46-.06.674-.06a4.17 4.17 0 0 1 .685.059v5.052z"/></clipPath><clipPath id="AA"><path d="M107.5 506.82v-6.976a3.6 3.6 0 0 1 .411-.123l.47-.09.483-.052.454-.02c.45 0 .854.062 1.212.19s.66.307.91.542a2.31 2.31 0 0 1 .566.854 3.14 3.14 0 0 1 .196 1.138c0 .437-.052.815-.156 1.134s-.248.585-.43.797-.4.37-.65.473a2.09 2.09 0 0 1-.816.158c-.293 0-.553-.06-.782-.17s-.4-.26-.488-.436v2.58c-.235.04-.466.06-.694.06a4.17 4.17 0 0 1-.684-.059m1.627-6.098a1 1 0 0 0-.249.05v1.837c0 .37.083.643.25.816s.38.258.64.258c.358 0 .612-.12.76-.366s.225-.6.225-1.07c0-.528-.12-.916-.36-1.163s-.574-.372-.997-.372l-.27.01"/></clipPath><clipPath id="AB"><path d="M116.236 504.73v-3.957a2.3 2.3 0 0 0-.605-.069c-.176 0-.33.02-.46.063a.74.74 0 0 0-.328.215.97.97 0 0 0-.195.412c-.043.172-.064.39-.064.658v2.678a4.11 4.11 0 0 1-.694.059c-.227 0-.46-.02-.693-.06v-2.716c0-.54.068-.974.205-1.3s.32-.573.552-.74.5-.28.806-.333.625-.078.957-.078c.372 0 .73.034 1.07.103a6.53 6.53 0 0 1 .826.21v4.856c-.235.04-.467.06-.694.06s-.45-.02-.685-.06"/></clipPath><clipPath id="AC"><path d="M121.122 504.773c-.15-.05-.284-.112-.405-.2a1.69 1.69 0 0 1-.318-.264 2.67 2.67 0 0 1-.235-.293l-.024.167-.033.2-.044.196a.63.63 0 0 1-.054.141 2.74 2.74 0 0 1-.264.044 2.54 2.54 0 0 1-.293.015c-.11 0-.212-.005-.304-.015l-.273-.044v-5.052c.235-.04.466-.06.694-.06a4.22 4.22 0 0 1 .693.059v2.648c0 .274.03.495.09.665s.135.3.23.395.2.158.318.19.23.05.342.05c.267 0 .453-.095.56-.284s.162-.46.162-.8v-2.854c.235-.04.465-.06.694-.06a4.21 4.21 0 0 1 .693.059v3.224c0 .67-.144 1.163-.435 1.476s-.72.47-1.294.47a1.6 1.6 0 0 1-.499-.074"/></clipPath><clipPath id="AD"><path d="M125.52 504.78a5.09 5.09 0 0 1-.86-.217c0-.207.022-.386.068-.536s.114-.3.206-.48c.396.137.77.206 1.123.206.163 0 .31-.01.445-.03s.246-.057.337-.113.163-.132.215-.23.078-.225.078-.38v-.12l-.625.03a3.78 3.78 0 0 1-.782-.082 2.32 2.32 0 0 1-.709-.274 1.55 1.55 0 0 1-.517-.508c-.134-.212-.2-.475-.2-.788s.054-.575.16-.79a1.37 1.37 0 0 1 .459-.527c.2-.137.437-.234.714-.293s.58-.088.913-.088c.41 0 .78.033 1.105.097l.83.206v2.93c0 .716-.2 1.238-.57 1.563s-.91.5-1.59.5a5.31 5.31 0 0 1-.8-.068m.766-4.13c-.113.01-.22.036-.322.08a.63.63 0 0 0-.259.199c-.07.092-.107.222-.107.392 0 .253.093.437.278.552s.438.17.758.17a2.27 2.27 0 0 0 .244-.015l.254-.034v-1.3l-.254-.044c-.098-.017-.196-.024-.294-.024l-.298.014"/></clipPath><clipPath id="AE"><path d="M129.672 506.82v-5.433c0-.625.152-1.077.454-1.353s.706-.416 1.207-.416l.405.02a1.78 1.78 0 0 1 .377.069.57.57 0 0 1 .019.141V500c0 .254-.036.514-.107.782-.058-.014-.12-.023-.18-.03a1.51 1.51 0 0 0-.171-.01.91.91 0 0 0-.293.04c-.077.026-.142.073-.2.14s-.085.164-.108.29-.034.286-.034.49v5.13a4.18 4.18 0 0 1-.684.059c-.228 0-.46-.02-.694-.06"/></clipPath><clipPath id="AF"><path d="M136.277 506.688c-.292-.088-.544-.218-.75-.4s-.37-.387-.485-.64-.17-.547-.17-.878c0-.274.035-.5.103-.705a1.49 1.49 0 0 1 .289-.503c.123-.14.273-.26.45-.362s.375-.194.596-.278l.596-.224.342-.143c.11-.05.2-.108.298-.18a.85.85 0 0 0 .215-.264.83.83 0 0 0 .083-.391c0-.313-.117-.546-.352-.698s-.557-.23-.967-.23a3.46 3.46 0 0 0-.772.083c-.242.055-.498.138-.772.25l-.186-.62a4.24 4.24 0 0 1-.107-.592l.47-.165a4.71 4.71 0 0 1 .454-.114 4.42 4.42 0 0 1 .485-.062l.576-.02c.436 0 .82.055 1.158.166s.616.264.845.46a1.96 1.96 0 0 1 .523.705c.12.273.18.576.18.908 0 .32-.04.587-.118.805s-.187.404-.328.558a1.78 1.78 0 0 1-.513.385c-.2.105-.426.206-.674.304l-.586.224-.293.122c-.098.043-.186.095-.264.158s-.14.136-.185.223-.07.197-.07.328c0 .162.03.294.088.396s.134.176.225.23.193.088.307.107a1.96 1.96 0 0 0 .338.031 4.17 4.17 0 0 0 .488-.026c.144-.016.272-.036.386-.063a2.54 2.54 0 0 0 .323-.098l.298-.117c.17.365.273.737.312 1.115-.32.11-.623.195-.913.253a4.69 4.69 0 0 1-.934.088c-.365 0-.694-.044-.987-.132"/></clipPath><clipPath id="AG"><path d="M143.352 504.73v-3.957c-.163-.045-.364-.07-.606-.07-.176 0-.328.02-.46.063a.74.74 0 0 0-.327.215.96.96 0 0 0-.196.412c-.042.172-.063.39-.063.658v2.678c-.235.04-.466.06-.694.06s-.46-.02-.693-.06v-2.716c0-.54.067-.974.204-1.3s.32-.573.552-.74.5-.28.807-.333.624-.078.957-.078c.37 0 .73.034 1.07.103s.616.138.825.2v4.856c-.235.04-.466.06-.694.06a4.07 4.07 0 0 1-.684-.059"/></clipPath><clipPath id="AH"><path d="M148.18 504.773c-.15-.05-.285-.112-.405-.2s-.224-.168-.308-.27a1.98 1.98 0 0 1-.215-.309l-.024.172-.04.21-.05.202c-.016.06-.034.108-.054.14a2.68 2.68 0 0 1-.557.059 5.22 5.22 0 0 1-.298-.009 2.17 2.17 0 0 1-.268-.04v-7.378l.356-.04.338-.01.337.01.356.04v2.247c.072-.013.16-.023.27-.033l.328-.015c.43 0 .814.062 1.153.19s.625.307.86.542a2.31 2.31 0 0 1 .537.854c.125.337.187.716.187 1.138 0 .437-.05.815-.152 1.134s-.243.585-.424.797-.396.37-.64.473-.507.158-.787.158c-.182 0-.348-.025-.498-.074m-.83-4.02v1.72c0 .163.017.316.05.46s.085.27.157.376.164.193.278.255a.87.87 0 0 0 .416.092.86.86 0 0 0 .444-.108c.12-.07.22-.17.298-.292s.134-.273.166-.445a3.08 3.08 0 0 0 .049-.562c0-.528-.107-.922-.323-1.182s-.524-.39-.927-.39c-.23 0-.43.026-.607.078"/></clipPath><clipPath id="AI"><path d="M152.884 504.636c-.303-.14-.557-.33-.762-.572a2.41 2.41 0 0 1-.464-.851c-.105-.325-.157-.672-.157-1.045s.05-.726.152-1.045a2.17 2.17 0 0 1 .469-.826c.21-.23.485-.412.82-.54s.738-.196 1.207-.196c.638 0 1.212.097 1.72.294-.007.208-.036.403-.088.586a2.35 2.35 0 0 1-.185.469c-.21-.08-.43-.14-.66-.18a3.71 3.71 0 0 0-.68-.064c-.404 0-.73.088-.976.263s-.385.46-.41.85h3.244c.013.07.024.168.034.288l.015.366a3.05 3.05 0 0 1-.146.953c-.098.297-.243.552-.435.767a2.07 2.07 0 0 1-.699.509c-.274.123-.586.186-.938.186a2.5 2.5 0 0 1-1.06-.211m.298-1.118c.17.18.416.273.742.273.286 0 .5-.097.67-.29s.246-.444.258-.757h-1.974c.034.332.135.6.304.773"/></clipPath><clipPath id="AJ"><path d="M159.074 504.547c-.21-.158-.384-.34-.527-.542l-.025.172-.034.205-.045.195a.53.53 0 0 1-.053.142l-.28.05a2.26 2.26 0 0 1-.288.019 2.56 2.56 0 0 1-.288-.015l-.278-.044v-5.062l.356-.04.337-.01.342.01a3.21 3.21 0 0 1 .352.039v2.404c0 .35.04.626.122.82s.184.343.308.44.254.158.39.18a2.25 2.25 0 0 0 .371.034h.16a1.36 1.36 0 0 0 .24-.019c.026.118.044.242.054.37l.014.36-.01.264c-.006.085-.016.16-.03.226a1.02 1.02 0 0 1-.186.03l-.224.01c-.312 0-.574-.08-.782-.24"/></clipPath><clipPath id="AK"><path d="M161.6 506.932l-.357-.044a3.88 3.88 0 0 1-.058-.654c0-.215.02-.433.058-.655a2.93 2.93 0 0 1 .362-.039l.352-.01.356.01c.127.006.246.02.356.04a2.89 2.89 0 0 1 .04.332l.01.323-.01.327c-.007.107-.02.217-.04.327-.1.02-.23.034-.36.044l-.362.015a4.44 4.44 0 0 1-.347-.015m-.806-2.203c-.04-.17-.06-.343-.06-.518a2.89 2.89 0 0 1 .015-.269l.045-.27h.654v-3.996a4.11 4.11 0 0 1 .675-.059 4.18 4.18 0 0 1 .684.059v5.052z"/></clipPath><clipPath id="AL"><path d="M165.254 504.642a2.08 2.08 0 0 1-.752-.563 2.42 2.42 0 0 1-.449-.845c-.102-.326-.152-.675-.152-1.046s.05-.716.152-1.036.25-.596.45-.835.45-.424.752-.558.66-.2 1.07-.2.77.067 1.075.2.56.32.762.558a2.33 2.33 0 0 1 .449.835c.1.32.147.666.147 1.036s-.048.72-.147 1.046a2.31 2.31 0 0 1-.449.845 2.1 2.1 0 0 1-.762.563 2.61 2.61 0 0 1-1.075.205c-.4 0-.766-.068-1.07-.205m.294-3.622c-.16.27-.24.66-.24 1.168s.08.898.24 1.17.417.405.776.405c.365 0 .627-.136.787-.405s.24-.66.24-1.17-.08-.897-.24-1.168-.422-.405-.787-.405c-.36 0-.617.135-.776.405"/></clipPath><clipPath id="AM"><path d="M171.67 504.547a2.44 2.44 0 0 1-.528-.542l-.025.172-.034.205-.044.195a.61.61 0 0 1-.053.142l-.28.05c-.095.012-.2.02-.288.02-.105 0-.2-.005-.288-.015l-.28-.044v-5.062l.357-.04.337-.01.34.01a3.21 3.21 0 0 1 .352.039v2.404c0 .35.04.626.122.82s.184.343.31.44a.85.85 0 0 0 .39.18 2.25 2.25 0 0 0 .372.034h.16c.087 0 .167-.006.24-.02a2.55 2.55 0 0 1 .053.371l.016.36-.01.264c-.006.085-.016.16-.03.226a1.02 1.02 0 0 1-.185.03l-.225.01c-.312 0-.573-.08-.78-.24"/></clipPath><clipPath id="AN"><path d="M179.306 506.86a3.26 3.26 0 0 1-.347-.039v-2.07a1.98 1.98 0 0 1-.367.064l-.367.014c-.4 0-.746-.07-1.064-.2a2.44 2.44 0 0 1-.816-.572c-.225-.24-.398-.527-.518-.855s-.18-.68-.18-1.05c0-.47.07-.867.2-1.193s.33-.59.572-.796.52-.355.835-.45.646-.142.993-.142c.45 0 .83.025 1.147.072s.628.12.934.212v6.976a3.24 3.24 0 0 1-.352.039l-.342.01c-.11 0-.224-.003-.337-.01m-1.462-6.083a1 1 0 0 0-.405.24 1.09 1.09 0 0 0-.268.445c-.065.185-.1.4-.1.68a2.64 2.64 0 0 0 .074.62c.05.2.125.372.23.518a1.15 1.15 0 0 0 .396.352c.16.087.347.132.56.132l.308-.015c.082-.01.187-.03.318-.064v-2.902c-.11-.032-.212-.053-.304-.063s-.19-.015-.303-.015c-.182 0-.35.025-.508.073"/></clipPath><clipPath id="AO"><path d="M182.746 504.642c-.304-.137-.555-.325-.753-.563s-.35-.52-.45-.845-.152-.675-.152-1.046.05-.716.152-1.036.25-.596.45-.835.45-.424.753-.558.66-.2 1.07-.2.77.067 1.075.2.56.32.762.558.352.517.45.835.146.666.146 1.036-.048.72-.146 1.046-.248.607-.45.845a2.11 2.11 0 0 1-.762.563c-.306.137-.665.205-1.075.205s-.767-.068-1.07-.205m.292-3.622c-.16.27-.24.66-.24 1.168s.08.898.24 1.17.42.405.777.405c.365 0 .626-.136.787-.405s.24-.66.24-1.17-.08-.897-.24-1.168-.422-.405-.787-.405c-.358 0-.617.135-.777.405"/></clipPath><clipPath id="AP"><path d="M189.11 506.703a3.04 3.04 0 0 1-.058-.596 3.15 3.15 0 0 1 .058-.616h1.75v-5.814c.13-.02.26-.033.386-.04l.357-.01.342.014.352.035v5.814h1.748c.04.196.06.4.06.616 0 .202-.02.4-.06.596z"/></clipPath><clipPath id="AQ"><path d="M195.97 504.547c-.21-.158-.385-.34-.53-.542l-.024.172-.034.205-.044.195c-.017.062-.035.1-.054.142l-.28.05a2.26 2.26 0 0 1-.288.019 2.54 2.54 0 0 1-.287-.015l-.28-.044v-5.062l.358-.04.336-.01.343.01c.116.006.233.02.35.04v2.404c0 .35.04.626.123.82s.183.343.308.44.253.158.4.18a2.25 2.25 0 0 0 .372.034h.16c.088 0 .167-.006.24-.02.025.118.043.242.053.37l.015.36-.01.264c-.006.085-.016.16-.03.226a1.05 1.05 0 0 1-.186.03l-.225.01c-.313 0-.574-.08-.78-.24"/></clipPath><clipPath id="AR"><path d="M198.892 504.78c-.286-.046-.573-.118-.86-.217a1.84 1.84 0 0 1 .069-.536c.046-.15.113-.3.205-.48.397.137.77.206 1.124.206a3.16 3.16 0 0 0 .444-.029c.133-.02.246-.057.337-.113a.58.58 0 0 0 .215-.229c.053-.098.078-.225.078-.38v-.12l-.625.03a3.77 3.77 0 0 1-.782-.082c-.26-.056-.497-.147-.708-.274s-.384-.297-.518-.508-.2-.475-.2-.788.053-.575.16-.79a1.39 1.39 0 0 1 .459-.527 1.96 1.96 0 0 1 .714-.293c.277-.058.58-.088.913-.088.4 0 .778.033 1.104.097l.83.206v2.93c0 .716-.19 1.238-.572 1.563s-.9.5-1.588.5a5.3 5.3 0 0 1-.801-.068m.768-4.13a1.04 1.04 0 0 0-.323.079c-.1.04-.188.108-.26.2s-.107.222-.107.392c0 .253.093.437.278.552s.44.17.758.17a2.3 2.3 0 0 0 .245-.015l.253-.034v-1.3l-.253-.044c-.098-.017-.196-.024-.294-.024l-.297.014"/></clipPath><clipPath id="AS"><path d="M203.064 506.82v-6.976a3.54 3.54 0 0 1 .411-.123l.47-.09.483-.052.454-.02c.45 0 .854.062 1.212.19a2.53 2.53 0 0 1 .909.542c.246.234.436.52.567.854s.195.716.195 1.138a3.61 3.61 0 0 1-.158 1.134c-.103.32-.246.585-.43.797s-.4.37-.65.473a2.09 2.09 0 0 1-.815.158c-.293 0-.554-.06-.782-.17s-.39-.26-.49-.436v2.58c-.234.04-.465.06-.694.06a4.18 4.18 0 0 1-.684-.059m1.627-6.098a1.01 1.01 0 0 0-.249.05v1.837c0 .37.083.643.25.816s.38.258.64.258c.36 0 .612-.12.763-.366s.225-.6.225-1.07c0-.528-.12-.916-.362-1.163s-.573-.372-.997-.372l-.27.01"/></clipPath><clipPath id="AT"><path d="M209.758 504.78a5.09 5.09 0 0 1-.86-.217c0-.207.023-.386.068-.536s.114-.3.206-.48c.397.137.77.206 1.123.206.163 0 .31-.01.445-.03s.246-.057.337-.113.162-.132.214-.23.078-.225.078-.38v-.12l-.625.03a3.77 3.77 0 0 1-.781-.082 2.31 2.31 0 0 1-.709-.274 1.55 1.55 0 0 1-.517-.508c-.134-.212-.2-.475-.2-.788s.053-.575.16-.79a1.39 1.39 0 0 1 .459-.527c.2-.137.437-.234.714-.293a4.46 4.46 0 0 1 .914-.088c.4 0 .778.033 1.104.097l.83.206v2.93c0 .716-.192 1.238-.572 1.563s-.91.5-1.588.5a5.3 5.3 0 0 1-.801-.068m.767-4.13c-.114.01-.222.036-.323.08a.63.63 0 0 0-.259.199c-.072.092-.107.222-.107.392 0 .253.093.437.278.552s.438.17.758.17a2.27 2.27 0 0 0 .244-.015l.253-.034v-1.3l-.253-.044c-.098-.017-.196-.024-.294-.024l-.297.014"/></clipPath><clipPath id="AU"><path d="M213.9 506.82v-5.433c0-.625.152-1.077.455-1.353s.704-.416 1.207-.416l.405.02a1.77 1.77 0 0 1 .376.069c.013.05.02.098.02.14V500c0 .254-.036.514-.107.782-.06-.014-.12-.023-.18-.03a1.55 1.55 0 0 0-.171-.01.92.92 0 0 0-.294.04.38.38 0 0 0-.19.141c-.05.068-.085.164-.108.29a2.79 2.79 0 0 0-.033.489v5.13a4.18 4.18 0 0 1-.685.059c-.228 0-.46-.02-.694-.06"/></clipPath><clipPath id="AV"><path d="M217.438 506.86c-.117-.007-.23-.02-.342-.04v-7.153l.348-.04.336-.01.342.01c.117.006.234.02.352.04v2.658c0 .274.03.495.093.665s.14.3.235.395.2.158.317.19.23.05.34.05c.268 0 .457-.095.567-.284s.167-.46.167-.8v-2.864c.116-.02.234-.033.35-.04l.343-.01.342.01c.117.006.234.02.352.04v3.234c0 .67-.146 1.163-.436 1.476s-.714.47-1.275.47a1.72 1.72 0 0 1-.537-.078 1.7 1.7 0 0 1-.401-.192c-.11-.074-.203-.152-.28-.233l-.18-.212v2.688c-.118.02-.235.032-.352.04l-.342.01a5.72 5.72 0 0 1-.342-.01"/></clipPath><clipPath id="AW"><path d="M223.912 504.642c-.303-.137-.554-.325-.752-.563s-.35-.52-.45-.845-.152-.675-.152-1.046.05-.716.152-1.036a2.43 2.43 0 0 1 .45-.835c.198-.238.45-.424.752-.558s.66-.2 1.07-.2.77.067 1.075.2a2.08 2.08 0 0 1 .762.558c.2.24.352.517.45.835s.147.666.147 1.036-.05.72-.147 1.046-.248.607-.45.845-.456.426-.762.563-.665.205-1.075.205-.768-.068-1.07-.205m.293-3.622c-.16.27-.24.66-.24 1.168s.08.898.24 1.17.42.405.777.405c.364 0 .627-.136.786-.405s.24-.66.24-1.17-.08-.897-.24-1.168-.422-.405-.786-.405c-.358 0-.617.135-.777.405"/></clipPath><linearGradient id="AX" gradientUnits="userSpaceOnUse"/></defs><g transform="matrix(1.333333 0 0 -1.333333 -84.427998 708.51065)"><g clip-path="url(#A)"><path d="M74.48 527.653a3.73 3.73 0 0 1 3.729-3.73 3.73 3.73 0 1 1 0 7.46 3.73 3.73 0 0 1-3.729-3.73" fill="url(#B)"/></g><g clip-path="url(#C)"><path d="M65.808 522.68v-4.97h4.973c2.745 0 4.972-2.227 4.972-4.973v-12.43h4.972v12.43c0 5.492-4.452 9.944-9.944 9.944z" fill="url(#D)"/></g><g clip-path="url(#E)"><path d="M65.808 522.68v-4.97h4.973c.17 0 .34-.01.508-.026a9.94 9.94 0 0 0 9.436-9.919v4.972c0 5.492-4.452 9.944-9.944 9.944z" fill="url(#F)"/></g><g clip-path="url(#G)"><path d="M63.32 510.25h9.945v4.973H63.32z" fill="url(#H)"/></g><g clip-path="url(#I)"><path d="M80.725 517.71h9.945v4.972h-9.945z" fill="url(#J)"/></g><g clip-path="url(#K)"><path d="M68.294 507.764v-6.217c0-2.745-2.226-4.972-4.973-4.972v-4.972c5.493 0 9.945 4.452 9.945 9.944v6.217z" fill="url(#L)"/></g><g clip-path="url(#M)"><path d="M63.83 496.6l-.51-.025v-4.972c5.493 0 9.945 4.452 9.945 9.944v4.973c0-5.32-4.18-9.653-9.436-9.92" fill="url(#N)"/></g><g clip-path="url(#O)"><path d="M105.962 526.466v-11.318c0-1.332-.53-2.135-1.713-2.135-1.206 0-1.735.803-1.735 2.135v11.318h-1.63v-11.233c0-2.242 1.037-3.744 3.3-3.744 2.285 0 3.32 1.502 3.32 3.744v11.233z" fill="url(#P)"/></g><g clip-path="url(#Q)"><path d="M97.995 526.466v-11.362c0-1.516-.663-2.03-1.752-2.092l-.832.02v-1.515c.362-.043.662-.022 1.046-.022 1.794.043 3.182.918 3.182 3.715v11.256z" fill="url(#R)"/></g><g clip-path="url(#S)"><path d="M108.372 522.795c0-4.132 4.907-4.446 4.907-7.72 0-1.322-.545-2.098-1.72-2.098s-1.72.776-1.72 2.098V516h-1.53v-.84c0-2.224 1.048-3.67 3.293-3.67s3.314 1.447 3.314 3.67c0 4.132-4.93 4.447-4.93 7.74 0 1.3.502 2.076 1.678 2.076s1.677-.776 1.677-2.098v-.482h1.553v.4c0 2.224-1.05 3.67-3.273 3.67-2.202 0-3.25-1.406-3.25-3.67" fill="url(#T)"/></g><g clip-path="url(#U)"><path d="M115.484 526.466v-1.52h2.76V511.49h1.67v13.457h2.76v1.52z" fill="url(#V)"/></g><g clip-path="url(#W)"><path d="M123.5 511.49h1.67v14.977h-1.67z" fill="url(#X)"/></g><g clip-path="url(#Y)"><path d="M126.322 522.774v-7.592c0-2.116.95-3.545 2.975-3.68v-.76h.18c.618 0 .976-.207.976-.564 0-.377-.318-.602-.857-.602-.518.038-.818.245-.818.546v.13h-1.016v-.15c0-.733.678-1.166 1.834-1.166 1.196 0 1.894.452 1.894 1.205 0 .6-.538.958-1.475.958v.406c1.99.165 2.915 1.587 2.915 3.676v1.824h-1.552v-1.9c0-1.32-.525-2.118-1.72-2.118-1.175 0-1.72.797-1.72 2.118v7.762c0 1.322.545 2.118 1.72 2.118 1.195 0 1.72-.796 1.72-2.118v-1.405h1.552v1.32c0 2.223-1.05 3.692-3.315 3.692-2.243 0-3.292-1.47-3.292-3.692" fill="url(#Z)"/></g><g clip-path="url(#a)"><path d="M136.563 526.466l-2.866-14.977h1.54l.577 3.017h3.788l.577-3.017h1.67l-2.866 14.977zm1.114-1.883l1.69-8.644h-3.337z" fill="url(#b)"/></g><g clip-path="url(#c)"><path d="M145.176 526.466V511.49h3.51c2.332 0 3.402 1.412 3.402 3.702v7.55c0 2.312-1.07 3.724-3.402 3.724zm1.67-1.52h1.797c1.22 0 1.797-.748 1.797-2.117v-7.703c0-1.37-.577-2.118-1.775-2.118h-1.82z" fill="url(#d)"/></g><g clip-path="url(#e)"><path d="M153.192 522.774v-7.592c0-2.224 1.112-3.693 3.357-3.693 2.264 0 3.376 1.47 3.376 3.693v7.592c0 2.245-1.112 3.692-3.376 3.692-2.245 0-3.357-1.447-3.357-3.692m1.615-7.678v7.762c0 1.322.566 2.118 1.742 2.118 1.195 0 1.74-.796 1.74-2.118v-7.762c0-1.342-.545-2.118-1.74-2.118-1.176 0-1.742.776-1.742 2.118" fill="url(#f)"/></g><g clip-path="url(#g)"><path d="M162.588 526.466v-1.52h2.76V511.49h1.67v13.458h2.76v1.52z" fill="url(#h)"/></g><g clip-path="url(#i)"><path d="M171.048 526.466V511.49h1.67v6.397h1.176c1.39 0 2.183-.534 2.183-2.225v-2.352c0-1.007.085-1.393.277-1.82h1.69c-.28.514-.3 1.134-.3 1.798v2.332c0 1.605-.513 2.717-1.882 3.123 1.283.407 1.86 1.434 1.86 3.08v1.22c0 2.224-.985 3.423-3.338 3.423zm1.67-1.52h1.626c1.24 0 1.733-.706 1.733-2.055v-1.432c0-1.626-.792-2.055-2.12-2.055h-1.24z" fill="url(#j)"/></g><g clip-path="url(#k)"><path d="M181.805 526.466l-2.868-14.977h1.54l.577 3.017h3.787l.578-3.017h1.67l-2.867 14.977zm1.112-1.883l1.69-8.644h-3.337z" fill="url(#l)"/></g><g clip-path="url(#m)"><path d="M188.176 526.466V511.49h3.444c2.332 0 3.424 1.263 3.424 3.51v1.263c0 1.647-.558 2.802-2.012 3.208 1.305.407 1.755 1.39 1.755 2.974v.706c0 2.204-.92 3.317-3.253 3.317zm1.668-1.52h1.648c1.198 0 1.647-.643 1.647-1.97v-.876c0-1.564-.685-1.99-2.01-1.99h-1.284zm0-6.354h1.455c1.434 0 2.097-.558 2.097-2.226v-1.326c0-1.39-.557-2.033-1.776-2.033h-1.776z" fill="url(#n)"/></g><g clip-path="url(#o)"><path d="M198.267 526.466L195.4 511.49h1.54l.577 3.017h3.788l.577-3.017h1.67l-2.867 14.977zm1.113-1.883l1.7-8.644h-3.337z" fill="url(#p)"/></g><g clip-path="url(#q)"><path d="M204.804 526.466V511.49h5.948v1.52h-4.28v13.458z" fill="url(#r)"/></g><g clip-path="url(#s)"><path d="M217.156 526.466v-6.74h-3.68v6.74h-1.67V511.49h1.67v6.74h3.68v-6.74h1.67v14.977z" fill="url(#t)"/></g><g clip-path="url(#u)"><path d="M220.108 522.774v-7.592c0-2.224 1.11-3.693 3.356-3.693 2.265 0 3.376 1.47 3.376 3.693v7.592c0 2.245-1.11 3.692-3.376 3.692-2.245 0-3.356-1.447-3.356-3.692m1.615-7.678v7.762c0 1.322.566 2.118 1.74 2.118 1.195 0 1.74-.796 1.74-2.118v-7.762c0-1.342-.546-2.118-1.74-2.118-1.175 0-1.74.776-1.74 2.118" fill="url(#v)"/></g><g clip-path="url(#w)"><path d="M95.55 506.703a3.04 3.04 0 0 1-.059-.596 3.15 3.15 0 0 1 .059-.616h1.75v-5.814c.13-.02.26-.033.386-.04l.356-.01.342.014.352.035v5.814h1.75c.04.196.06.4.06.616 0 .202-.02.4-.06.596z" fill="url(#x)"/></g><g clip-path="url(#y)"><path d="M102.4 504.547c-.21-.158-.384-.34-.527-.542l-.026.172-.033.205-.044.195c-.016.062-.034.1-.054.142l-.278.05c-.095.012-.19.02-.288.02a2.58 2.58 0 0 1-.289-.015l-.278-.044v-5.062l.356-.04.338-.01.342.01c.117.006.234.02.352.04v2.404c0 .35.04.626.12.82s.185.343.308.44.254.158.392.18a2.24 2.24 0 0 0 .37.034h.16c.09 0 .17-.006.24-.02.026.118.044.242.054.37l.014.36-.01.264c-.006.085-.015.16-.028.226a1.02 1.02 0 0 1-.186.03l-.225.01c-.313 0-.573-.08-.782-.24" fill="url(#x)"/></g><g clip-path="url(#z)"><path d="M104.945 506.932l-.356-.044a3.88 3.88 0 0 1-.058-.654c0-.215.02-.433.058-.655.112-.02.23-.033.362-.04l.35-.01.357.01a2.93 2.93 0 0 1 .357.039c.02.1.033.222.04.332l.01.323-.01.327a2.88 2.88 0 0 1-.039.327c-.11.02-.23.034-.36.044l-.362.015c-.105 0-.22-.005-.348-.015m-.805-2.203a2.31 2.31 0 0 1-.059-.518 2.89 2.89 0 0 1 .015-.269c.01-.093.025-.183.044-.27h.654v-3.996c.235-.04.46-.06.674-.06a4.17 4.17 0 0 1 .685.059v5.052z" fill="url(#x)"/></g><g clip-path="url(#AA)"><path d="M107.5 506.82v-6.976a3.6 3.6 0 0 1 .411-.123l.47-.09.483-.052.454-.02c.45 0 .854.062 1.212.19s.66.307.91.542a2.31 2.31 0 0 1 .566.854 3.14 3.14 0 0 1 .196 1.138c0 .437-.052.815-.156 1.134s-.248.585-.43.797-.4.37-.65.473a2.09 2.09 0 0 1-.816.158c-.293 0-.553-.06-.782-.17s-.4-.26-.488-.436v2.58c-.235.04-.466.06-.694.06a4.17 4.17 0 0 1-.684-.059m1.627-6.098a1 1 0 0 0-.249.05v1.837c0 .37.083.643.25.816s.38.258.64.258c.358 0 .612-.12.76-.366s.225-.6.225-1.07c0-.528-.12-.916-.36-1.163s-.574-.372-.997-.372l-.27.01" fill="url(#x)"/></g><g clip-path="url(#AB)"><path d="M116.236 504.73v-3.957a2.3 2.3 0 0 0-.605-.069c-.176 0-.33.02-.46.063a.74.74 0 0 0-.328.215.97.97 0 0 0-.195.412c-.043.172-.064.39-.064.658v2.678a4.11 4.11 0 0 1-.694.059c-.227 0-.46-.02-.693-.06v-2.716c0-.54.068-.974.205-1.3s.32-.573.552-.74.5-.28.806-.333.625-.078.957-.078c.372 0 .73.034 1.07.103a6.53 6.53 0 0 1 .826.21v4.856c-.235.04-.467.06-.694.06s-.45-.02-.685-.06" fill="url(#x)"/></g><g clip-path="url(#AC)"><path d="M121.122 504.773c-.15-.05-.284-.112-.405-.2a1.69 1.69 0 0 1-.318-.264 2.67 2.67 0 0 1-.235-.293l-.024.167-.033.2-.044.196a.63.63 0 0 1-.054.141 2.74 2.74 0 0 1-.264.044 2.54 2.54 0 0 1-.293.015c-.11 0-.212-.005-.304-.015l-.273-.044v-5.052c.235-.04.466-.06.694-.06a4.22 4.22 0 0 1 .693.059v2.648c0 .274.03.495.09.665s.135.3.23.395.2.158.318.19.23.05.342.05c.267 0 .453-.095.56-.284s.162-.46.162-.8v-2.854c.235-.04.465-.06.694-.06a4.21 4.21 0 0 1 .693.059v3.224c0 .67-.144 1.163-.435 1.476s-.72.47-1.294.47a1.6 1.6 0 0 1-.499-.074" fill="url(#x)"/></g><g clip-path="url(#AD)"><path d="M125.52 504.78a5.09 5.09 0 0 1-.86-.217c0-.207.022-.386.068-.536s.114-.3.206-.48c.396.137.77.206 1.123.206.163 0 .31-.01.445-.03s.246-.057.337-.113.163-.132.215-.23.078-.225.078-.38v-.12l-.625.03a3.78 3.78 0 0 1-.782-.082 2.32 2.32 0 0 1-.709-.274 1.55 1.55 0 0 1-.517-.508c-.134-.212-.2-.475-.2-.788s.054-.575.16-.79a1.37 1.37 0 0 1 .459-.527c.2-.137.437-.234.714-.293s.58-.088.913-.088c.41 0 .78.033 1.105.097l.83.206v2.93c0 .716-.2 1.238-.57 1.563s-.91.5-1.59.5a5.31 5.31 0 0 1-.8-.068m.766-4.13c-.113.01-.22.036-.322.08a.63.63 0 0 0-.259.199c-.07.092-.107.222-.107.392 0 .253.093.437.278.552s.438.17.758.17a2.27 2.27 0 0 0 .244-.015l.254-.034v-1.3l-.254-.044c-.098-.017-.196-.024-.294-.024l-.298.014" fill="url(#x)"/></g><g clip-path="url(#AE)"><path d="M129.672 506.82v-5.433c0-.625.152-1.077.454-1.353s.706-.416 1.207-.416l.405.02a1.78 1.78 0 0 1 .377.069.57.57 0 0 1 .019.141V500c0 .254-.036.514-.107.782-.058-.014-.12-.023-.18-.03a1.51 1.51 0 0 0-.171-.01.91.91 0 0 0-.293.04c-.077.026-.142.073-.2.14s-.085.164-.108.29-.034.286-.034.49v5.13a4.18 4.18 0 0 1-.684.059c-.228 0-.46-.02-.694-.06" fill="url(#x)"/></g><g clip-path="url(#AF)"><path d="M136.277 506.688c-.292-.088-.544-.218-.75-.4s-.37-.387-.485-.64-.17-.547-.17-.878c0-.274.035-.5.103-.705a1.49 1.49 0 0 1 .289-.503c.123-.14.273-.26.45-.362s.375-.194.596-.278l.596-.224.342-.143c.11-.05.2-.108.298-.18a.85.85 0 0 0 .215-.264.83.83 0 0 0 .083-.391c0-.313-.117-.546-.352-.698s-.557-.23-.967-.23a3.46 3.46 0 0 0-.772.083c-.242.055-.498.138-.772.25l-.186-.62a4.24 4.24 0 0 1-.107-.592l.47-.165a4.71 4.71 0 0 1 .454-.114 4.42 4.42 0 0 1 .485-.062l.576-.02c.436 0 .82.055 1.158.166s.616.264.845.46a1.96 1.96 0 0 1 .523.705c.12.273.18.576.18.908 0 .32-.04.587-.118.805s-.187.404-.328.558a1.78 1.78 0 0 1-.513.385c-.2.105-.426.206-.674.304l-.586.224-.293.122c-.098.043-.186.095-.264.158s-.14.136-.185.223-.07.197-.07.328c0 .162.03.294.088.396s.134.176.225.23.193.088.307.107a1.96 1.96 0 0 0 .338.031 4.17 4.17 0 0 0 .488-.026c.144-.016.272-.036.386-.063a2.54 2.54 0 0 0 .323-.098l.298-.117c.17.365.273.737.312 1.115-.32.11-.623.195-.913.253a4.69 4.69 0 0 1-.934.088c-.365 0-.694-.044-.987-.132" fill="url(#x)"/></g><g clip-path="url(#AG)"><path d="M143.352 504.73v-3.957c-.163-.045-.364-.07-.606-.07-.176 0-.328.02-.46.063a.74.74 0 0 0-.327.215.96.96 0 0 0-.196.412c-.042.172-.063.39-.063.658v2.678c-.235.04-.466.06-.694.06s-.46-.02-.693-.06v-2.716c0-.54.067-.974.204-1.3s.32-.573.552-.74.5-.28.807-.333.624-.078.957-.078c.37 0 .73.034 1.07.103s.616.138.825.2v4.856c-.235.04-.466.06-.694.06a4.07 4.07 0 0 1-.684-.059" fill="url(#x)"/></g><g clip-path="url(#AH)"><path d="M148.18 504.773c-.15-.05-.285-.112-.405-.2s-.224-.168-.308-.27a1.98 1.98 0 0 1-.215-.309l-.024.172-.04.21-.05.202c-.016.06-.034.108-.054.14a2.68 2.68 0 0 1-.557.059 5.22 5.22 0 0 1-.298-.009 2.17 2.17 0 0 1-.268-.04v-7.378l.356-.04.338-.01.337.01.356.04v2.247c.072-.013.16-.023.27-.033l.328-.015c.43 0 .814.062 1.153.19s.625.307.86.542a2.31 2.31 0 0 1 .537.854c.125.337.187.716.187 1.138 0 .437-.05.815-.152 1.134s-.243.585-.424.797-.396.37-.64.473-.507.158-.787.158c-.182 0-.348-.025-.498-.074m-.83-4.02v1.72c0 .163.017.316.05.46s.085.27.157.376.164.193.278.255a.87.87 0 0 0 .416.092.86.86 0 0 0 .444-.108c.12-.07.22-.17.298-.292s.134-.273.166-.445a3.08 3.08 0 0 0 .049-.562c0-.528-.107-.922-.323-1.182s-.524-.39-.927-.39c-.23 0-.43.026-.607.078" fill="url(#x)"/></g><g clip-path="url(#AI)"><path d="M152.884 504.636c-.303-.14-.557-.33-.762-.572a2.41 2.41 0 0 1-.464-.851c-.105-.325-.157-.672-.157-1.045s.05-.726.152-1.045a2.17 2.17 0 0 1 .469-.826c.21-.23.485-.412.82-.54s.738-.196 1.207-.196c.638 0 1.212.097 1.72.294-.007.208-.036.403-.088.586a2.35 2.35 0 0 1-.185.469c-.21-.08-.43-.14-.66-.18a3.71 3.71 0 0 0-.68-.064c-.404 0-.73.088-.976.263s-.385.46-.41.85h3.244c.013.07.024.168.034.288l.015.366a3.05 3.05 0 0 1-.146.953c-.098.297-.243.552-.435.767a2.07 2.07 0 0 1-.699.509c-.274.123-.586.186-.938.186a2.5 2.5 0 0 1-1.06-.211m.298-1.118c.17.18.416.273.742.273.286 0 .5-.097.67-.29s.246-.444.258-.757h-1.974c.034.332.135.6.304.773" fill="url(#x)"/></g><g clip-path="url(#AJ)"><path d="M159.074 504.547c-.21-.158-.384-.34-.527-.542l-.025.172-.034.205-.045.195a.53.53 0 0 1-.053.142l-.28.05a2.26 2.26 0 0 1-.288.019 2.56 2.56 0 0 1-.288-.015l-.278-.044v-5.062l.356-.04.337-.01.342.01a3.21 3.21 0 0 1 .352.039v2.404c0 .35.04.626.122.82s.184.343.308.44.254.158.39.18a2.25 2.25 0 0 0 .371.034h.16a1.36 1.36 0 0 0 .24-.019c.026.118.044.242.054.37l.014.36-.01.264c-.006.085-.016.16-.03.226a1.02 1.02 0 0 1-.186.03l-.224.01c-.312 0-.574-.08-.782-.24" fill="url(#x)"/></g><g clip-path="url(#AK)"><path d="M161.6 506.932l-.357-.044a3.88 3.88 0 0 1-.058-.654c0-.215.02-.433.058-.655a2.93 2.93 0 0 1 .362-.039l.352-.01.356.01c.127.006.246.02.356.04a2.89 2.89 0 0 1 .04.332l.01.323-.01.327c-.007.107-.02.217-.04.327-.1.02-.23.034-.36.044l-.362.015a4.44 4.44 0 0 1-.347-.015m-.806-2.203c-.04-.17-.06-.343-.06-.518a2.89 2.89 0 0 1 .015-.269l.045-.27h.654v-3.996a4.11 4.11 0 0 1 .675-.059 4.18 4.18 0 0 1 .684.059v5.052z" fill="url(#x)"/></g><g clip-path="url(#AL)"><path d="M165.254 504.642a2.08 2.08 0 0 1-.752-.563 2.42 2.42 0 0 1-.449-.845c-.102-.326-.152-.675-.152-1.046s.05-.716.152-1.036.25-.596.45-.835.45-.424.752-.558.66-.2 1.07-.2.77.067 1.075.2.56.32.762.558a2.33 2.33 0 0 1 .449.835c.1.32.147.666.147 1.036s-.048.72-.147 1.046a2.31 2.31 0 0 1-.449.845 2.1 2.1 0 0 1-.762.563 2.61 2.61 0 0 1-1.075.205c-.4 0-.766-.068-1.07-.205m.294-3.622c-.16.27-.24.66-.24 1.168s.08.898.24 1.17.417.405.776.405c.365 0 .627-.136.787-.405s.24-.66.24-1.17-.08-.897-.24-1.168-.422-.405-.787-.405c-.36 0-.617.135-.776.405" fill="url(#x)"/></g><g clip-path="url(#AM)"><path d="M171.67 504.547a2.44 2.44 0 0 1-.528-.542l-.025.172-.034.205-.044.195a.61.61 0 0 1-.053.142l-.28.05c-.095.012-.2.02-.288.02-.105 0-.2-.005-.288-.015l-.28-.044v-5.062l.357-.04.337-.01.34.01a3.21 3.21 0 0 1 .352.039v2.404c0 .35.04.626.122.82s.184.343.31.44a.85.85 0 0 0 .39.18 2.25 2.25 0 0 0 .372.034h.16c.087 0 .167-.006.24-.02a2.55 2.55 0 0 1 .053.371l.016.36-.01.264c-.006.085-.016.16-.03.226a1.02 1.02 0 0 1-.185.03l-.225.01c-.312 0-.573-.08-.78-.24" fill="url(#x)"/></g><g clip-path="url(#AN)"><path d="M179.306 506.86a3.26 3.26 0 0 1-.347-.039v-2.07a1.98 1.98 0 0 1-.367.064l-.367.014c-.4 0-.746-.07-1.064-.2a2.44 2.44 0 0 1-.816-.572c-.225-.24-.398-.527-.518-.855s-.18-.68-.18-1.05c0-.47.07-.867.2-1.193s.33-.59.572-.796.52-.355.835-.45.646-.142.993-.142c.45 0 .83.025 1.147.072s.628.12.934.212v6.976a3.24 3.24 0 0 1-.352.039l-.342.01c-.11 0-.224-.003-.337-.01m-1.462-6.083a1 1 0 0 0-.405.24 1.09 1.09 0 0 0-.268.445c-.065.185-.1.4-.1.68a2.64 2.64 0 0 0 .074.62c.05.2.125.372.23.518a1.15 1.15 0 0 0 .396.352c.16.087.347.132.56.132l.308-.015c.082-.01.187-.03.318-.064v-2.902c-.11-.032-.212-.053-.304-.063s-.19-.015-.303-.015c-.182 0-.35.025-.508.073" fill="url(#x)"/></g><g clip-path="url(#AO)"><path d="M182.746 504.642c-.304-.137-.555-.325-.753-.563s-.35-.52-.45-.845-.152-.675-.152-1.046.05-.716.152-1.036.25-.596.45-.835.45-.424.753-.558.66-.2 1.07-.2.77.067 1.075.2.56.32.762.558.352.517.45.835.146.666.146 1.036-.048.72-.146 1.046-.248.607-.45.845a2.11 2.11 0 0 1-.762.563c-.306.137-.665.205-1.075.205s-.767-.068-1.07-.205m.292-3.622c-.16.27-.24.66-.24 1.168s.08.898.24 1.17.42.405.777.405c.365 0 .626-.136.787-.405s.24-.66.24-1.17-.08-.897-.24-1.168-.422-.405-.787-.405c-.358 0-.617.135-.777.405" fill="url(#x)"/></g><g clip-path="url(#AP)"><path d="M189.11 506.703a3.04 3.04 0 0 1-.058-.596 3.15 3.15 0 0 1 .058-.616h1.75v-5.814c.13-.02.26-.033.386-.04l.357-.01.342.014.352.035v5.814h1.748c.04.196.06.4.06.616 0 .202-.02.4-.06.596z" fill="url(#x)"/></g><g clip-path="url(#AQ)"><path d="M195.97 504.547c-.21-.158-.385-.34-.53-.542l-.024.172-.034.205-.044.195c-.017.062-.035.1-.054.142l-.28.05a2.26 2.26 0 0 1-.288.019 2.54 2.54 0 0 1-.287-.015l-.28-.044v-5.062l.358-.04.336-.01.343.01c.116.006.233.02.35.04v2.404c0 .35.04.626.123.82s.183.343.308.44.253.158.4.18a2.25 2.25 0 0 0 .372.034h.16c.088 0 .167-.006.24-.02.025.118.043.242.053.37l.015.36-.01.264c-.006.085-.016.16-.03.226a1.05 1.05 0 0 1-.186.03l-.225.01c-.313 0-.574-.08-.78-.24" fill="url(#x)"/></g><g clip-path="url(#AR)"><path d="M198.892 504.78c-.286-.046-.573-.118-.86-.217a1.84 1.84 0 0 1 .069-.536c.046-.15.113-.3.205-.48.397.137.77.206 1.124.206a3.16 3.16 0 0 0 .444-.029c.133-.02.246-.057.337-.113a.58.58 0 0 0 .215-.229c.053-.098.078-.225.078-.38v-.12l-.625.03a3.77 3.77 0 0 1-.782-.082c-.26-.056-.497-.147-.708-.274s-.384-.297-.518-.508-.2-.475-.2-.788.053-.575.16-.79a1.39 1.39 0 0 1 .459-.527 1.96 1.96 0 0 1 .714-.293c.277-.058.58-.088.913-.088.4 0 .778.033 1.104.097l.83.206v2.93c0 .716-.19 1.238-.572 1.563s-.9.5-1.588.5a5.3 5.3 0 0 1-.801-.068m.768-4.13a1.04 1.04 0 0 0-.323.079c-.1.04-.188.108-.26.2s-.107.222-.107.392c0 .253.093.437.278.552s.44.17.758.17a2.3 2.3 0 0 0 .245-.015l.253-.034v-1.3l-.253-.044c-.098-.017-.196-.024-.294-.024l-.297.014" fill="url(#x)"/></g><g clip-path="url(#AS)"><path d="M203.064 506.82v-6.976a3.54 3.54 0 0 1 .411-.123l.47-.09.483-.052.454-.02c.45 0 .854.062 1.212.19a2.53 2.53 0 0 1 .909.542c.246.234.436.52.567.854s.195.716.195 1.138a3.61 3.61 0 0 1-.158 1.134c-.103.32-.246.585-.43.797s-.4.37-.65.473a2.09 2.09 0 0 1-.815.158c-.293 0-.554-.06-.782-.17s-.39-.26-.49-.436v2.58c-.234.04-.465.06-.694.06a4.18 4.18 0 0 1-.684-.059m1.627-6.098a1.01 1.01 0 0 0-.249.05v1.837c0 .37.083.643.25.816s.38.258.64.258c.36 0 .612-.12.763-.366s.225-.6.225-1.07c0-.528-.12-.916-.362-1.163s-.573-.372-.997-.372l-.27.01" fill="url(#x)"/></g><g clip-path="url(#AT)"><path d="M209.758 504.78a5.09 5.09 0 0 1-.86-.217c0-.207.023-.386.068-.536s.114-.3.206-.48c.397.137.77.206 1.123.206.163 0 .31-.01.445-.03s.246-.057.337-.113.162-.132.214-.23.078-.225.078-.38v-.12l-.625.03a3.77 3.77 0 0 1-.781-.082 2.31 2.31 0 0 1-.709-.274 1.55 1.55 0 0 1-.517-.508c-.134-.212-.2-.475-.2-.788s.053-.575.16-.79a1.39 1.39 0 0 1 .459-.527c.2-.137.437-.234.714-.293a4.46 4.46 0 0 1 .914-.088c.4 0 .778.033 1.104.097l.83.206v2.93c0 .716-.192 1.238-.572 1.563s-.91.5-1.588.5a5.3 5.3 0 0 1-.801-.068m.767-4.13c-.114.01-.222.036-.323.08a.63.63 0 0 0-.259.199c-.072.092-.107.222-.107.392 0 .253.093.437.278.552s.438.17.758.17a2.27 2.27 0 0 0 .244-.015l.253-.034v-1.3l-.253-.044c-.098-.017-.196-.024-.294-.024l-.297.014" fill="url(#x)"/></g><g clip-path="url(#AU)"><path d="M213.9 506.82v-5.433c0-.625.152-1.077.455-1.353s.704-.416 1.207-.416l.405.02a1.77 1.77 0 0 1 .376.069c.013.05.02.098.02.14V500c0 .254-.036.514-.107.782-.06-.014-.12-.023-.18-.03a1.55 1.55 0 0 0-.171-.01.92.92 0 0 0-.294.04.38.38 0 0 0-.19.141c-.05.068-.085.164-.108.29a2.79 2.79 0 0 0-.033.489v5.13a4.18 4.18 0 0 1-.685.059c-.228 0-.46-.02-.694-.06" fill="url(#x)"/></g><g clip-path="url(#AV)"><path d="M217.438 506.86c-.117-.007-.23-.02-.342-.04v-7.153l.348-.04.336-.01.342.01c.117.006.234.02.352.04v2.658c0 .274.03.495.093.665s.14.3.235.395.2.158.317.19.23.05.34.05c.268 0 .457-.095.567-.284s.167-.46.167-.8v-2.864c.116-.02.234-.033.35-.04l.343-.01.342.01c.117.006.234.02.352.04v3.234c0 .67-.146 1.163-.436 1.476s-.714.47-1.275.47a1.72 1.72 0 0 1-.537-.078 1.7 1.7 0 0 1-.401-.192c-.11-.074-.203-.152-.28-.233l-.18-.212v2.688c-.118.02-.235.032-.352.04l-.342.01a5.72 5.72 0 0 1-.342-.01" fill="url(#x)"/></g><g clip-path="url(#AW)"><path d="M223.912 504.642c-.303-.137-.554-.325-.752-.563s-.35-.52-.45-.845-.152-.675-.152-1.046.05-.716.152-1.036a2.43 2.43 0 0 1 .45-.835c.198-.238.45-.424.752-.558s.66-.2 1.07-.2.77.067 1.075.2a2.08 2.08 0 0 1 .762.558c.2.24.352.517.45.835s.147.666.147 1.036-.05.72-.147 1.046-.248.607-.45.845-.456.426-.762.563-.665.205-1.075.205-.768-.068-1.07-.205m.293-3.622c-.16.27-.24.66-.24 1.168s.08.898.24 1.17.42.405.777.405c.364 0 .627-.136.786-.405s.24-.66.24-1.17-.08-.897-.24-1.168-.422-.405-.786-.405c-.358 0-.617.135-.777.405" fill="url(#x)"/></g></g></svg>