<svg xmlns="http://www.w3.org/2000/svg" height="53.027" width="36.456" viewBox="0 0 36.456 53.027"><g transform="matrix(1.333333 0 0 -1.333333 -582.07732 304.50359)"><path d="M451.44 220.92a3.73 3.73 0 0 1 3.729 3.729 3.73 3.73 0 0 1-3.729 3.728 3.73 3.73 0 0 1-3.729-3.728 3.73 3.73 0 0 1 3.729-3.729m-6.916-6.24c2.507-.256 4.463-2.372 4.463-4.946v-12.428h4.97v12.428c0 5.5-4.452 9.942-9.943 9.942h-4.97v-4.972h4.97a5.03 5.03 0 0 0 .509-.024" fill="#004269"/><path d="M446.5 212.22h-9.943v-4.972h9.943z" fill="#077c60"/><path d="M463.9 219.678h-9.943v-4.97h9.943z" fill="#ffce06"/><path d="M446.502 203.52v1.243h-4.972v-6.214c0-2.574-1.956-4.7-4.463-4.946a5.01 5.01 0 0 0-.508-.024v-4.972c5.49 0 9.943 4.45 9.943 9.942z" fill="#004269"/></g></svg>