<svg xmlns="http://www.w3.org/2000/svg" height="53.041" width="218.791" viewBox="0 0 218.791 53.041"><g transform="matrix(1.333333 0 0 -1.333333 -1656.5438 711.91758)" fill="#fff"><path d="M1257.295 526.48a3.73 3.73 0 0 1 3.729 3.729 3.73 3.73 0 0 1-3.729 3.73 3.73 3.73 0 0 1-3.729-3.73 3.73 3.73 0 0 1 3.729-3.729m-7.428-1.244h-4.973v-4.973h4.973c2.746 0 4.973-2.226 4.973-4.972v-12.43h4.972v12.432a9.95 9.95 0 0 1-9.945 9.945"/><path d="M1249.867 525.236h-4.973v-4.973h4.973c.17 0 .34-.008.508-.026 5.255-.266 9.437-4.598 9.437-9.92v4.973a9.95 9.95 0 0 1-9.945 9.945m-7.46-12.43h9.945v4.973h-9.945z"/><path d="M1259.813 520.263h9.944v4.973h-9.944zm-12.433-9.945v-6.216c0-2.746-2.227-4.972-4.973-4.972v-4.973a9.95 9.95 0 0 1 9.946 9.945v6.216z"/><path d="M1242.916 499.155a5.01 5.01 0 0 0-.508-.025v-4.973a9.95 9.95 0 0 1 9.946 9.945v4.973c0-5.32-4.183-9.653-9.438-9.92m42.134 18.548c0-1.332-.53-2.136-1.714-2.136-1.205 0-1.734.804-1.734 2.136v11.317h-1.63v-11.232c0-2.242 1.037-3.744 3.3-3.744 2.285 0 3.32 1.502 3.32 3.744v11.232h-1.544z"/><path d="M1277.08 517.66c0-1.517-.662-2.03-1.75-2.093l-.833.022v-1.517c.363-.043.662-.02 1.047-.02 1.794.043 3.182.918 3.182 3.715v11.255h-1.645zm11.993 7.795c0 1.3.503 2.076 1.678 2.076s1.677-.775 1.677-2.097v-.483h1.553v.4c0 2.222-1.05 3.67-3.272 3.67-2.202 0-3.25-1.405-3.25-3.67 0-4.133 4.908-4.448 4.908-7.72 0-1.322-.545-2.097-1.72-2.097s-1.72.775-1.72 2.097v.924h-1.53v-.84c0-2.224 1.05-3.67 3.293-3.67s3.314 1.447 3.314 3.67c0 4.133-4.93 4.447-4.93 7.74m5.496 2.047h2.76v-13.458h1.67v13.458h2.76v1.52h-7.188zm8.018-13.458h1.67v14.977h-1.67zm6.112 14.976c-2.244 0-3.293-1.468-3.293-3.7v-7.593c0-2.115.95-3.544 2.975-3.68v-.76h.18c.618 0 .977-.206.977-.563 0-.377-.318-.602-.857-.602-.518.037-.818.244-.818.545v.132h-1.017v-.15c0-.734.678-1.166 1.835-1.166 1.196 0 1.893.45 1.893 1.203 0 .6-.538.96-1.475.96v.405c2 .165 2.915 1.587 2.915 3.676v1.824h-1.552v-1.908c0-1.32-.525-2.118-1.72-2.118-1.175 0-1.72.797-1.72 2.118v7.76c0 1.32.545 2.118 1.72 2.118 1.195 0 1.72-.797 1.72-2.118v-1.406h1.552v1.322c0 2.223-1.048 3.7-3.314 3.7m6.414-10.525l1.647 8.644 1.7-8.644zm.535 10.526l-2.867-14.976h1.54l.578 3.016h3.787l.577-3.016h1.67l-2.866 14.976zm13.876-11.34c0-1.37-.578-2.118-1.776-2.118h-1.82V527.5h1.797c1.22 0 1.798-.75 1.798-2.118zm-1.755 11.34h-3.5v-14.977h3.5c2.332 0 3.402 1.412 3.402 3.702v7.552c0 2.3-1.07 3.723-3.402 3.723m9.605-11.368c0-1.343-.546-2.118-1.74-2.118-1.175 0-1.74.775-1.74 2.118v7.76c0 1.32.566 2.118 1.74 2.118 1.195 0 1.74-.797 1.74-2.118zm-1.74 11.368c-2.244 0-3.357-1.447-3.357-3.7v-7.593c0-2.224 1.113-3.692 3.357-3.692 2.265 0 3.377 1.468 3.377 3.692v7.593c0 2.244-1.112 3.7-3.377 3.7m6.038-1.518h2.76v-13.458h1.668v13.458h2.76v1.52h-7.2zm11.37-5.542h-1.24v5.54h1.626c1.24 0 1.732-.706 1.732-2.054v-1.433c0-1.626-.8-2.054-2.118-2.054m3.787-3.787c0 1.604-.514 2.717-1.883 3.123 1.284.407 1.862 1.434 1.862 3.08v1.22c0 2.224-.985 3.423-3.338 3.423h-3.337V514.04h1.67v6.397h1.177c1.4 0 2.18-.535 2.18-2.225v-2.353c0-1.006.086-1.4.278-1.82h1.7c-.278.514-.3 1.135-.3 1.798zm3.525.322l1.647 8.644 1.7-8.644zm.535 10.526l-2.867-14.976h1.54l.577 3.016h3.787l.577-3.016h1.67l-2.866 14.976zm11.59-11.424c0-1.4-.556-2.032-1.775-2.032h-1.777v5.584h1.455c1.434 0 2.097-.557 2.097-2.225zm-3.552 9.906h1.648c1.198 0 1.647-.64 1.647-1.97v-.876c0-1.562-.684-2-2-2h-1.284zm3.2-5.477c1.304.407 1.754 1.4 1.754 2.974v.706c0 2.204-.92 3.316-3.252 3.316h-3.36v-14.977h3.446c2.332 0 3.422 1.263 3.422 3.5v1.262c0 1.647-.556 2.802-2 3.2m4.7-3.522l1.647 8.644 1.7-8.644zm.535 10.526l-2.867-14.976h1.54l.578 3.016h3.787l.577-3.016h1.67l-2.867 14.976zm8.205 0h-1.67v-14.977h5.948v1.52h-4.28zm10.683-6.74h-3.68v6.74h-1.67v-14.976h1.67v6.74h3.68v-6.74h1.67v14.976h-1.67zm8.047-4.628c0-1.343-.545-2.118-1.74-2.118-1.175 0-1.74.775-1.74 2.118v7.76c0 1.32.566 2.118 1.74 2.118 1.195 0 1.74-.797 1.74-2.118zm-1.74 11.368c-2.245 0-3.357-1.447-3.357-3.7v-7.593c0-2.224 1.112-3.692 3.357-3.692 2.264 0 3.377 1.468 3.377 3.692v7.593c0 2.244-1.113 3.7-3.377 3.7m-126.163-20.973h-1.75a3.12 3.12 0 0 0-.06.615c0 .2.02.4.06.596h4.935a3.04 3.04 0 0 0 .057-.596c0-.215-.018-.42-.057-.615h-1.75v-5.814l-.352-.035-.343-.014-.356.01a3.69 3.69 0 0 0-.386.04zm3.293-.763l.278.044a2.56 2.56 0 0 0 .288.015 2.1 2.1 0 0 0 .288-.02l.28-.05c.02-.033.038-.08.054-.14l.044-.196.034-.205.024-.17a2.53 2.53 0 0 0 .528.542c.208.16.47.24.782.24l.225-.01a.88.88 0 0 0 .186-.03l.03-.225.01-.264-.015-.362a2.65 2.65 0 0 0-.054-.371 1.35 1.35 0 0 1-.24.019h-.16a2.26 2.26 0 0 1-.371-.034.84.84 0 0 1-.39-.18 1.08 1.08 0 0 1-.307-.44c-.08-.195-.122-.47-.122-.82v-2.404l-.353-.04-.342-.01-.337.01a3.58 3.58 0 0 0-.356.039zm3.996.85a3.77 3.77 0 0 0-.059.655 3.8 3.8 0 0 0 .06.655l.356.044.347.014.362-.014.362-.044a3.12 3.12 0 0 0 .04-.328l.01-.327-.01-.322c-.007-.1-.02-.222-.04-.333-.112-.02-.23-.032-.357-.04l-.357-.01-.352.01a2.89 2.89 0 0 0-.36.04m.205-1.905h-.654c-.02.085-.034.175-.044.268l-.015.27a2.3 2.3 0 0 0 .059.518h2.012v-5.05a4.15 4.15 0 0 0-.683-.059 4.12 4.12 0 0 0-.675.059zm4.082-2.903c.08-.025.162-.042.25-.048l.27-.01c.422 0 .754.123.997.37s.36.636.36 1.164c0 .468-.075.826-.225 1.07s-.404.366-.762.366c-.26 0-.474-.086-.64-.26s-.25-.444-.25-.815zm-1.377 6.05a4.05 4.05 0 0 0 .684.058 4.2 4.2 0 0 0 .693-.058v-2.58a1.11 1.11 0 0 0 .49.435c.228.115.5.17.782.17a2.11 2.11 0 0 0 .816-.156 1.73 1.73 0 0 0 .65-.475c.182-.212.326-.476.43-.796s.156-.697.156-1.133c0-.423-.065-.803-.196-1.138s-.318-.62-.566-.856-.55-.415-.9-.542-.762-.2-1.212-.2l-.455.02-.483.053-.47.088a3.45 3.45 0 0 0-.41.122zm5.696-2.092a4.22 4.22 0 0 0 .693.059 4.12 4.12 0 0 0 .695-.06v-2.677c0-.267.02-.488.063-.66s.108-.3.195-.4a.72.72 0 0 1 .329-.216c.13-.042.283-.062.46-.062.24 0 .442.022.605.067v3.958a4.16 4.16 0 0 0 .684.059 4.12 4.12 0 0 0 .694-.06v-4.856a6.32 6.32 0 0 0-.826-.21 5.32 5.32 0 0 0-1.07-.103 5.71 5.71 0 0 0-.958.078 1.86 1.86 0 0 0-.805.332c-.232.17-.415.417-.553.743s-.205.76-.205 1.3zm5.678 0c.1.02.182.034.273.044a2.79 2.79 0 0 0 .303.015 2.54 2.54 0 0 0 .293-.015l.264-.044a.58.58 0 0 0 .054-.142l.044-.195.034-.2.024-.166c.065.098.144.194.235.293a1.69 1.69 0 0 0 .318.264c.12.078.255.14.405.2a1.33 1.33 0 0 0 .498.073c.573 0 1.005-.156 1.295-.47s.436-.803.436-1.474v-3.225a4.24 4.24 0 0 0-.695-.058 4.23 4.23 0 0 0-.694.058v2.854c0 .35-.053.622-.16.8s-.294.284-.562.284c-.1 0-.224-.016-.342-.05s-.223-.096-.317-.2-.17-.226-.23-.395-.088-.392-.088-.665v-2.648a4.25 4.25 0 0 0-.695-.058 4.21 4.21 0 0 0-.693.058zm8.258-2.736l-.255.034-.243.015c-.32 0-.572-.057-.758-.17s-.278-.298-.278-.552c0-.17.036-.3.107-.4s.157-.158.26-.2a1.05 1.05 0 0 1 .322-.079l.298-.014a1.8 1.8 0 0 1 .293.024l.255.045zm0 1.007c0 .156-.026.283-.078.38s-.124.174-.215.23a.88.88 0 0 1-.337.112c-.135.02-.282.03-.445.03-.352 0-.727-.07-1.124-.205a2.67 2.67 0 0 0-.205.479 1.87 1.87 0 0 0-.07.537 5.21 5.21 0 0 0 .861.215 5.18 5.18 0 0 0 .8.069c.678 0 1.208-.164 1.588-.5s.573-.845.573-1.562v-2.932a8.15 8.15 0 0 0-.831-.205c-.327-.065-.694-.098-1.105-.098a4.45 4.45 0 0 0-.913.088c-.277.06-.515.157-.714.293a1.39 1.39 0 0 0-.459.528c-.107.214-.16.478-.16.792s.066.575.2.786a1.56 1.56 0 0 0 .52.508 2.29 2.29 0 0 0 .708.274 3.77 3.77 0 0 0 .782.083l.625-.03zm2.54 3.82a4.12 4.12 0 0 0 .694.06 4.17 4.17 0 0 0 .684-.059v-5.13a2.77 2.77 0 0 1 .034-.488c.023-.124.06-.22.108-.3a.38.38 0 0 1 .19-.142c.078-.025.176-.038.293-.038.052 0 .1.002.172.01l.18.028c.073-.266.1-.527.1-.78v-.142c0-.043-.007-.1-.02-.14-.105-.033-.23-.056-.377-.07l-.405-.02c-.5 0-.904.138-1.207.415s-.454.727-.454 1.353zm6.634-3.89c-.222.084-.42.178-.596.278a1.77 1.77 0 0 0-.449.362 1.5 1.5 0 0 0-.29.503 2.1 2.1 0 0 0-.103.704c0 .332.058.625.17.88s.276.466.485.64.46.303.752.4.622.132.986.132c.333 0 .644-.03.934-.088a7.13 7.13 0 0 0 .914-.254 3.51 3.51 0 0 0-.313-1.114l-.3.118a2.29 2.29 0 0 1-.322.096c-.114.027-.242.048-.386.065s-.306.024-.488.024c-.1 0-.224-.01-.338-.03a.93.93 0 0 1-.307-.108c-.1-.052-.166-.128-.225-.23s-.088-.232-.088-.395c0-.13.023-.24.068-.328a.66.66 0 0 1 .187-.224c.08-.06.165-.114.263-.157l.294-.122.586-.224.673-.304c.203-.104.373-.232.514-.386s.25-.338.327-.557.117-.486.117-.806c0-.332-.06-.635-.18-.908a1.94 1.94 0 0 0-.523-.704 2.47 2.47 0 0 0-.845-.459c-.336-.1-.722-.166-1.16-.166l-.576.02a4.34 4.34 0 0 0-.483.064l-.455.112-.47.166a4.2 4.2 0 0 0 .107.591l.186.62a5.08 5.08 0 0 1 .772-.249 3.4 3.4 0 0 1 .772-.084c.4 0 .733.077.968.23s.35.385.35.698c0 .156-.027.287-.083.4s-.127.193-.215.265a1.25 1.25 0 0 1-.298.18l-.34.142zm4.006 1.798a4.2 4.2 0 0 0 .693.059 4.12 4.12 0 0 0 .694-.06v-2.677c0-.267.02-.488.063-.66s.108-.3.196-.4a.83.83 0 0 1 .328-.216 1.5 1.5 0 0 1 .459-.062c.24 0 .442.022.605.067v3.958a4.18 4.18 0 0 0 .685.059 4.22 4.22 0 0 0 .693-.059v-4.856a6.3 6.3 0 0 0-.825-.21 5.41 5.41 0 0 0-1.07-.103 5.73 5.73 0 0 0-.959.078 1.86 1.86 0 0 0-.805.332c-.232.17-.415.417-.553.743s-.204.76-.204 1.3zm7.035-3.978c.176-.052.378-.078.606-.078.404 0 .713.13.928.4s.323.655.323 1.182a3.01 3.01 0 0 1-.049.563 1.26 1.26 0 0 1-.166.444.88.88 0 0 1-.298.293c-.12.072-.27.107-.445.107a.86.86 0 0 1-.415-.092.77.77 0 0 1-.278-.254c-.072-.108-.124-.234-.156-.376a2.05 2.05 0 0 1-.05-.459zm-1.387 3.987c.1.02.18.033.27.04l.298.01a2.81 2.81 0 0 0 .556-.058.61.61 0 0 0 .055-.142l.048-.2.04-.2.024-.17a2.16 2.16 0 0 0 .216.308c.086.102.187.2.308.268a1.68 1.68 0 0 0 .405.19c.15.05.315.074.498.074a1.97 1.97 0 0 0 .787-.157c.244-.104.458-.262.64-.474s.324-.477.425-.796.152-.697.152-1.134c0-.423-.062-.803-.187-1.138s-.302-.62-.537-.855-.52-.415-.86-.542-.724-.2-1.153-.2l-.327.014-.27.034v-2.248l-.356-.04-.337-.01-.337.01-.357.04zm8.892-1.993c-.014.312-.1.564-.26.757s-.383.288-.67.288c-.325 0-.573-.1-.742-.274s-.27-.44-.303-.77zm-1.983-.968c.025-.4.162-.675.4-.85s.573-.264.977-.264a3.71 3.71 0 0 1 .679.064 3.86 3.86 0 0 1 .66.181 2.37 2.37 0 0 0 .186-.47 2.47 2.47 0 0 0 .088-.586c-.5-.195-1.082-.293-1.72-.293-.47 0-.872.065-1.207.196s-.6.3-.82.542a2.16 2.16 0 0 0-.469.826 3.41 3.41 0 0 0-.152 1.045 3.39 3.39 0 0 0 .157 1.046 2.42 2.42 0 0 0 .464.849c.206.242.46.432.762.573s.657.2 1.06.2c.352 0 .665-.062.938-.186a2.08 2.08 0 0 0 .699-.508 2.15 2.15 0 0 0 .435-.767c.098-.297.147-.615.147-.953l-.015-.367-.034-.288zm4.387 2.952l.278.044c.087.01.184.015.288.015a2.1 2.1 0 0 0 .288-.02l.28-.05a.63.63 0 0 0 .054-.141l.043-.196.035-.205.024-.17a2.53 2.53 0 0 0 .528.542c.208.16.47.24.782.24l.224-.01c.085-.007.147-.017.186-.03a2.04 2.04 0 0 0 .029-.225l.01-.264-.015-.362a2.51 2.51 0 0 0-.054-.371 1.34 1.34 0 0 1-.239.019h-.16a2.25 2.25 0 0 1-.371-.034.84.84 0 0 1-.39-.18c-.122-.097-.226-.245-.308-.44s-.122-.47-.122-.82v-2.404a3.24 3.24 0 0 0-.352-.039l-.342-.01-.338.01c-.113.006-.232.02-.355.04zm3.996.85a3.77 3.77 0 0 0-.059.655 3.8 3.8 0 0 0 .06.655l.356.044.347.014.362-.014.36-.044c.02-.1.033-.22.04-.328l.01-.327-.01-.322c-.007-.1-.02-.222-.04-.333a3.12 3.12 0 0 0-.356-.04l-.357-.01-.352.01a2.89 2.89 0 0 0-.36.04m.205-1.905h-.654a2.2 2.2 0 0 0-.045.268l-.015.27c0 .177.02.348.06.518h2.012v-5.05a4.16 4.16 0 0 0-.684-.059c-.215 0-.44.02-.674.06zm4.864-3.06c.364 0 .627.136.786.406s.24.66.24 1.168-.08.897-.24 1.167-.422.405-.786.405c-.358 0-.617-.134-.777-.405s-.24-.66-.24-1.167.08-.898.24-1.168.42-.406.777-.406m0-1.055c-.4 0-.767.067-1.07.2a2 2 0 0 0-.752.556 2.4 2.4 0 0 0-.45.836c-.1.32-.152.664-.152 1.036a3.47 3.47 0 0 0 .152 1.045c.102.325.25.608.45.845a2.06 2.06 0 0 0 .752.562c.303.137.66.205 1.07.205a2.61 2.61 0 0 0 1.075-.205c.305-.137.56-.324.762-.562a2.33 2.33 0 0 0 .449-.845 3.58 3.58 0 0 0 .147-1.045c0-.372-.048-.717-.147-1.036a2.35 2.35 0 0 0-.449-.836c-.202-.238-.456-.424-.762-.556s-.665-.2-1.075-.2m3.53 5.17l.278.044c.088.01.185.015.288.015a2.08 2.08 0 0 0 .288-.02l.28-.05a.59.59 0 0 0 .053-.141l.044-.196.035-.205.024-.17a2.55 2.55 0 0 0 .527.542c.208.16.47.24.783.24l.224-.01c.085-.007.147-.017.186-.03l.03-.225.01-.264-.015-.362a2.65 2.65 0 0 0-.054-.371 1.34 1.34 0 0 1-.239.019h-.16a2.26 2.26 0 0 1-.372-.034c-.137-.022-.267-.083-.4-.18a1.07 1.07 0 0 1-.307-.44c-.08-.195-.122-.47-.122-.82v-2.404a3.24 3.24 0 0 0-.352-.039l-.343-.01-.337.01c-.114.006-.232.02-.356.04z"/><path d="M1358.046 506.238l-.318.063a2.6 2.6 0 0 1-.308.015 1.14 1.14 0 0 1-.561-.132c-.16-.088-.292-.205-.397-.35a1.52 1.52 0 0 1-.229-.518 2.58 2.58 0 0 1-.074-.621 2.02 2.02 0 0 1 .1-.68 1.11 1.11 0 0 1 .267-.444c.115-.1.25-.2.406-.24a1.73 1.73 0 0 1 .509-.072l.302.014a1.72 1.72 0 0 1 .304.063zm0 3.137c.116.02.232.032.347.04l.337.01.34-.01c.118-.007.235-.02.352-.04v-6.977c-.306-.092-.617-.16-.933-.2s-.7-.073-1.148-.073c-.346 0-.676.047-.992.142a2.25 2.25 0 0 0-.835.449c-.24.205-.432.47-.572.796s-.2.723-.2 1.192a3.02 3.02 0 0 0 .181 1.051 2.48 2.48 0 0 0 .518.854 2.42 2.42 0 0 0 .815.573c.32.14.674.2 1.066.2l.366-.015a1.83 1.83 0 0 0 .367-.064zm4.854-6.205c.365 0 .627.136.787.406s.24.66.24 1.168-.08.897-.24 1.167-.422.405-.787.405c-.358 0-.617-.134-.776-.405s-.24-.66-.24-1.167.08-.898.24-1.168.418-.406.776-.406m0-1.055c-.4 0-.767.067-1.07.2s-.554.318-.753.556-.35.517-.45.836-.152.664-.152 1.036a3.47 3.47 0 0 0 .152 1.045c.102.325.25.608.45.845a2.09 2.09 0 0 0 .753.562c.303.136.66.205 1.07.205a2.61 2.61 0 0 0 1.075-.205 2.1 2.1 0 0 0 .763-.562 2.33 2.33 0 0 0 .449-.845c.098-.326.147-.675.147-1.045a3.51 3.51 0 0 0-.147-1.036 2.35 2.35 0 0 0-.449-.836 2.04 2.04 0 0 0-.763-.556c-.306-.134-.664-.2-1.075-.2m7.047 5.932h-1.75a3.05 3.05 0 0 0-.058.615 3.04 3.04 0 0 0 .058.596h4.935a3.04 3.04 0 0 0 .059-.596c0-.215-.02-.42-.06-.615h-1.75v-5.814l-.352-.035-.342-.014-.356.01a3.69 3.69 0 0 0-.386.04zm3.293-.763l.278.044a2.6 2.6 0 0 0 .288.015c.103 0 .195-.007.3-.02l.28-.05a.59.59 0 0 0 .053-.141l.044-.196.035-.205.024-.17a2.55 2.55 0 0 0 .527.542c.208.16.47.24.783.24l.224-.01a.88.88 0 0 0 .186-.03l.03-.225.01-.264-.015-.362a2.65 2.65 0 0 0-.054-.371c-.072.013-.15.02-.24.02h-.16a2.27 2.27 0 0 1-.372-.034c-.137-.022-.267-.083-.4-.18a1.07 1.07 0 0 1-.307-.44c-.08-.195-.122-.47-.122-.82v-2.404a3.24 3.24 0 0 0-.352-.039l-.342-.01-.338.01c-.114.006-.232.02-.356.04zm6.35-2.736l-.254.034-.244.015c-.32 0-.57-.057-.758-.17s-.278-.298-.278-.552c0-.17.036-.3.107-.4a.64.64 0 0 1 .26-.2 1.05 1.05 0 0 1 .322-.079l.298-.014a1.81 1.81 0 0 1 .293.024l.254.045zm0 1.007c0 .156-.025.283-.078.38a.58.58 0 0 1-.215.229.87.87 0 0 1-.337.112 3.16 3.16 0 0 1-.445.03c-.352 0-.727-.07-1.123-.205-.092.17-.16.33-.205.48a1.84 1.84 0 0 0-.069.537 5.2 5.2 0 0 0 .86.215 5.18 5.18 0 0 0 .8.069c.678 0 1.208-.164 1.6-.5s.572-.845.572-1.562v-2.932a8.19 8.19 0 0 0-.83-.205 5.67 5.67 0 0 0-1.104-.098c-.332 0-.637.03-.914.088a1.98 1.98 0 0 0-.713.293c-.2.137-.35.313-.46.528s-.16.478-.16.792.066.575.2.786a1.56 1.56 0 0 0 .518.508 2.29 2.29 0 0 0 .708.274 3.78 3.78 0 0 0 .782.083l.625-.03zm3.94-2.23c.078-.025.16-.042.25-.048l.27-.01c.423 0 .755.123.996.37s.362.636.362 1.164c0 .468-.075.826-.225 1.07s-.404.366-.762.366c-.26 0-.474-.086-.64-.26s-.25-.444-.25-.815zm-1.378 6.05a4.05 4.05 0 0 0 .684.058 4.24 4.24 0 0 0 .694-.058v-2.58c.098.177.26.32.488.435s.5.17.783.17a2.11 2.11 0 0 0 .815-.156 1.71 1.71 0 0 0 .649-.475 2.25 2.25 0 0 0 .43-.796c.105-.32.157-.697.157-1.133 0-.423-.065-.803-.195-1.138s-.32-.62-.567-.856-.55-.415-.9-.542-.762-.2-1.212-.2l-.454.02-.483.053-.47.088a3.34 3.34 0 0 0-.41.122zm8.304-4.828l-.254.034-.244.015c-.32 0-.57-.057-.757-.17s-.278-.298-.278-.552c0-.17.035-.3.106-.4a.64.64 0 0 1 .26-.2 1.05 1.05 0 0 1 .322-.079l.298-.014a1.81 1.81 0 0 1 .293.024l.254.045zm0 1.007c0 .156-.025.283-.078.38a.58.58 0 0 1-.215.229.87.87 0 0 1-.337.112 3.01 3.01 0 0 1-.444.03 3.5 3.5 0 0 1-1.124-.205 2.6 2.6 0 0 0-.205.479 1.84 1.84 0 0 0-.069.537c.287.098.574.17.86.215a5.19 5.19 0 0 0 .8.07c.678 0 1.207-.164 1.588-.5s.572-.845.572-1.562v-2.932a8.19 8.19 0 0 0-.83-.205c-.325-.065-.694-.098-1.105-.098a4.45 4.45 0 0 0-.913.088c-.277.06-.515.157-.714.293a1.39 1.39 0 0 0-.459.528c-.108.214-.16.478-.16.792s.066.575.2.786a1.57 1.57 0 0 0 .518.508 2.31 2.31 0 0 0 .709.274 3.76 3.76 0 0 0 .78.083l.625-.03zm2.54 3.82a4.12 4.12 0 0 0 .694.06 4.17 4.17 0 0 0 .684-.059v-5.13a2.77 2.77 0 0 1 .034-.488c.023-.124.06-.22.108-.3a.38.38 0 0 1 .19-.142c.078-.025.176-.038.293-.038a1.32 1.32 0 0 1 .171.01 1.55 1.55 0 0 1 .181.028c.072-.266.108-.527.108-.78v-.142c0-.043-.007-.1-.02-.14-.103-.033-.228-.056-.376-.07l-.405-.02c-.502 0-.904.138-1.207.415s-.454.727-.454 1.353zm3.186 0a2.87 2.87 0 0 0 .342.04l.343.01.34-.01a3.21 3.21 0 0 0 .352-.039v-2.687a3.29 3.29 0 0 0 .181.21c.075.08.168.16.278.235a2.07 2.07 0 0 0 .4.2c.156.062.336.078.538.078.56 0 .986-.156 1.275-.47s.435-.804.435-1.475v-3.234a2.79 2.79 0 0 0-.351-.039l-.342-.01-.343.01a2.79 2.79 0 0 0-.351.039v2.863c0 .35-.056.622-.166.8s-.3.284-.567.284a1.26 1.26 0 0 1-.342-.049.71.71 0 0 1-.318-.191 1.06 1.06 0 0 1-.234-.395c-.063-.17-.093-.392-.093-.665v-2.657c-.117-.02-.234-.034-.352-.04l-.34-.01-.338.01a2.77 2.77 0 0 0-.347.039zm7.885-6.205c.364 0 .627.136.786.406s.24.66.24 1.168-.08.897-.24 1.167-.422.405-.786.405c-.358 0-.617-.134-.776-.405s-.24-.66-.24-1.167.08-.898.24-1.168.418-.406.776-.406m0-1.055c-.4 0-.768.067-1.07.2a2 2 0 0 0-.752.556 2.4 2.4 0 0 0-.45.836c-.1.32-.152.664-.152 1.036a3.47 3.47 0 0 0 .152 1.045c.102.325.25.608.45.845a2.06 2.06 0 0 0 .752.562c.302.137.66.205 1.07.205s.77-.068 1.074-.205a2.1 2.1 0 0 0 .763-.562c.202-.237.35-.52.45-.845s.147-.675.147-1.045a3.51 3.51 0 0 0-.147-1.036c-.098-.32-.247-.598-.45-.836a2.04 2.04 0 0 0-.763-.556c-.305-.134-.664-.2-1.074-.2"/></g></svg>