<svg xmlns="http://www.w3.org/2000/svg" height="53.025" width="185.888" viewBox="0 0 185.888 53.025"><defs><clipPath id="A"><path d="M699.468 424.877a4.26 4.26 0 0 1-.081-.822c0-.298.028-.582.08-.853h2.418v-8.032c.18-.028.357-.045.532-.055l.494-.012.473.018.485.05v8.032h2.417a4.28 4.28 0 0 1 .081.853c0 .278-.026.552-.08.822z"/></clipPath><linearGradient id="B" spreadMethod="pad" gradientUnits="userSpaceOnUse" y2="426.855" x2="757.364" y1="398.807" x1="757.364"><stop offset="0" stop-color="#004269"/><stop offset="1" stop-color="#0069a3"/></linearGradient><clipPath id="C"><path d="M708.947 421.9c-.288-.22-.53-.47-.73-.75l-.033.236-.048.284-.06.27c-.023.084-.047.15-.074.195l-.385.066c-.13.02-.264.028-.398.028-.145 0-.276-.007-.4-.02l-.385-.06v-6.994a4.71 4.71 0 0 1 .493-.053l.467-.014.472.014a4.18 4.18 0 0 1 .485.053v3.322c0 .486.057.863.17 1.134s.255.473.426.608.35.218.54.25a3.09 3.09 0 0 0 .513.047h.222c.123 0 .234-.008.332-.027.036.162.06.333.074.514l.02.498-.013.366a2.92 2.92 0 0 1-.04.31c-.055.018-.14.032-.257.04l-.31.013c-.432 0-.792-.1-1.08-.33"/></clipPath><clipPath id="D"><path d="M712.45 425.195l-.493-.06c-.054-.316-.08-.618-.08-.906a5.19 5.19 0 0 1 .081-.904c.154-.027.32-.045.5-.054l.486-.014.493.014c.177.01.34.027.494.054.026.153.044.306.053.46l.014.445-.014.452c-.01.15-.027.3-.053.454l-.5.06-.5.02c-.144 0-.304-.007-.48-.02m-1.114-3.045c-.053-.235-.08-.472-.08-.716 0-.117.007-.24.02-.37a2.96 2.96 0 0 1 .061-.371h.904v-5.522c.324-.055.635-.08.932-.08a5.64 5.64 0 0 1 .945.081v6.98z"/></clipPath><clipPath id="E"><path d="M715.982 425.04v-9.64c.17-.064.36-.12.566-.17l.65-.12.668-.075.628-.026c.62 0 1.18.087 1.675.262s.913.427 1.255.75a3.17 3.17 0 0 1 .783 1.181c.18.463.27.987.27 1.573 0 .603-.073 1.125-.216 1.565s-.343.808-.595 1.1a2.36 2.36 0 0 1-.897.655c-.347.144-.723.216-1.128.216a2.39 2.39 0 0 1-1.08-.236c-.315-.157-.54-.358-.675-.6v3.564a5.83 5.83 0 0 1-.959.082 5.74 5.74 0 0 1-.945-.082m2.25-8.425c-.123.01-.237.03-.345.067v2.54c0 .512.114.888.345 1.127s.522.358.883.358c.495 0 .845-.17 1.054-.507s.31-.83.31-1.48c0-.73-.168-1.264-.5-1.606s-.792-.514-1.377-.514l-.37.014"/></clipPath><clipPath id="F"><path d="M728.052 422.15v-5.47c-.224-.062-.503-.094-.836-.094-.244 0-.455.03-.635.088a.99.99 0 0 0-.452.298c-.122.138-.212.327-.27.566s-.086.542-.086.912v3.7a5.96 5.96 0 0 1-.96.081 5.93 5.93 0 0 1-.958-.081v-3.754c0-.746.094-1.345.283-1.796s.443-.792.764-1.025.7-.388 1.113-.46a7.99 7.99 0 0 1 1.323-.107c.514 0 1.006.047 1.478.14s.854.192 1.142.3v6.71a5.94 5.94 0 0 1-.959.081 5.88 5.88 0 0 1-.946-.081"/></clipPath><clipPath id="G"><path d="M734.804 422.21c-.207-.068-.394-.156-.56-.263a2.28 2.28 0 0 1-.438-.366c-.126-.134-.235-.27-.325-.404l-.033.23-.048.276-.06.27c-.023.085-.047.15-.075.195l-.363.06a3.72 3.72 0 0 1-.406.02c-.153 0-.293-.007-.42-.02l-.378-.06v-6.98c.324-.055.644-.08.96-.08a5.7 5.7 0 0 1 .957.081v3.658c0 .378.042.684.123.918a1.43 1.43 0 0 0 .316.548c.13.13.277.218.44.262a1.73 1.73 0 0 0 .473.069c.37 0 .627-.132.776-.392s.223-.635.223-1.12v-3.942a5.72 5.72 0 0 1 1.918 0v4.455c0 .928-.202 1.607-.602 2.038s-.996.65-1.788.65a2.23 2.23 0 0 1-.689-.101"/></clipPath><clipPath id="H"><path d="M740.88 422.218a7.28 7.28 0 0 1-1.189-.297c0-.288.032-.537.095-.743a3.65 3.65 0 0 1 .283-.662c.55.2 1.067.283 1.553.283a4.29 4.29 0 0 0 .615-.039c.184-.028.34-.08.466-.156a.82.82 0 0 0 .297-.318c.07-.134.107-.3.107-.525v-.163l-.864.04a5.13 5.13 0 0 1-1.079-.114c-.36-.077-.687-.203-.98-.378s-.53-.4-.715-.702-.276-.655-.276-1.087.073-.797.222-1.094a1.9 1.9 0 0 1 .635-.729c.274-.19.602-.324.985-.405a6.11 6.11 0 0 1 1.262-.121 7.82 7.82 0 0 1 1.526.134l1.147.284v4.05c0 .99-.262 1.7-.79 2.16s-1.258.675-2.194.675a7.05 7.05 0 0 1-1.107-.094m1.06-5.705c-.157.013-.305.05-.445.108a.87.87 0 0 0-.358.277c-.1.126-.148.306-.148.54 0 .35.128.605.385.763s.604.236 1.046.236a3.06 3.06 0 0 0 .337-.02l.35-.047v-1.783l-.35-.06c-.134-.022-.27-.033-.404-.033l-.413.02"/></clipPath><clipPath id="I"><path d="M746.618 425.04v-7.507c0-.864.21-1.487.628-1.87s.973-.573 1.667-.573l.56.026c.203.02.376.05.52.095.018.072.027.137.027.196v.195a4.15 4.15 0 0 1-.148 1.08 2.21 2.21 0 0 0-.25-.039l-.236-.014a1.3 1.3 0 0 0-.405.053.52.52 0 0 0-.263.196c-.067.096-.118.227-.148.4s-.048.396-.048.675v7.088a5.76 5.76 0 0 1-.946.082 5.83 5.83 0 0 1-.958-.082"/></clipPath><clipPath id="J"><path d="M755.745 424.858c-.404-.122-.75-.303-1.04-.54s-.51-.534-.67-.884-.237-.757-.237-1.216c0-.378.05-.703.143-.972s.227-.502.397-.696.38-.36.622-.5.518-.268.824-.386l.823-.3.473-.196c.154-.068.3-.15.412-.25a1.19 1.19 0 0 0 .297-.364c.076-.144.115-.323.115-.54 0-.432-.162-.754-.486-.965s-.77-.317-1.337-.317a4.73 4.73 0 0 0-1.067.114c-.333.077-.688.192-1.067.344l-.256-.857c-.072-.283-.122-.556-.148-.817l.648-.23.627-.156c.212-.04.435-.07.67-.087l.796-.026c.603 0 1.137.076 1.6.23s.854.364 1.17.635a2.71 2.71 0 0 1 .722.971c.166.378.25.798.25 1.256 0 .44-.054.813-.162 1.115s-.26.558-.453.77a2.51 2.51 0 0 1-.709.533 10.24 10.24 0 0 1-.932.419l-.81.31-.406.168a1.65 1.65 0 0 0-.363.216c-.11.086-.195.19-.258.312s-.094.27-.094.45c0 .224.04.407.122.548s.184.244.31.316.267.122.425.15a2.63 2.63 0 0 0 .465.04l.675-.033c.198-.022.376-.052.534-.088s.305-.08.445-.135l.412-.162c.234.504.378 1.017.432 1.54a9.65 9.65 0 0 1-1.263.351c-.4.08-.83.12-1.288.12-.504 0-.96-.06-1.365-.18"/></clipPath><clipPath id="K"><path d="M765.52 422.15v-5.47c-.224-.062-.504-.094-.837-.094a2.04 2.04 0 0 0-.634.088.98.98 0 0 0-.452.298c-.123.138-.213.327-.27.566s-.086.542-.086.912v3.7a5.97 5.97 0 0 1-.96.081 5.93 5.93 0 0 1-.958-.081v-3.754c0-.746.094-1.345.283-1.796s.443-.792.763-1.025.69-.388 1.114-.46a7.99 7.99 0 0 1 1.323-.107c.514 0 1.006.047 1.478.14s.854.192 1.142.3v6.71a5.94 5.94 0 0 1-.959.081 5.88 5.88 0 0 1-.946-.081"/></clipPath><clipPath id="L"><path d="M772.2 422.21a2.45 2.45 0 0 1-.56-.263 1.89 1.89 0 0 1-.424-.372 2.75 2.75 0 0 1-.297-.425l-.035.236-.054.29-.067.277a.84.84 0 0 1-.074.195c-.262.053-.518.08-.77.08a6.27 6.27 0 0 1-.412-.013c-.122-.01-.245-.028-.37-.054V411.97l.492-.054.466-.014.465.014c.158.01.323.027.494.054v3.105c.1-.018.223-.035.37-.047s.3-.02.452-.02c.595 0 1.126.087 1.594.262s.864.427 1.188.75.57.717.743 1.18.256.987.256 1.573c0 .603-.07 1.125-.2 1.565s-.335.808-.587 1.1a2.38 2.38 0 0 1-.884.655 2.74 2.74 0 0 1-1.087.216 2.23 2.23 0 0 1-.689-.101m-1.147-5.556v2.376c0 .225.022.436.067.634s.117.372.216.52a1.09 1.09 0 0 0 .385.351c.158.085.35.127.574.127.244 0 .448-.05.614-.148a1.21 1.21 0 0 0 .412-.405 1.75 1.75 0 0 0 .23-.614c.045-.238.067-.498.067-.777 0-.73-.148-1.273-.445-1.633s-.725-.54-1.283-.54a2.95 2.95 0 0 0-.837.108"/></clipPath><clipPath id="M"><path d="M778.693 422.023a3.05 3.05 0 0 1-1.054-.791 3.36 3.36 0 0 1-.641-1.175c-.144-.45-.217-.932-.217-1.445 0-.522.07-1.003.21-1.444s.355-.822.647-1.14.67-.57 1.135-.75 1.02-.27 1.666-.27c.882 0 1.675.134 2.377.405a3.31 3.31 0 0 1-.122.809 3.17 3.17 0 0 1-.256.649c-.29-.11-.592-.192-.91-.25s-.632-.088-.94-.088c-.558 0-1.008.122-1.35.365s-.53.634-.567 1.174h4.482c.02.1.034.233.05.398l.018.507a4.22 4.22 0 0 1-.201 1.317 2.95 2.95 0 0 1-.601 1.059 2.85 2.85 0 0 1-.966.702 3.11 3.11 0 0 1-1.296.257c-.558 0-1.047-.097-1.464-.29m.41-1.547c.234.252.576.378 1.026.378.396 0 .704-.133.925-.398s.34-.614.358-1.047h-2.728c.045.46.185.814.42 1.067"/></clipPath><clipPath id="N"><path d="M787.246 421.9c-.288-.22-.53-.47-.73-.75l-.033.236-.048.284-.06.27c-.023.084-.047.15-.074.195l-.385.066c-.13.02-.264.028-.4.028a3.72 3.72 0 0 1-.397-.02l-.386-.06v-6.994c.17-.027.335-.045.493-.053l.467-.014.472.014a4.18 4.18 0 0 1 .485.053v3.322c0 .486.057.863.17 1.134s.255.473.426.608a1.18 1.18 0 0 0 .54.249 3.07 3.07 0 0 0 .513.047h.222a1.77 1.77 0 0 0 .332-.027c.036.162.06.333.074.514l.02.498-.013.366c-.01.116-.023.22-.04.3-.054.018-.14.032-.256.04l-.31.013c-.433 0-.792-.1-1.08-.33"/></clipPath><clipPath id="O"><path d="M790.75 425.195l-.493-.06c-.054-.316-.08-.618-.08-.906a5.19 5.19 0 0 1 .081-.904c.153-.027.32-.045.5-.054l.486-.014.493.014c.176.01.34.027.494.054a4.22 4.22 0 0 1 .054.459l.013.445-.013.452a4.25 4.25 0 0 1-.054.454l-.5.06-.5.02c-.144 0-.305-.007-.48-.02m-1.114-3.045c-.054-.235-.08-.472-.08-.716 0-.117.007-.24.02-.37a2.96 2.96 0 0 1 .061-.371h.904v-5.522c.324-.055.635-.08.932-.08a5.63 5.63 0 0 1 .945.081v6.98z"/></clipPath><clipPath id="P"><path d="M795.786 422.03a2.87 2.87 0 0 1-1.04-.776c-.275-.33-.482-.72-.62-1.168s-.21-.932-.21-1.446a4.71 4.71 0 0 1 .209-1.431c.14-.44.346-.826.62-1.154a2.8 2.8 0 0 1 1.04-.77c.418-.184.91-.276 1.48-.276s1.06.092 1.484.276a2.86 2.86 0 0 1 1.054.77c.28.328.486.713.62 1.154s.202.918.202 1.43a5.01 5.01 0 0 1-.202 1.446c-.135.45-.342.84-.62 1.168a2.93 2.93 0 0 1-1.054.776c-.423.19-.918.283-1.484.283s-1.06-.094-1.48-.283m.404-5.003c-.22.373-.33.91-.33 1.613s.1 1.24.33 1.613.58.56 1.075.56c.503 0 .866-.186 1.086-.56s.33-.91.33-1.613-.11-1.24-.33-1.613-.583-.56-1.086-.56c-.496 0-.854.186-1.075.56"/></clipPath><clipPath id="Q"><path d="M804.65 421.9a3.49 3.49 0 0 1-.729-.749l-.034.236-.047.284-.06.27a.77.77 0 0 1-.075.195l-.385.066a2.73 2.73 0 0 1-.397.028c-.145 0-.278-.007-.398-.02l-.386-.06v-6.994l.493-.053.466-.014.473.014c.162.008.323.026.485.053v3.322c0 .486.056.863.17 1.134s.254.473.424.608.352.218.54.25a3.07 3.07 0 0 0 .513.047h.223a1.78 1.78 0 0 0 .331-.027 3.83 3.83 0 0 1 .074.514l.02.498-.012.366-.04.3c-.054.018-.14.032-.257.04l-.31.013c-.432 0-.792-.1-1.08-.33"/></clipPath><clipPath id="R"><path d="M704.66 412.094c-.157-.01-.317-.027-.48-.054v-2.862a2.61 2.61 0 0 1-.506.087l-.507.02c-.54 0-1.03-.096-1.47-.3s-.817-.457-1.128-.8-.55-.726-.715-1.182-.25-.938-.25-1.45c0-.65.098-1.198.3-1.648s.457-.816.8-1.1.718-.5 1.155-.62.894-.195 1.37-.195c.62 0 1.15.033 1.585.1a9.83 9.83 0 0 1 1.291.29v9.64a4.45 4.45 0 0 1-.487.054l-.472.013a9.19 9.19 0 0 1-.466-.013m-2.018-8.405c-.216.066-.404.177-.56.33s-.28.357-.37.615-.135.568-.135.938c0 .296.033.583.1.857a2.12 2.12 0 0 0 .317.717 1.66 1.66 0 0 0 .547.486 1.59 1.59 0 0 0 .777.181l.425-.02a3.62 3.62 0 0 0 .439-.088v-4a2.45 2.45 0 0 0-.418-.088c-.128-.014-.266-.02-.42-.02-.252 0-.486.033-.702.1"/></clipPath><clipPath id="S"><path d="M709.413 409.03a2.89 2.89 0 0 1-1.04-.776c-.275-.33-.482-.72-.62-1.17s-.21-.93-.21-1.445a4.7 4.7 0 0 1 .209-1.43c.14-.442.346-.826.62-1.156s.62-.585 1.04-.77.91-.276 1.48-.276 1.062.09 1.485.276.774.442 1.053.77.486.714.62 1.156.202.918.202 1.43-.066.995-.202 1.445-.342.84-.62 1.17-.63.586-1.053.776-.918.283-1.485.283-1.06-.095-1.48-.283m.405-5.003c-.22.373-.33.91-.33 1.613s.11 1.24.33 1.614.578.56 1.074.56c.503 0 .866-.186 1.086-.56s.332-.91.332-1.614-.11-1.24-.332-1.613-.583-.56-1.086-.56c-.496 0-.853.187-1.074.56"/></clipPath><clipPath id="T"><path d="M718.21 411.878a4.21 4.21 0 0 1-.081-.824c0-.298.027-.58.08-.85h2.417v-8.034l.533-.054.493-.013.473.02.486.047v8.034h2.417c.054.27.08.553.08.85a4.21 4.21 0 0 1-.081.824z"/></clipPath><clipPath id="U"><path d="M727.688 408.9c-.288-.222-.532-.47-.73-.75l-.034.237-.047.283-.06.27a.79.79 0 0 1-.076.195l-.384.068c-.13.02-.263.027-.398.027-.144 0-.277-.006-.4-.02l-.384-.06v-6.994l.492-.054.465-.013.474.013a4.46 4.46 0 0 1 .486.054v3.32c0 .487.056.865.17 1.135s.254.472.425.607a1.2 1.2 0 0 0 .54.251 3.19 3.19 0 0 0 .513.046h.223a1.87 1.87 0 0 0 .331-.027c.035.162.06.333.074.513l.02.5-.013.365-.04.31a1.26 1.26 0 0 1-.257.039l-.3.014c-.432 0-.792-.1-1.08-.33"/></clipPath><clipPath id="V"><path d="M731.724 409.217a7.06 7.06 0 0 1-1.187-.297c0-.288.032-.535.095-.74a3.63 3.63 0 0 1 .283-.663c.55.19 1.067.284 1.553.284a4.12 4.12 0 0 0 .614-.041 1.26 1.26 0 0 0 .466-.154.82.82 0 0 0 .297-.318c.072-.135.108-.31.108-.527v-.162l-.864.04c-.36 0-.72-.038-1.08-.113s-.687-.204-.98-.378-.53-.41-.715-.703-.277-.656-.277-1.087.075-.797.223-1.094a1.92 1.92 0 0 1 .634-.729c.275-.2.604-.324.986-.405s.804-.12 1.263-.12c.567 0 1.076.044 1.526.134l1.148.284v4.05c0 .99-.264 1.71-.79 2.162s-1.258.674-2.194.674a6.98 6.98 0 0 1-1.108-.095m1.06-5.705a1.49 1.49 0 0 0-.445.109c-.14.06-.26.15-.358.277s-.15.305-.15.54c0 .35.128.604.384.763s.606.236 1.047.236c.1 0 .212-.007.338-.02l.35-.047v-1.782l-.35-.062c-.135-.023-.27-.034-.404-.034l-.413.02"/></clipPath><clipPath id="W"><path d="M737.49 412.04v-9.64c.17-.063.36-.12.567-.17a6.9 6.9 0 0 1 .648-.121l.668-.075.628-.026c.62 0 1.18.088 1.675.262s.913.426 1.255.75.603.718.783 1.182.27.987.27 1.572c0 .604-.072 1.126-.215 1.567s-.343.807-.595 1.1-.55.5-.897.655-.723.215-1.13.215-.764-.078-1.08-.236-.54-.357-.675-.6v3.564c-.324.054-.643.08-.958.08-.306 0-.62-.027-.945-.08m2.248-8.426c-.122.01-.236.032-.345.067v2.54c0 .513.114.9.345 1.127a1.17 1.17 0 0 0 .884.358c.495 0 .846-.168 1.054-.506s.3-.83.3-1.478c0-.73-.167-1.265-.5-1.607s-.792-.514-1.377-.514l-.37.014"/></clipPath><clipPath id="X"><path d="M746.74 409.217a7.06 7.06 0 0 1-1.187-.297c0-.288.03-.535.094-.74s.158-.43.284-.663c.55.19 1.066.284 1.552.284.225 0 .43-.013.615-.04s.34-.08.465-.154a.82.82 0 0 0 .297-.318c.072-.135.108-.31.108-.527v-.162l-.864.04c-.36 0-.72-.038-1.08-.113a3.25 3.25 0 0 1-.979-.378c-.292-.177-.532-.41-.715-.703s-.277-.656-.277-1.087.074-.797.223-1.094.36-.54.634-.73.604-.324.986-.405.803-.12 1.262-.12c.567 0 1.077.044 1.527.134l1.147.284v4.05c0 .99-.263 1.71-.8 2.162s-1.258.674-2.194.674a6.98 6.98 0 0 1-1.108-.095m1.06-5.705a1.48 1.48 0 0 0-.445.109c-.14.06-.26.15-.36.277s-.148.305-.148.54c0 .35.128.604.384.763s.606.236 1.047.236a3.33 3.33 0 0 0 .337-.02l.35-.047v-1.782l-.35-.062c-.135-.023-.27-.034-.404-.034l-.412.02"/></clipPath><clipPath id="Y"><path d="M752.477 412.04v-7.508c0-.864.2-1.488.63-1.87s.974-.573 1.667-.573l.56.026a2.5 2.5 0 0 1 .519.095c.018.072.028.138.028.196v.196a4.16 4.16 0 0 1-.149 1.079 2.21 2.21 0 0 0-.25-.04l-.236-.013a1.33 1.33 0 0 0-.405.053.52.52 0 0 0-.264.197c-.067.094-.117.226-.148.398s-.047.396-.047.675v7.09c-.324.054-.64.08-.945.08a5.83 5.83 0 0 1-.96-.081"/></clipPath><clipPath id="Z"><path d="M757.352 412.094a4 4 0 0 1-.473-.054v-9.884c.162-.027.322-.045.48-.054l.466-.013.473.013a4.46 4.46 0 0 1 .486.054v3.673c0 .378.043.684.128.918s.193.416.324.547a.99.99 0 0 0 .44.262c.16.046.32.068.47.068.37 0 .63-.13.783-.39s.23-.635.23-1.12v-3.956c.163-.027.325-.045.487-.054l.472-.013.473.013a4.46 4.46 0 0 1 .486.054v4.468c0 .928-.2 1.608-.602 2.04s-.987.648-1.76.648c-.28 0-.526-.036-.742-.108s-.402-.16-.554-.263-.282-.21-.385-.324l-.25-.3v3.713a4.46 4.46 0 0 1-.486.054l-.473.013a9.59 9.59 0 0 1-.472-.013"/></clipPath><clipPath id="a"><path d="M766.298 409.03c-.42-.2-.766-.448-1.04-.776s-.48-.72-.62-1.17-.208-.93-.208-1.445a4.73 4.73 0 0 1 .208-1.43c.14-.442.348-.826.62-1.156a2.82 2.82 0 0 1 1.041-.769c.417-.185.91-.276 1.478-.276s1.062.09 1.485.276.774.442 1.054.77.485.714.62 1.156a4.86 4.86 0 0 1 .203 1.43 5 5 0 0 1-.203 1.445c-.135.45-.34.84-.62 1.17s-.63.586-1.054.776-.918.283-1.485.283-1.06-.095-1.478-.283m.404-5.003c-.22.373-.33.91-.33 1.613s.11 1.24.33 1.614.58.56 1.074.56c.505 0 .866-.186 1.088-.56s.33-.91.33-1.614-.1-1.24-.33-1.613-.583-.56-1.088-.56c-.495 0-.854.187-1.074.56"/></clipPath></defs><g transform="matrix(1.333333 0 0 -1.333333 -889.24558 576.26919)"><g fill="#004269"><path d="M681.818 424.745a3.73 3.73 0 0 1 3.729 3.729 3.73 3.73 0 0 1-3.729 3.728 3.73 3.73 0 0 1-3.729-3.728 3.73 3.73 0 0 1 3.729-3.729m-7.426-1.242h-4.97v-4.97h4.97c.172 0 .342-.01.5-.026 2.507-.254 4.463-2.372 4.463-4.946v-12.428h4.97v12.428c0 5.5-4.452 9.943-9.943 9.943m-7.457-12.43h9.943v4.97h-9.943zm17.4 7.457h9.942v4.97h-9.942z"/><path d="M671.906 402.374a4.97 4.97 0 0 0-4.463-4.944 4.75 4.75 0 0 0-.509-.027v-4.97c5.492 0 9.944 4.45 9.944 9.94v6.215h-4.972z"/></g><g clip-path="url(#A)"><path d="M699.468 424.877a4.26 4.26 0 0 1-.081-.822c0-.298.028-.582.08-.853h2.418v-8.032c.18-.028.357-.045.532-.055l.494-.012.473.018.485.05v8.032h2.417a4.28 4.28 0 0 1 .081.853c0 .278-.026.552-.08.822z" fill="url(#B)"/></g><g clip-path="url(#C)"><path d="M708.947 421.9c-.288-.22-.53-.47-.73-.75l-.033.236-.048.284-.06.27c-.023.084-.047.15-.074.195l-.385.066c-.13.02-.264.028-.398.028-.145 0-.276-.007-.4-.02l-.385-.06v-6.994a4.71 4.71 0 0 1 .493-.053l.467-.014.472.014a4.18 4.18 0 0 1 .485.053v3.322c0 .486.057.863.17 1.134s.255.473.426.608.35.218.54.25a3.09 3.09 0 0 0 .513.047h.222c.123 0 .234-.008.332-.027.036.162.06.333.074.514l.02.498-.013.366a2.92 2.92 0 0 1-.04.31c-.055.018-.14.032-.257.04l-.31.013c-.432 0-.792-.1-1.08-.33" fill="url(#B)"/></g><g clip-path="url(#D)"><path d="M712.45 425.195l-.493-.06c-.054-.316-.08-.618-.08-.906a5.19 5.19 0 0 1 .081-.904c.154-.027.32-.045.5-.054l.486-.014.493.014c.177.01.34.027.494.054.026.153.044.306.053.46l.014.445-.014.452c-.01.15-.027.3-.053.454l-.5.06-.5.02c-.144 0-.304-.007-.48-.02m-1.114-3.045c-.053-.235-.08-.472-.08-.716 0-.117.007-.24.02-.37a2.96 2.96 0 0 1 .061-.371h.904v-5.522c.324-.055.635-.08.932-.08a5.64 5.64 0 0 1 .945.081v6.98z" fill="url(#B)"/></g><g clip-path="url(#E)"><path d="M715.982 425.04v-9.64c.17-.064.36-.12.566-.17l.65-.12.668-.075.628-.026c.62 0 1.18.087 1.675.262s.913.427 1.255.75a3.17 3.17 0 0 1 .783 1.181c.18.463.27.987.27 1.573 0 .603-.073 1.125-.216 1.565s-.343.808-.595 1.1a2.36 2.36 0 0 1-.897.655c-.347.144-.723.216-1.128.216a2.39 2.39 0 0 1-1.08-.236c-.315-.157-.54-.358-.675-.6v3.564a5.83 5.83 0 0 1-.959.082 5.74 5.74 0 0 1-.945-.082m2.25-8.425c-.123.01-.237.03-.345.067v2.54c0 .512.114.888.345 1.127s.522.358.883.358c.495 0 .845-.17 1.054-.507s.31-.83.31-1.48c0-.73-.168-1.264-.5-1.606s-.792-.514-1.377-.514l-.37.014" fill="url(#B)"/></g><g clip-path="url(#F)"><path d="M728.052 422.15v-5.47c-.224-.062-.503-.094-.836-.094-.244 0-.455.03-.635.088a.99.99 0 0 0-.452.298c-.122.138-.212.327-.27.566s-.086.542-.086.912v3.7a5.96 5.96 0 0 1-.96.081 5.93 5.93 0 0 1-.958-.081v-3.754c0-.746.094-1.345.283-1.796s.443-.792.764-1.025.7-.388 1.113-.46a7.99 7.99 0 0 1 1.323-.107c.514 0 1.006.047 1.478.14s.854.192 1.142.3v6.71a5.94 5.94 0 0 1-.959.081 5.88 5.88 0 0 1-.946-.081" fill="url(#B)"/></g><g clip-path="url(#G)"><path d="M734.804 422.21c-.207-.068-.394-.156-.56-.263a2.28 2.28 0 0 1-.438-.366c-.126-.134-.235-.27-.325-.404l-.033.23-.048.276-.06.27c-.023.085-.047.15-.075.195l-.363.06a3.72 3.72 0 0 1-.406.02c-.153 0-.293-.007-.42-.02l-.378-.06v-6.98c.324-.055.644-.08.96-.08a5.7 5.7 0 0 1 .957.081v3.658c0 .378.042.684.123.918a1.43 1.43 0 0 0 .316.548c.13.13.277.218.44.262a1.73 1.73 0 0 0 .473.069c.37 0 .627-.132.776-.392s.223-.635.223-1.12v-3.942a5.72 5.72 0 0 1 1.918 0v4.455c0 .928-.202 1.607-.602 2.038s-.996.65-1.788.65a2.23 2.23 0 0 1-.689-.101" fill="url(#B)"/></g><g clip-path="url(#H)"><path d="M740.88 422.218a7.28 7.28 0 0 1-1.189-.297c0-.288.032-.537.095-.743a3.65 3.65 0 0 1 .283-.662c.55.2 1.067.283 1.553.283a4.29 4.29 0 0 0 .615-.039c.184-.028.34-.08.466-.156a.82.82 0 0 0 .297-.318c.07-.134.107-.3.107-.525v-.163l-.864.04a5.13 5.13 0 0 1-1.079-.114c-.36-.077-.687-.203-.98-.378s-.53-.4-.715-.702-.276-.655-.276-1.087.073-.797.222-1.094a1.9 1.9 0 0 1 .635-.729c.274-.19.602-.324.985-.405a6.11 6.11 0 0 1 1.262-.121 7.82 7.82 0 0 1 1.526.134l1.147.284v4.05c0 .99-.262 1.7-.79 2.16s-1.258.675-2.194.675a7.05 7.05 0 0 1-1.107-.094m1.06-5.705c-.157.013-.305.05-.445.108a.87.87 0 0 0-.358.277c-.1.126-.148.306-.148.54 0 .35.128.605.385.763s.604.236 1.046.236a3.06 3.06 0 0 0 .337-.02l.35-.047v-1.783l-.35-.06c-.134-.022-.27-.033-.404-.033l-.413.02" fill="url(#B)"/></g><g clip-path="url(#I)"><path d="M746.618 425.04v-7.507c0-.864.21-1.487.628-1.87s.973-.573 1.667-.573l.56.026c.203.02.376.05.52.095.018.072.027.137.027.196v.195a4.15 4.15 0 0 1-.148 1.08 2.21 2.21 0 0 0-.25-.039l-.236-.014a1.3 1.3 0 0 0-.405.053.52.52 0 0 0-.263.196c-.067.096-.118.227-.148.4s-.048.396-.048.675v7.088a5.76 5.76 0 0 1-.946.082 5.83 5.83 0 0 1-.958-.082" fill="url(#B)"/></g><g clip-path="url(#J)"><path d="M755.745 424.858c-.404-.122-.75-.303-1.04-.54s-.51-.534-.67-.884-.237-.757-.237-1.216c0-.378.05-.703.143-.972s.227-.502.397-.696.38-.36.622-.5.518-.268.824-.386l.823-.3.473-.196c.154-.068.3-.15.412-.25a1.19 1.19 0 0 0 .297-.364c.076-.144.115-.323.115-.54 0-.432-.162-.754-.486-.965s-.77-.317-1.337-.317a4.73 4.73 0 0 0-1.067.114c-.333.077-.688.192-1.067.344l-.256-.857c-.072-.283-.122-.556-.148-.817l.648-.23.627-.156c.212-.04.435-.07.67-.087l.796-.026c.603 0 1.137.076 1.6.23s.854.364 1.17.635a2.71 2.71 0 0 1 .722.971c.166.378.25.798.25 1.256 0 .44-.054.813-.162 1.115s-.26.558-.453.77a2.51 2.51 0 0 1-.709.533 10.24 10.24 0 0 1-.932.419l-.81.31-.406.168a1.65 1.65 0 0 0-.363.216c-.11.086-.195.19-.258.312s-.094.27-.094.45c0 .224.04.407.122.548s.184.244.31.316.267.122.425.15a2.63 2.63 0 0 0 .465.04l.675-.033c.198-.022.376-.052.534-.088s.305-.08.445-.135l.412-.162c.234.504.378 1.017.432 1.54a9.65 9.65 0 0 1-1.263.351c-.4.08-.83.12-1.288.12-.504 0-.96-.06-1.365-.18" fill="url(#B)"/></g><g clip-path="url(#K)"><path d="M765.52 422.15v-5.47c-.224-.062-.504-.094-.837-.094a2.04 2.04 0 0 0-.634.088.98.98 0 0 0-.452.298c-.123.138-.213.327-.27.566s-.086.542-.086.912v3.7a5.97 5.97 0 0 1-.96.081 5.93 5.93 0 0 1-.958-.081v-3.754c0-.746.094-1.345.283-1.796s.443-.792.763-1.025.69-.388 1.114-.46a7.99 7.99 0 0 1 1.323-.107c.514 0 1.006.047 1.478.14s.854.192 1.142.3v6.71a5.94 5.94 0 0 1-.959.081 5.88 5.88 0 0 1-.946-.081" fill="url(#B)"/></g><g clip-path="url(#L)"><path d="M772.2 422.21a2.45 2.45 0 0 1-.56-.263 1.89 1.89 0 0 1-.424-.372 2.75 2.75 0 0 1-.297-.425l-.035.236-.054.29-.067.277a.84.84 0 0 1-.074.195c-.262.053-.518.08-.77.08a6.27 6.27 0 0 1-.412-.013c-.122-.01-.245-.028-.37-.054V411.97l.492-.054.466-.014.465.014c.158.01.323.027.494.054v3.105c.1-.018.223-.035.37-.047s.3-.02.452-.02c.595 0 1.126.087 1.594.262s.864.427 1.188.75.57.717.743 1.18.256.987.256 1.573c0 .603-.07 1.125-.2 1.565s-.335.808-.587 1.1a2.38 2.38 0 0 1-.884.655 2.74 2.74 0 0 1-1.087.216 2.23 2.23 0 0 1-.689-.101m-1.147-5.556v2.376c0 .225.022.436.067.634s.117.372.216.52a1.09 1.09 0 0 0 .385.351c.158.085.35.127.574.127.244 0 .448-.05.614-.148a1.21 1.21 0 0 0 .412-.405 1.75 1.75 0 0 0 .23-.614c.045-.238.067-.498.067-.777 0-.73-.148-1.273-.445-1.633s-.725-.54-1.283-.54a2.95 2.95 0 0 0-.837.108" fill="url(#B)"/></g><g clip-path="url(#M)"><path d="M778.693 422.023a3.05 3.05 0 0 1-1.054-.791 3.36 3.36 0 0 1-.641-1.175c-.144-.45-.217-.932-.217-1.445 0-.522.07-1.003.21-1.444s.355-.822.647-1.14.67-.57 1.135-.75 1.02-.27 1.666-.27c.882 0 1.675.134 2.377.405a3.31 3.31 0 0 1-.122.809 3.17 3.17 0 0 1-.256.649c-.29-.11-.592-.192-.91-.25s-.632-.088-.94-.088c-.558 0-1.008.122-1.35.365s-.53.634-.567 1.174h4.482c.02.1.034.233.05.398l.018.507a4.22 4.22 0 0 1-.201 1.317 2.95 2.95 0 0 1-.601 1.059 2.85 2.85 0 0 1-.966.702 3.11 3.11 0 0 1-1.296.257c-.558 0-1.047-.097-1.464-.29m.41-1.547c.234.252.576.378 1.026.378.396 0 .704-.133.925-.398s.34-.614.358-1.047h-2.728c.045.46.185.814.42 1.067" fill="url(#B)"/></g><g clip-path="url(#N)"><path d="M787.246 421.9c-.288-.22-.53-.47-.73-.75l-.033.236-.048.284-.06.27c-.023.084-.047.15-.074.195l-.385.066c-.13.02-.264.028-.4.028a3.72 3.72 0 0 1-.397-.02l-.386-.06v-6.994c.17-.027.335-.045.493-.053l.467-.014.472.014a4.18 4.18 0 0 1 .485.053v3.322c0 .486.057.863.17 1.134s.255.473.426.608a1.18 1.18 0 0 0 .54.249 3.07 3.07 0 0 0 .513.047h.222a1.77 1.77 0 0 0 .332-.027c.036.162.06.333.074.514l.02.498-.013.366c-.01.116-.023.22-.04.3-.054.018-.14.032-.256.04l-.31.013c-.433 0-.792-.1-1.08-.33" fill="url(#B)"/></g><g clip-path="url(#O)"><path d="M790.75 425.195l-.493-.06c-.054-.316-.08-.618-.08-.906a5.19 5.19 0 0 1 .081-.904c.153-.027.32-.045.5-.054l.486-.014.493.014c.176.01.34.027.494.054a4.22 4.22 0 0 1 .054.459l.013.445-.013.452a4.25 4.25 0 0 1-.054.454l-.5.06-.5.02c-.144 0-.305-.007-.48-.02m-1.114-3.045c-.054-.235-.08-.472-.08-.716 0-.117.007-.24.02-.37a2.96 2.96 0 0 1 .061-.371h.904v-5.522c.324-.055.635-.08.932-.08a5.63 5.63 0 0 1 .945.081v6.98z" fill="url(#B)"/></g><g clip-path="url(#P)"><path d="M795.786 422.03a2.87 2.87 0 0 1-1.04-.776c-.275-.33-.482-.72-.62-1.168s-.21-.932-.21-1.446a4.71 4.71 0 0 1 .209-1.431c.14-.44.346-.826.62-1.154a2.8 2.8 0 0 1 1.04-.77c.418-.184.91-.276 1.48-.276s1.06.092 1.484.276a2.86 2.86 0 0 1 1.054.77c.28.328.486.713.62 1.154s.202.918.202 1.43a5.01 5.01 0 0 1-.202 1.446c-.135.45-.342.84-.62 1.168a2.93 2.93 0 0 1-1.054.776c-.423.19-.918.283-1.484.283s-1.06-.094-1.48-.283m.404-5.003c-.22.373-.33.91-.33 1.613s.1 1.24.33 1.613.58.56 1.075.56c.503 0 .866-.186 1.086-.56s.33-.91.33-1.613-.11-1.24-.33-1.613-.583-.56-1.086-.56c-.496 0-.854.186-1.075.56" fill="url(#B)"/></g><g clip-path="url(#Q)"><path d="M804.65 421.9a3.49 3.49 0 0 1-.729-.749l-.034.236-.047.284-.06.27a.77.77 0 0 1-.075.195l-.385.066a2.73 2.73 0 0 1-.397.028c-.145 0-.278-.007-.398-.02l-.386-.06v-6.994l.493-.053.466-.014.473.014c.162.008.323.026.485.053v3.322c0 .486.056.863.17 1.134s.254.473.424.608.352.218.54.25a3.07 3.07 0 0 0 .513.047h.223a1.78 1.78 0 0 0 .331-.027 3.83 3.83 0 0 1 .074.514l.02.498-.012.366-.04.3c-.054.018-.14.032-.257.04l-.31.013c-.432 0-.792-.1-1.08-.33" fill="url(#B)"/></g><g clip-path="url(#R)"><path d="M704.66 412.094c-.157-.01-.317-.027-.48-.054v-2.862a2.61 2.61 0 0 1-.506.087l-.507.02c-.54 0-1.03-.096-1.47-.3s-.817-.457-1.128-.8-.55-.726-.715-1.182-.25-.938-.25-1.45c0-.65.098-1.198.3-1.648s.457-.816.8-1.1.718-.5 1.155-.62.894-.195 1.37-.195c.62 0 1.15.033 1.585.1a9.83 9.83 0 0 1 1.291.29v9.64a4.45 4.45 0 0 1-.487.054l-.472.013a9.19 9.19 0 0 1-.466-.013m-2.018-8.405c-.216.066-.404.177-.56.33s-.28.357-.37.615-.135.568-.135.938c0 .296.033.583.1.857a2.12 2.12 0 0 0 .317.717 1.66 1.66 0 0 0 .547.486 1.59 1.59 0 0 0 .777.181l.425-.02a3.62 3.62 0 0 0 .439-.088v-4a2.45 2.45 0 0 0-.418-.088c-.128-.014-.266-.02-.42-.02-.252 0-.486.033-.702.1" fill="url(#B)"/></g><g clip-path="url(#S)"><path d="M709.413 409.03a2.89 2.89 0 0 1-1.04-.776c-.275-.33-.482-.72-.62-1.17s-.21-.93-.21-1.445a4.7 4.7 0 0 1 .209-1.43c.14-.442.346-.826.62-1.156s.62-.585 1.04-.77.91-.276 1.48-.276 1.062.09 1.485.276.774.442 1.053.77.486.714.62 1.156.202.918.202 1.43-.066.995-.202 1.445-.342.84-.62 1.17-.63.586-1.053.776-.918.283-1.485.283-1.06-.095-1.48-.283m.405-5.003c-.22.373-.33.91-.33 1.613s.11 1.24.33 1.614.578.56 1.074.56c.503 0 .866-.186 1.086-.56s.332-.91.332-1.614-.11-1.24-.332-1.613-.583-.56-1.086-.56c-.496 0-.853.187-1.074.56" fill="url(#B)"/></g><g clip-path="url(#T)"><path d="M718.21 411.878a4.21 4.21 0 0 1-.081-.824c0-.298.027-.58.08-.85h2.417v-8.034l.533-.054.493-.013.473.02.486.047v8.034h2.417c.054.27.08.553.08.85a4.21 4.21 0 0 1-.081.824z" fill="url(#B)"/></g><g clip-path="url(#U)"><path d="M727.688 408.9c-.288-.222-.532-.47-.73-.75l-.034.237-.047.283-.06.27a.79.79 0 0 1-.076.195l-.384.068c-.13.02-.263.027-.398.027-.144 0-.277-.006-.4-.02l-.384-.06v-6.994l.492-.054.465-.013.474.013a4.46 4.46 0 0 1 .486.054v3.32c0 .487.056.865.17 1.135s.254.472.425.607a1.2 1.2 0 0 0 .54.251 3.19 3.19 0 0 0 .513.046h.223a1.87 1.87 0 0 0 .331-.027c.035.162.06.333.074.513l.02.5-.013.365-.04.31a1.26 1.26 0 0 1-.257.039l-.3.014c-.432 0-.792-.1-1.08-.33" fill="url(#B)"/></g><g clip-path="url(#V)"><path d="M731.724 409.217a7.06 7.06 0 0 1-1.187-.297c0-.288.032-.535.095-.74a3.63 3.63 0 0 1 .283-.663c.55.19 1.067.284 1.553.284a4.12 4.12 0 0 0 .614-.041 1.26 1.26 0 0 0 .466-.154.82.82 0 0 0 .297-.318c.072-.135.108-.31.108-.527v-.162l-.864.04c-.36 0-.72-.038-1.08-.113s-.687-.204-.98-.378-.53-.41-.715-.703-.277-.656-.277-1.087.075-.797.223-1.094a1.92 1.92 0 0 1 .634-.729c.275-.2.604-.324.986-.405s.804-.12 1.263-.12c.567 0 1.076.044 1.526.134l1.148.284v4.05c0 .99-.264 1.71-.79 2.162s-1.258.674-2.194.674a6.98 6.98 0 0 1-1.108-.095m1.06-5.705a1.49 1.49 0 0 0-.445.109c-.14.06-.26.15-.358.277s-.15.305-.15.54c0 .35.128.604.384.763s.606.236 1.047.236c.1 0 .212-.007.338-.02l.35-.047v-1.782l-.35-.062c-.135-.023-.27-.034-.404-.034l-.413.02" fill="url(#B)"/></g><g clip-path="url(#W)"><path d="M737.49 412.04v-9.64c.17-.063.36-.12.567-.17a6.9 6.9 0 0 1 .648-.121l.668-.075.628-.026c.62 0 1.18.088 1.675.262s.913.426 1.255.75.603.718.783 1.182.27.987.27 1.572c0 .604-.072 1.126-.215 1.567s-.343.807-.595 1.1-.55.5-.897.655-.723.215-1.13.215-.764-.078-1.08-.236-.54-.357-.675-.6v3.564c-.324.054-.643.08-.958.08-.306 0-.62-.027-.945-.08m2.248-8.426c-.122.01-.236.032-.345.067v2.54c0 .513.114.9.345 1.127a1.17 1.17 0 0 0 .884.358c.495 0 .846-.168 1.054-.506s.3-.83.3-1.478c0-.73-.167-1.265-.5-1.607s-.792-.514-1.377-.514l-.37.014" fill="url(#B)"/></g><g clip-path="url(#X)"><path d="M746.74 409.217a7.06 7.06 0 0 1-1.187-.297c0-.288.03-.535.094-.74s.158-.43.284-.663c.55.19 1.066.284 1.552.284.225 0 .43-.013.615-.04s.34-.08.465-.154a.82.82 0 0 0 .297-.318c.072-.135.108-.31.108-.527v-.162l-.864.04c-.36 0-.72-.038-1.08-.113a3.25 3.25 0 0 1-.979-.378c-.292-.177-.532-.41-.715-.703s-.277-.656-.277-1.087.074-.797.223-1.094.36-.54.634-.73.604-.324.986-.405.803-.12 1.262-.12c.567 0 1.077.044 1.527.134l1.147.284v4.05c0 .99-.263 1.71-.8 2.162s-1.258.674-2.194.674a6.98 6.98 0 0 1-1.108-.095m1.06-5.705a1.48 1.48 0 0 0-.445.109c-.14.06-.26.15-.36.277s-.148.305-.148.54c0 .35.128.604.384.763s.606.236 1.047.236a3.33 3.33 0 0 0 .337-.02l.35-.047v-1.782l-.35-.062c-.135-.023-.27-.034-.404-.034l-.412.02" fill="url(#B)"/></g><g clip-path="url(#Y)"><path d="M752.477 412.04v-7.508c0-.864.2-1.488.63-1.87s.974-.573 1.667-.573l.56.026a2.5 2.5 0 0 1 .519.095c.018.072.028.138.028.196v.196a4.16 4.16 0 0 1-.149 1.079 2.21 2.21 0 0 0-.25-.04l-.236-.013a1.33 1.33 0 0 0-.405.053.52.52 0 0 0-.264.197c-.067.094-.117.226-.148.398s-.047.396-.047.675v7.09c-.324.054-.64.08-.945.08a5.83 5.83 0 0 1-.96-.081" fill="url(#B)"/></g><g clip-path="url(#Z)"><path d="M757.352 412.094a4 4 0 0 1-.473-.054v-9.884c.162-.027.322-.045.48-.054l.466-.013.473.013a4.46 4.46 0 0 1 .486.054v3.673c0 .378.043.684.128.918s.193.416.324.547a.99.99 0 0 0 .44.262c.16.046.32.068.47.068.37 0 .63-.13.783-.39s.23-.635.23-1.12v-3.956c.163-.027.325-.045.487-.054l.472-.013.473.013a4.46 4.46 0 0 1 .486.054v4.468c0 .928-.2 1.608-.602 2.04s-.987.648-1.76.648c-.28 0-.526-.036-.742-.108s-.402-.16-.554-.263-.282-.21-.385-.324l-.25-.3v3.713a4.46 4.46 0 0 1-.486.054l-.473.013a9.59 9.59 0 0 1-.472-.013" fill="url(#B)"/></g><g clip-path="url(#a)"><path d="M766.298 409.03c-.42-.2-.766-.448-1.04-.776s-.48-.72-.62-1.17-.208-.93-.208-1.445a4.73 4.73 0 0 1 .208-1.43c.14-.442.348-.826.62-1.156a2.82 2.82 0 0 1 1.041-.769c.417-.185.91-.276 1.478-.276s1.062.09 1.485.276.774.442 1.054.77.485.714.62 1.156a4.86 4.86 0 0 1 .203 1.43 5 5 0 0 1-.203 1.445c-.135.45-.34.84-.62 1.17s-.63.586-1.054.776-.918.283-1.485.283-1.06-.095-1.478-.283m.404-5.003c-.22.373-.33.91-.33 1.613s.11 1.24.33 1.614.58.56 1.074.56c.505 0 .866-.186 1.088-.56s.33-.91.33-1.614-.1-1.24-.33-1.613-.583-.56-1.088-.56c-.495 0-.854.187-1.074.56" fill="url(#B)"/></g></g></svg>