<svg xmlns="http://www.w3.org/2000/svg" height="53.025" width="186.627" viewBox="0 0 186.627 53.025"><defs><clipPath id="A"><path d="M1594.65 424.877a4.26 4.26 0 0 1-.081-.822c0-.298.028-.582.08-.853h2.417v-8.032a5.46 5.46 0 0 1 .534-.055l.493-.012.472.018.485.05v8.032h2.418a4.28 4.28 0 0 1 .081.853c0 .278-.026.552-.08.822z"/></clipPath><linearGradient id="B" spreadMethod="pad" gradientUnits="userSpaceOnUse" y2="426.855" x2="1652.546" y1="398.807" x1="1652.546"><stop offset="0" stop-color="#004269"/><stop offset="1" stop-color="#0069a3"/></linearGradient><clipPath id="C"><path d="M1604.13 421.9c-.288-.22-.53-.47-.73-.75l-.033.236-.048.284-.06.27c-.022.084-.047.15-.075.195l-.384.066c-.13.02-.264.028-.4.028a3.74 3.74 0 0 1-.398-.02l-.385-.06v-6.994c.17-.027.335-.045.494-.053l.465-.014.472.014c.163.008.325.026.486.053v3.322c0 .486.057.863.17 1.134s.255.473.425.608.35.218.54.25a3.07 3.07 0 0 0 .512.047h.224c.12 0 .232-.008.33-.027a3.53 3.53 0 0 1 .075.514l.02.498-.014.366-.04.3c-.055.018-.14.032-.256.04l-.31.013c-.433 0-.792-.1-1.08-.33"/></clipPath><clipPath id="D"><path d="M1607.634 425.195l-.493-.06c-.054-.316-.08-.618-.08-.906a5.19 5.19 0 0 1 .081-.904 4.04 4.04 0 0 1 .498-.054l.487-.014.494.014c.175.01.34.027.493.054.026.153.044.306.053.46l.013.445-.013.452c-.01.15-.027.3-.053.454l-.5.06-.5.02a6.05 6.05 0 0 1-.478-.021m-1.114-3.045c-.054-.235-.08-.472-.08-.716 0-.117.01-.24.02-.37s.033-.254.06-.37h.903v-5.522a5.59 5.59 0 0 1 .933-.081 5.64 5.64 0 0 1 .945.081v6.98z"/></clipPath><clipPath id="E"><path d="M1611.164 425.04v-9.64c.17-.064.36-.12.568-.17l.648-.12.667-.075.63-.026c.62 0 1.18.087 1.675.262s.912.427 1.254.75.604.717.783 1.18.27.987.27 1.573c0 .603-.072 1.125-.216 1.565s-.343.808-.595 1.1a2.36 2.36 0 0 1-.897.655c-.347.144-.723.216-1.128.216s-.765-.08-1.08-.236-.54-.358-.675-.6v3.564a5.82 5.82 0 0 1-.958.082 5.76 5.76 0 0 1-.946-.082m2.25-8.425c-.122.01-.236.03-.345.067v2.54c0 .512.114.888.345 1.127s.524.358.884.358c.495 0 .846-.17 1.054-.507s.3-.83.3-1.48c0-.73-.167-1.264-.5-1.606s-.792-.514-1.377-.514l-.37.014"/></clipPath><clipPath id="F"><path d="M1623.235 422.15v-5.47c-.225-.062-.504-.094-.837-.094a2.04 2.04 0 0 0-.634.088c-.18.058-.33.158-.453.298s-.21.327-.27.566-.087.542-.087.912v3.7a5.94 5.94 0 0 1-.959.081 5.94 5.94 0 0 1-.959-.081v-3.754c0-.746.095-1.345.284-1.796s.442-.792.763-1.025.7-.388 1.113-.46a7.99 7.99 0 0 1 1.323-.107c.514 0 1.006.047 1.48.14l1.142.3v6.71c-.325.053-.644.08-.96.08-.305 0-.62-.028-.945-.08"/></clipPath><clipPath id="G"><path d="M1629.986 422.21a2.45 2.45 0 0 1-.56-.263 2.32 2.32 0 0 1-.439-.366c-.126-.134-.235-.27-.324-.404l-.033.23-.048.276-.06.27a.76.76 0 0 1-.074.195l-.364.06c-.117.013-.253.02-.405.02s-.293-.007-.42-.02l-.378-.06v-6.98c.325-.055.644-.08.96-.08a5.7 5.7 0 0 1 .957.081v3.658c0 .378.042.684.123.918s.186.417.318.548.276.218.438.262.32.07.472.07c.37 0 .63-.132.777-.392s.222-.635.222-1.12v-3.942c.324-.055.644-.08.96-.08a5.72 5.72 0 0 1 .958.081v4.455c0 .928-.2 1.607-.6 2.038s-.997.65-1.79.65a2.23 2.23 0 0 1-.689-.101"/></clipPath><clipPath id="H"><path d="M1636.062 422.218a7.27 7.27 0 0 1-1.188-.297c0-.288.03-.537.095-.743a3.58 3.58 0 0 1 .283-.662c.55.2 1.068.283 1.553.283.225 0 .43-.012.614-.04a1.26 1.26 0 0 0 .467-.156c.125-.077.225-.182.297-.318s.107-.3.107-.525v-.163l-.864.04c-.36 0-.72-.037-1.08-.114s-.687-.203-.98-.378-.53-.4-.716-.702-.276-.655-.276-1.087.074-.797.223-1.094.36-.54.634-.73a2.71 2.71 0 0 1 .986-.405c.382-.08.804-.12 1.263-.12.566 0 1.074.044 1.525.134l1.148.284v4.05c0 .99-.263 1.7-.8 2.16s-1.26.675-2.194.675a7.07 7.07 0 0 1-1.108-.094m1.06-5.705c-.157.013-.305.05-.445.108s-.26.15-.357.277-.15.306-.15.54c0 .35.128.605.384.763s.605.236 1.046.236c.1 0 .213-.006.34-.02l.35-.047v-1.783l-.35-.06c-.135-.022-.27-.033-.406-.033l-.412.02"/></clipPath><clipPath id="I"><path d="M1641.8 425.04v-7.507c0-.864.21-1.487.628-1.87s.974-.573 1.667-.573l.56.026c.202.02.377.05.52.095.02.072.027.137.027.196v.195c0 .352-.05.71-.15 1.08a2.23 2.23 0 0 0-.249-.039l-.237-.014a1.3 1.3 0 0 0-.405.053c-.108.036-.195.102-.263.196s-.117.227-.148.4-.048.396-.048.675v7.088a5.75 5.75 0 0 1-.946.082c-.314 0-.633-.028-.957-.082"/></clipPath><clipPath id="J"><path d="M1650.928 424.858c-.405-.122-.75-.303-1.04-.54s-.51-.534-.67-.884-.235-.757-.235-1.216c0-.378.047-.703.142-.972a2.04 2.04 0 0 1 .398-.696 2.42 2.42 0 0 1 .621-.499c.243-.14.517-.268.824-.386l.823-.3.473-.196c.153-.068.3-.15.41-.25s.222-.22.297-.364.116-.323.116-.54c0-.432-.162-.754-.486-.965s-.77-.317-1.337-.317a4.73 4.73 0 0 0-1.067.114c-.333.077-.688.192-1.067.344l-.256-.857c-.072-.283-.122-.556-.15-.817l.648-.23.628-.156a6.38 6.38 0 0 1 .669-.087l.796-.026c.604 0 1.136.076 1.6.23s.852.364 1.167.635a2.7 2.7 0 0 1 .723.971c.166.378.25.798.25 1.256 0 .44-.054.813-.162 1.115s-.26.558-.453.77a2.49 2.49 0 0 1-.708.533c-.28.144-.59.283-.932.42l-.8.31-.404.168c-.135.06-.258.13-.365.216s-.194.19-.257.312-.095.27-.095.45c0 .224.04.407.123.548s.183.244.3.316.267.122.425.15.312.04.466.04l.674-.033c.2-.022.376-.052.535-.088s.306-.08.445-.135l.412-.162c.234.504.378 1.017.432 1.54-.442.154-.863.27-1.263.35s-.83.12-1.29.12c-.504 0-.96-.06-1.364-.18"/></clipPath><clipPath id="K"><path d="M1660.703 422.15v-5.47c-.225-.062-.504-.094-.837-.094-.243 0-.455.03-.635.088s-.33.158-.452.298-.21.327-.27.566-.086.542-.086.912v3.7a5.95 5.95 0 0 1-.959.081 5.93 5.93 0 0 1-.959-.081v-3.754c0-.746.095-1.345.284-1.796s.442-.792.763-1.025.7-.388 1.113-.46a7.99 7.99 0 0 1 1.323-.107c.514 0 1.006.047 1.48.14l1.142.3v6.71a5.96 5.96 0 0 1-.96.081c-.306 0-.62-.028-.945-.08"/></clipPath><clipPath id="L"><path d="M1667.373 422.21a2.43 2.43 0 0 1-.56-.263c-.167-.108-.308-.232-.425-.372a2.82 2.82 0 0 1-.297-.425l-.034.236-.054.29-.068.277a.8.8 0 0 1-.074.195c-.262.053-.517.08-.77.08a6.27 6.27 0 0 1-.412-.013 2.86 2.86 0 0 1-.371-.054V411.97l.492-.054.465-.014.467.014a5.04 5.04 0 0 1 .493.054v3.105c.098-.018.222-.035.37-.047a4.8 4.8 0 0 1 .451-.02c.595 0 1.127.087 1.594.262a3.3 3.3 0 0 1 1.189.751c.323.323.572.717.742 1.18s.257.987.257 1.573c0 .603-.07 1.125-.2 1.565s-.335.808-.587 1.1-.547.51-.885.655a2.73 2.73 0 0 1-1.086.216 2.23 2.23 0 0 1-.689-.101m-1.147-5.556v2.376c0 .225.022.436.067.634s.117.372.215.52.228.265.386.35.348.127.574.127c.243 0 .447-.05.614-.148s.304-.234.412-.405.184-.376.23-.614.068-.498.068-.777c0-.73-.15-1.273-.446-1.633s-.724-.54-1.282-.54c-.316 0-.594.036-.837.108"/></clipPath><clipPath id="M"><path d="M1673.875 422.023a3.06 3.06 0 0 1-1.054-.791c-.283-.333-.497-.724-.64-1.175s-.216-.932-.216-1.445a4.75 4.75 0 0 1 .21-1.444c.14-.442.355-.822.647-1.14s.67-.57 1.135-.75 1.02-.27 1.667-.27c.882 0 1.675.134 2.377.405-.01.288-.05.557-.122.81s-.157.468-.256.65a5.23 5.23 0 0 0-.912-.25c-.32-.06-.632-.088-.94-.088-.557 0-1.008.122-1.35.365s-.532.634-.568 1.174h4.483c.018.1.034.233.048.398l.02.507a4.19 4.19 0 0 1-.203 1.317c-.135.41-.335.762-.6 1.06a2.86 2.86 0 0 1-.966.702c-.378.17-.8.257-1.296.257-.56 0-1.048-.097-1.465-.29m.41-1.547c.234.252.576.378 1.026.378.397 0 .705-.133.925-.398s.34-.614.36-1.047h-2.728c.045.46.185.814.418 1.067"/></clipPath><clipPath id="N"><path d="M1682.428 421.9a3.49 3.49 0 0 1-.729-.749l-.033.236-.047.284-.062.27a.82.82 0 0 1-.073.195l-.386.066a2.75 2.75 0 0 1-.398.028c-.144 0-.276-.007-.398-.02l-.385-.06v-6.994c.17-.027.335-.045.493-.053l.466-.014.473.014a4.23 4.23 0 0 1 .485.053v3.322c0 .486.056.863.17 1.134s.254.473.425.608.352.218.54.25a3.07 3.07 0 0 0 .512.047h.223a1.76 1.76 0 0 0 .331-.027c.036.162.06.333.075.514l.02.498-.014.366-.04.3c-.055.018-.14.032-.257.04l-.31.013c-.43 0-.792-.1-1.08-.33"/></clipPath><clipPath id="O"><path d="M1685.932 425.195l-.493-.06a5.49 5.49 0 0 1-.081-.906 5.29 5.29 0 0 1 .081-.904c.154-.027.32-.045.5-.054l.486-.014.494.014a4.02 4.02 0 0 1 .493.054c.027.153.045.306.054.46l.013.445-.013.452a4.25 4.25 0 0 1-.054.454l-.5.06-.5.02c-.143 0-.303-.007-.48-.02m-1.114-3.045c-.053-.235-.08-.472-.08-.716a4.49 4.49 0 0 1 .021-.371 2.79 2.79 0 0 1 .06-.371h.905v-5.522c.324-.055.634-.08.93-.08a5.65 5.65 0 0 1 .946.081v6.98z"/></clipPath><clipPath id="P"><path d="M1690.97 422.03a2.87 2.87 0 0 1-1.04-.776 3.39 3.39 0 0 1-.622-1.168c-.14-.45-.21-.932-.21-1.446a4.74 4.74 0 0 1 .209-1.431c.14-.44.348-.826.622-1.154a2.8 2.8 0 0 1 1.04-.77c.418-.184.9-.276 1.478-.276s1.06.092 1.484.276a2.85 2.85 0 0 1 1.054.77c.28.328.486.713.62 1.154a4.87 4.87 0 0 1 .203 1.431 5.01 5.01 0 0 1-.203 1.446c-.135.45-.342.84-.62 1.168a2.92 2.92 0 0 1-1.054.776c-.423.19-.918.283-1.484.283s-1.06-.094-1.478-.283m.404-5.003c-.22.373-.33.91-.33 1.613s.11 1.24.33 1.613.58.56 1.074.56c.504 0 .866-.186 1.087-.56s.33-.91.33-1.613-.1-1.24-.33-1.613-.583-.56-1.087-.56c-.495 0-.853.186-1.074.56"/></clipPath><clipPath id="Q"><path d="M1699.832 421.9c-.288-.22-.53-.47-.728-.75l-.035.236-.046.284-.062.27c-.023.084-.047.15-.074.195l-.385.066a2.75 2.75 0 0 1-.397.028 3.76 3.76 0 0 1-.399-.02l-.385-.06v-6.994c.17-.027.335-.045.492-.053l.466-.014.473.014a4.22 4.22 0 0 1 .486.053v3.322c0 .486.056.863.17 1.134s.254.473.425.608.352.218.54.25a3.11 3.11 0 0 0 .514.047h.222c.12 0 .232-.008.33-.027.035.162.06.333.075.514l.02.498-.013.366-.04.3c-.054.018-.14.032-.258.04l-.3.013c-.43 0-.792-.1-1.08-.33"/></clipPath><clipPath id="R"><path d="M1599.843 412.094a4.46 4.46 0 0 1-.48-.054v-2.862c-.162.045-.33.074-.506.087l-.507.02c-.54 0-1.03-.096-1.47-.3a3.36 3.36 0 0 1-1.127-.79 3.44 3.44 0 0 1-.716-1.182 4.17 4.17 0 0 1-.25-1.451c0-.65.097-1.198.3-1.648s.457-.816.8-1.1.718-.5 1.154-.62.894-.195 1.372-.195c.62 0 1.15.033 1.586.1a9.8 9.8 0 0 1 1.289.29v9.64a4.46 4.46 0 0 1-.486.054l-.472.013c-.154 0-.31-.005-.466-.013m-2.02-8.405a1.37 1.37 0 0 0-.561.33c-.156.154-.28.357-.37.615s-.135.568-.135.938c0 .296.034.583.1.857s.174.513.318.717.326.363.546.486.48.18.777.18l.426-.02a3.61 3.61 0 0 0 .438-.088v-4a2.45 2.45 0 0 0-.418-.088 3.85 3.85 0 0 0-.419-.019c-.252 0-.486.033-.702.1"/></clipPath><clipPath id="S"><path d="M1604.596 409.03a2.9 2.9 0 0 1-1.041-.776 3.41 3.41 0 0 1-.621-1.169c-.14-.45-.21-.93-.21-1.445a4.73 4.73 0 0 1 .209-1.43 3.42 3.42 0 0 1 .621-1.156 2.83 2.83 0 0 1 1.041-.769c.42-.185.9-.276 1.478-.276s1.062.09 1.485.276.775.442 1.053.77.486.714.62 1.156.204.918.204 1.43-.068.995-.204 1.445-.342.84-.62 1.17a2.93 2.93 0 0 1-1.053.776c-.423.188-.918.283-1.485.283s-1.06-.095-1.478-.283m.405-5.003c-.22.373-.33.91-.33 1.613s.1 1.24.33 1.614.578.56 1.073.56c.504 0 .866-.186 1.087-.56s.33-.91.33-1.614-.1-1.24-.33-1.613-.583-.56-1.087-.56c-.495 0-.852.187-1.073.56"/></clipPath><clipPath id="T"><path d="M1613.39 411.878c-.053-.27-.08-.546-.08-.824a4.41 4.41 0 0 1 .081-.851h2.418v-8.034l.532-.054.494-.013.472.02.487.047v8.034h2.417c.054.27.08.553.08.85a4.21 4.21 0 0 1-.081.824z"/></clipPath><clipPath id="U"><path d="M1622.87 408.9c-.288-.222-.53-.47-.728-.75l-.034.237-.048.283-.06.27c-.024.085-.048.15-.075.195l-.385.068c-.13.02-.263.027-.398.027-.144 0-.277-.006-.398-.02l-.385-.06v-6.994l.492-.054.467-.013.472.013a4.46 4.46 0 0 1 .486.054v3.32c0 .487.056.865.17 1.135s.254.472.425.607.352.218.54.25.36.046.514.046h.222c.122 0 .232-.01.332-.027.035.162.06.333.073.513l.02.5-.013.365-.04.31c-.053.017-.14.03-.256.04l-.31.014c-.432 0-.792-.1-1.08-.33"/></clipPath><clipPath id="V"><path d="M1626.907 409.217a7.07 7.07 0 0 1-1.188-.297c0-.288.032-.535.095-.74a3.57 3.57 0 0 1 .284-.663c.548.19 1.066.284 1.552.284.225 0 .43-.013.615-.04s.34-.08.465-.154a.82.82 0 0 0 .297-.318c.073-.135.11-.31.11-.527v-.162l-.865.04c-.36 0-.72-.038-1.08-.113a3.25 3.25 0 0 1-.979-.378c-.292-.177-.53-.41-.715-.703s-.277-.656-.277-1.087.074-.797.222-1.094.36-.54.635-.73.604-.324.985-.405a6.12 6.12 0 0 1 1.263-.121 7.82 7.82 0 0 1 1.526.134l1.148.284v4.05c0 .99-.264 1.71-.8 2.162s-1.258.674-2.194.674a6.96 6.96 0 0 1-1.108-.095m1.06-5.705a1.49 1.49 0 0 0-.446.109c-.14.06-.26.15-.358.277s-.148.305-.148.54c0 .35.127.604.385.763s.604.236 1.046.236a3.33 3.33 0 0 0 .337-.02l.352-.047v-1.782l-.352-.062c-.135-.023-.27-.034-.404-.034l-.412.02"/></clipPath><clipPath id="W"><path d="M1632.673 412.04v-9.64c.17-.063.36-.12.567-.17a6.86 6.86 0 0 1 .649-.121l.668-.075.628-.026c.62 0 1.18.088 1.675.262s.912.426 1.254.75a3.19 3.19 0 0 1 .783 1.182 4.29 4.29 0 0 1 .271 1.572c0 .604-.073 1.126-.216 1.567s-.343.807-.595 1.1-.55.5-.897.655-.723.215-1.128.215-.765-.078-1.08-.236-.54-.357-.675-.6v3.564a5.82 5.82 0 0 1-.959.081c-.305 0-.62-.027-.945-.08m2.25-8.426c-.122.01-.237.032-.345.067v2.54c0 .513.115.9.345 1.127s.523.358.884.358c.495 0 .845-.168 1.054-.506s.3-.83.3-1.478c0-.73-.167-1.265-.5-1.607s-.792-.514-1.377-.514l-.37.014"/></clipPath><clipPath id="X"><path d="M1641.922 409.217a7.07 7.07 0 0 1-1.188-.297c0-.288.032-.535.095-.74a3.63 3.63 0 0 1 .283-.663c.55.19 1.067.284 1.553.284.225 0 .43-.013.614-.04a1.26 1.26 0 0 0 .466-.154.82.82 0 0 0 .297-.318c.073-.135.11-.31.11-.527v-.162l-.865.04c-.36 0-.72-.038-1.08-.113s-.686-.204-.98-.378a2.15 2.15 0 0 1-.714-.703c-.185-.293-.277-.656-.277-1.087s.073-.797.222-1.094.36-.54.634-.73.604-.324.986-.405.804-.12 1.263-.12a7.82 7.82 0 0 1 1.526.134l1.148.284v4.05c0 .99-.264 1.71-.79 2.162s-1.257.674-2.194.674c-.342 0-.71-.03-1.107-.095m1.06-5.705a1.49 1.49 0 0 0-.445.109.88.88 0 0 0-.358.277c-.1.126-.15.305-.15.54 0 .35.128.604.385.763s.605.236 1.047.236c.098 0 .21-.007.337-.02l.352-.047v-1.782l-.352-.062c-.135-.023-.27-.034-.404-.034l-.413.02"/></clipPath><clipPath id="Y"><path d="M1647.66 412.04v-7.508c0-.864.2-1.488.628-1.87s.975-.573 1.668-.573l.56.026a2.5 2.5 0 0 1 .52.095.82.82 0 0 1 .027.196v.196c0 .35-.05.7-.15 1.08a2.19 2.19 0 0 0-.249-.04l-.236-.013c-.162 0-.297.018-.406.053a.52.52 0 0 0-.264.197c-.067.094-.117.226-.148.398s-.047.396-.047.675v7.09c-.324.054-.64.08-.945.08a5.84 5.84 0 0 1-.959-.081"/></clipPath><clipPath id="Z"><path d="M1652.534 412.094a3.98 3.98 0 0 1-.472-.054v-9.884c.162-.027.322-.045.48-.054l.466-.013.472.013a4.45 4.45 0 0 1 .487.054v3.673c0 .378.042.684.128.918a1.48 1.48 0 0 0 .324.547c.13.13.277.218.44.262a1.72 1.72 0 0 0 .472.068c.37 0 .63-.13.783-.39s.23-.635.23-1.12v-3.956a4.46 4.46 0 0 1 .486-.054l.473-.013.472.013a4.45 4.45 0 0 1 .487.054v4.468c0 .928-.2 1.608-.602 2.04s-.987.648-1.762.648c-.28 0-.526-.036-.742-.108a2.23 2.23 0 0 1-.554-.263c-.152-.103-.28-.21-.384-.324l-.25-.3v3.713a4.45 4.45 0 0 1-.487.054l-.472.013a9.63 9.63 0 0 1-.473-.013"/></clipPath><clipPath id="a"><path d="M1661.48 409.03c-.418-.2-.765-.448-1.04-.776s-.482-.72-.62-1.17-.2-.93-.2-1.445.07-1 .2-1.43.346-.826.62-1.156.62-.585 1.04-.77.912-.276 1.48-.276 1.062.09 1.484.276a2.86 2.86 0 0 1 1.054.769c.28.33.487.714.62 1.156a4.86 4.86 0 0 1 .202 1.43c0 .514-.067.995-.202 1.445s-.34.84-.62 1.17-.63.586-1.054.776-.917.283-1.484.283-1.06-.095-1.48-.283m.405-5.003c-.22.373-.33.91-.33 1.613s.11 1.24.33 1.614.58.56 1.074.56c.504 0 .866-.186 1.087-.56s.33-.91.33-1.614-.1-1.24-.33-1.613-.583-.56-1.087-.56c-.495 0-.853.187-1.074.56"/></clipPath></defs><g transform="matrix(1.333333 0 0 -1.333333 -2082.4487 576.26919)"><path d="M1576.72 424.745a3.73 3.73 0 0 1 3.729 3.729 3.73 3.73 0 0 1-3.729 3.728 3.73 3.73 0 0 1-3.729-3.728 3.73 3.73 0 0 1 3.729-3.729m-7.426-1.242h-4.972v-4.97h4.972a5.04 5.04 0 0 0 .509-.026 4.97 4.97 0 0 0 4.463-4.946v-12.428h4.97v12.428c0 5.5-4.45 9.943-9.942 9.943" fill="#fff"/><path d="M1561.837 411.075h9.94v4.97h-9.94z" fill="#077c60"/><path d="M1579.236 418.532h9.943v4.97h-9.943z" fill="#ffce06"/><path d="M1566.81 402.374a4.97 4.97 0 0 0-4.463-4.944c-.168-.018-.337-.027-.51-.027v-4.97c5.492 0 9.943 4.45 9.943 9.94v6.215h-4.97z" fill="#fff"/><g clip-path="url(#A)"><path d="M1594.65 424.877a4.26 4.26 0 0 1-.081-.822c0-.298.028-.582.08-.853h2.417v-8.032a5.46 5.46 0 0 1 .534-.055l.493-.012.472.018.485.05v8.032h2.418a4.28 4.28 0 0 1 .081.853c0 .278-.026.552-.08.822z" fill="url(#B)"/></g><g clip-path="url(#C)"><path d="M1604.13 421.9c-.288-.22-.53-.47-.73-.75l-.033.236-.048.284-.06.27c-.022.084-.047.15-.075.195l-.384.066c-.13.02-.264.028-.4.028a3.74 3.74 0 0 1-.398-.02l-.385-.06v-6.994c.17-.027.335-.045.494-.053l.465-.014.472.014c.163.008.325.026.486.053v3.322c0 .486.057.863.17 1.134s.255.473.425.608.35.218.54.25a3.07 3.07 0 0 0 .512.047h.224c.12 0 .232-.008.33-.027a3.53 3.53 0 0 1 .075.514l.02.498-.014.366-.04.3c-.055.018-.14.032-.256.04l-.31.013c-.433 0-.792-.1-1.08-.33" fill="url(#B)"/></g><g clip-path="url(#D)"><path d="M1607.634 425.195l-.493-.06c-.054-.316-.08-.618-.08-.906a5.19 5.19 0 0 1 .081-.904 4.04 4.04 0 0 1 .498-.054l.487-.014.494.014c.175.01.34.027.493.054.026.153.044.306.053.46l.013.445-.013.452c-.01.15-.027.3-.053.454l-.5.06-.5.02a6.05 6.05 0 0 1-.478-.021m-1.114-3.045c-.054-.235-.08-.472-.08-.716 0-.117.01-.24.02-.37s.033-.254.06-.37h.903v-5.522a5.59 5.59 0 0 1 .933-.081 5.64 5.64 0 0 1 .945.081v6.98z" fill="url(#B)"/></g><g clip-path="url(#E)"><path d="M1611.164 425.04v-9.64c.17-.064.36-.12.568-.17l.648-.12.667-.075.63-.026c.62 0 1.18.087 1.675.262s.912.427 1.254.75.604.717.783 1.18.27.987.27 1.573c0 .603-.072 1.125-.216 1.565s-.343.808-.595 1.1a2.36 2.36 0 0 1-.897.655c-.347.144-.723.216-1.128.216s-.765-.08-1.08-.236-.54-.358-.675-.6v3.564a5.82 5.82 0 0 1-.958.082 5.76 5.76 0 0 1-.946-.082m2.25-8.425c-.122.01-.236.03-.345.067v2.54c0 .512.114.888.345 1.127s.524.358.884.358c.495 0 .846-.17 1.054-.507s.3-.83.3-1.48c0-.73-.167-1.264-.5-1.606s-.792-.514-1.377-.514l-.37.014" fill="url(#B)"/></g><g clip-path="url(#F)"><path d="M1623.235 422.15v-5.47c-.225-.062-.504-.094-.837-.094a2.04 2.04 0 0 0-.634.088c-.18.058-.33.158-.453.298s-.21.327-.27.566-.087.542-.087.912v3.7a5.94 5.94 0 0 1-.959.081 5.94 5.94 0 0 1-.959-.081v-3.754c0-.746.095-1.345.284-1.796s.442-.792.763-1.025.7-.388 1.113-.46a7.99 7.99 0 0 1 1.323-.107c.514 0 1.006.047 1.48.14l1.142.3v6.71c-.325.053-.644.08-.96.08-.305 0-.62-.028-.945-.08" fill="url(#B)"/></g><g clip-path="url(#G)"><path d="M1629.986 422.21a2.45 2.45 0 0 1-.56-.263 2.32 2.32 0 0 1-.439-.366c-.126-.134-.235-.27-.324-.404l-.033.23-.048.276-.06.27a.76.76 0 0 1-.074.195l-.364.06c-.117.013-.253.02-.405.02s-.293-.007-.42-.02l-.378-.06v-6.98c.325-.055.644-.08.96-.08a5.7 5.7 0 0 1 .957.081v3.658c0 .378.042.684.123.918s.186.417.318.548.276.218.438.262.32.07.472.07c.37 0 .63-.132.777-.392s.222-.635.222-1.12v-3.942c.324-.055.644-.08.96-.08a5.72 5.72 0 0 1 .958.081v4.455c0 .928-.2 1.607-.6 2.038s-.997.65-1.79.65a2.23 2.23 0 0 1-.689-.101" fill="url(#B)"/></g><g clip-path="url(#H)"><path d="M1636.062 422.218a7.27 7.27 0 0 1-1.188-.297c0-.288.03-.537.095-.743a3.58 3.58 0 0 1 .283-.662c.55.2 1.068.283 1.553.283.225 0 .43-.012.614-.04a1.26 1.26 0 0 0 .467-.156c.125-.077.225-.182.297-.318s.107-.3.107-.525v-.163l-.864.04c-.36 0-.72-.037-1.08-.114s-.687-.203-.98-.378-.53-.4-.716-.702-.276-.655-.276-1.087.074-.797.223-1.094.36-.54.634-.73a2.71 2.71 0 0 1 .986-.405c.382-.08.804-.12 1.263-.12.566 0 1.074.044 1.525.134l1.148.284v4.05c0 .99-.263 1.7-.8 2.16s-1.26.675-2.194.675a7.07 7.07 0 0 1-1.108-.094m1.06-5.705c-.157.013-.305.05-.445.108s-.26.15-.357.277-.15.306-.15.54c0 .35.128.605.384.763s.605.236 1.046.236c.1 0 .213-.006.34-.02l.35-.047v-1.783l-.35-.06c-.135-.022-.27-.033-.406-.033l-.412.02" fill="url(#B)"/></g><g clip-path="url(#I)"><path d="M1641.8 425.04v-7.507c0-.864.21-1.487.628-1.87s.974-.573 1.667-.573l.56.026c.202.02.377.05.52.095.02.072.027.137.027.196v.195c0 .352-.05.71-.15 1.08a2.23 2.23 0 0 0-.249-.039l-.237-.014a1.3 1.3 0 0 0-.405.053c-.108.036-.195.102-.263.196s-.117.227-.148.4-.048.396-.048.675v7.088a5.75 5.75 0 0 1-.946.082c-.314 0-.633-.028-.957-.082" fill="url(#B)"/></g><g clip-path="url(#J)"><path d="M1650.928 424.858c-.405-.122-.75-.303-1.04-.54s-.51-.534-.67-.884-.235-.757-.235-1.216c0-.378.047-.703.142-.972a2.04 2.04 0 0 1 .398-.696 2.42 2.42 0 0 1 .621-.499c.243-.14.517-.268.824-.386l.823-.3.473-.196c.153-.068.3-.15.41-.25s.222-.22.297-.364.116-.323.116-.54c0-.432-.162-.754-.486-.965s-.77-.317-1.337-.317a4.73 4.73 0 0 0-1.067.114c-.333.077-.688.192-1.067.344l-.256-.857c-.072-.283-.122-.556-.15-.817l.648-.23.628-.156a6.38 6.38 0 0 1 .669-.087l.796-.026c.604 0 1.136.076 1.6.23s.852.364 1.167.635a2.7 2.7 0 0 1 .723.971c.166.378.25.798.25 1.256 0 .44-.054.813-.162 1.115s-.26.558-.453.77a2.49 2.49 0 0 1-.708.533c-.28.144-.59.283-.932.42l-.8.31-.404.168c-.135.06-.258.13-.365.216s-.194.19-.257.312-.095.27-.095.45c0 .224.04.407.123.548s.183.244.3.316.267.122.425.15.312.04.466.04l.674-.033c.2-.022.376-.052.535-.088s.306-.08.445-.135l.412-.162c.234.504.378 1.017.432 1.54-.442.154-.863.27-1.263.35s-.83.12-1.29.12c-.504 0-.96-.06-1.364-.18" fill="url(#B)"/></g><g clip-path="url(#K)"><path d="M1660.703 422.15v-5.47c-.225-.062-.504-.094-.837-.094-.243 0-.455.03-.635.088s-.33.158-.452.298-.21.327-.27.566-.086.542-.086.912v3.7a5.95 5.95 0 0 1-.959.081 5.93 5.93 0 0 1-.959-.081v-3.754c0-.746.095-1.345.284-1.796s.442-.792.763-1.025.7-.388 1.113-.46a7.99 7.99 0 0 1 1.323-.107c.514 0 1.006.047 1.48.14l1.142.3v6.71a5.96 5.96 0 0 1-.96.081c-.306 0-.62-.028-.945-.08" fill="url(#B)"/></g><g clip-path="url(#L)"><path d="M1667.373 422.21a2.43 2.43 0 0 1-.56-.263c-.167-.108-.308-.232-.425-.372a2.82 2.82 0 0 1-.297-.425l-.034.236-.054.29-.068.277a.8.8 0 0 1-.074.195c-.262.053-.517.08-.77.08a6.27 6.27 0 0 1-.412-.013 2.86 2.86 0 0 1-.371-.054V411.97l.492-.054.465-.014.467.014a5.04 5.04 0 0 1 .493.054v3.105c.098-.018.222-.035.37-.047a4.8 4.8 0 0 1 .451-.02c.595 0 1.127.087 1.594.262a3.3 3.3 0 0 1 1.189.751c.323.323.572.717.742 1.18s.257.987.257 1.573c0 .603-.07 1.125-.2 1.565s-.335.808-.587 1.1-.547.51-.885.655a2.73 2.73 0 0 1-1.086.216 2.23 2.23 0 0 1-.689-.101m-1.147-5.556v2.376c0 .225.022.436.067.634s.117.372.215.52.228.265.386.35.348.127.574.127c.243 0 .447-.05.614-.148s.304-.234.412-.405.184-.376.23-.614.068-.498.068-.777c0-.73-.15-1.273-.446-1.633s-.724-.54-1.282-.54c-.316 0-.594.036-.837.108" fill="url(#B)"/></g><g clip-path="url(#M)"><path d="M1673.875 422.023a3.06 3.06 0 0 1-1.054-.791c-.283-.333-.497-.724-.64-1.175s-.216-.932-.216-1.445a4.75 4.75 0 0 1 .21-1.444c.14-.442.355-.822.647-1.14s.67-.57 1.135-.75 1.02-.27 1.667-.27c.882 0 1.675.134 2.377.405-.01.288-.05.557-.122.81s-.157.468-.256.65a5.23 5.23 0 0 0-.912-.25c-.32-.06-.632-.088-.94-.088-.557 0-1.008.122-1.35.365s-.532.634-.568 1.174h4.483c.018.1.034.233.048.398l.02.507a4.19 4.19 0 0 1-.203 1.317c-.135.41-.335.762-.6 1.06a2.86 2.86 0 0 1-.966.702c-.378.17-.8.257-1.296.257-.56 0-1.048-.097-1.465-.29m.41-1.547c.234.252.576.378 1.026.378.397 0 .705-.133.925-.398s.34-.614.36-1.047h-2.728c.045.46.185.814.418 1.067" fill="url(#B)"/></g><g clip-path="url(#N)"><path d="M1682.428 421.9a3.49 3.49 0 0 1-.729-.749l-.033.236-.047.284-.062.27a.82.82 0 0 1-.073.195l-.386.066a2.75 2.75 0 0 1-.398.028c-.144 0-.276-.007-.398-.02l-.385-.06v-6.994c.17-.027.335-.045.493-.053l.466-.014.473.014a4.23 4.23 0 0 1 .485.053v3.322c0 .486.056.863.17 1.134s.254.473.425.608.352.218.54.25a3.07 3.07 0 0 0 .512.047h.223a1.76 1.76 0 0 0 .331-.027c.036.162.06.333.075.514l.02.498-.014.366-.04.3c-.055.018-.14.032-.257.04l-.31.013c-.43 0-.792-.1-1.08-.33" fill="url(#B)"/></g><g clip-path="url(#O)"><path d="M1685.932 425.195l-.493-.06a5.49 5.49 0 0 1-.081-.906 5.29 5.29 0 0 1 .081-.904c.154-.027.32-.045.5-.054l.486-.014.494.014a4.02 4.02 0 0 1 .493.054c.027.153.045.306.054.46l.013.445-.013.452a4.25 4.25 0 0 1-.054.454l-.5.06-.5.02c-.143 0-.303-.007-.48-.02m-1.114-3.045c-.053-.235-.08-.472-.08-.716a4.49 4.49 0 0 1 .021-.371 2.79 2.79 0 0 1 .06-.371h.905v-5.522c.324-.055.634-.08.93-.08a5.65 5.65 0 0 1 .946.081v6.98z" fill="url(#B)"/></g><g clip-path="url(#P)"><path d="M1690.97 422.03a2.87 2.87 0 0 1-1.04-.776 3.39 3.39 0 0 1-.622-1.168c-.14-.45-.21-.932-.21-1.446a4.74 4.74 0 0 1 .209-1.431c.14-.44.348-.826.622-1.154a2.8 2.8 0 0 1 1.04-.77c.418-.184.9-.276 1.478-.276s1.06.092 1.484.276a2.85 2.85 0 0 1 1.054.77c.28.328.486.713.62 1.154a4.87 4.87 0 0 1 .203 1.431 5.01 5.01 0 0 1-.203 1.446c-.135.45-.342.84-.62 1.168a2.92 2.92 0 0 1-1.054.776c-.423.19-.918.283-1.484.283s-1.06-.094-1.478-.283m.404-5.003c-.22.373-.33.91-.33 1.613s.11 1.24.33 1.613.58.56 1.074.56c.504 0 .866-.186 1.087-.56s.33-.91.33-1.613-.1-1.24-.33-1.613-.583-.56-1.087-.56c-.495 0-.853.186-1.074.56" fill="url(#B)"/></g><g clip-path="url(#Q)"><path d="M1699.832 421.9c-.288-.22-.53-.47-.728-.75l-.035.236-.046.284-.062.27c-.023.084-.047.15-.074.195l-.385.066a2.75 2.75 0 0 1-.397.028 3.76 3.76 0 0 1-.399-.02l-.385-.06v-6.994c.17-.027.335-.045.492-.053l.466-.014.473.014a4.22 4.22 0 0 1 .486.053v3.322c0 .486.056.863.17 1.134s.254.473.425.608.352.218.54.25a3.11 3.11 0 0 0 .514.047h.222c.12 0 .232-.008.33-.027.035.162.06.333.075.514l.02.498-.013.366-.04.3c-.054.018-.14.032-.258.04l-.3.013c-.43 0-.792-.1-1.08-.33" fill="url(#B)"/></g><g clip-path="url(#R)"><path d="M1599.843 412.094a4.46 4.46 0 0 1-.48-.054v-2.862c-.162.045-.33.074-.506.087l-.507.02c-.54 0-1.03-.096-1.47-.3a3.36 3.36 0 0 1-1.127-.79 3.44 3.44 0 0 1-.716-1.182 4.17 4.17 0 0 1-.25-1.451c0-.65.097-1.198.3-1.648s.457-.816.8-1.1.718-.5 1.154-.62.894-.195 1.372-.195c.62 0 1.15.033 1.586.1a9.8 9.8 0 0 1 1.289.29v9.64a4.46 4.46 0 0 1-.486.054l-.472.013c-.154 0-.31-.005-.466-.013m-2.02-8.405a1.37 1.37 0 0 0-.561.33c-.156.154-.28.357-.37.615s-.135.568-.135.938c0 .296.034.583.1.857s.174.513.318.717.326.363.546.486.48.18.777.18l.426-.02a3.61 3.61 0 0 0 .438-.088v-4a2.45 2.45 0 0 0-.418-.088 3.85 3.85 0 0 0-.419-.019c-.252 0-.486.033-.702.1" fill="url(#B)"/></g><g clip-path="url(#S)"><path d="M1604.596 409.03a2.9 2.9 0 0 1-1.041-.776 3.41 3.41 0 0 1-.621-1.169c-.14-.45-.21-.93-.21-1.445a4.73 4.73 0 0 1 .209-1.43 3.42 3.42 0 0 1 .621-1.156 2.83 2.83 0 0 1 1.041-.769c.42-.185.9-.276 1.478-.276s1.062.09 1.485.276.775.442 1.053.77.486.714.62 1.156.204.918.204 1.43-.068.995-.204 1.445-.342.84-.62 1.17a2.93 2.93 0 0 1-1.053.776c-.423.188-.918.283-1.485.283s-1.06-.095-1.478-.283m.405-5.003c-.22.373-.33.91-.33 1.613s.1 1.24.33 1.614.578.56 1.073.56c.504 0 .866-.186 1.087-.56s.33-.91.33-1.614-.1-1.24-.33-1.613-.583-.56-1.087-.56c-.495 0-.852.187-1.073.56" fill="url(#B)"/></g><g clip-path="url(#T)"><path d="M1613.39 411.878c-.053-.27-.08-.546-.08-.824a4.41 4.41 0 0 1 .081-.851h2.418v-8.034l.532-.054.494-.013.472.02.487.047v8.034h2.417c.054.27.08.553.08.85a4.21 4.21 0 0 1-.081.824z" fill="url(#B)"/></g><g clip-path="url(#U)"><path d="M1622.87 408.9c-.288-.222-.53-.47-.728-.75l-.034.237-.048.283-.06.27c-.024.085-.048.15-.075.195l-.385.068c-.13.02-.263.027-.398.027-.144 0-.277-.006-.398-.02l-.385-.06v-6.994l.492-.054.467-.013.472.013a4.46 4.46 0 0 1 .486.054v3.32c0 .487.056.865.17 1.135s.254.472.425.607.352.218.54.25.36.046.514.046h.222c.122 0 .232-.01.332-.027.035.162.06.333.073.513l.02.5-.013.365-.04.31c-.053.017-.14.03-.256.04l-.31.014c-.432 0-.792-.1-1.08-.33" fill="url(#B)"/></g><g clip-path="url(#V)"><path d="M1626.907 409.217a7.07 7.07 0 0 1-1.188-.297c0-.288.032-.535.095-.74a3.57 3.57 0 0 1 .284-.663c.548.19 1.066.284 1.552.284.225 0 .43-.013.615-.04s.34-.08.465-.154a.82.82 0 0 0 .297-.318c.073-.135.11-.31.11-.527v-.162l-.865.04c-.36 0-.72-.038-1.08-.113a3.25 3.25 0 0 1-.979-.378c-.292-.177-.53-.41-.715-.703s-.277-.656-.277-1.087.074-.797.222-1.094.36-.54.635-.73.604-.324.985-.405a6.12 6.12 0 0 1 1.263-.121 7.82 7.82 0 0 1 1.526.134l1.148.284v4.05c0 .99-.264 1.71-.8 2.162s-1.258.674-2.194.674a6.96 6.96 0 0 1-1.108-.095m1.06-5.705a1.49 1.49 0 0 0-.446.109c-.14.06-.26.15-.358.277s-.148.305-.148.54c0 .35.127.604.385.763s.604.236 1.046.236a3.33 3.33 0 0 0 .337-.02l.352-.047v-1.782l-.352-.062c-.135-.023-.27-.034-.404-.034l-.412.02" fill="url(#B)"/></g><g clip-path="url(#W)"><path d="M1632.673 412.04v-9.64c.17-.063.36-.12.567-.17a6.86 6.86 0 0 1 .649-.121l.668-.075.628-.026c.62 0 1.18.088 1.675.262s.912.426 1.254.75a3.19 3.19 0 0 1 .783 1.182 4.29 4.29 0 0 1 .271 1.572c0 .604-.073 1.126-.216 1.567s-.343.807-.595 1.1-.55.5-.897.655-.723.215-1.128.215-.765-.078-1.08-.236-.54-.357-.675-.6v3.564a5.82 5.82 0 0 1-.959.081c-.305 0-.62-.027-.945-.08m2.25-8.426c-.122.01-.237.032-.345.067v2.54c0 .513.115.9.345 1.127s.523.358.884.358c.495 0 .845-.168 1.054-.506s.3-.83.3-1.478c0-.73-.167-1.265-.5-1.607s-.792-.514-1.377-.514l-.37.014" fill="url(#B)"/></g><g clip-path="url(#X)"><path d="M1641.922 409.217a7.07 7.07 0 0 1-1.188-.297c0-.288.032-.535.095-.74a3.63 3.63 0 0 1 .283-.663c.55.19 1.067.284 1.553.284.225 0 .43-.013.614-.04a1.26 1.26 0 0 0 .466-.154.82.82 0 0 0 .297-.318c.073-.135.11-.31.11-.527v-.162l-.865.04c-.36 0-.72-.038-1.08-.113s-.686-.204-.98-.378a2.15 2.15 0 0 1-.714-.703c-.185-.293-.277-.656-.277-1.087s.073-.797.222-1.094.36-.54.634-.73.604-.324.986-.405.804-.12 1.263-.12a7.82 7.82 0 0 1 1.526.134l1.148.284v4.05c0 .99-.264 1.71-.79 2.162s-1.257.674-2.194.674c-.342 0-.71-.03-1.107-.095m1.06-5.705a1.49 1.49 0 0 0-.445.109.88.88 0 0 0-.358.277c-.1.126-.15.305-.15.54 0 .35.128.604.385.763s.605.236 1.047.236c.098 0 .21-.007.337-.02l.352-.047v-1.782l-.352-.062c-.135-.023-.27-.034-.404-.034l-.413.02" fill="url(#B)"/></g><g clip-path="url(#Y)"><path d="M1647.66 412.04v-7.508c0-.864.2-1.488.628-1.87s.975-.573 1.668-.573l.56.026a2.5 2.5 0 0 1 .52.095.82.82 0 0 1 .027.196v.196c0 .35-.05.7-.15 1.08a2.19 2.19 0 0 0-.249-.04l-.236-.013c-.162 0-.297.018-.406.053a.52.52 0 0 0-.264.197c-.067.094-.117.226-.148.398s-.047.396-.047.675v7.09c-.324.054-.64.08-.945.08a5.84 5.84 0 0 1-.959-.081" fill="url(#B)"/></g><g clip-path="url(#Z)"><path d="M1652.534 412.094a3.98 3.98 0 0 1-.472-.054v-9.884c.162-.027.322-.045.48-.054l.466-.013.472.013a4.45 4.45 0 0 1 .487.054v3.673c0 .378.042.684.128.918a1.48 1.48 0 0 0 .324.547c.13.13.277.218.44.262a1.72 1.72 0 0 0 .472.068c.37 0 .63-.13.783-.39s.23-.635.23-1.12v-3.956a4.46 4.46 0 0 1 .486-.054l.473-.013.472.013a4.45 4.45 0 0 1 .487.054v4.468c0 .928-.2 1.608-.602 2.04s-.987.648-1.762.648c-.28 0-.526-.036-.742-.108a2.23 2.23 0 0 1-.554-.263c-.152-.103-.28-.21-.384-.324l-.25-.3v3.713a4.45 4.45 0 0 1-.487.054l-.472.013a9.63 9.63 0 0 1-.473-.013" fill="url(#B)"/></g><g clip-path="url(#a)"><path d="M1661.48 409.03c-.418-.2-.765-.448-1.04-.776s-.482-.72-.62-1.17-.2-.93-.2-1.445.07-1 .2-1.43.346-.826.62-1.156.62-.585 1.04-.77.912-.276 1.48-.276 1.062.09 1.484.276a2.86 2.86 0 0 1 1.054.769c.28.33.487.714.62 1.156a4.86 4.86 0 0 1 .202 1.43c0 .514-.067.995-.202 1.445s-.34.84-.62 1.17-.63.586-1.054.776-.917.283-1.484.283-1.06-.095-1.48-.283m.405-5.003c-.22.373-.33.91-.33 1.613s.11 1.24.33 1.614.58.56 1.074.56c.504 0 .866-.186 1.087-.56s.33-.91.33-1.614-.1-1.24-.33-1.613-.583-.56-1.087-.56c-.495 0-.853.187-1.074.56" fill="url(#B)"/></g><text transform="matrix(1 0 0 -1 1594.2329 415.1699)" font-weight="bold" font-size="13.502" font-family="Aller" writing-mode="lr-tb" fill="#fdfdfd"><tspan x="0 6.44 11.87 16.014 23.98 31.704 39.63 46.678 51.053 54.023 61.45 69.173 77.153 84.74 90.17 94.314 102.146 107.574" y="0">Tribunal Superior </tspan><tspan y="13.003" x="0 7.94 15.77 18.74 25.18 30.474 37.522 45.488 52.536 56.91 64.824">do Trabalho</tspan></text></g></svg>