<svg xmlns="http://www.w3.org/2000/svg" height="53.025" width="186.414" viewBox="0 0 186.414 53.025"><defs><clipPath id="A"><path d="M997.9 424.877a4.26 4.26 0 0 1-.081-.822c0-.298.028-.582.08-.853h2.417v-8.032c.18-.028.358-.045.533-.055l.493-.012.473.018.486.05v8.032h2.416a4.28 4.28 0 0 1 .081.853c0 .278-.026.552-.08.822z"/></clipPath><linearGradient id="B" spreadMethod="pad" gradientUnits="userSpaceOnUse" y2="426.855" x2="1055.796" y1="398.807" x1="1055.796"><stop offset="0" stop-color="#004269"/><stop offset="1" stop-color="#0069a3"/></linearGradient><clipPath id="C"><path d="M1007.38 421.9c-.288-.22-.53-.47-.73-.75l-.032.236-.05.284-.06.27c-.023.084-.047.15-.074.195l-.385.066c-.13.02-.264.028-.4.028-.144 0-.276-.007-.398-.02l-.385-.06v-6.994c.17-.027.335-.045.493-.053l.466-.014.473.014a4.18 4.18 0 0 1 .485.053v3.322c0 .486.057.863.17 1.134s.255.473.426.608a1.18 1.18 0 0 0 .54.249 3.07 3.07 0 0 0 .513.047h.222a1.76 1.76 0 0 0 .331-.027 3.53 3.53 0 0 1 .074.514l.02.498-.014.366-.04.3c-.054.018-.14.032-.257.04l-.3.013c-.433 0-.792-.1-1.08-.33"/></clipPath><clipPath id="D"><path d="M1010.884 425.195l-.494-.06a5.49 5.49 0 0 1-.081-.906 5.29 5.29 0 0 1 .081-.904c.154-.027.32-.045.5-.054l.486-.014.493.014a4.02 4.02 0 0 1 .493.054 4.22 4.22 0 0 1 .054.459l.014.445-.014.452a4.52 4.52 0 0 1-.054.454l-.5.06-.5.02a6.01 6.01 0 0 1-.478-.021m-1.115-3.045c-.054-.235-.08-.472-.08-.716a4.49 4.49 0 0 1 .021-.371c.013-.13.033-.254.06-.37h.905v-5.522c.324-.055.634-.08.93-.08a5.63 5.63 0 0 1 .945.081v6.98z"/></clipPath><clipPath id="E"><path d="M1014.414 425.04v-9.64c.17-.064.36-.12.567-.17l.65-.12.668-.075.628-.026c.62 0 1.18.087 1.674.262s.914.427 1.256.75a3.17 3.17 0 0 1 .783 1.181c.18.463.27.987.27 1.573 0 .603-.073 1.125-.216 1.565s-.343.808-.595 1.1-.55.51-.898.655-.722.216-1.128.216-.764-.08-1.08-.236-.54-.358-.674-.6v3.564c-.325.054-.644.082-.96.082a5.75 5.75 0 0 1-.945-.082m2.25-8.425a1.41 1.41 0 0 0-.344.067v2.54c0 .512.114.888.344 1.127s.523.358.884.358c.495 0 .845-.17 1.053-.507s.31-.83.31-1.48c0-.73-.167-1.264-.5-1.606s-.792-.514-1.377-.514l-.37.014"/></clipPath><clipPath id="F"><path d="M1026.485 422.15v-5.47c-.224-.062-.504-.094-.837-.094a2.04 2.04 0 0 0-.634.088.98.98 0 0 0-.452.298c-.123.138-.213.327-.27.566s-.087.542-.087.912v3.7a5.95 5.95 0 0 1-.959.081 5.95 5.95 0 0 1-.959-.081v-3.754c0-.746.095-1.345.284-1.796s.443-.792.763-1.025a2.59 2.59 0 0 1 1.114-.46c.423-.07.864-.107 1.323-.107.513 0 1.006.047 1.478.14s.853.192 1.14.3v6.71a5.93 5.93 0 0 1-.958.081 5.87 5.87 0 0 1-.946-.081"/></clipPath><clipPath id="G"><path d="M1033.236 422.21a2.45 2.45 0 0 1-.56-.263 2.32 2.32 0 0 1-.439-.366c-.126-.134-.234-.27-.324-.404l-.033.23-.048.276-.06.27c-.023.085-.047.15-.075.195l-.364.06c-.118.013-.253.02-.406.02s-.292-.007-.418-.02l-.378-.06v-6.98a5.71 5.71 0 0 1 .958-.081c.315 0 .636.026.96.08v3.658c0 .378.04.684.12.918s.188.417.318.548.276.218.438.262.32.07.473.07c.37 0 .628-.132.777-.392s.222-.635.222-1.12v-3.942a5.73 5.73 0 0 1 .959-.081 5.75 5.75 0 0 1 .96.081v4.455c0 .928-.202 1.607-.602 2.038s-.998.65-1.8.65c-.252 0-.48-.034-.688-.1"/></clipPath><clipPath id="H"><path d="M1039.313 422.218a7.28 7.28 0 0 1-1.189-.297c0-.288.03-.537.094-.743a3.66 3.66 0 0 1 .284-.662c.55.2 1.067.283 1.552.283.226 0 .43-.012.616-.04a1.25 1.25 0 0 0 .465-.156c.125-.077.225-.182.297-.318a1.11 1.11 0 0 0 .108-.525v-.163l-.865.04a5.16 5.16 0 0 1-1.08-.114 3.2 3.2 0 0 1-.978-.378c-.292-.175-.53-.4-.715-.702s-.277-.655-.277-1.087.074-.797.223-1.094.36-.54.634-.73a2.71 2.71 0 0 1 .986-.405c.383-.08.803-.12 1.262-.12.566 0 1.076.044 1.526.134l1.147.284v4.05c0 .99-.262 1.7-.79 2.16s-1.258.675-2.194.675a7.05 7.05 0 0 1-1.107-.094m1.06-5.705c-.157.013-.306.05-.445.108a.87.87 0 0 0-.358.277c-.1.126-.148.306-.148.54 0 .35.128.605.385.763s.604.236 1.046.236c.098 0 .21-.006.337-.02l.35-.047v-1.783l-.35-.06c-.135-.022-.27-.033-.405-.033l-.412.02"/></clipPath><clipPath id="I"><path d="M1045.05 425.04v-7.507c0-.864.21-1.487.627-1.87s.974-.573 1.667-.573l.56.026c.203.02.376.05.52.095.018.072.027.137.027.196v.195a4.15 4.15 0 0 1-.148 1.08c-.08-.017-.164-.03-.25-.04l-.235-.014c-.163 0-.297.017-.406.053s-.196.102-.263.196-.117.227-.15.4-.047.396-.047.675v7.088a5.74 5.74 0 0 1-.945.082 5.83 5.83 0 0 1-.958-.082"/></clipPath><clipPath id="J"><path d="M1054.178 424.858c-.405-.122-.75-.303-1.04-.54s-.51-.534-.67-.884-.237-.757-.237-1.216c0-.378.048-.703.143-.972s.226-.502.397-.696.38-.36.62-.5a5.93 5.93 0 0 1 .825-.386l.823-.3.473-.196a1.85 1.85 0 0 0 .412-.25c.12-.1.22-.22.297-.364s.115-.323.115-.54c0-.432-.162-.754-.487-.965s-.77-.317-1.336-.317a4.73 4.73 0 0 0-1.067.114c-.333.077-.688.192-1.067.344l-.256-.857c-.072-.283-.122-.556-.148-.817l.647-.23.628-.156a6.38 6.38 0 0 1 .669-.087l.796-.026c.603 0 1.137.076 1.6.23s.853.364 1.168.635a2.7 2.7 0 0 1 .723.971c.166.378.25.798.25 1.256 0 .44-.054.813-.162 1.115a2.26 2.26 0 0 1-.452.769c-.194.21-.43.39-.71.533s-.59.283-.932.42l-.8.31-.405.168a1.66 1.66 0 0 0-.364.216c-.108.086-.194.19-.257.312s-.094.27-.094.45c0 .224.04.407.12.548s.184.244.31.316.268.122.425.15a2.65 2.65 0 0 0 .466.04l.675-.033c.198-.022.376-.052.533-.088a3.23 3.23 0 0 0 .446-.135l.412-.162a4.84 4.84 0 0 1 .432 1.539 9.65 9.65 0 0 1-1.263.351c-.4.08-.83.12-1.29.12-.504 0-.96-.06-1.364-.18"/></clipPath><clipPath id="K"><path d="M1063.953 422.15v-5.47c-.224-.062-.504-.094-.837-.094-.243 0-.455.03-.635.088s-.33.158-.45.298-.213.327-.27.566-.087.542-.087.912v3.7a5.96 5.96 0 0 1-.959.081 5.93 5.93 0 0 1-.959-.081v-3.754c0-.746.095-1.345.284-1.796s.443-.792.763-1.025.7-.388 1.113-.46a7.99 7.99 0 0 1 1.323-.107c.514 0 1.006.047 1.48.14s.853.192 1.14.3v6.71a5.93 5.93 0 0 1-.959.081c-.305 0-.62-.028-.945-.08"/></clipPath><clipPath id="L"><path d="M1070.623 422.21c-.207-.068-.393-.156-.56-.263a1.94 1.94 0 0 1-.425-.372 2.82 2.82 0 0 1-.297-.425l-.034.236-.053.29-.067.277c-.023.085-.048.15-.075.195a3.87 3.87 0 0 1-.77.081 6.24 6.24 0 0 1-.411-.013 2.9 2.9 0 0 1-.372-.054V411.97l.493-.054.466-.014.465.014c.158.01.322.027.493.054v3.105a3.84 3.84 0 0 1 .372-.047 4.82 4.82 0 0 1 .452-.02c.595 0 1.126.087 1.594.262s.864.427 1.188.75a3.22 3.22 0 0 1 .742 1.181c.17.463.257.987.257 1.573 0 .603-.07 1.125-.2 1.565s-.335.808-.587 1.1a2.39 2.39 0 0 1-.884.655c-.338.144-.7.216-1.088.216-.252 0-.48-.034-.688-.1m-1.148-5.556v2.376c0 .225.023.436.068.634s.117.372.216.52.228.265.384.35.35.127.574.127c.244 0 .448-.05.615-.148s.303-.234.412-.405.185-.376.23-.614.067-.498.067-.777c0-.73-.148-1.273-.445-1.633s-.725-.54-1.284-.54a2.95 2.95 0 0 0-.837.108"/></clipPath><clipPath id="M"><path d="M1077.125 422.023a3.06 3.06 0 0 1-1.054-.791 3.36 3.36 0 0 1-.64-1.175c-.145-.45-.217-.932-.217-1.445a4.78 4.78 0 0 1 .209-1.444c.14-.442.356-.822.648-1.14s.67-.57 1.135-.75 1.02-.27 1.667-.27c.882 0 1.675.134 2.377.405a3.31 3.31 0 0 1-.122.809 3.17 3.17 0 0 1-.256.649c-.29-.11-.593-.192-.913-.25s-.63-.088-.937-.088c-.558 0-1.008.122-1.35.365s-.53.634-.567 1.174h4.482a3.89 3.89 0 0 1 .047.398l.02.507a4.19 4.19 0 0 1-.202 1.317c-.134.41-.335.762-.6 1.06s-.587.532-.965.702-.8.257-1.296.257c-.56 0-1.047-.097-1.465-.29m.41-1.547c.235.252.577.378 1.027.378.396 0 .703-.133.924-.398s.34-.614.36-1.047h-2.728c.045.46.185.814.418 1.067"/></clipPath><clipPath id="N"><path d="M1085.68 421.9a3.47 3.47 0 0 1-.73-.749l-.033.236-.048.284-.06.27a.77.77 0 0 1-.075.195l-.384.066c-.132.02-.264.028-.4.028-.145 0-.276-.007-.4-.02l-.384-.06v-6.994c.17-.027.335-.045.493-.053l.466-.014.473.014a4.18 4.18 0 0 1 .485.053v3.322c0 .486.057.863.17 1.134s.255.473.426.608a1.18 1.18 0 0 0 .54.249 3.07 3.07 0 0 0 .512.047h.223c.122 0 .233-.008.332-.027.035.162.06.333.073.514l.02.498-.014.366-.04.3c-.055.018-.14.032-.257.04l-.3.013c-.433 0-.792-.1-1.08-.33"/></clipPath><clipPath id="O"><path d="M1089.183 425.195l-.494-.06a5.38 5.38 0 0 1-.08-.906 5.19 5.19 0 0 1 .08-.904c.153-.027.32-.045.5-.054l.487-.014.493.014a4.04 4.04 0 0 1 .493.054c.027.153.045.306.053.46l.015.445-.015.452c-.01.15-.026.3-.053.454l-.5.06-.5.02a6.01 6.01 0 0 1-.478-.021m-1.115-3.045c-.053-.235-.08-.472-.08-.716a4.49 4.49 0 0 1 .021-.371c.013-.13.033-.254.06-.37h.905v-5.522c.324-.055.634-.08.93-.08a5.63 5.63 0 0 1 .945.081v6.98z"/></clipPath><clipPath id="P"><path d="M1094.22 422.03a2.87 2.87 0 0 1-1.04-.776c-.275-.33-.482-.72-.62-1.168s-.21-.932-.21-1.446a4.71 4.71 0 0 1 .209-1.431c.14-.44.346-.826.62-1.154a2.8 2.8 0 0 1 1.04-.77c.418-.184.91-.276 1.478-.276s1.062.092 1.485.276.774.44 1.053.77.487.713.622 1.154.2.918.2 1.43-.067.996-.2 1.446-.342.84-.622 1.168-.63.587-1.053.776-.918.283-1.485.283-1.06-.094-1.478-.283m.404-5.003c-.22.373-.33.91-.33 1.613s.1 1.24.33 1.613.58.56 1.074.56c.504 0 .867-.186 1.087-.56s.33-.91.33-1.613-.1-1.24-.33-1.613-.583-.56-1.087-.56c-.495 0-.853.186-1.074.56"/></clipPath><clipPath id="Q"><path d="M1103.082 421.9c-.288-.22-.532-.47-.73-.75l-.034.236-.047.284-.06.27c-.023.084-.048.15-.076.195l-.384.066a2.75 2.75 0 0 1-.398.028 3.74 3.74 0 0 1-.398-.02l-.385-.06v-6.994c.17-.027.335-.045.493-.053l.465-.014.473.014a4.22 4.22 0 0 1 .486.053v3.322c0 .486.056.863.17 1.134s.254.473.425.608.35.218.54.25a3.09 3.09 0 0 0 .513.047h.224a1.79 1.79 0 0 0 .331-.027c.035.162.06.333.073.514l.02.498-.012.366-.042.3c-.053.018-.14.032-.256.04l-.31.013c-.432 0-.792-.1-1.08-.33"/></clipPath><clipPath id="R"><path d="M1003.092 412.094a4.53 4.53 0 0 1-.479-.054v-2.862a2.6 2.6 0 0 1-.505.087l-.507.02c-.54 0-1.03-.096-1.472-.3a3.36 3.36 0 0 1-1.127-.79c-.31-.333-.55-.726-.716-1.182a4.17 4.17 0 0 1-.25-1.451c0-.65.096-1.198.3-1.648s.457-.816.8-1.1.718-.5 1.155-.62a4.77 4.77 0 0 1 1.37-.195c.622 0 1.15.033 1.586.1a9.83 9.83 0 0 1 1.291.29v9.64c-.163.027-.325.045-.487.054l-.473.013c-.152 0-.308-.005-.466-.013m-2.017-8.405c-.216.066-.404.177-.56.33a1.54 1.54 0 0 0-.371.615c-.1.256-.135.568-.135.938 0 .296.033.583.1.857s.173.513.317.717a1.65 1.65 0 0 0 .547.486c.22.12.48.18.776.18l.426-.02a3.65 3.65 0 0 0 .438-.088v-4a2.45 2.45 0 0 0-.418-.088 3.85 3.85 0 0 0-.419-.019c-.252 0-.486.033-.7.1"/></clipPath><clipPath id="S"><path d="M1007.846 409.03a2.89 2.89 0 0 1-1.04-.776c-.275-.33-.482-.72-.62-1.17s-.21-.93-.21-1.445a4.7 4.7 0 0 1 .209-1.43c.14-.442.346-.826.62-1.156s.62-.585 1.04-.77.91-.276 1.478-.276 1.063.09 1.486.276.774.442 1.052.77a3.21 3.21 0 0 1 .622 1.156 4.86 4.86 0 0 1 .202 1.43c0 .514-.067.995-.202 1.445s-.342.84-.622 1.17-.63.586-1.052.776-.918.283-1.486.283-1.06-.095-1.478-.283m.405-5.003c-.22.373-.33.91-.33 1.613s.11 1.24.33 1.614.578.56 1.073.56c.504 0 .867-.186 1.087-.56s.33-.91.33-1.614-.1-1.24-.33-1.613-.583-.56-1.087-.56c-.495 0-.852.187-1.073.56"/></clipPath><clipPath id="T"><path d="M1016.642 411.878a4.21 4.21 0 0 1-.081-.824c0-.298.027-.58.08-.85h2.416v-8.034l.534-.054.493-.013.473.02.486.047v8.034h2.417a4.41 4.41 0 0 1 .081.851c0 .278-.028.553-.08.824z"/></clipPath><clipPath id="U"><path d="M1026.12 408.9c-.288-.222-.53-.47-.728-.75l-.035.237-.046.283-.06.27c-.023.085-.048.15-.075.195l-.385.068a2.74 2.74 0 0 1-.397.027 3.5 3.5 0 0 1-.399-.02l-.384-.06v-6.994l.492-.054.465-.013.473.013c.162.01.325.027.487.054v3.32c0 .487.055.865.168 1.135s.255.472.425.607.352.218.54.25.36.046.514.046h.223a1.86 1.86 0 0 0 .33-.027 3.68 3.68 0 0 1 .075.513l.02.5-.013.365-.04.31a1.26 1.26 0 0 1-.257.039l-.3.014c-.432 0-.792-.1-1.08-.33"/></clipPath><clipPath id="V"><path d="M1030.157 409.217a7.06 7.06 0 0 1-1.187-.297c0-.288.03-.535.094-.74s.158-.43.284-.663c.548.19 1.066.284 1.553.284.224 0 .43-.013.613-.04a1.26 1.26 0 0 0 .466-.154.82.82 0 0 0 .297-.318c.072-.135.108-.31.108-.527v-.162l-.864.04c-.36 0-.72-.038-1.08-.113a3.25 3.25 0 0 1-.979-.378c-.292-.177-.532-.41-.715-.703s-.277-.656-.277-1.087.074-.797.223-1.094.36-.54.634-.73.603-.324.986-.405.803-.12 1.262-.12c.567 0 1.076.044 1.527.134l1.147.284v4.05c0 .99-.263 1.71-.8 2.162s-1.258.674-2.194.674a6.98 6.98 0 0 1-1.108-.095m1.06-5.705c-.157.014-.306.05-.444.11s-.26.15-.36.277-.148.305-.148.54c0 .35.128.604.384.763s.606.236 1.047.236a3.33 3.33 0 0 0 .337-.02l.35-.047v-1.782l-.35-.062c-.135-.023-.27-.034-.404-.034l-.413.02"/></clipPath><clipPath id="W"><path d="M1035.922 412.04v-9.64c.172-.063.36-.12.568-.17a6.9 6.9 0 0 1 .648-.121l.668-.075.628-.026c.62 0 1.18.088 1.675.262s.914.426 1.255.75.604.718.784 1.182.27.987.27 1.572c0 .604-.072 1.126-.216 1.567s-.343.807-.594 1.1a2.39 2.39 0 0 1-.898.655 2.93 2.93 0 0 1-1.128.215c-.404 0-.764-.078-1.08-.236s-.54-.357-.675-.6v3.564a5.83 5.83 0 0 1-.959.081c-.306 0-.62-.027-.946-.08m2.25-8.426c-.122.01-.236.032-.345.067v2.54c0 .513.114.9.345 1.127s.523.358.883.358c.495 0 .846-.168 1.054-.506s.31-.83.31-1.478c0-.73-.167-1.265-.5-1.607s-.792-.514-1.377-.514l-.37.014"/></clipPath><clipPath id="X"><path d="M1045.172 409.217a7.06 7.06 0 0 1-1.187-.297 2.52 2.52 0 0 1 .094-.741 3.57 3.57 0 0 1 .284-.663c.548.19 1.065.284 1.552.284a4.13 4.13 0 0 0 .614-.041 1.26 1.26 0 0 0 .466-.154c.126-.078.224-.183.297-.318s.108-.31.108-.527v-.162l-.864.04c-.36 0-.72-.038-1.08-.113s-.687-.204-.98-.378-.53-.41-.715-.703-.277-.656-.277-1.087.075-.797.223-1.094.36-.54.635-.73.603-.324.986-.405.803-.12 1.262-.12c.567 0 1.076.044 1.527.134l1.146.284v4.05c0 .99-.263 1.71-.79 2.162s-1.258.674-2.194.674a6.98 6.98 0 0 1-1.108-.095m1.06-5.705a1.49 1.49 0 0 0-.445.109c-.14.06-.26.15-.36.277s-.148.305-.148.54c0 .35.128.604.385.763s.606.236 1.047.236a3.33 3.33 0 0 0 .337-.02l.35-.047v-1.782l-.35-.062c-.135-.023-.27-.034-.405-.034l-.412.02"/></clipPath><clipPath id="Y"><path d="M1050.9 412.04v-7.508c0-.864.2-1.488.628-1.87s.975-.573 1.668-.573l.56.026c.2.018.374.05.52.095a.82.82 0 0 1 .027.196v.196c0 .35-.05.7-.15 1.08a2.19 2.19 0 0 0-.249-.04l-.236-.013a1.33 1.33 0 0 0-.405.053c-.11.036-.197.102-.264.197s-.117.226-.15.398a3.94 3.94 0 0 0-.046.675v7.09c-.324.054-.64.08-.946.08a5.83 5.83 0 0 1-.959-.081"/></clipPath><clipPath id="Z"><path d="M1055.785 412.094c-.163-.01-.32-.027-.474-.054v-9.884a4.46 4.46 0 0 1 .48-.054l.466-.013.473.013a4.46 4.46 0 0 1 .486.054v3.673c0 .378.043.684.127.918s.194.416.325.547.277.218.44.262.32.068.472.068c.37 0 .63-.13.783-.39s.23-.635.23-1.12v-3.956a4.46 4.46 0 0 1 .486-.054l.473-.013.472.013c.162.01.324.027.487.054v4.468c0 .928-.2 1.608-.602 2.04s-.987.648-1.762.648c-.28 0-.526-.036-.742-.108a2.22 2.22 0 0 1-.553-.263c-.154-.103-.282-.21-.385-.324l-.25-.3v3.713a4.46 4.46 0 0 1-.486.054l-.473.013c-.154 0-.3-.005-.472-.013"/></clipPath><clipPath id="a"><path d="M1064.73 409.03c-.42-.2-.766-.448-1.04-.776s-.48-.72-.62-1.17-.21-.93-.21-1.445a4.73 4.73 0 0 1 .209-1.43c.14-.442.347-.826.62-1.156s.62-.585 1.04-.77.9-.276 1.478-.276 1.06.09 1.484.276.774.442 1.054.77.486.714.62 1.156a4.86 4.86 0 0 1 .202 1.43c0 .514-.067.995-.202 1.445s-.342.84-.62 1.17-.63.586-1.054.776-.918.283-1.484.283-1.06-.095-1.478-.283m.404-5.003c-.22.373-.33.91-.33 1.613s.1 1.24.33 1.614.578.56 1.074.56c.504 0 .866-.186 1.087-.56s.33-.91.33-1.614-.11-1.24-.33-1.613-.583-.56-1.087-.56c-.496 0-.854.187-1.074.56"/></clipPath></defs><g transform="matrix(1.333333 0 0 -1.333333 -1286.9944 576.26919)"><g fill="#010101"><path d="M980.13 424.745a3.73 3.73 0 0 1 3.729 3.729 3.73 3.73 0 0 1-3.729 3.728 3.73 3.73 0 0 1-3.729-3.728 3.73 3.73 0 0 1 3.729-3.729m-7.427-1.242h-4.972v-4.97h4.972c.17 0 .34-.01.508-.026 2.507-.254 4.463-2.372 4.463-4.946v-12.428h4.97v12.428c0 5.5-4.45 9.943-9.942 9.943m-7.455-12.43h9.94v4.97h-9.94zm17.4 7.457h9.942v4.97h-9.942z"/><path d="M970.217 402.374a4.97 4.97 0 0 0-4.463-4.944c-.167-.018-.337-.027-.508-.027v-4.97c5.492 0 9.943 4.45 9.943 9.94v6.215h-4.972z"/></g><g clip-path="url(#A)"><path d="M997.9 424.877a4.26 4.26 0 0 1-.081-.822c0-.298.028-.582.08-.853h2.417v-8.032c.18-.028.358-.045.533-.055l.493-.012.473.018.486.05v8.032h2.416a4.28 4.28 0 0 1 .081.853c0 .278-.026.552-.08.822z" fill="url(#B)"/></g><g clip-path="url(#C)"><path d="M1007.38 421.9c-.288-.22-.53-.47-.73-.75l-.032.236-.05.284-.06.27c-.023.084-.047.15-.074.195l-.385.066c-.13.02-.264.028-.4.028-.144 0-.276-.007-.398-.02l-.385-.06v-6.994c.17-.027.335-.045.493-.053l.466-.014.473.014a4.18 4.18 0 0 1 .485.053v3.322c0 .486.057.863.17 1.134s.255.473.426.608a1.18 1.18 0 0 0 .54.249 3.07 3.07 0 0 0 .513.047h.222a1.76 1.76 0 0 0 .331-.027 3.53 3.53 0 0 1 .074.514l.02.498-.014.366-.04.3c-.054.018-.14.032-.257.04l-.3.013c-.433 0-.792-.1-1.08-.33" fill="url(#B)"/></g><g clip-path="url(#D)"><path d="M1010.884 425.195l-.494-.06a5.49 5.49 0 0 1-.081-.906 5.29 5.29 0 0 1 .081-.904c.154-.027.32-.045.5-.054l.486-.014.493.014a4.02 4.02 0 0 1 .493.054 4.22 4.22 0 0 1 .054.459l.014.445-.014.452a4.52 4.52 0 0 1-.054.454l-.5.06-.5.02a6.01 6.01 0 0 1-.478-.021m-1.115-3.045c-.054-.235-.08-.472-.08-.716a4.49 4.49 0 0 1 .021-.371c.013-.13.033-.254.06-.37h.905v-5.522c.324-.055.634-.08.93-.08a5.63 5.63 0 0 1 .945.081v6.98z" fill="url(#B)"/></g><g clip-path="url(#E)"><path d="M1014.414 425.04v-9.64c.17-.064.36-.12.567-.17l.65-.12.668-.075.628-.026c.62 0 1.18.087 1.674.262s.914.427 1.256.75a3.17 3.17 0 0 1 .783 1.181c.18.463.27.987.27 1.573 0 .603-.073 1.125-.216 1.565s-.343.808-.595 1.1-.55.51-.898.655-.722.216-1.128.216-.764-.08-1.08-.236-.54-.358-.674-.6v3.564c-.325.054-.644.082-.96.082a5.75 5.75 0 0 1-.945-.082m2.25-8.425a1.41 1.41 0 0 0-.344.067v2.54c0 .512.114.888.344 1.127s.523.358.884.358c.495 0 .845-.17 1.053-.507s.31-.83.31-1.48c0-.73-.167-1.264-.5-1.606s-.792-.514-1.377-.514l-.37.014" fill="url(#B)"/></g><g clip-path="url(#F)"><path d="M1026.485 422.15v-5.47c-.224-.062-.504-.094-.837-.094a2.04 2.04 0 0 0-.634.088.98.98 0 0 0-.452.298c-.123.138-.213.327-.27.566s-.087.542-.087.912v3.7a5.95 5.95 0 0 1-.959.081 5.95 5.95 0 0 1-.959-.081v-3.754c0-.746.095-1.345.284-1.796s.443-.792.763-1.025a2.59 2.59 0 0 1 1.114-.46c.423-.07.864-.107 1.323-.107.513 0 1.006.047 1.478.14s.853.192 1.14.3v6.71a5.93 5.93 0 0 1-.958.081 5.87 5.87 0 0 1-.946-.081" fill="url(#B)"/></g><g clip-path="url(#G)"><path d="M1033.236 422.21a2.45 2.45 0 0 1-.56-.263 2.32 2.32 0 0 1-.439-.366c-.126-.134-.234-.27-.324-.404l-.033.23-.048.276-.06.27c-.023.085-.047.15-.075.195l-.364.06c-.118.013-.253.02-.406.02s-.292-.007-.418-.02l-.378-.06v-6.98a5.71 5.71 0 0 1 .958-.081c.315 0 .636.026.96.08v3.658c0 .378.04.684.12.918s.188.417.318.548.276.218.438.262.32.07.473.07c.37 0 .628-.132.777-.392s.222-.635.222-1.12v-3.942a5.73 5.73 0 0 1 .959-.081 5.75 5.75 0 0 1 .96.081v4.455c0 .928-.202 1.607-.602 2.038s-.998.65-1.8.65c-.252 0-.48-.034-.688-.1" fill="url(#B)"/></g><g clip-path="url(#H)"><path d="M1039.313 422.218a7.28 7.28 0 0 1-1.189-.297c0-.288.03-.537.094-.743a3.66 3.66 0 0 1 .284-.662c.55.2 1.067.283 1.552.283.226 0 .43-.012.616-.04a1.25 1.25 0 0 0 .465-.156c.125-.077.225-.182.297-.318a1.11 1.11 0 0 0 .108-.525v-.163l-.865.04a5.16 5.16 0 0 1-1.08-.114 3.2 3.2 0 0 1-.978-.378c-.292-.175-.53-.4-.715-.702s-.277-.655-.277-1.087.074-.797.223-1.094.36-.54.634-.73a2.71 2.71 0 0 1 .986-.405c.383-.08.803-.12 1.262-.12.566 0 1.076.044 1.526.134l1.147.284v4.05c0 .99-.262 1.7-.79 2.16s-1.258.675-2.194.675a7.05 7.05 0 0 1-1.107-.094m1.06-5.705c-.157.013-.306.05-.445.108a.87.87 0 0 0-.358.277c-.1.126-.148.306-.148.54 0 .35.128.605.385.763s.604.236 1.046.236c.098 0 .21-.006.337-.02l.35-.047v-1.783l-.35-.06c-.135-.022-.27-.033-.405-.033l-.412.02" fill="url(#B)"/></g><g clip-path="url(#I)"><path d="M1045.05 425.04v-7.507c0-.864.21-1.487.627-1.87s.974-.573 1.667-.573l.56.026c.203.02.376.05.52.095.018.072.027.137.027.196v.195a4.15 4.15 0 0 1-.148 1.08c-.08-.017-.164-.03-.25-.04l-.235-.014c-.163 0-.297.017-.406.053s-.196.102-.263.196-.117.227-.15.4-.047.396-.047.675v7.088a5.74 5.74 0 0 1-.945.082 5.83 5.83 0 0 1-.958-.082" fill="url(#B)"/></g><g clip-path="url(#J)"><path d="M1054.178 424.858c-.405-.122-.75-.303-1.04-.54s-.51-.534-.67-.884-.237-.757-.237-1.216c0-.378.048-.703.143-.972s.226-.502.397-.696.38-.36.62-.5a5.93 5.93 0 0 1 .825-.386l.823-.3.473-.196a1.85 1.85 0 0 0 .412-.25c.12-.1.22-.22.297-.364s.115-.323.115-.54c0-.432-.162-.754-.487-.965s-.77-.317-1.336-.317a4.73 4.73 0 0 0-1.067.114c-.333.077-.688.192-1.067.344l-.256-.857c-.072-.283-.122-.556-.148-.817l.647-.23.628-.156a6.38 6.38 0 0 1 .669-.087l.796-.026c.603 0 1.137.076 1.6.23s.853.364 1.168.635a2.7 2.7 0 0 1 .723.971c.166.378.25.798.25 1.256 0 .44-.054.813-.162 1.115a2.26 2.26 0 0 1-.452.769c-.194.21-.43.39-.71.533s-.59.283-.932.42l-.8.31-.405.168a1.66 1.66 0 0 0-.364.216c-.108.086-.194.19-.257.312s-.094.27-.094.45c0 .224.04.407.12.548s.184.244.31.316.268.122.425.15a2.65 2.65 0 0 0 .466.04l.675-.033c.198-.022.376-.052.533-.088a3.23 3.23 0 0 0 .446-.135l.412-.162a4.84 4.84 0 0 1 .432 1.539 9.65 9.65 0 0 1-1.263.351c-.4.08-.83.12-1.29.12-.504 0-.96-.06-1.364-.18" fill="url(#B)"/></g><g clip-path="url(#K)"><path d="M1063.953 422.15v-5.47c-.224-.062-.504-.094-.837-.094-.243 0-.455.03-.635.088s-.33.158-.45.298-.213.327-.27.566-.087.542-.087.912v3.7a5.96 5.96 0 0 1-.959.081 5.93 5.93 0 0 1-.959-.081v-3.754c0-.746.095-1.345.284-1.796s.443-.792.763-1.025.7-.388 1.113-.46a7.99 7.99 0 0 1 1.323-.107c.514 0 1.006.047 1.48.14s.853.192 1.14.3v6.71a5.93 5.93 0 0 1-.959.081c-.305 0-.62-.028-.945-.08" fill="url(#B)"/></g><g clip-path="url(#L)"><path d="M1070.623 422.21c-.207-.068-.393-.156-.56-.263a1.94 1.94 0 0 1-.425-.372 2.82 2.82 0 0 1-.297-.425l-.034.236-.053.29-.067.277c-.023.085-.048.15-.075.195a3.87 3.87 0 0 1-.77.081 6.24 6.24 0 0 1-.411-.013 2.9 2.9 0 0 1-.372-.054V411.97l.493-.054.466-.014.465.014c.158.01.322.027.493.054v3.105a3.84 3.84 0 0 1 .372-.047 4.82 4.82 0 0 1 .452-.02c.595 0 1.126.087 1.594.262s.864.427 1.188.75a3.22 3.22 0 0 1 .742 1.181c.17.463.257.987.257 1.573 0 .603-.07 1.125-.2 1.565s-.335.808-.587 1.1a2.39 2.39 0 0 1-.884.655c-.338.144-.7.216-1.088.216-.252 0-.48-.034-.688-.1m-1.148-5.556v2.376c0 .225.023.436.068.634s.117.372.216.52.228.265.384.35.35.127.574.127c.244 0 .448-.05.615-.148s.303-.234.412-.405.185-.376.23-.614.067-.498.067-.777c0-.73-.148-1.273-.445-1.633s-.725-.54-1.284-.54a2.95 2.95 0 0 0-.837.108" fill="url(#B)"/></g><g clip-path="url(#M)"><path d="M1077.125 422.023a3.06 3.06 0 0 1-1.054-.791 3.36 3.36 0 0 1-.64-1.175c-.145-.45-.217-.932-.217-1.445a4.78 4.78 0 0 1 .209-1.444c.14-.442.356-.822.648-1.14s.67-.57 1.135-.75 1.02-.27 1.667-.27c.882 0 1.675.134 2.377.405a3.31 3.31 0 0 1-.122.809 3.17 3.17 0 0 1-.256.649c-.29-.11-.593-.192-.913-.25s-.63-.088-.937-.088c-.558 0-1.008.122-1.35.365s-.53.634-.567 1.174h4.482a3.89 3.89 0 0 1 .047.398l.02.507a4.19 4.19 0 0 1-.202 1.317c-.134.41-.335.762-.6 1.06s-.587.532-.965.702-.8.257-1.296.257c-.56 0-1.047-.097-1.465-.29m.41-1.547c.235.252.577.378 1.027.378.396 0 .703-.133.924-.398s.34-.614.36-1.047h-2.728c.045.46.185.814.418 1.067" fill="url(#B)"/></g><g clip-path="url(#N)"><path d="M1085.68 421.9a3.47 3.47 0 0 1-.73-.749l-.033.236-.048.284-.06.27a.77.77 0 0 1-.075.195l-.384.066c-.132.02-.264.028-.4.028-.145 0-.276-.007-.4-.02l-.384-.06v-6.994c.17-.027.335-.045.493-.053l.466-.014.473.014a4.18 4.18 0 0 1 .485.053v3.322c0 .486.057.863.17 1.134s.255.473.426.608a1.18 1.18 0 0 0 .54.249 3.07 3.07 0 0 0 .512.047h.223c.122 0 .233-.008.332-.027.035.162.06.333.073.514l.02.498-.014.366-.04.3c-.055.018-.14.032-.257.04l-.3.013c-.433 0-.792-.1-1.08-.33" fill="url(#B)"/></g><g clip-path="url(#O)"><path d="M1089.183 425.195l-.494-.06a5.38 5.38 0 0 1-.08-.906 5.19 5.19 0 0 1 .08-.904c.153-.027.32-.045.5-.054l.487-.014.493.014a4.04 4.04 0 0 1 .493.054c.027.153.045.306.053.46l.015.445-.015.452c-.01.15-.026.3-.053.454l-.5.06-.5.02a6.01 6.01 0 0 1-.478-.021m-1.115-3.045c-.053-.235-.08-.472-.08-.716a4.49 4.49 0 0 1 .021-.371c.013-.13.033-.254.06-.37h.905v-5.522c.324-.055.634-.08.93-.08a5.63 5.63 0 0 1 .945.081v6.98z" fill="url(#B)"/></g><g clip-path="url(#P)"><path d="M1094.22 422.03a2.87 2.87 0 0 1-1.04-.776c-.275-.33-.482-.72-.62-1.168s-.21-.932-.21-1.446a4.71 4.71 0 0 1 .209-1.431c.14-.44.346-.826.62-1.154a2.8 2.8 0 0 1 1.04-.77c.418-.184.91-.276 1.478-.276s1.062.092 1.485.276.774.44 1.053.77.487.713.622 1.154.2.918.2 1.43-.067.996-.2 1.446-.342.84-.622 1.168-.63.587-1.053.776-.918.283-1.485.283-1.06-.094-1.478-.283m.404-5.003c-.22.373-.33.91-.33 1.613s.1 1.24.33 1.613.58.56 1.074.56c.504 0 .867-.186 1.087-.56s.33-.91.33-1.613-.1-1.24-.33-1.613-.583-.56-1.087-.56c-.495 0-.853.186-1.074.56" fill="url(#B)"/></g><g clip-path="url(#Q)"><path d="M1103.082 421.9c-.288-.22-.532-.47-.73-.75l-.034.236-.047.284-.06.27c-.023.084-.048.15-.076.195l-.384.066a2.75 2.75 0 0 1-.398.028 3.74 3.74 0 0 1-.398-.02l-.385-.06v-6.994c.17-.027.335-.045.493-.053l.465-.014.473.014a4.22 4.22 0 0 1 .486.053v3.322c0 .486.056.863.17 1.134s.254.473.425.608.35.218.54.25a3.09 3.09 0 0 0 .513.047h.224a1.79 1.79 0 0 0 .331-.027c.035.162.06.333.073.514l.02.498-.012.366-.042.3c-.053.018-.14.032-.256.04l-.31.013c-.432 0-.792-.1-1.08-.33" fill="url(#B)"/></g><g clip-path="url(#R)"><path d="M1003.092 412.094a4.53 4.53 0 0 1-.479-.054v-2.862a2.6 2.6 0 0 1-.505.087l-.507.02c-.54 0-1.03-.096-1.472-.3a3.36 3.36 0 0 1-1.127-.79c-.31-.333-.55-.726-.716-1.182a4.17 4.17 0 0 1-.25-1.451c0-.65.096-1.198.3-1.648s.457-.816.8-1.1.718-.5 1.155-.62a4.77 4.77 0 0 1 1.37-.195c.622 0 1.15.033 1.586.1a9.83 9.83 0 0 1 1.291.29v9.64c-.163.027-.325.045-.487.054l-.473.013c-.152 0-.308-.005-.466-.013m-2.017-8.405c-.216.066-.404.177-.56.33a1.54 1.54 0 0 0-.371.615c-.1.256-.135.568-.135.938 0 .296.033.583.1.857s.173.513.317.717a1.65 1.65 0 0 0 .547.486c.22.12.48.18.776.18l.426-.02a3.65 3.65 0 0 0 .438-.088v-4a2.45 2.45 0 0 0-.418-.088 3.85 3.85 0 0 0-.419-.019c-.252 0-.486.033-.7.1" fill="url(#B)"/></g><g clip-path="url(#S)"><path d="M1007.846 409.03a2.89 2.89 0 0 1-1.04-.776c-.275-.33-.482-.72-.62-1.17s-.21-.93-.21-1.445a4.7 4.7 0 0 1 .209-1.43c.14-.442.346-.826.62-1.156s.62-.585 1.04-.77.91-.276 1.478-.276 1.063.09 1.486.276.774.442 1.052.77a3.21 3.21 0 0 1 .622 1.156 4.86 4.86 0 0 1 .202 1.43c0 .514-.067.995-.202 1.445s-.342.84-.622 1.17-.63.586-1.052.776-.918.283-1.486.283-1.06-.095-1.478-.283m.405-5.003c-.22.373-.33.91-.33 1.613s.11 1.24.33 1.614.578.56 1.073.56c.504 0 .867-.186 1.087-.56s.33-.91.33-1.614-.1-1.24-.33-1.613-.583-.56-1.087-.56c-.495 0-.852.187-1.073.56" fill="url(#B)"/></g><g clip-path="url(#T)"><path d="M1016.642 411.878a4.21 4.21 0 0 1-.081-.824c0-.298.027-.58.08-.85h2.416v-8.034l.534-.054.493-.013.473.02.486.047v8.034h2.417a4.41 4.41 0 0 1 .081.851c0 .278-.028.553-.08.824z" fill="url(#B)"/></g><g clip-path="url(#U)"><path d="M1026.12 408.9c-.288-.222-.53-.47-.728-.75l-.035.237-.046.283-.06.27c-.023.085-.048.15-.075.195l-.385.068a2.74 2.74 0 0 1-.397.027 3.5 3.5 0 0 1-.399-.02l-.384-.06v-6.994l.492-.054.465-.013.473.013c.162.01.325.027.487.054v3.32c0 .487.055.865.168 1.135s.255.472.425.607.352.218.54.25.36.046.514.046h.223a1.86 1.86 0 0 0 .33-.027 3.68 3.68 0 0 1 .075.513l.02.5-.013.365-.04.31a1.26 1.26 0 0 1-.257.039l-.3.014c-.432 0-.792-.1-1.08-.33" fill="url(#B)"/></g><g clip-path="url(#V)"><path d="M1030.157 409.217a7.06 7.06 0 0 1-1.187-.297c0-.288.03-.535.094-.74s.158-.43.284-.663c.548.19 1.066.284 1.553.284.224 0 .43-.013.613-.04a1.26 1.26 0 0 0 .466-.154.82.82 0 0 0 .297-.318c.072-.135.108-.31.108-.527v-.162l-.864.04c-.36 0-.72-.038-1.08-.113a3.25 3.25 0 0 1-.979-.378c-.292-.177-.532-.41-.715-.703s-.277-.656-.277-1.087.074-.797.223-1.094.36-.54.634-.73.603-.324.986-.405.803-.12 1.262-.12c.567 0 1.076.044 1.527.134l1.147.284v4.05c0 .99-.263 1.71-.8 2.162s-1.258.674-2.194.674a6.98 6.98 0 0 1-1.108-.095m1.06-5.705c-.157.014-.306.05-.444.11s-.26.15-.36.277-.148.305-.148.54c0 .35.128.604.384.763s.606.236 1.047.236a3.33 3.33 0 0 0 .337-.02l.35-.047v-1.782l-.35-.062c-.135-.023-.27-.034-.404-.034l-.413.02" fill="url(#B)"/></g><g clip-path="url(#W)"><path d="M1035.922 412.04v-9.64c.172-.063.36-.12.568-.17a6.9 6.9 0 0 1 .648-.121l.668-.075.628-.026c.62 0 1.18.088 1.675.262s.914.426 1.255.75.604.718.784 1.182.27.987.27 1.572c0 .604-.072 1.126-.216 1.567s-.343.807-.594 1.1a2.39 2.39 0 0 1-.898.655 2.93 2.93 0 0 1-1.128.215c-.404 0-.764-.078-1.08-.236s-.54-.357-.675-.6v3.564a5.83 5.83 0 0 1-.959.081c-.306 0-.62-.027-.946-.08m2.25-8.426c-.122.01-.236.032-.345.067v2.54c0 .513.114.9.345 1.127s.523.358.883.358c.495 0 .846-.168 1.054-.506s.31-.83.31-1.478c0-.73-.167-1.265-.5-1.607s-.792-.514-1.377-.514l-.37.014" fill="url(#B)"/></g><g clip-path="url(#X)"><path d="M1045.172 409.217a7.06 7.06 0 0 1-1.187-.297 2.52 2.52 0 0 1 .094-.741 3.57 3.57 0 0 1 .284-.663c.548.19 1.065.284 1.552.284a4.13 4.13 0 0 0 .614-.041 1.26 1.26 0 0 0 .466-.154c.126-.078.224-.183.297-.318s.108-.31.108-.527v-.162l-.864.04c-.36 0-.72-.038-1.08-.113s-.687-.204-.98-.378-.53-.41-.715-.703-.277-.656-.277-1.087.075-.797.223-1.094.36-.54.635-.73.603-.324.986-.405.803-.12 1.262-.12c.567 0 1.076.044 1.527.134l1.146.284v4.05c0 .99-.263 1.71-.79 2.162s-1.258.674-2.194.674a6.98 6.98 0 0 1-1.108-.095m1.06-5.705a1.49 1.49 0 0 0-.445.109c-.14.06-.26.15-.36.277s-.148.305-.148.54c0 .35.128.604.385.763s.606.236 1.047.236a3.33 3.33 0 0 0 .337-.02l.35-.047v-1.782l-.35-.062c-.135-.023-.27-.034-.405-.034l-.412.02" fill="url(#B)"/></g><g clip-path="url(#Y)"><path d="M1050.9 412.04v-7.508c0-.864.2-1.488.628-1.87s.975-.573 1.668-.573l.56.026c.2.018.374.05.52.095a.82.82 0 0 1 .027.196v.196c0 .35-.05.7-.15 1.08a2.19 2.19 0 0 0-.249-.04l-.236-.013a1.33 1.33 0 0 0-.405.053c-.11.036-.197.102-.264.197s-.117.226-.15.398a3.94 3.94 0 0 0-.046.675v7.09c-.324.054-.64.08-.946.08a5.83 5.83 0 0 1-.959-.081" fill="url(#B)"/></g><g clip-path="url(#Z)"><path d="M1055.785 412.094c-.163-.01-.32-.027-.474-.054v-9.884a4.46 4.46 0 0 1 .48-.054l.466-.013.473.013a4.46 4.46 0 0 1 .486.054v3.673c0 .378.043.684.127.918s.194.416.325.547.277.218.44.262.32.068.472.068c.37 0 .63-.13.783-.39s.23-.635.23-1.12v-3.956a4.46 4.46 0 0 1 .486-.054l.473-.013.472.013c.162.01.324.027.487.054v4.468c0 .928-.2 1.608-.602 2.04s-.987.648-1.762.648c-.28 0-.526-.036-.742-.108a2.22 2.22 0 0 1-.553-.263c-.154-.103-.282-.21-.385-.324l-.25-.3v3.713a4.46 4.46 0 0 1-.486.054l-.473.013c-.154 0-.3-.005-.472-.013" fill="url(#B)"/></g><g clip-path="url(#a)"><path d="M1064.73 409.03c-.42-.2-.766-.448-1.04-.776s-.48-.72-.62-1.17-.21-.93-.21-1.445a4.73 4.73 0 0 1 .209-1.43c.14-.442.347-.826.62-1.156s.62-.585 1.04-.77.9-.276 1.478-.276 1.06.09 1.484.276.774.442 1.054.77.486.714.62 1.156a4.86 4.86 0 0 1 .202 1.43c0 .514-.067.995-.202 1.445s-.342.84-.62 1.17-.63.586-1.054.776-.918.283-1.484.283-1.06-.095-1.478-.283m.404-5.003c-.22.373-.33.91-.33 1.613s.1 1.24.33 1.614.578.56 1.074.56c.504 0 .866-.186 1.087-.56s.33-.91.33-1.614-.11-1.24-.33-1.613-.583-.56-1.087-.56c-.496 0-.854.187-1.074.56" fill="url(#B)"/></g><text transform="matrix(1 0 0 -1 997.4829 415.1699)" font-weight="bold" font-size="13.502" font-family="Aller" writing-mode="lr-tb" fill="#020303"><tspan x="0 6.44 11.87 16.014 23.98 31.704 39.63 46.678 51.053 54.023 61.45 69.173 77.153 84.74 90.17 94.314 102.146 107.574" y="0">Tribunal Superior </tspan><tspan y="13.003" x="0 7.94 15.77 18.74 25.18 30.474 37.522 45.488 52.536 56.91 64.824">do Trabalho</tspan></text></g></svg>