<svg xmlns="http://www.w3.org/2000/svg" height="53.027" width="88.661" viewBox="0 0 88.661 53.027"><g transform="matrix(1.333333 0 0 -1.333333 -1348.9266 430.44372)" fill="#010101"><path d="M1026.578 315.376a3.73 3.73 0 0 1 3.729 3.729 3.73 3.73 0 0 1-3.729 3.728 3.73 3.73 0 0 1-3.729-3.728 3.73 3.73 0 0 1 3.729-3.729m-7.426-1.243h-4.972v-4.97h4.972l.5-.025c2.508-.255 4.463-2.372 4.463-4.945v-12.43h4.97v12.43c0 5.5-4.45 9.94-9.942 9.94m-7.458-12.428h9.942v4.97h-9.942zm17.4 7.457h9.943v4.97h-9.943z"/><path d="M1016.667 293.005c0-2.573-1.956-4.7-4.463-4.945a4.77 4.77 0 0 0-.51-.027v-4.97c5.493 0 9.943 4.452 9.943 9.942v6.215h-4.97zm31.45-1.325v20.166h-4.136v2.276h10.74v-2.276h-4.135V291.68zm18.02 17.056v-.6h-2.373v.737c0 2.02-.77 3.206-2.564 3.206s-2.565-1.187-2.565-3.174c0-5.034 7.533-5.514 7.533-11.83 0-3.397-1.635-5.6-5.065-5.6s-5.033 2.212-5.033 5.6v1.283h2.34v-1.4c0-2.02.834-3.206 2.63-3.206s2.63 1.187 2.63 3.206c0 5.002-7.503 5.483-7.503 11.8 0 3.462 1.604 5.6 4.97 5.6 3.398 0 5.002-2.212 5.002-5.6m5.448-17.058v20.166h-4.136v2.276h10.74v-2.276h-4.135V291.68z"/></g></svg>