<svg xmlns="http://www.w3.org/2000/svg" height="53.028" width="88.54" viewBox="0 0 88.54 53.028"><g transform="matrix(1.333333 0 0 -1.333333 -2144.381 430.46706)"><path d="M1623.17 315.393a3.73 3.73 0 0 1 3.729 3.729 3.73 3.73 0 0 1-3.729 3.728 3.73 3.73 0 0 1-3.729-3.728 3.73 3.73 0 0 1 3.729-3.729m-7.427-1.243h-4.97v-4.972h4.97l.5-.024c2.508-.256 4.463-2.372 4.463-4.946V291.78h4.97v12.428c0 5.5-4.452 9.942-9.943 9.942" fill="#fff"/><path d="M1608.286 301.72h9.943v4.973h-9.943z" fill="#077c60"/><path d="M1625.687 309.178h9.942v4.973h-9.942z" fill="#ffce06"/><path d="M1613.258 293.022c0-2.574-1.956-4.7-4.463-4.946l-.5-.025v-4.972c5.492 0 9.944 4.452 9.944 9.943v6.214h-4.972zm31.36-1.342v20.166h-4.136v2.276h10.74v-2.276h-4.135V291.68zm18.02 17.056v-.6h-2.373v.737c0 2.02-.77 3.206-2.564 3.206s-2.565-1.187-2.565-3.174c0-5.034 7.533-5.514 7.533-11.83 0-3.397-1.635-5.6-5.065-5.6s-5.033 2.212-5.033 5.6v1.283h2.34v-1.4c0-2.02.834-3.206 2.63-3.206s2.63 1.187 2.63 3.206c0 5.002-7.503 5.483-7.503 11.8 0 3.462 1.604 5.6 4.97 5.6 3.398 0 5.002-2.212 5.002-5.6m5.448-17.058v20.166h-4.136v2.276h10.74v-2.276h-4.135V291.68z" fill="#fff"/></g></svg>