<svg xmlns="http://www.w3.org/2000/svg" xmlns:xlink="http://www.w3.org/1999/xlink" height="53.052" width="304.94" viewBox="0 0 304.94 53.052"><defs><clipPath id="A"><path d="M50.54 100.782a3.73 3.73 0 1 1 7.46 0 3.73 3.73 0 1 1-7.46 0"/></clipPath><radialGradient id="B" spreadMethod="pad" gradientTransform="matrix(2.637639,-2.637639,-2.637639,-2.637639,52.404934,102.14999)" r="1" cy="0" cx="0" fy="0" fx="0" xlink:href="#AX"><stop offset="0" stop-color="#0069a3"/><stop offset="1" stop-color="#004269"/></radialGradient><clipPath id="C"><path d="M41.867 95.81v-4.975h4.973c2.747 0 4.975-2.225 4.975-4.973V73.427h4.973V85.86a9.95 9.95 0 0 1-9.948 9.948z"/></clipPath><linearGradient id="D" spreadMethod="pad" y2="73.385" x2="49.328" y1="90.467" x1="49.328" xlink:href="#AX"><stop offset="0" stop-color="#0069a3"/><stop offset="1" stop-color="#004269"/></linearGradient><clipPath id="E"><path d="M41.867 95.81v-4.975h4.973l.51-.025a9.94 9.94 0 0 0 9.439-9.922v4.974a9.95 9.95 0 0 1-9.948 9.948z"/></clipPath><linearGradient id="F" spreadMethod="pad" y2="95.736" x2="49.328" y1="90.586" x1="49.328" xlink:href="#AX"><stop offset="0" stop-color="#004269"/><stop offset=".116" stop-color="#004670"/><stop offset="1" stop-color="#0069a3"/></linearGradient><clipPath id="G"><path d="M39.38 83.375h9.947v4.973H39.38z"/></clipPath><linearGradient id="H" spreadMethod="pad" y2="85.862" x2="49.171" y1="85.862" x1="39.546" xlink:href="#AX"><stop offset="0" stop-color="#0e7c60"/><stop offset="1" stop-color="#21ae88"/></linearGradient><clipPath id="I"><path d="M56.788 90.834h9.947v4.974h-9.947z"/></clipPath><linearGradient id="J" spreadMethod="pad" y2="93.322" x2="66.683" y1="93.322" x1="56.85" xlink:href="#AX"><stop offset="0" stop-color="#fada64"/><stop offset="1" stop-color="#ffcd07"/></linearGradient><clipPath id="K"><path d="M44.354 80.887V74.67c0-2.746-2.227-4.973-4.974-4.973v-4.974a9.95 9.95 0 0 1 9.947 9.947v6.217z"/></clipPath><linearGradient id="L" spreadMethod="pad" y2="71.024" x2="44.354" y1="80.846" x1="44.354" xlink:href="#AX"><stop offset="0" stop-color="#004269"/><stop offset="1" stop-color="#0069a3"/></linearGradient><clipPath id="M"><path d="M39.89 69.723a5.04 5.04 0 0 0-.509-.026v-4.974a9.95 9.95 0 0 1 9.947 9.947v4.975a9.94 9.94 0 0 0-9.438-9.922"/></clipPath><linearGradient id="N" spreadMethod="pad" y2="71.108" x2="44.354" y1="64.765" x1="44.354" xlink:href="#AX"><stop offset="0" stop-color="#0069a3"/><stop offset=".442" stop-color="#005381"/><stop offset="1" stop-color="#004269"/></linearGradient><clipPath id="O"><path d="M87.44 104.262V87.35c0-1.992-.79-3.193-2.56-3.193-1.802 0-2.593 1.2-2.593 3.193v16.912h-2.435V87.476c0-3.35 1.55-5.594 4.932-5.594 3.415 0 4.964 2.244 4.964 5.594v16.786z"/></clipPath><linearGradient id="P" spreadMethod="pad" y2="104.313" x2="84.801" y1="82.13" x1="84.801" xlink:href="#AX"><stop offset="0" stop-color="#004269"/><stop offset="1" stop-color="#0069a3"/></linearGradient><clipPath id="Q"><path d="M75.534 104.262v-16.98c0-2.265-.99-3.032-2.617-3.127l-1.245.03v-2.265c.543-.065 1-.033 1.565-.033 2.68.065 4.755 1.373 4.755 5.554v16.82z"/></clipPath><linearGradient id="R" spreadMethod="pad" y2="104.313" x2="74.832" y1="82.13" x1="74.832" xlink:href="#AX"><stop offset="0" stop-color="#004269"/><stop offset="1" stop-color="#0069a3"/></linearGradient><clipPath id="S"><path d="M91.042 98.777c0-6.175 7.334-6.646 7.334-11.535 0-1.976-.814-3.135-2.57-3.135s-2.57 1.16-2.57 3.135v1.38h-2.288v-1.254c0-3.322 1.568-5.485 4.92-5.485s4.953 2.163 4.953 5.485c0 6.175-7.366 6.645-7.366 11.566 0 1.944.752 3.104 2.507 3.104s2.507-1.16 2.507-3.135v-.72h2.32v.596c0 3.323-1.568 5.485-4.9 5.485-3.29 0-4.858-2.1-4.858-5.485"/></clipPath><linearGradient id="T" spreadMethod="pad" y2="104.313" x2="95.885" y1="82.13" x1="95.885" xlink:href="#AX"><stop offset="0" stop-color="#004269"/><stop offset="1" stop-color="#0069a3"/></linearGradient><clipPath id="U"><path d="M101.67 104.262v-2.27h4.125v-20.1h2.494v20.1h4.125v2.27z"/></clipPath><linearGradient id="V" spreadMethod="pad" y2="104.313" x2="107.043" y1="82.13" x1="107.043" xlink:href="#AX"><stop offset="0" stop-color="#004269"/><stop offset="1" stop-color="#0069a3"/></linearGradient><clipPath id="W"><path d="M113.652 81.882h2.494v22.38h-2.494z"/></clipPath><linearGradient id="X" spreadMethod="pad" y2="104.313" x2="114.899" y1="82.13" x1="114.899" xlink:href="#AX"><stop offset="0" stop-color="#004269"/><stop offset="1" stop-color="#0069a3"/></linearGradient><clipPath id="Y"><path d="M117.867 98.746V87.398c0-3.16 1.42-5.295 4.445-5.497v-1.135h.268c.924 0 1.46-.308 1.46-.842 0-.563-.476-.9-1.28-.9-.774.055-1.22.364-1.22.814v.197h-1.52v-.225c0-1.096 1.012-1.743 2.74-1.743 1.788 0 2.83.675 2.83 1.8 0 .9-.804 1.434-2.204 1.434v.605c2.972.247 4.356 2.372 4.356 5.492v2.728h-2.32v-2.853c0-1.975-.784-3.166-2.57-3.166-1.756 0-2.57 1.19-2.57 3.166V98.87c0 1.975.814 3.166 2.57 3.166 1.786 0 2.57-1.19 2.57-3.166v-2.1h2.32v1.974c0 3.322-1.567 5.516-4.953 5.516-3.353 0-4.92-2.194-4.92-5.516"/></clipPath><linearGradient id="Z" spreadMethod="pad" y2="104.313" x2="122.804" y1="82.13" x1="122.804" xlink:href="#AX"><stop offset="0" stop-color="#004269"/><stop offset="1" stop-color="#0069a3"/></linearGradient><clipPath id="a"><path d="M133.172 104.262l-4.284-22.38h2.302l.863 4.507h5.66l.863-4.507h2.494l-4.284 22.38zm1.663-2.813l2.526-12.917h-4.988z"/></clipPath><linearGradient id="b" spreadMethod="pad" y2="104.313" x2="134.979" y1="82.13" x1="134.979" xlink:href="#AX"><stop offset="0" stop-color="#004269"/><stop offset="1" stop-color="#0069a3"/></linearGradient><clipPath id="c"><path d="M146.044 104.262v-22.38h5.243c3.485 0 5.083 2.1 5.083 5.53V98.7c0 3.453-1.598 5.563-5.083 5.563zm2.494-2.27h2.685c1.822 0 2.686-1.118 2.686-3.165v-11.51c0-2.045-.864-3.164-2.653-3.164h-2.718z"/></clipPath><linearGradient id="d" spreadMethod="pad" y2="104.313" x2="151.207" y1="82.13" x1="151.207" xlink:href="#AX"><stop offset="0" stop-color="#004269"/><stop offset="1" stop-color="#0069a3"/></linearGradient><clipPath id="e"><path d="M158.023 98.746V87.398c0-3.322 1.66-5.516 5.015-5.516 3.385 0 5.047 2.194 5.047 5.516v11.348c0 3.354-1.662 5.516-5.047 5.516-3.355 0-5.015-2.162-5.015-5.516m2.413-11.473V98.87c0 1.975.846 3.166 2.602 3.166 1.787 0 2.602-1.19 2.602-3.166V87.273c0-2.007-.815-3.166-2.602-3.166-1.756 0-2.602 1.16-2.602 3.166"/></clipPath><linearGradient id="f" spreadMethod="pad" y2="104.313" x2="163.053" y1="82.13" x1="163.053" xlink:href="#AX"><stop offset="0" stop-color="#004269"/><stop offset="1" stop-color="#0069a3"/></linearGradient><clipPath id="g"><path d="M172.064 104.262v-2.27h4.124v-20.1h2.494v20.1h4.124v2.27z"/></clipPath><linearGradient id="h" spreadMethod="pad" y2="104.313" x2="177.435" y1="82.13" x1="177.435" xlink:href="#AX"><stop offset="0" stop-color="#004269"/><stop offset="1" stop-color="#0069a3"/></linearGradient><clipPath id="i"><path d="M184.706 104.262v-22.38h2.494v9.56h1.76c2.078 0 3.26-.798 3.26-3.325V84.6c0-1.503.128-2.078.415-2.717h2.526c-.415.767-.447 1.694-.447 2.686v3.484c0 2.4-.768 4.06-2.813 4.67 1.918.607 2.78 2.14 2.78 4.604v1.823c0 3.324-1.47 5.114-4.988 5.114zm2.494-2.27h2.43c1.855 0 2.6-1.054 2.6-3.07V96.78c0-2.43-1.183-3.07-3.165-3.07H187.2z"/></clipPath><linearGradient id="j" spreadMethod="pad" y2="104.313" x2="189.934" y1="82.13" x1="189.934" xlink:href="#AX"><stop offset="0" stop-color="#004269"/><stop offset="1" stop-color="#0069a3"/></linearGradient><clipPath id="k"><path d="M200.78 104.262l-4.285-22.38h2.302l.863 4.507h5.66l.863-4.507h2.494l-4.284 22.38zm1.662-2.813l2.527-12.917h-4.988z"/></clipPath><linearGradient id="l" spreadMethod="pad" y2="104.313" x2="202.587" y1="82.13" x1="202.587" xlink:href="#AX"><stop offset="0" stop-color="#004269"/><stop offset="1" stop-color="#0069a3"/></linearGradient><clipPath id="m"><path d="M210.302 104.262v-22.38h5.148c3.485 0 5.116 1.886 5.116 5.243v1.887c0 2.46-.832 4.188-3.005 4.795 1.95.608 2.62 2.078 2.62 4.445v1.054c0 3.294-1.375 4.956-4.86 4.956zm2.494-2.27h2.46c1.79 0 2.463-.96 2.463-2.942v-1.3c0-2.334-1.023-2.974-3.005-2.974h-1.92zm0-9.495h2.174c2.142 0 3.133-.83 3.133-3.325V87.19c0-2.08-.83-3.037-2.653-3.037h-2.654z"/></clipPath><linearGradient id="n" spreadMethod="pad" y2="104.313" x2="215.434" y1="82.13" x1="215.434" xlink:href="#AX"><stop offset="0" stop-color="#004269"/><stop offset="1" stop-color="#0069a3"/></linearGradient><clipPath id="o"><path d="M225.383 104.262l-4.284-22.38h2.303l.863 4.507h5.66l.863-4.507h2.494l-4.284 22.38zm1.664-2.813l2.525-12.917h-4.988z"/></clipPath><linearGradient id="p" spreadMethod="pad" y2="104.313" x2="227.19" y1="82.13" x1="227.19" xlink:href="#AX"><stop offset="0" stop-color="#004269"/><stop offset="1" stop-color="#0069a3"/></linearGradient><clipPath id="q"><path d="M235.153 104.262v-22.38h8.888v2.27h-6.394v20.1z"/></clipPath><linearGradient id="r" spreadMethod="pad" y2="104.313" x2="239.597" y1="82.13" x1="239.597" xlink:href="#AX"><stop offset="0" stop-color="#004269"/><stop offset="1" stop-color="#0069a3"/></linearGradient><clipPath id="s"><path d="M253.613 104.262V94.19h-5.5v10.07h-2.493v-22.38h2.493v10.07h5.5v-10.07h2.494v22.38z"/></clipPath><linearGradient id="t" spreadMethod="pad" y2="104.313" x2="250.863" y1="82.13" x1="250.863" xlink:href="#AX"><stop offset="0" stop-color="#004269"/><stop offset="1" stop-color="#0069a3"/></linearGradient><clipPath id="u"><path d="M258.023 98.746V87.398c0-3.322 1.66-5.516 5.015-5.516 3.385 0 5.047 2.194 5.047 5.516v11.348c0 3.354-1.662 5.516-5.047 5.516-3.355 0-5.015-2.162-5.015-5.516m2.413-11.473V98.87c0 1.975.847 3.166 2.602 3.166 1.787 0 2.6-1.19 2.6-3.166V87.273c0-2.007-.814-3.166-2.6-3.166-1.755 0-2.602 1.16-2.602 3.166"/></clipPath><linearGradient id="v" spreadMethod="pad" y2="104.313" x2="263.054" y1="82.13" x1="263.054" xlink:href="#AX"><stop offset="0" stop-color="#004269"/><stop offset="1" stop-color="#0069a3"/></linearGradient><clipPath id="w"><path d="M72.256 75.993a3.55 3.55 0 0 1-.069-.699c0-.253.023-.494.07-.723h2.053v-6.823l.452-.046.42-.01.4.018.413.04v6.823h2.052c.046.23.07.47.07.723a3.55 3.55 0 0 1-.069.699z"/></clipPath><linearGradient id="x" spreadMethod="pad" y2="76.28" x2="149.587" y1="64.974" x1="149.587" xlink:href="#AX"><stop offset="0" stop-color="#004269"/><stop offset="1" stop-color="#0069a3"/></linearGradient><clipPath id="y"><path d="M80.305 73.464a2.91 2.91 0 0 1-.619-.636l-.03.2-.04.24-.053.23a.59.59 0 0 1-.063.166l-.326.058c-.112.015-.224.023-.338.023a2.94 2.94 0 0 1-.339-.018l-.327-.05v-5.94a4.06 4.06 0 0 1 .419-.046l.396-.012.4.012c.138.008.275.022.413.046v2.82c0 .413.047.735.142.963s.217.402.362.517.298.185.46.21a2.64 2.64 0 0 0 .435.041h.19c.103 0 .197-.008.282-.023.03.138.05.283.063.436l.017.424-.01.3c-.008.1-.02.187-.035.263a.97.97 0 0 1-.218.035l-.264.012c-.367 0-.672-.094-.917-.282"/></clipPath><clipPath id="z"><path d="M83.28 76.262l-.42-.05c-.046-.268-.07-.524-.07-.768 0-.252.023-.51.07-.77.13-.023.27-.04.424-.046l.413-.01.42.01a3.3 3.3 0 0 1 .418.046c.024.13.038.26.046.4l.012.38-.012.383c-.008.126-.022.255-.046.385a4.18 4.18 0 0 1-.424.051l-.425.017c-.122 0-.257-.005-.406-.017m-.946-2.585a2.7 2.7 0 0 1-.069-.609 3.21 3.21 0 0 1 .017-.315c.01-.11.03-.215.052-.315h.767v-4.7a4.82 4.82 0 0 1 .792-.069c.26 0 .528.023.802.07v5.93z"/></clipPath><clipPath id="AA"><path d="M86.28 76.13v-8.187a4.13 4.13 0 0 1 .481-.142 5.33 5.33 0 0 1 .551-.104l.567-.062.533-.024c.528 0 1 .074 1.422.224s.776.36 1.067.635a2.72 2.72 0 0 1 .664 1.005c.153.393.23.838.23 1.335 0 .512-.062.955-.184 1.33s-.29.686-.504.934a2.02 2.02 0 0 1-.762.557 2.5 2.5 0 0 1-.958.183c-.344 0-.65-.066-.917-.2s-.46-.304-.574-.51v3.027c-.275.046-.546.07-.814.07-.26 0-.527-.023-.802-.07m1.91-7.155a1.22 1.22 0 0 0-.293.058v2.155c0 .436.098.755.293.957s.445.305.75.305c.42 0 .718-.144.894-.43s.264-.707.264-1.257c0-.62-.142-1.073-.425-1.365s-.673-.435-1.17-.435l-.315.01"/></clipPath><clipPath id="AB"><path d="M96.53 73.677v-4.644a2.7 2.7 0 0 0-.711-.08c-.207 0-.386.024-.54.074s-.28.133-.384.252-.18.28-.23.483-.075.46-.075.773v3.142c-.275.046-.546.07-.814.07s-.54-.023-.813-.07V70.49c0-.635.08-1.142.24-1.525s.376-.673.648-.872a2.22 2.22 0 0 1 .946-.39 6.8 6.8 0 0 1 1.123-.091c.436 0 .855.04 1.257.12s.723.162.968.247v5.7c-.276.046-.547.07-.815.07-.26 0-.526-.023-.802-.07"/></clipPath><clipPath id="AC"><path d="M102.262 73.728c-.176-.058-.334-.13-.476-.223s-.265-.195-.372-.3-.2-.23-.276-.344l-.028.196-.04.234-.052.23a.65.65 0 0 1-.063.167l-.3.05c-.1.012-.213.018-.344.018a3.21 3.21 0 0 1-.355-.018l-.32-.05v-5.93c.275-.046.547-.07.814-.07s.54.023.815.07v3.108c0 .32.033.582.102.78s.16.354.27.464a.82.82 0 0 0 .373.224c.138.04.27.058.4.058.313 0 .533-.112.66-.332s.19-.54.19-.953v-3.348c.275-.046.546-.07.815-.07a4.92 4.92 0 0 1 .813.069v3.784c0 .788-.17 1.364-.5 1.732s-.846.55-1.52.55c-.215 0-.4-.028-.585-.086"/></clipPath><clipPath id="AD"><path d="M107.422 73.734a6.01 6.01 0 0 1-1.009-.253c0-.243.027-.454.08-.63s.134-.363.24-.562c.466.16.906.24 1.318.24.19 0 .365-.012.522-.035a1.05 1.05 0 0 0 .396-.131.68.68 0 0 0 .251-.27c.062-.115.093-.263.093-.447V71.5l-.733.034c-.307 0-.612-.033-.918-.097a2.65 2.65 0 0 1-.831-.322c-.25-.148-.452-.348-.61-.596s-.234-.557-.234-.923.062-.677.19-.93a1.6 1.6 0 0 1 .539-.619 2.31 2.31 0 0 1 .837-.345 5.24 5.24 0 0 1 1.072-.102 6.69 6.69 0 0 1 1.296.114l.974.24v3.44c0 .84-.223 1.453-.67 1.835s-1.068.573-1.862.573c-.292 0-.605-.028-.94-.08m.9-4.844c-.134.01-.26.04-.378.09a.76.76 0 0 0-.304.234c-.085.108-.126.26-.126.46 0 .298.11.515.327.65s.514.2.888.2c.084 0 .18-.004.286-.016l.3-.04v-1.513l-.3-.052c-.114-.02-.23-.03-.344-.03a3.96 3.96 0 0 0-.349.018"/></clipPath><clipPath id="AE"><path d="M112.295 76.13v-6.375c0-.734.178-1.263.533-1.588s.828-.488 1.416-.488l.475.023a2.19 2.19 0 0 1 .442.081.66.66 0 0 1 .023.166v.166c0 .298-.042.604-.126.918-.07-.016-.14-.027-.212-.034a1.63 1.63 0 0 0-.2-.012 1.09 1.09 0 0 0-.345.046.43.43 0 0 0-.223.166c-.058.08-.1.193-.127.34a3.35 3.35 0 0 0-.04.573v6.02c-.275.046-.543.07-.802.07-.268 0-.54-.023-.814-.07"/></clipPath><clipPath id="AF"><path d="M120.046 75.975c-.344-.102-.638-.255-.883-.458a2.06 2.06 0 0 1-.568-.75c-.133-.3-.2-.643-.2-1.033a2.52 2.52 0 0 1 .121-.826c.08-.23.192-.426.338-.6a2.1 2.1 0 0 1 .528-.425c.206-.118.44-.227.7-.326l.7-.264.4-.166a1.56 1.56 0 0 0 .35-.213c.102-.083.187-.187.252-.31a.98.98 0 0 0 .098-.458c0-.368-.138-.64-.413-.82s-.655-.27-1.136-.27a3.98 3.98 0 0 0-.906.098c-.282.064-.585.162-.906.292l-.217-.728c-.06-.24-.103-.472-.126-.693l.55-.196a5.18 5.18 0 0 1 .533-.131c.18-.035.368-.06.568-.074l.677-.024c.51 0 .964.065 1.358.195s.724.31.992.538a2.3 2.3 0 0 1 .613.826 2.61 2.61 0 0 1 .213 1.067c0 .374-.046.69-.14.946s-.22.474-.384.654a2.13 2.13 0 0 1-.602.452c-.236.123-.5.24-.8.356l-.688.263-.345.143a1.45 1.45 0 0 0-.309.184.79.79 0 0 0-.217.264c-.054.103-.08.232-.08.384 0 .19.034.345.103.464a.72.72 0 0 0 .264.27 1.08 1.08 0 0 0 .361.126 2.22 2.22 0 0 0 .396.034l.573-.028c.168-.02.32-.045.453-.075s.26-.07.38-.114l.35-.138c.2.427.32.864.366 1.308a8.45 8.45 0 0 1-1.071.297c-.34.07-.705.103-1.095.103-.43 0-.815-.05-1.158-.155"/></clipPath><clipPath id="AG"><path d="M128.346 73.677v-4.644c-.2-.053-.427-.08-.7-.08-.206 0-.386.024-.54.074s-.28.133-.383.252-.18.28-.23.483-.074.46-.074.773v3.142c-.276.046-.548.07-.815.07s-.54-.023-.814-.07V70.49c0-.635.08-1.142.24-1.525s.376-.673.648-.872a2.22 2.22 0 0 1 .946-.39 6.8 6.8 0 0 1 1.123-.091c.435 0 .854.04 1.255.12l.97.247v5.7c-.276.046-.548.07-.815.07-.26 0-.527-.023-.803-.07"/></clipPath><clipPath id="AH"><path d="M134.01 73.728c-.176-.058-.335-.13-.476-.223s-.262-.197-.36-.316-.184-.24-.253-.36l-.03.2-.046.246-.056.235a.69.69 0 0 1-.063.167 3.22 3.22 0 0 1-.654.069 4.59 4.59 0 0 1-.35-.012c-.103-.008-.21-.023-.315-.046V65.03l.42-.046.396-.01.394.01a4.62 4.62 0 0 1 .419.046v2.636l.315-.038.384-.018c.505 0 .956.074 1.354.224s.734.36 1.008.635a2.74 2.74 0 0 1 .631 1.005c.145.393.22.838.22 1.335 0 .512-.06.955-.18 1.33s-.285.686-.498.934-.465.434-.752.557a2.35 2.35 0 0 1-.923.183c-.213 0-.41-.028-.584-.086m-.975-4.72v2.02a2.45 2.45 0 0 0 .057.539c.04.168.1.316.183.442s.194.225.327.297.297.1.488.1a1.01 1.01 0 0 0 .522-.127c.14-.084.258-.198.35-.344a1.5 1.5 0 0 0 .196-.521 3.68 3.68 0 0 0 .057-.66c0-.62-.126-1.082-.38-1.388s-.615-.46-1.09-.46a2.55 2.55 0 0 0-.711.092"/></clipPath><clipPath id="AI"><path d="M139.53 73.568a2.58 2.58 0 0 1-.894-.672c-.24-.282-.422-.615-.545-.997a4.01 4.01 0 0 1-.183-1.226c0-.443.06-.853.178-1.228a2.53 2.53 0 0 1 .55-.968c.248-.27.57-.484.963-.637s.866-.23 1.416-.23c.75 0 1.422.114 2.018.343-.007.246-.042.475-.102.688s-.134.398-.22.552c-.244-.093-.502-.163-.774-.213s-.537-.074-.796-.074c-.475 0-.857.102-1.147.308s-.45.54-.482 1h3.807a3.88 3.88 0 0 1 .04.338l.017.43c0 .398-.057.77-.172 1.117s-.284.65-.5.9-.5.45-.82.597-.688.217-1.1.217c-.475 0-.89-.082-1.245-.246m.35-1.313c.2.214.49.32.872.32.336 0 .598-.113.785-.338s.288-.522.304-.9h-2.317c.04.39.157.692.356.907"/></clipPath><clipPath id="AJ"><path d="M146.795 73.464c-.244-.187-.45-.398-.62-.636l-.03.2-.04.24-.05.23c-.02.073-.04.127-.063.166l-.327.058c-.11.015-.223.023-.34.023a2.96 2.96 0 0 1-.338-.018l-.327-.05v-5.94a4.06 4.06 0 0 1 .419-.046l.396-.012.4.012c.138.008.276.022.412.046v2.82c0 .413.048.735.144.963s.216.402.36.517.298.185.458.21a2.66 2.66 0 0 0 .436.041h.2c.103 0 .197-.008.28-.023a3.24 3.24 0 0 1 .064.436l.017.424-.012.3a2.15 2.15 0 0 1-.034.263.96.96 0 0 1-.218.035l-.264.012c-.367 0-.673-.094-.917-.282"/></clipPath><clipPath id="AK"><path d="M149.77 76.262l-.42-.05a4.54 4.54 0 0 1-.068-.768 4.41 4.41 0 0 1 .068-.769c.13-.023.27-.04.424-.046l.413-.01.42.01a3.28 3.28 0 0 1 .418.046c.023.13.038.26.046.4l.012.38-.012.383a3.48 3.48 0 0 1-.046.385c-.13.023-.27.04-.424.05l-.424.017c-.123 0-.26-.005-.407-.017m-.946-2.585a2.7 2.7 0 0 1-.069-.609c0-.1.005-.204.017-.315a2.38 2.38 0 0 1 .052-.315h.768v-4.7c.275-.046.54-.07.792-.07.26 0 .527.023.802.07v5.93z"/></clipPath><clipPath id="AL"><path d="M154.048 73.574c-.357-.16-.65-.38-.884-.66a2.82 2.82 0 0 1-.527-.991c-.12-.382-.178-.79-.178-1.227s.06-.84.178-1.215.294-.7.527-.98.527-.497.884-.654.774-.235 1.255-.235.902.078 1.26.235.657.375.895.654a2.75 2.75 0 0 1 .527.98 4.15 4.15 0 0 1 .172 1.215 4.27 4.27 0 0 1-.172 1.227c-.114.382-.292.713-.527.99s-.536.5-.895.66-.78.24-1.26.24-.9-.08-1.255-.24m.343-4.25c-.187.317-.28.774-.28 1.37s.093 1.053.28 1.372.49.475.912.475c.428 0 .735-.16.923-.475s.28-.775.28-1.372-.093-1.053-.28-1.37-.495-.476-.923-.476c-.42 0-.724.16-.912.476"/></clipPath><clipPath id="AM"><path d="M161.575 73.464a2.91 2.91 0 0 1-.619-.636l-.03.2-.04.24-.052.23a.62.62 0 0 1-.063.166l-.326.058a2.53 2.53 0 0 1-.339.023c-.122 0-.236-.006-.338-.018l-.327-.05v-5.94a4.03 4.03 0 0 1 .419-.046l.395-.012.4.012c.14.008.276.022.413.046v2.82c0 .413.048.735.143.963s.216.402.362.517.298.185.458.21a2.65 2.65 0 0 0 .436.041h.19c.103 0 .197-.008.28-.023a3.09 3.09 0 0 1 .063.436l.018.424-.012.3a2.15 2.15 0 0 1-.034.263.98.98 0 0 1-.219.035l-.263.012c-.367 0-.673-.094-.917-.282"/></clipPath><clipPath id="AN"><path d="M170.536 76.176a3.36 3.36 0 0 1-.407-.046V73.7a2.26 2.26 0 0 1-.43.075l-.43.018c-.46 0-.875-.083-1.25-.248a2.84 2.84 0 0 1-.957-.67 2.92 2.92 0 0 1-.608-1.003c-.14-.386-.212-.797-.212-1.233 0-.55.083-1.017.246-1.4s.388-.693.67-.934.6-.417.98-.528.76-.166 1.164-.166c.527 0 .976.03 1.347.086a8.32 8.32 0 0 1 1.094.246v8.187c-.137.024-.274.04-.413.046l-.4.012c-.13 0-.26-.005-.394-.012m-1.715-7.138a1.18 1.18 0 0 0-.476.281c-.134.13-.24.304-.315.522a2.41 2.41 0 0 0-.115.797 3.06 3.06 0 0 0 .086.728 1.77 1.77 0 0 0 .269.607 1.39 1.39 0 0 0 .465.413c.188.104.407.156.66.156a3.01 3.01 0 0 0 .362-.018c.095-.012.22-.036.373-.074v-3.406c-.13-.038-.25-.063-.357-.074a3.48 3.48 0 0 0-.355-.017c-.214 0-.413.028-.596.085"/></clipPath><clipPath id="AO"><path d="M174.57 73.574a2.44 2.44 0 0 1-.883-.661c-.233-.278-.408-.61-.527-.99s-.177-.79-.177-1.227.058-.84.177-1.215.294-.7.527-.98a2.39 2.39 0 0 1 .883-.654c.356-.157.774-.235 1.256-.235s.902.078 1.262.235.656.375.893.654.413.606.528.98.172.78.172 1.215-.057.845-.172 1.227-.29.713-.528.99-.534.5-.893.66-.78.24-1.262.24-.9-.08-1.256-.24m.345-4.25c-.188.317-.282.774-.282 1.37s.094 1.053.282 1.372.5.475.91.475c.428 0 .736-.16.922-.475s.282-.775.282-1.372-.094-1.053-.282-1.37-.494-.476-.922-.476c-.42 0-.725.16-.91.476"/></clipPath><clipPath id="AP"><path d="M182.04 75.993c-.047-.23-.068-.463-.068-.7 0-.253.02-.494.068-.723h2.053v-6.823l.452-.046.418-.01.402.018.413.04v6.823h2.052a3.59 3.59 0 0 1 .069.723c0 .236-.022.47-.07.7z"/></clipPath><clipPath id="AQ"><path d="M190.1 73.464a2.91 2.91 0 0 1-.619-.636l-.03.2-.04.24-.05.23c-.02.073-.04.127-.064.166l-.327.058c-.11.015-.223.023-.338.023-.122 0-.235-.006-.338-.018l-.327-.05v-5.94a4.01 4.01 0 0 1 .418-.046l.396-.012.402.012c.138.008.274.022.412.046v2.82c0 .413.048.735.143.963s.216.402.362.517.298.185.458.21a2.66 2.66 0 0 0 .436.041h.19c.104 0 .197-.008.28-.023a3.09 3.09 0 0 1 .063.436l.017.424-.01.3c-.007.1-.02.187-.035.263a.95.95 0 0 1-.217.035l-.264.012c-.367 0-.673-.094-.917-.282"/></clipPath><clipPath id="AR"><path d="M193.518 73.734a6.01 6.01 0 0 1-1.009-.253 2.17 2.17 0 0 1 .08-.63c.054-.176.134-.363.24-.562a4.05 4.05 0 0 0 1.319.241 3.6 3.6 0 0 0 .521-.035c.157-.022.3-.067.396-.13s.19-.155.252-.27.092-.263.092-.447V71.5l-.734.034a4.46 4.46 0 0 1-.917-.097 2.66 2.66 0 0 1-.831-.322c-.248-.148-.45-.348-.608-.596s-.235-.557-.235-.923.063-.677.19-.93a1.6 1.6 0 0 1 .539-.619 2.31 2.31 0 0 1 .837-.345 5.24 5.24 0 0 1 1.072-.102c.482 0 .913.038 1.295.114l.975.24v3.44c0 .84-.223 1.453-.67 1.835s-1.07.573-1.864.573a6.19 6.19 0 0 1-.94-.08m.9-4.844c-.135.01-.26.04-.38.09a.76.76 0 0 0-.304.234c-.084.108-.126.26-.126.46 0 .298.11.515.326.65s.514.2.9.2a2.56 2.56 0 0 0 .286-.016l.298-.04v-1.513l-.298-.052a2.1 2.1 0 0 0-.344-.029 3.94 3.94 0 0 0-.349.018"/></clipPath><clipPath id="AS"><path d="M198.415 76.13v-8.187a4.17 4.17 0 0 1 .48-.142 5.38 5.38 0 0 1 .551-.104l.568-.062.533-.024c.527 0 1.002.074 1.422.224a2.99 2.99 0 0 1 1.066.635c.3.276.512.6.666 1.005s.228.838.228 1.335c0 .512-.06.955-.183 1.33s-.3.686-.504.934-.47.434-.763.557-.614.183-.957.183-.65-.066-.917-.2-.46-.304-.574-.51v3.027c-.275.046-.547.07-.814.07-.26 0-.527-.023-.802-.07m1.908-7.155a1.19 1.19 0 0 0-.292.058v2.155c0 .436.097.755.292.957s.446.305.75.305c.42 0 .72-.144.895-.43s.264-.707.264-1.257c0-.62-.142-1.073-.425-1.365s-.672-.435-1.17-.435l-.316.01"/></clipPath><clipPath id="AT"><path d="M206.267 73.734a6.02 6.02 0 0 1-1.008-.253 2.17 2.17 0 0 1 .08-.63c.054-.176.134-.363.24-.562.466.16.906.24 1.318.24.192 0 .366-.012.522-.035a1.05 1.05 0 0 0 .396-.131c.107-.065.19-.155.252-.27s.092-.263.092-.447V71.5l-.734.034a4.46 4.46 0 0 1-.917-.097c-.306-.065-.584-.172-.832-.322a1.82 1.82 0 0 1-.607-.596c-.157-.248-.235-.557-.235-.923s.063-.677.19-.93a1.61 1.61 0 0 1 .539-.619 2.31 2.31 0 0 1 .837-.345 5.24 5.24 0 0 1 1.072-.102c.482 0 .913.038 1.296.114l.974.24v3.44c0 .84-.224 1.453-.67 1.835s-1.07.573-1.864.573c-.3 0-.604-.028-.94-.08m.9-4.844c-.134.01-.26.04-.378.09a.76.76 0 0 0-.304.234c-.084.108-.126.26-.126.46 0 .298.108.515.327.65s.513.2.888.2a2.58 2.58 0 0 0 .287-.016l.298-.04v-1.513l-.298-.052a2.1 2.1 0 0 0-.344-.029 3.96 3.96 0 0 0-.35.018"/></clipPath><clipPath id="AU"><path d="M211.14 76.13v-6.375c0-.734.178-1.263.533-1.588s.828-.488 1.416-.488l.475.023c.173.016.32.043.442.08a.66.66 0 0 1 .023.166v.166c0 .298-.042.604-.125.918-.07-.016-.14-.027-.213-.034a1.63 1.63 0 0 0-.2-.012c-.137 0-.252.015-.344.046a.43.43 0 0 0-.223.166c-.058.08-.1.193-.127.34s-.04.336-.04.573v6.02c-.275.046-.543.07-.803.07-.268 0-.54-.023-.814-.07"/></clipPath><clipPath id="AV"><path d="M215.28 76.176c-.138-.007-.272-.022-.4-.046v-8.393c.136-.024.272-.038.406-.046l.396-.012.402.012a3.63 3.63 0 0 1 .412.046v3.12c0 .32.036.582.11.78s.164.354.275.464a.83.83 0 0 0 .373.224c.138.04.27.058.4.058.313 0 .535-.112.664-.332s.196-.54.196-.953v-3.36a3.6 3.6 0 0 1 .413-.046l.4-.012.402.012c.136.008.274.022.412.046v3.795c0 .788-.17 1.364-.5 1.732s-.84.55-1.496.55c-.238 0-.448-.03-.63-.09s-.34-.136-.47-.224a1.89 1.89 0 0 1-.328-.275l-.21-.247v3.153c-.138.024-.275.04-.412.046l-.402.012c-.13 0-.264-.005-.4-.012"/></clipPath><clipPath id="AW"><path d="M222.877 73.574a2.43 2.43 0 0 1-.883-.661 2.82 2.82 0 0 1-.527-.991c-.12-.382-.178-.79-.178-1.227s.06-.84.178-1.215.294-.7.527-.98a2.38 2.38 0 0 1 .883-.654c.354-.157.773-.235 1.255-.235s.902.078 1.26.235.658.375.895.654.412.606.527.98.172.78.172 1.215-.057.845-.172 1.227a2.71 2.71 0 0 1-.527.991c-.237.28-.536.5-.895.66s-.78.24-1.26.24-.9-.08-1.255-.24m.344-4.25c-.188.317-.28.774-.28 1.37s.093 1.053.28 1.372.49.475.91.475c.428 0 .737-.16.923-.475s.282-.775.282-1.372-.094-1.053-.282-1.37-.495-.476-.923-.476c-.42 0-.724.16-.91.476"/></clipPath><linearGradient id="AX" gradientUnits="userSpaceOnUse"/></defs><g transform="matrix(1.333333 0 0 -1.333333 -52.506665 139.34933)"><g clip-path="url(#A)"><path d="M50.54 100.782a3.73 3.73 0 1 1 7.46 0 3.73 3.73 0 1 1-7.46 0" fill="url(#B)"/></g><g clip-path="url(#C)"><path d="M41.867 95.81v-4.975h4.973c2.747 0 4.975-2.225 4.975-4.973V73.427h4.973V85.86a9.95 9.95 0 0 1-9.948 9.948z" fill="url(#D)"/></g><g clip-path="url(#E)"><path d="M41.867 95.81v-4.975h4.973l.51-.025a9.94 9.94 0 0 0 9.439-9.922v4.974a9.95 9.95 0 0 1-9.948 9.948z" fill="url(#F)"/></g><g clip-path="url(#G)"><path d="M39.38 83.375h9.947v4.973H39.38z" fill="url(#H)"/></g><g clip-path="url(#I)"><path d="M56.788 90.834h9.947v4.974h-9.947z" fill="url(#J)"/></g><g clip-path="url(#K)"><path d="M44.354 80.887V74.67c0-2.746-2.227-4.973-4.974-4.973v-4.974a9.95 9.95 0 0 1 9.947 9.947v6.217z" fill="url(#L)"/></g><g clip-path="url(#M)"><path d="M39.89 69.723a5.04 5.04 0 0 0-.509-.026v-4.974a9.95 9.95 0 0 1 9.947 9.947v4.975a9.94 9.94 0 0 0-9.438-9.922" fill="url(#N)"/></g><g clip-path="url(#O)"><path d="M87.44 104.262V87.35c0-1.992-.79-3.193-2.56-3.193-1.802 0-2.593 1.2-2.593 3.193v16.912h-2.435V87.476c0-3.35 1.55-5.594 4.932-5.594 3.415 0 4.964 2.244 4.964 5.594v16.786z" fill="url(#P)"/></g><g clip-path="url(#Q)"><path d="M75.534 104.262v-16.98c0-2.265-.99-3.032-2.617-3.127l-1.245.03v-2.265c.543-.065 1-.033 1.565-.033 2.68.065 4.755 1.373 4.755 5.554v16.82z" fill="url(#R)"/></g><g clip-path="url(#S)"><path d="M91.042 98.777c0-6.175 7.334-6.646 7.334-11.535 0-1.976-.814-3.135-2.57-3.135s-2.57 1.16-2.57 3.135v1.38h-2.288v-1.254c0-3.322 1.568-5.485 4.92-5.485s4.953 2.163 4.953 5.485c0 6.175-7.366 6.645-7.366 11.566 0 1.944.752 3.104 2.507 3.104s2.507-1.16 2.507-3.135v-.72h2.32v.596c0 3.323-1.568 5.485-4.9 5.485-3.29 0-4.858-2.1-4.858-5.485" fill="url(#T)"/></g><g clip-path="url(#U)"><path d="M101.67 104.262v-2.27h4.125v-20.1h2.494v20.1h4.125v2.27z" fill="url(#V)"/></g><g clip-path="url(#W)"><path d="M113.652 81.882h2.494v22.38h-2.494z" fill="url(#X)"/></g><g clip-path="url(#Y)"><path d="M117.867 98.746V87.398c0-3.16 1.42-5.295 4.445-5.497v-1.135h.268c.924 0 1.46-.308 1.46-.842 0-.563-.476-.9-1.28-.9-.774.055-1.22.364-1.22.814v.197h-1.52v-.225c0-1.096 1.012-1.743 2.74-1.743 1.788 0 2.83.675 2.83 1.8 0 .9-.804 1.434-2.204 1.434v.605c2.972.247 4.356 2.372 4.356 5.492v2.728h-2.32v-2.853c0-1.975-.784-3.166-2.57-3.166-1.756 0-2.57 1.19-2.57 3.166V98.87c0 1.975.814 3.166 2.57 3.166 1.786 0 2.57-1.19 2.57-3.166v-2.1h2.32v1.974c0 3.322-1.567 5.516-4.953 5.516-3.353 0-4.92-2.194-4.92-5.516" fill="url(#Z)"/></g><g clip-path="url(#a)"><path d="M133.172 104.262l-4.284-22.38h2.302l.863 4.507h5.66l.863-4.507h2.494l-4.284 22.38zm1.663-2.813l2.526-12.917h-4.988z" fill="url(#b)"/></g><g clip-path="url(#c)"><path d="M146.044 104.262v-22.38h5.243c3.485 0 5.083 2.1 5.083 5.53V98.7c0 3.453-1.598 5.563-5.083 5.563zm2.494-2.27h2.685c1.822 0 2.686-1.118 2.686-3.165v-11.51c0-2.045-.864-3.164-2.653-3.164h-2.718z" fill="url(#d)"/></g><g clip-path="url(#e)"><path d="M158.023 98.746V87.398c0-3.322 1.66-5.516 5.015-5.516 3.385 0 5.047 2.194 5.047 5.516v11.348c0 3.354-1.662 5.516-5.047 5.516-3.355 0-5.015-2.162-5.015-5.516m2.413-11.473V98.87c0 1.975.846 3.166 2.602 3.166 1.787 0 2.602-1.19 2.602-3.166V87.273c0-2.007-.815-3.166-2.602-3.166-1.756 0-2.602 1.16-2.602 3.166" fill="url(#f)"/></g><g clip-path="url(#g)"><path d="M172.064 104.262v-2.27h4.124v-20.1h2.494v20.1h4.124v2.27z" fill="url(#h)"/></g><g clip-path="url(#i)"><path d="M184.706 104.262v-22.38h2.494v9.56h1.76c2.078 0 3.26-.798 3.26-3.325V84.6c0-1.503.128-2.078.415-2.717h2.526c-.415.767-.447 1.694-.447 2.686v3.484c0 2.4-.768 4.06-2.813 4.67 1.918.607 2.78 2.14 2.78 4.604v1.823c0 3.324-1.47 5.114-4.988 5.114zm2.494-2.27h2.43c1.855 0 2.6-1.054 2.6-3.07V96.78c0-2.43-1.183-3.07-3.165-3.07H187.2z" fill="url(#j)"/></g><g clip-path="url(#k)"><path d="M200.78 104.262l-4.285-22.38h2.302l.863 4.507h5.66l.863-4.507h2.494l-4.284 22.38zm1.662-2.813l2.527-12.917h-4.988z" fill="url(#l)"/></g><g clip-path="url(#m)"><path d="M210.302 104.262v-22.38h5.148c3.485 0 5.116 1.886 5.116 5.243v1.887c0 2.46-.832 4.188-3.005 4.795 1.95.608 2.62 2.078 2.62 4.445v1.054c0 3.294-1.375 4.956-4.86 4.956zm2.494-2.27h2.46c1.79 0 2.463-.96 2.463-2.942v-1.3c0-2.334-1.023-2.974-3.005-2.974h-1.92zm0-9.495h2.174c2.142 0 3.133-.83 3.133-3.325V87.19c0-2.08-.83-3.037-2.653-3.037h-2.654z" fill="url(#n)"/></g><g clip-path="url(#o)"><path d="M225.383 104.262l-4.284-22.38h2.303l.863 4.507h5.66l.863-4.507h2.494l-4.284 22.38zm1.664-2.813l2.525-12.917h-4.988z" fill="url(#p)"/></g><g clip-path="url(#q)"><path d="M235.153 104.262v-22.38h8.888v2.27h-6.394v20.1z" fill="url(#r)"/></g><g clip-path="url(#s)"><path d="M253.613 104.262V94.19h-5.5v10.07h-2.493v-22.38h2.493v10.07h5.5v-10.07h2.494v22.38z" fill="url(#t)"/></g><g clip-path="url(#u)"><path d="M258.023 98.746V87.398c0-3.322 1.66-5.516 5.015-5.516 3.385 0 5.047 2.194 5.047 5.516v11.348c0 3.354-1.662 5.516-5.047 5.516-3.355 0-5.015-2.162-5.015-5.516m2.413-11.473V98.87c0 1.975.847 3.166 2.602 3.166 1.787 0 2.6-1.19 2.6-3.166V87.273c0-2.007-.814-3.166-2.6-3.166-1.755 0-2.602 1.16-2.602 3.166" fill="url(#v)"/></g><g clip-path="url(#w)"><path d="M72.256 75.993a3.55 3.55 0 0 1-.069-.699c0-.253.023-.494.07-.723h2.053v-6.823l.452-.046.42-.01.4.018.413.04v6.823h2.052c.046.23.07.47.07.723a3.55 3.55 0 0 1-.069.699z" fill="url(#x)"/></g><g clip-path="url(#y)"><path d="M80.305 73.464a2.91 2.91 0 0 1-.619-.636l-.03.2-.04.24-.053.23a.59.59 0 0 1-.063.166l-.326.058c-.112.015-.224.023-.338.023a2.94 2.94 0 0 1-.339-.018l-.327-.05v-5.94a4.06 4.06 0 0 1 .419-.046l.396-.012.4.012c.138.008.275.022.413.046v2.82c0 .413.047.735.142.963s.217.402.362.517.298.185.46.21a2.64 2.64 0 0 0 .435.041h.19c.103 0 .197-.008.282-.023.03.138.05.283.063.436l.017.424-.01.3c-.008.1-.02.187-.035.263a.97.97 0 0 1-.218.035l-.264.012c-.367 0-.672-.094-.917-.282" fill="url(#x)"/></g><g clip-path="url(#z)"><path d="M83.28 76.262l-.42-.05c-.046-.268-.07-.524-.07-.768 0-.252.023-.51.07-.77.13-.023.27-.04.424-.046l.413-.01.42.01a3.3 3.3 0 0 1 .418.046c.024.13.038.26.046.4l.012.38-.012.383c-.008.126-.022.255-.046.385a4.18 4.18 0 0 1-.424.051l-.425.017c-.122 0-.257-.005-.406-.017m-.946-2.585a2.7 2.7 0 0 1-.069-.609 3.21 3.21 0 0 1 .017-.315c.01-.11.03-.215.052-.315h.767v-4.7a4.82 4.82 0 0 1 .792-.069c.26 0 .528.023.802.07v5.93z" fill="url(#x)"/></g><g clip-path="url(#AA)"><path d="M86.28 76.13v-8.187a4.13 4.13 0 0 1 .481-.142 5.33 5.33 0 0 1 .551-.104l.567-.062.533-.024c.528 0 1 .074 1.422.224s.776.36 1.067.635a2.72 2.72 0 0 1 .664 1.005c.153.393.23.838.23 1.335 0 .512-.062.955-.184 1.33s-.29.686-.504.934a2.02 2.02 0 0 1-.762.557 2.5 2.5 0 0 1-.958.183c-.344 0-.65-.066-.917-.2s-.46-.304-.574-.51v3.027c-.275.046-.546.07-.814.07-.26 0-.527-.023-.802-.07m1.91-7.155a1.22 1.22 0 0 0-.293.058v2.155c0 .436.098.755.293.957s.445.305.75.305c.42 0 .718-.144.894-.43s.264-.707.264-1.257c0-.62-.142-1.073-.425-1.365s-.673-.435-1.17-.435l-.315.01" fill="url(#x)"/></g><g clip-path="url(#AB)"><path d="M96.53 73.677v-4.644a2.7 2.7 0 0 0-.711-.08c-.207 0-.386.024-.54.074s-.28.133-.384.252-.18.28-.23.483-.075.46-.075.773v3.142c-.275.046-.546.07-.814.07s-.54-.023-.813-.07V70.49c0-.635.08-1.142.24-1.525s.376-.673.648-.872a2.22 2.22 0 0 1 .946-.39 6.8 6.8 0 0 1 1.123-.091c.436 0 .855.04 1.257.12s.723.162.968.247v5.7c-.276.046-.547.07-.815.07-.26 0-.526-.023-.802-.07" fill="url(#x)"/></g><g clip-path="url(#AC)"><path d="M102.262 73.728c-.176-.058-.334-.13-.476-.223s-.265-.195-.372-.3-.2-.23-.276-.344l-.028.196-.04.234-.052.23a.65.65 0 0 1-.063.167l-.3.05c-.1.012-.213.018-.344.018a3.21 3.21 0 0 1-.355-.018l-.32-.05v-5.93c.275-.046.547-.07.814-.07s.54.023.815.07v3.108c0 .32.033.582.102.78s.16.354.27.464a.82.82 0 0 0 .373.224c.138.04.27.058.4.058.313 0 .533-.112.66-.332s.19-.54.19-.953v-3.348c.275-.046.546-.07.815-.07a4.92 4.92 0 0 1 .813.069v3.784c0 .788-.17 1.364-.5 1.732s-.846.55-1.52.55c-.215 0-.4-.028-.585-.086" fill="url(#x)"/></g><g clip-path="url(#AD)"><path d="M107.422 73.734a6.01 6.01 0 0 1-1.009-.253c0-.243.027-.454.08-.63s.134-.363.24-.562c.466.16.906.24 1.318.24.19 0 .365-.012.522-.035a1.05 1.05 0 0 0 .396-.131.68.68 0 0 0 .251-.27c.062-.115.093-.263.093-.447V71.5l-.733.034c-.307 0-.612-.033-.918-.097a2.65 2.65 0 0 1-.831-.322c-.25-.148-.452-.348-.61-.596s-.234-.557-.234-.923.062-.677.19-.93a1.6 1.6 0 0 1 .539-.619 2.31 2.31 0 0 1 .837-.345 5.24 5.24 0 0 1 1.072-.102 6.69 6.69 0 0 1 1.296.114l.974.24v3.44c0 .84-.223 1.453-.67 1.835s-1.068.573-1.862.573c-.292 0-.605-.028-.94-.08m.9-4.844c-.134.01-.26.04-.378.09a.76.76 0 0 0-.304.234c-.085.108-.126.26-.126.46 0 .298.11.515.327.65s.514.2.888.2c.084 0 .18-.004.286-.016l.3-.04v-1.513l-.3-.052c-.114-.02-.23-.03-.344-.03a3.96 3.96 0 0 0-.349.018" fill="url(#x)"/></g><g clip-path="url(#AE)"><path d="M112.295 76.13v-6.375c0-.734.178-1.263.533-1.588s.828-.488 1.416-.488l.475.023a2.19 2.19 0 0 1 .442.081.66.66 0 0 1 .023.166v.166c0 .298-.042.604-.126.918-.07-.016-.14-.027-.212-.034a1.63 1.63 0 0 0-.2-.012 1.09 1.09 0 0 0-.345.046.43.43 0 0 0-.223.166c-.058.08-.1.193-.127.34a3.35 3.35 0 0 0-.04.573v6.02c-.275.046-.543.07-.802.07-.268 0-.54-.023-.814-.07" fill="url(#x)"/></g><g clip-path="url(#AF)"><path d="M120.046 75.975c-.344-.102-.638-.255-.883-.458a2.06 2.06 0 0 1-.568-.75c-.133-.3-.2-.643-.2-1.033a2.52 2.52 0 0 1 .121-.826c.08-.23.192-.426.338-.6a2.1 2.1 0 0 1 .528-.425c.206-.118.44-.227.7-.326l.7-.264.4-.166a1.56 1.56 0 0 0 .35-.213c.102-.083.187-.187.252-.31a.98.98 0 0 0 .098-.458c0-.368-.138-.64-.413-.82s-.655-.27-1.136-.27a3.98 3.98 0 0 0-.906.098c-.282.064-.585.162-.906.292l-.217-.728c-.06-.24-.103-.472-.126-.693l.55-.196a5.18 5.18 0 0 1 .533-.131c.18-.035.368-.06.568-.074l.677-.024c.51 0 .964.065 1.358.195s.724.31.992.538a2.3 2.3 0 0 1 .613.826 2.61 2.61 0 0 1 .213 1.067c0 .374-.046.69-.14.946s-.22.474-.384.654a2.13 2.13 0 0 1-.602.452c-.236.123-.5.24-.8.356l-.688.263-.345.143a1.45 1.45 0 0 0-.309.184.79.79 0 0 0-.217.264c-.054.103-.08.232-.08.384 0 .19.034.345.103.464a.72.72 0 0 0 .264.27 1.08 1.08 0 0 0 .361.126 2.22 2.22 0 0 0 .396.034l.573-.028c.168-.02.32-.045.453-.075s.26-.07.38-.114l.35-.138c.2.427.32.864.366 1.308a8.45 8.45 0 0 1-1.071.297c-.34.07-.705.103-1.095.103-.43 0-.815-.05-1.158-.155" fill="url(#x)"/></g><g clip-path="url(#AG)"><path d="M128.346 73.677v-4.644c-.2-.053-.427-.08-.7-.08-.206 0-.386.024-.54.074s-.28.133-.383.252-.18.28-.23.483-.074.46-.074.773v3.142c-.276.046-.548.07-.815.07s-.54-.023-.814-.07V70.49c0-.635.08-1.142.24-1.525s.376-.673.648-.872a2.22 2.22 0 0 1 .946-.39 6.8 6.8 0 0 1 1.123-.091c.435 0 .854.04 1.255.12l.97.247v5.7c-.276.046-.548.07-.815.07-.26 0-.527-.023-.803-.07" fill="url(#x)"/></g><g clip-path="url(#AH)"><path d="M134.01 73.728c-.176-.058-.335-.13-.476-.223s-.262-.197-.36-.316-.184-.24-.253-.36l-.03.2-.046.246-.056.235a.69.69 0 0 1-.063.167 3.22 3.22 0 0 1-.654.069 4.59 4.59 0 0 1-.35-.012c-.103-.008-.21-.023-.315-.046V65.03l.42-.046.396-.01.394.01a4.62 4.62 0 0 1 .419.046v2.636l.315-.038.384-.018c.505 0 .956.074 1.354.224s.734.36 1.008.635a2.74 2.74 0 0 1 .631 1.005c.145.393.22.838.22 1.335 0 .512-.06.955-.18 1.33s-.285.686-.498.934-.465.434-.752.557a2.35 2.35 0 0 1-.923.183c-.213 0-.41-.028-.584-.086m-.975-4.72v2.02a2.45 2.45 0 0 0 .057.539c.04.168.1.316.183.442s.194.225.327.297.297.1.488.1a1.01 1.01 0 0 0 .522-.127c.14-.084.258-.198.35-.344a1.5 1.5 0 0 0 .196-.521 3.68 3.68 0 0 0 .057-.66c0-.62-.126-1.082-.38-1.388s-.615-.46-1.09-.46a2.55 2.55 0 0 0-.711.092" fill="url(#x)"/></g><g clip-path="url(#AI)"><path d="M139.53 73.568a2.58 2.58 0 0 1-.894-.672c-.24-.282-.422-.615-.545-.997a4.01 4.01 0 0 1-.183-1.226c0-.443.06-.853.178-1.228a2.53 2.53 0 0 1 .55-.968c.248-.27.57-.484.963-.637s.866-.23 1.416-.23c.75 0 1.422.114 2.018.343-.007.246-.042.475-.102.688s-.134.398-.22.552c-.244-.093-.502-.163-.774-.213s-.537-.074-.796-.074c-.475 0-.857.102-1.147.308s-.45.54-.482 1h3.807a3.88 3.88 0 0 1 .04.338l.017.43c0 .398-.057.77-.172 1.117s-.284.65-.5.9-.5.45-.82.597-.688.217-1.1.217c-.475 0-.89-.082-1.245-.246m.35-1.313c.2.214.49.32.872.32.336 0 .598-.113.785-.338s.288-.522.304-.9h-2.317c.04.39.157.692.356.907" fill="url(#x)"/></g><g clip-path="url(#AJ)"><path d="M146.795 73.464c-.244-.187-.45-.398-.62-.636l-.03.2-.04.24-.05.23c-.02.073-.04.127-.063.166l-.327.058c-.11.015-.223.023-.34.023a2.96 2.96 0 0 1-.338-.018l-.327-.05v-5.94a4.06 4.06 0 0 1 .419-.046l.396-.012.4.012c.138.008.276.022.412.046v2.82c0 .413.048.735.144.963s.216.402.36.517.298.185.458.21a2.66 2.66 0 0 0 .436.041h.2c.103 0 .197-.008.28-.023a3.24 3.24 0 0 1 .064.436l.017.424-.012.3a2.15 2.15 0 0 1-.034.263.96.96 0 0 1-.218.035l-.264.012c-.367 0-.673-.094-.917-.282" fill="url(#x)"/></g><g clip-path="url(#AK)"><path d="M149.77 76.262l-.42-.05a4.54 4.54 0 0 1-.068-.768 4.41 4.41 0 0 1 .068-.769c.13-.023.27-.04.424-.046l.413-.01.42.01a3.28 3.28 0 0 1 .418.046c.023.13.038.26.046.4l.012.38-.012.383a3.48 3.48 0 0 1-.046.385c-.13.023-.27.04-.424.05l-.424.017c-.123 0-.26-.005-.407-.017m-.946-2.585a2.7 2.7 0 0 1-.069-.609c0-.1.005-.204.017-.315a2.38 2.38 0 0 1 .052-.315h.768v-4.7c.275-.046.54-.07.792-.07.26 0 .527.023.802.07v5.93z" fill="url(#x)"/></g><g clip-path="url(#AL)"><path d="M154.048 73.574c-.357-.16-.65-.38-.884-.66a2.82 2.82 0 0 1-.527-.991c-.12-.382-.178-.79-.178-1.227s.06-.84.178-1.215.294-.7.527-.98.527-.497.884-.654.774-.235 1.255-.235.902.078 1.26.235.657.375.895.654a2.75 2.75 0 0 1 .527.98 4.15 4.15 0 0 1 .172 1.215 4.27 4.27 0 0 1-.172 1.227c-.114.382-.292.713-.527.99s-.536.5-.895.66-.78.24-1.26.24-.9-.08-1.255-.24m.343-4.25c-.187.317-.28.774-.28 1.37s.093 1.053.28 1.372.49.475.912.475c.428 0 .735-.16.923-.475s.28-.775.28-1.372-.093-1.053-.28-1.37-.495-.476-.923-.476c-.42 0-.724.16-.912.476" fill="url(#x)"/></g><g clip-path="url(#AM)"><path d="M161.575 73.464a2.91 2.91 0 0 1-.619-.636l-.03.2-.04.24-.052.23a.62.62 0 0 1-.063.166l-.326.058a2.53 2.53 0 0 1-.339.023c-.122 0-.236-.006-.338-.018l-.327-.05v-5.94a4.03 4.03 0 0 1 .419-.046l.395-.012.4.012c.14.008.276.022.413.046v2.82c0 .413.048.735.143.963s.216.402.362.517.298.185.458.21a2.65 2.65 0 0 0 .436.041h.19c.103 0 .197-.008.28-.023a3.09 3.09 0 0 1 .063.436l.018.424-.012.3a2.15 2.15 0 0 1-.034.263.98.98 0 0 1-.219.035l-.263.012c-.367 0-.673-.094-.917-.282" fill="url(#x)"/></g><g clip-path="url(#AN)"><path d="M170.536 76.176a3.36 3.36 0 0 1-.407-.046V73.7a2.26 2.26 0 0 1-.43.075l-.43.018c-.46 0-.875-.083-1.25-.248a2.84 2.84 0 0 1-.957-.67 2.92 2.92 0 0 1-.608-1.003c-.14-.386-.212-.797-.212-1.233 0-.55.083-1.017.246-1.4s.388-.693.67-.934.6-.417.98-.528.76-.166 1.164-.166c.527 0 .976.03 1.347.086a8.32 8.32 0 0 1 1.094.246v8.187c-.137.024-.274.04-.413.046l-.4.012c-.13 0-.26-.005-.394-.012m-1.715-7.138a1.18 1.18 0 0 0-.476.281c-.134.13-.24.304-.315.522a2.41 2.41 0 0 0-.115.797 3.06 3.06 0 0 0 .086.728 1.77 1.77 0 0 0 .269.607 1.39 1.39 0 0 0 .465.413c.188.104.407.156.66.156a3.01 3.01 0 0 0 .362-.018c.095-.012.22-.036.373-.074v-3.406c-.13-.038-.25-.063-.357-.074a3.48 3.48 0 0 0-.355-.017c-.214 0-.413.028-.596.085" fill="url(#x)"/></g><g clip-path="url(#AO)"><path d="M174.57 73.574a2.44 2.44 0 0 1-.883-.661c-.233-.278-.408-.61-.527-.99s-.177-.79-.177-1.227.058-.84.177-1.215.294-.7.527-.98a2.39 2.39 0 0 1 .883-.654c.356-.157.774-.235 1.256-.235s.902.078 1.262.235.656.375.893.654.413.606.528.98.172.78.172 1.215-.057.845-.172 1.227-.29.713-.528.99-.534.5-.893.66-.78.24-1.262.24-.9-.08-1.256-.24m.345-4.25c-.188.317-.282.774-.282 1.37s.094 1.053.282 1.372.5.475.91.475c.428 0 .736-.16.922-.475s.282-.775.282-1.372-.094-1.053-.282-1.37-.494-.476-.922-.476c-.42 0-.725.16-.91.476" fill="url(#x)"/></g><g clip-path="url(#AP)"><path d="M182.04 75.993c-.047-.23-.068-.463-.068-.7 0-.253.02-.494.068-.723h2.053v-6.823l.452-.046.418-.01.402.018.413.04v6.823h2.052a3.59 3.59 0 0 1 .069.723c0 .236-.022.47-.07.7z" fill="url(#x)"/></g><g clip-path="url(#AQ)"><path d="M190.1 73.464a2.91 2.91 0 0 1-.619-.636l-.03.2-.04.24-.05.23c-.02.073-.04.127-.064.166l-.327.058c-.11.015-.223.023-.338.023-.122 0-.235-.006-.338-.018l-.327-.05v-5.94a4.01 4.01 0 0 1 .418-.046l.396-.012.402.012c.138.008.274.022.412.046v2.82c0 .413.048.735.143.963s.216.402.362.517.298.185.458.21a2.66 2.66 0 0 0 .436.041h.19c.104 0 .197-.008.28-.023a3.09 3.09 0 0 1 .063.436l.017.424-.01.3c-.007.1-.02.187-.035.263a.95.95 0 0 1-.217.035l-.264.012c-.367 0-.673-.094-.917-.282" fill="url(#x)"/></g><g clip-path="url(#AR)"><path d="M193.518 73.734a6.01 6.01 0 0 1-1.009-.253 2.17 2.17 0 0 1 .08-.63c.054-.176.134-.363.24-.562a4.05 4.05 0 0 0 1.319.241 3.6 3.6 0 0 0 .521-.035c.157-.022.3-.067.396-.13s.19-.155.252-.27.092-.263.092-.447V71.5l-.734.034a4.46 4.46 0 0 1-.917-.097 2.66 2.66 0 0 1-.831-.322c-.248-.148-.45-.348-.608-.596s-.235-.557-.235-.923.063-.677.19-.93a1.6 1.6 0 0 1 .539-.619 2.31 2.31 0 0 1 .837-.345 5.24 5.24 0 0 1 1.072-.102c.482 0 .913.038 1.295.114l.975.24v3.44c0 .84-.223 1.453-.67 1.835s-1.07.573-1.864.573a6.19 6.19 0 0 1-.94-.08m.9-4.844c-.135.01-.26.04-.38.09a.76.76 0 0 0-.304.234c-.084.108-.126.26-.126.46 0 .298.11.515.326.65s.514.2.9.2a2.56 2.56 0 0 0 .286-.016l.298-.04v-1.513l-.298-.052a2.1 2.1 0 0 0-.344-.029 3.94 3.94 0 0 0-.349.018" fill="url(#x)"/></g><g clip-path="url(#AS)"><path d="M198.415 76.13v-8.187a4.17 4.17 0 0 1 .48-.142 5.38 5.38 0 0 1 .551-.104l.568-.062.533-.024c.527 0 1.002.074 1.422.224a2.99 2.99 0 0 1 1.066.635c.3.276.512.6.666 1.005s.228.838.228 1.335c0 .512-.06.955-.183 1.33s-.3.686-.504.934-.47.434-.763.557-.614.183-.957.183-.65-.066-.917-.2-.46-.304-.574-.51v3.027c-.275.046-.547.07-.814.07-.26 0-.527-.023-.802-.07m1.908-7.155a1.19 1.19 0 0 0-.292.058v2.155c0 .436.097.755.292.957s.446.305.75.305c.42 0 .72-.144.895-.43s.264-.707.264-1.257c0-.62-.142-1.073-.425-1.365s-.672-.435-1.17-.435l-.316.01" fill="url(#x)"/></g><g clip-path="url(#AT)"><path d="M206.267 73.734a6.02 6.02 0 0 1-1.008-.253 2.17 2.17 0 0 1 .08-.63c.054-.176.134-.363.24-.562.466.16.906.24 1.318.24.192 0 .366-.012.522-.035a1.05 1.05 0 0 0 .396-.131c.107-.065.19-.155.252-.27s.092-.263.092-.447V71.5l-.734.034a4.46 4.46 0 0 1-.917-.097c-.306-.065-.584-.172-.832-.322a1.82 1.82 0 0 1-.607-.596c-.157-.248-.235-.557-.235-.923s.063-.677.19-.93a1.61 1.61 0 0 1 .539-.619 2.31 2.31 0 0 1 .837-.345 5.24 5.24 0 0 1 1.072-.102c.482 0 .913.038 1.296.114l.974.24v3.44c0 .84-.224 1.453-.67 1.835s-1.07.573-1.864.573c-.3 0-.604-.028-.94-.08m.9-4.844c-.134.01-.26.04-.378.09a.76.76 0 0 0-.304.234c-.084.108-.126.26-.126.46 0 .298.108.515.327.65s.513.2.888.2a2.58 2.58 0 0 0 .287-.016l.298-.04v-1.513l-.298-.052a2.1 2.1 0 0 0-.344-.029 3.96 3.96 0 0 0-.35.018" fill="url(#x)"/></g><g clip-path="url(#AU)"><path d="M211.14 76.13v-6.375c0-.734.178-1.263.533-1.588s.828-.488 1.416-.488l.475.023c.173.016.32.043.442.08a.66.66 0 0 1 .023.166v.166c0 .298-.042.604-.125.918-.07-.016-.14-.027-.213-.034a1.63 1.63 0 0 0-.2-.012c-.137 0-.252.015-.344.046a.43.43 0 0 0-.223.166c-.058.08-.1.193-.127.34s-.04.336-.04.573v6.02c-.275.046-.543.07-.803.07-.268 0-.54-.023-.814-.07" fill="url(#x)"/></g><g clip-path="url(#AV)"><path d="M215.28 76.176c-.138-.007-.272-.022-.4-.046v-8.393c.136-.024.272-.038.406-.046l.396-.012.402.012a3.63 3.63 0 0 1 .412.046v3.12c0 .32.036.582.11.78s.164.354.275.464a.83.83 0 0 0 .373.224c.138.04.27.058.4.058.313 0 .535-.112.664-.332s.196-.54.196-.953v-3.36a3.6 3.6 0 0 1 .413-.046l.4-.012.402.012c.136.008.274.022.412.046v3.795c0 .788-.17 1.364-.5 1.732s-.84.55-1.496.55c-.238 0-.448-.03-.63-.09s-.34-.136-.47-.224a1.89 1.89 0 0 1-.328-.275l-.21-.247v3.153c-.138.024-.275.04-.412.046l-.402.012c-.13 0-.264-.005-.4-.012" fill="url(#x)"/></g><g clip-path="url(#AW)"><path d="M222.877 73.574a2.43 2.43 0 0 1-.883-.661 2.82 2.82 0 0 1-.527-.991c-.12-.382-.178-.79-.178-1.227s.06-.84.178-1.215.294-.7.527-.98a2.38 2.38 0 0 1 .883-.654c.354-.157.773-.235 1.255-.235s.902.078 1.26.235.658.375.895.654.412.606.527.98.172.78.172 1.215-.057.845-.172 1.227a2.71 2.71 0 0 1-.527.991c-.237.28-.536.5-.895.66s-.78.24-1.26.24-.9-.08-1.255-.24m.344-4.25c-.188.317-.28.774-.28 1.37s.093 1.053.28 1.372.49.475.91.475c.428 0 .737-.16.923-.475s.282-.775.282-1.372-.094-1.053-.282-1.37-.495-.476-.923-.476c-.42 0-.724.16-.91.476" fill="url(#x)"/></g></g></svg>