<svg xmlns="http://www.w3.org/2000/svg" height="53.027" width="36.455" viewBox="0 0 36.455 53.027"><g transform="matrix(1.333333 0 0 -1.333333 -1379.0981 304.50359)" fill="#010101"><path d="M1049.206 220.92a3.73 3.73 0 0 1 3.729 3.729 3.73 3.73 0 0 1-3.729 3.728 3.73 3.73 0 0 1-3.729-3.728 3.73 3.73 0 0 1 3.729-3.729m-6.918-6.24c2.508-.256 4.463-2.372 4.463-4.946v-12.428h4.973v12.428c0 5.5-4.454 9.942-9.945 9.942h-4.97v-4.972h4.97a5.03 5.03 0 0 0 .509-.024"/><path d="M1044.267 212.22h-9.943v-4.972h9.943zm17.398 7.458h-9.94v-4.97h9.94zm-17.4-16.158v1.243h-4.972v-6.214c0-2.574-1.956-4.7-4.463-4.946-.167-.017-.336-.024-.507-.024v-4.972c5.5 0 9.942 4.45 9.942 9.942z"/></g></svg>